<svg class="cardFeatureSVG" width="30" height="28" viewBox="0 0 30 28" fill="none" xmlns="http://www.w3.org/2000/svg">
<path d="M30 15.048V14.5565C30 14.2861 29.6625 14.0649 29.25 14.0649H0.75C0.3375 14.0649 0 14.2861 0 14.5565V15.048C0 15.3183 0.3375 15.5395 0.75 15.5395V26.353C0.3375 26.353 0 26.5742 0 26.8445V27.3361C0 27.6064 0.3375 27.8276 0.75 27.8276H29.25C29.6625 27.8276 30 27.6064 30 27.3361V26.8445C30 26.5742 29.6625 26.353 29.25 26.353V15.5395C29.6625 15.5395 30 15.3183 30 15.048ZM27 26.353H3V15.5395H27V26.353ZM6.375 24.8784H7.875C8.08125 24.8784 8.25 24.7678 8.25 24.6327V17.2598C8.25 17.1247 8.08125 17.0141 7.875 17.0141H6.375C6.16875 17.0141 6 17.1247 6 17.2598V24.6327C6 24.7678 6.16875 24.8784 6.375 24.8784ZM16.875 24.8784H18.375C18.5813 24.8784 18.75 24.7678 18.75 24.6327V17.2598C18.75 17.1247 18.5813 17.0141 18.375 17.0141H16.875C16.6687 17.0141 16.5 17.1247 16.5 17.2598V24.6327C16.5 24.7678 16.6687 24.8784 16.875 24.8784ZM22.125 24.8784H23.625C23.8313 24.8784 24 24.7678 24 24.6327V17.2598C24 17.1247 23.8313 17.0141 23.625 17.0141H22.125C21.9187 17.0141 21.75 17.1247 21.75 17.2598V24.6327C21.75 24.7678 21.9187 24.8784 22.125 24.8784ZM11.625 24.8784H13.125C13.3313 24.8784 13.5 24.7678 13.5 24.6327V17.2598C13.5 17.1247 13.3313 17.0141 13.125 17.0141H11.625C11.4187 17.0141 11.25 17.1247 11.25 17.2598V24.6327C11.25 24.7678 11.4187 24.8784 11.625 24.8784Z" fill="#676767"/>
<path d="M28.125 7.43864C28.125 4.88205 25.2375 2.69437 21.1412 1.78006L18.75 4.38029V0.812215C18.75 0.677028 18.6512 0.547377 18.4754 0.451785C18.2996 0.356193 18.0611 0.30249 17.8125 0.30249H12.1875C11.9389 0.30249 11.7004 0.356193 11.5246 0.451785C11.3488 0.547377 11.25 0.677028 11.25 0.812215V4.38029L8.85879 1.78006C4.7625 2.69437 1.875 4.88205 1.875 7.43864V9.47754H28.125V7.43864ZM29.0625 10.497H0.9375C0.68886 10.497 0.450403 10.5507 0.274587 10.6463C0.0987721 10.7419 0 10.8715 0 11.0067L0 12.0262C0 12.1614 0.0987721 12.291 0.274587 12.3866C0.450403 12.4822 0.68886 12.5359 0.9375 12.5359H29.0625C29.3111 12.5359 29.5496 12.4822 29.7254 12.3866C29.9012 12.291 30 12.1614 30 12.0262V11.0067C30 10.8715 29.9012 10.7419 29.7254 10.6463C29.5496 10.5507 29.3111 10.497 29.0625 10.497Z" fill="#676767"/>
</svg>
