<svg width="17" height="14" viewBox="0 0 17 14" fill="none" xmlns="http://www.w3.org/2000/svg">
<path d="M16.15 0H0.85C0.380508 0 0 0.380508 0 0.85V12.1832C0 12.6527 0.380508 13.0332 0.85 13.0332H16.15C16.6195 13.0332 17 12.6527 17 12.1832V0.85C17 0.380508 16.6195 0 16.15 0ZM16.4332 12.1836C16.4332 12.3399 16.3064 12.4668 16.15 12.4668H0.85C0.693613 12.4668 0.566777 12.3399 0.566777 12.1836V0.85C0.566777 0.693613 0.693613 0.566777 0.85 0.566777H16.15C16.3064 0.566777 16.4332 0.693613 16.4332 0.85V12.1836Z" fill="white"/>
<path d="M15.6082 1.13458C15.5332 1.12794 15.4588 1.15151 15.4014 1.19999L8.86466 6.69079C8.65382 6.8681 8.34602 6.8681 8.13552 6.69079L1.59882 1.19966C1.52145 1.13458 1.41487 1.11565 1.31991 1.15052C1.22462 1.18505 1.15522 1.26772 1.13763 1.36767C1.12003 1.46761 1.15688 1.56888 1.23458 1.63396L7.77094 7.12442C8.19229 7.47903 8.80755 7.47903 9.22889 7.12442L15.7653 1.63362C15.8227 1.58515 15.8589 1.51608 15.8655 1.44138C15.8722 1.36667 15.8486 1.29196 15.8001 1.23452C15.7523 1.17708 15.6829 1.14089 15.6082 1.13458Z" fill="white"/>
<path d="M5.44931 7.08561C5.34904 7.06337 5.24445 7.0969 5.17605 7.1736L1.20927 11.4236C1.13755 11.497 1.11099 11.6039 1.14054 11.7022C1.16976 11.8008 1.25011 11.8755 1.35039 11.8981C1.45066 11.9203 1.55525 11.8868 1.62365 11.8101L5.59042 7.56009C5.66214 7.48671 5.68871 7.37979 5.65915 7.28151C5.6296 7.18323 5.54992 7.10786 5.44931 7.08561Z" fill="white"/>
<path d="M11.8239 7.1736C11.7555 7.0969 11.651 7.06337 11.5507 7.08561C11.4504 7.10786 11.3701 7.1829 11.3408 7.28151C11.3116 7.38013 11.3378 7.48671 11.4096 7.56009L15.3763 11.8101C15.4839 11.9203 15.6599 11.9243 15.7725 11.8194C15.885 11.7145 15.8933 11.5385 15.7907 11.4236L11.8239 7.1736Z" fill="white"/>
</svg>
