<svg width="60" height="60" viewBox="0 0 60 60" fill="none" xmlns="http://www.w3.org/2000/svg">
<path d="M7 27H5V35H7V27Z" fill="#60859E"/>
<path d="M12 27H10V35H12V27Z" fill="#60859E"/>
<path d="M17 27H15V35H17V27Z" fill="#60859E"/>
<path d="M22 27H20V35H22V27Z" fill="#60859E"/>
<path d="M27 27H25V35H27V27Z" fill="#60859E"/>
<path d="M31 44H1C0.45 44 0 44.45 0 45V59C0 59.55 0.45 60 1 60H31C31.55 60 32 59.55 32 59V45C32 44.45 31.55 44 31 44ZM30 58H2V46H30V58Z" fill="#60859E"/>
<path d="M7 48H5V56H7V48Z" fill="#60859E"/>
<path d="M12 48H10V56H12V48Z" fill="#60859E"/>
<path d="M17 48H15V56H17V48Z" fill="#60859E"/>
<path d="M22 48H20V56H22V48Z" fill="#60859E"/>
<path d="M27 48H25V56H27V48Z" fill="#60859E"/>
<path d="M59 26H55V9.225C57.2 7.575 57.65 4.45 56 2.25C54.35 0.05 51.225 -0.4 49.025 1.25C47.8625 2.125 47.1375 3.45 47.0375 4.9L20 2.1V1C20 0.45 19.55 0 19 0H13C12.45 0 12 0.45 12 1V6C12 6.55 12.45 7 13 7H15V10C15 10.55 15.45 11 16 11H16.5C17.875 11 19 12.125 19 13.5C19 14.875 17.875 16 16.5 16C15.125 16 14 14.875 14 13.5H12C12 14.875 12.6375 16.175 13.725 17.0125L1.7625 23H1C0.45 23 0 23.45 0 24V38C0 38.55 0.45 39 1 39H31C31.55 39 32 38.55 32 38V24C32 23.45 31.55 23 31 23H29.25L18.775 17.3625C20.9125 16.1125 21.6375 13.3625 20.3875 11.225C19.675 10 18.4125 9.1875 17 9.025V7H19C19.55 7 20 6.55 20 6V4.1125L47.3125 6.9375C47.6375 7.85 48.225 8.6375 49 9.225V26H40C39.45 26 39 26.45 39 27V41H37C36.45 41 36 41.45 36 42V59C36 59.55 36.45 60 37 60H59C59.55 60 60 59.55 60 59V27C60 26.45 59.55 26 59 26ZM30 25V37H2V25H30ZM25.0375 23H6.2375L15.9875 18.125L25.0375 23ZM18 5H14V2H18V5ZM52 2.25C53.6625 2.25 55 3.5875 55 5.25C55 6.9125 53.6625 8.25 52 8.25C50.3375 8.25 49 6.9125 49 5.25C49 3.6 50.35 2.25 52 2.25ZM54 32.1375L57.325 34.9125L54 37.1375V32.1375ZM57.325 43.9125L54 46.1375V41.1375L57.325 43.9125ZM57.325 52.9125L54 55.1375V50.1375L57.325 52.9125ZM52 58H38V43H52V58ZM52 41H41V28H52V41ZM53 26H51V10.15C51.6625 10.2875 52.3375 10.2875 53 10.15V26ZM58 58H54V57.5375L58 54.875V58ZM58 50.8625L54.675 48.0875L58 45.8625V50.8625ZM58 41.8625L54.675 39.0875L58 36.8625V41.8625ZM58 32.8625L54 29.525V28H58V32.8625Z" fill="#60859E"/>
<path d="M52 3.75C51.175 3.75 50.5 4.425 50.5 5.25C50.5 6.075 51.175 6.75 52 6.75C52.825 6.75 53.5 6.075 53.5 5.25C53.5 4.425 52.825 3.75 52 3.75ZM52 5.75C51.725 5.75 51.5 5.525 51.5 5.25C51.5 4.975 51.725 4.75 52 4.75C52.275 4.75 52.5 4.975 52.5 5.25C52.5 5.525 52.275 5.75 52 5.75Z" fill="#60859E"/>
</svg>
