<svg width="33" height="33" viewBox="0 0 33 33" fill="none" xmlns="http://www.w3.org/2000/svg">
<path d="M16.1006 0.00341797C12.9358 0.00341818 9.84217 0.94195 7.21086 2.70031C4.57955 4.45867 2.52879 6.95788 1.31796 9.88184C0.10713 12.8058 -0.209381 16.0232 0.408458 19.127C1.0263 22.2309 2.55073 25.0818 4.78896 27.3192C7.02718 29.5566 9.87866 31.08 12.9827 31.6967C16.0868 32.3134 19.3041 31.9957 22.2276 30.7838C25.1511 29.5719 27.6496 27.5202 29.4069 24.8883C31.1643 22.2563 32.1017 19.1623 32.1006 15.9976C32.0959 11.7561 30.4085 7.68971 27.4088 4.69106C24.4091 1.69242 20.3421 0.00652046 16.1006 0.00341797V0.00341797ZM20.5372 9.49206C20.5372 9.55579 20.5119 9.61691 20.4668 9.66197C20.4218 9.70704 20.3607 9.73235 20.2969 9.73235H18.3746C18.1476 9.73235 17.93 9.82251 17.7695 9.98298C17.6091 10.1434 17.5189 10.3611 17.5189 10.588V12.6041H20.2559C20.289 12.6041 20.3217 12.6108 20.3521 12.624C20.3825 12.6371 20.4098 12.6564 20.4323 12.6806C20.4549 12.7048 20.4722 12.7334 20.4832 12.7647C20.4942 12.7959 20.4986 12.829 20.4962 12.862L20.2559 15.7045C20.2501 15.7641 20.2222 15.8194 20.1777 15.8595C20.1333 15.8996 20.0755 15.9216 20.0156 15.9214H17.5189V25.3455C17.5189 25.4093 17.4936 25.4704 17.4485 25.5155C17.4035 25.5605 17.3423 25.5858 17.2786 25.5858H13.8325C13.7687 25.5858 13.7076 25.5605 13.6625 25.5155C13.6175 25.4704 13.5922 25.4093 13.5922 25.3455V15.9214H11.8749C11.8429 15.9221 11.811 15.9165 11.7812 15.9048C11.7514 15.8931 11.7242 15.8755 11.7012 15.8531C11.6783 15.8307 11.6601 15.8039 11.6476 15.7744C11.6352 15.7449 11.6288 15.7131 11.6288 15.6811V12.8444C11.6288 12.8124 11.6352 12.7807 11.6476 12.7511C11.6601 12.7216 11.6783 12.6948 11.7012 12.6724C11.7242 12.65 11.7514 12.6325 11.7812 12.6207C11.811 12.609 11.8429 12.6034 11.8749 12.6041H13.5863V9.86715C13.5863 8.95007 13.9506 8.07054 14.5991 7.42207C15.2476 6.77359 16.1271 6.40928 17.0442 6.40928H20.2911C20.3231 6.40927 20.3548 6.41567 20.3844 6.42811C20.4139 6.44055 20.4407 6.45878 20.4631 6.48172C20.4855 6.50466 20.503 6.53184 20.5148 6.56167C20.5265 6.59151 20.5321 6.62339 20.5314 6.65543L20.5372 9.49206Z" fill="white"/>
</svg>
