<svg width="33" height="33" viewBox="0 0 33 33" fill="none" xmlns="http://www.w3.org/2000/svg">
<path d="M16.9746 0.00341905C13.8099 0.00225767 10.7159 0.939654 8.0839 2.69705C5.45195 4.45445 3.40027 6.9529 2.18837 9.87641C0.976468 12.7999 0.658777 16.0172 1.27548 19.1213C1.89218 22.2253 3.41557 25.0768 5.65297 27.315C7.89038 29.5533 10.7413 31.0777 13.8451 31.6955C16.949 32.3134 20.1664 31.9969 23.0903 30.786C26.0143 29.5752 28.5135 27.5245 30.2719 24.8931C32.0302 22.2618 32.9688 19.1682 32.9688 16.0034C32.9641 11.7624 31.2777 7.69633 28.2794 4.69693C25.2811 1.69753 21.2156 0.00963499 16.9746 0.00341905ZM12.9702 23.1902C12.9752 23.2268 12.9724 23.264 12.9621 23.2994C12.9518 23.3348 12.9342 23.3677 12.9104 23.3959C12.8866 23.4241 12.8572 23.447 12.824 23.4632C12.7908 23.4793 12.7546 23.4883 12.7177 23.4897H9.62343C9.58797 23.4897 9.55284 23.4827 9.52007 23.4691C9.48731 23.4555 9.45753 23.4356 9.43245 23.4105C9.40737 23.3855 9.38748 23.3557 9.3739 23.3229C9.36033 23.2901 9.35334 23.255 9.35334 23.2196V12.8445C9.35488 12.7739 9.38401 12.7067 9.4345 12.6573C9.48498 12.6079 9.55281 12.5803 9.62343 12.5803H12.7177C12.7878 12.5803 12.855 12.6081 12.9046 12.6577C12.9541 12.7072 12.982 12.7744 12.982 12.8445L12.9702 23.1902ZM11.0561 11.1946C10.6729 11.1946 10.2983 11.081 9.97961 10.8681C9.66097 10.6552 9.41263 10.3525 9.26597 9.99849C9.11932 9.64443 9.08095 9.25485 9.15571 8.87899C9.23047 8.50313 9.41501 8.15788 9.68599 7.88689C9.95697 7.61591 10.3022 7.43137 10.6781 7.35661C11.0539 7.28185 11.4435 7.32022 11.7976 7.46687C12.1516 7.61353 12.4543 7.86188 12.6672 8.18051C12.8801 8.49915 12.9937 8.87377 12.9937 9.257C12.9937 9.77088 12.7896 10.2637 12.4262 10.6271C12.0628 10.9905 11.57 11.1946 11.0561 11.1946ZM26.0168 23.1902C26.0176 23.2259 26.0112 23.2614 25.9979 23.2945C25.9846 23.3276 25.9647 23.3577 25.9395 23.383C25.9143 23.4082 25.8842 23.4281 25.851 23.4414C25.8179 23.4547 25.7824 23.4611 25.7467 23.4603H22.6642C22.629 23.4603 22.5941 23.4533 22.5617 23.4396C22.5292 23.426 22.4998 23.406 22.4752 23.3808C22.4506 23.3557 22.4313 23.3259 22.4183 23.2931C22.4054 23.2604 22.3992 23.2254 22.3999 23.1902V17.6181C22.3999 16.1561 21.8774 15.1579 20.568 15.1579C20.1594 15.1597 19.7614 15.2884 19.4291 15.5261C19.0967 15.7638 18.8464 16.0988 18.7126 16.4849C18.6135 16.7735 18.5717 17.0786 18.5893 17.3832V23.1902C18.5901 23.2254 18.5838 23.2604 18.5709 23.2931C18.558 23.3259 18.5386 23.3557 18.514 23.3808C18.4894 23.406 18.46 23.426 18.4276 23.4396C18.3951 23.4533 18.3603 23.4603 18.3251 23.4603H15.2425C15.2068 23.4611 15.1713 23.4547 15.1382 23.4414C15.1051 23.4281 15.075 23.4082 15.0497 23.383C15.0245 23.3577 15.0046 23.3276 14.9913 23.2945C14.9781 23.2614 14.9716 23.2259 14.9724 23.1902C14.9724 21.7106 15.0135 14.5355 14.9724 12.8504C14.9716 12.8147 14.9781 12.7792 14.9913 12.7461C15.0046 12.713 15.0245 12.6829 15.0497 12.6576C15.075 12.6324 15.1051 12.6125 15.1382 12.5992C15.1713 12.5859 15.2068 12.5795 15.2425 12.5803H18.3192C18.3893 12.5803 18.4565 12.6081 18.506 12.6577C18.5556 12.7072 18.5834 12.7744 18.5834 12.8445V14.0952C18.9164 13.5315 19.397 13.0695 19.9734 12.759C20.5498 12.4486 21.2 12.3015 21.8539 12.3337C24.2025 12.3337 26.0168 13.8897 26.0168 17.2306V23.1902Z" fill="white"/>
</svg>
