<svg width="17" height="17" viewBox="0 0 17 17" fill="none" xmlns="http://www.w3.org/2000/svg">
<path d="M10.0977 13.9486C11.8241 11.8843 14.5308 8.29423 14.5308 6.03247C14.5342 2.70675 11.8274 0 8.50171 0C5.17599 0 2.46924 2.70675 2.46924 6.03247C2.46924 8.29423 5.17599 11.8843 6.90242 13.9486C6.01913 14.2397 5.4838 14.7583 5.4838 15.3539C5.4838 16.2773 6.80874 17 8.49837 17C10.188 17 11.5129 16.2773 11.5129 15.3539C11.5163 14.7617 10.9809 14.2397 10.0977 13.9486ZM3.01795 6.03247C3.01795 3.00787 5.47711 0.548711 8.50171 0.548711C11.5263 0.548711 13.9855 3.00787 13.9855 6.03247C13.9855 8.73922 9.51214 13.8349 8.50171 14.949C7.49463 13.8315 3.01795 8.73588 3.01795 6.03247ZM8.50171 16.4479C7.04629 16.4479 6.03586 15.8691 6.03586 15.3505C6.03586 14.9791 6.54777 14.6044 7.29388 14.407C7.84928 15.0527 8.24408 15.4743 8.30096 15.5379L8.50171 15.752L8.70246 15.5379C8.76268 15.4743 9.15414 15.0527 9.71289 14.4037C10.4657 14.6044 10.9709 14.9791 10.9709 15.3505C10.9676 15.8691 9.95713 16.4479 8.50171 16.4479Z" fill="white"/>
<path d="M8.50175 2.46924C6.53777 2.46924 4.93848 4.06853 4.93848 6.03252C4.93848 7.99651 6.53777 9.5958 8.50175 9.5958C10.4657 9.5958 12.065 7.99651 12.065 6.03252C12.065 4.06853 10.4657 2.46924 8.50175 2.46924ZM8.50175 9.04709C6.83889 9.04709 5.48719 7.69538 5.48719 6.03252C5.48719 4.36966 6.83889 3.01795 8.50175 3.01795C10.1646 3.01795 11.5163 4.36966 11.5163 6.03252C11.5163 7.69538 10.1646 9.04709 8.50175 9.04709Z" fill="white"/>
<path d="M8.776 12.8848H8.22729V13.4335H8.776V12.8848Z" fill="white"/>
<path d="M8.776 11.7871H8.22729V12.3358H8.776V11.7871Z" fill="white"/>
<path d="M8.776 10.6899H8.22729V11.2387H8.776V10.6899Z" fill="white"/>
</svg>
