<svg width="640" height="449" viewBox="0 0 640 449" fill="none" xmlns="http://www.w3.org/2000/svg">
<path d="M32 272H368C385.7 272 400 257.7 400 240V32C400 14.3 385.7 0 368 0H32C14.3 0 0 14.3 0 32V240C0 257.7 14.3 272 32 272ZM48 48H352V224H48V48ZM621.3 173.3L562.8 114.8C550.8 102.8 534.5 96.1 517.5 96.1H464C446.3 96.1 432 110.4 432 128.1V304.1H32C14.3 304.1 0 318.4 0 336.1V363.9C0 404.7 28.7 442 69.1 447.4C99.8 451.5 127.4 437.9 144 415.7C162.4 440.4 194.4 454.4 229.3 445.4C254.5 438.9 275.4 419.2 283.7 394.6C288.6 379.8 289.1 365.4 286.5 352.2H449.7C447 365.4 447.5 379.8 452.5 394.6C460.9 419.7 482.4 439.5 508.1 445.7C560.9 458.5 608.1 418.8 608.1 368.1C608.1 362.6 607.5 357.3 606.5 352.1H624C632.8 352.1 640 344.9 640 336.1V218.5C640 201.5 633.3 185.3 621.3 173.3ZM80 400C62.4 400 48 385.6 48 368C48 350.4 62.4 336 80 336C97.6 336 112 350.4 112 368C112 385.6 97.6 400 80 400ZM208 400C190.4 400 176 385.6 176 368C176 350.4 190.4 336 208 336C225.6 336 240 350.4 240 368C240 385.6 225.6 400 208 400ZM480 144H517.5C521.8 144 525.8 145.7 528.8 148.7L572.1 192H480V144ZM528 400C510.4 400 496 385.6 496 368C496 350.4 510.4 336 528 336C545.6 336 560 350.4 560 368C560 385.6 545.6 400 528 400ZM592 304H575.6C562.3 294.1 545.9 288 528 288C510.1 288 493.8 294.1 480.4 304H480V224H592V304ZM136 80H104C99.6 80 96 83.6 96 88V184C96 188.4 99.6 192 104 192H136C140.4 192 144 188.4 144 184V88C144 83.6 140.4 80 136 80ZM296 80H264C259.6 80 256 83.6 256 88V184C256 188.4 259.6 192 264 192H296C300.4 192 304 188.4 304 184V88C304 83.6 300.4 80 296 80ZM216 80H184C179.6 80 176 83.6 176 88V184C176 188.4 179.6 192 184 192H216C220.4 192 224 188.4 224 184V88C224 83.6 220.4 80 216 80Z" fill="black"/>
</svg>
