<svg width="30" height="15" viewBox="0 0 30 15" fill="none" xmlns="http://www.w3.org/2000/svg">
<path d="M30 1.07143V0.535714C30 0.241071 29.6625 0 29.25 0H0.75C0.3375 0 0 0.241071 0 0.535714V1.07143C0 1.36607 0.3375 1.60714 0.75 1.60714V13.3929C0.3375 13.3929 0 13.6339 0 13.9286V14.4643C0 14.7589 0.3375 15 0.75 15H29.25C29.6625 15 30 14.7589 30 14.4643V13.9286C30 13.6339 29.6625 13.3929 29.25 13.3929V1.60714C29.6625 1.60714 30 1.36607 30 1.07143ZM27 13.3929H3V1.60714H27V13.3929ZM6.375 11.7857H7.875C8.08125 11.7857 8.25 11.6652 8.25 11.5179V3.48214C8.25 3.33482 8.08125 3.21429 7.875 3.21429H6.375C6.16875 3.21429 6 3.33482 6 3.48214V11.5179C6 11.6652 6.16875 11.7857 6.375 11.7857ZM16.875 11.7857H18.375C18.5813 11.7857 18.75 11.6652 18.75 11.5179V3.48214C18.75 3.33482 18.5813 3.21429 18.375 3.21429H16.875C16.6687 3.21429 16.5 3.33482 16.5 3.48214V11.5179C16.5 11.6652 16.6687 11.7857 16.875 11.7857ZM22.125 11.7857H23.625C23.8313 11.7857 24 11.6652 24 11.5179V3.48214C24 3.33482 23.8313 3.21429 23.625 3.21429H22.125C21.9187 3.21429 21.75 3.33482 21.75 3.48214V11.5179C21.75 11.6652 21.9187 11.7857 22.125 11.7857ZM11.625 11.7857H13.125C13.3313 11.7857 13.5 11.6652 13.5 11.5179V3.48214C13.5 3.33482 13.3313 3.21429 13.125 3.21429H11.625C11.4187 3.21429 11.25 3.33482 11.25 3.48214V11.5179C11.25 11.6652 11.4187 11.7857 11.625 11.7857Z" fill="black"/>
</svg>
