<svg width="16" height="16" viewBox="0 0 16 16" fill="none" xmlns="http://www.w3.org/2000/svg">
<g opacity="0.5">
<path d="M15.8712 13.2579C15.8728 13.2556 15.8749 13.2532 15.8766 13.2505C15.8843 13.239 15.8911 13.2269 15.8978 13.2148C15.8992 13.2121 15.9012 13.2097 15.9025 13.207C15.9083 13.1962 15.913 13.1851 15.918 13.1739C15.9201 13.1696 15.9224 13.1652 15.9245 13.1604C15.9298 13.1476 15.9342 13.1345 15.9383 13.1213C15.9393 13.118 15.9406 13.1149 15.9417 13.1115C15.9444 13.1028 15.946 13.094 15.9481 13.0849C15.9501 13.0765 15.9524 13.0684 15.9541 13.0599C15.9548 13.0559 15.9551 13.0518 15.9558 13.0481C15.9612 13.0168 15.9646 12.9847 15.9646 12.9513C15.9646 12.9453 15.9639 12.9392 15.9636 12.9328C15.9632 12.9173 15.9622 12.9018 15.9605 12.8869C15.9302 12.6198 15.7137 12.4228 15.4361 12.4228H14.5902V1.67396C14.5902 1.37445 14.3611 1.14544 14.0616 1.14544C13.7621 1.14544 13.5331 1.37445 13.5331 1.67396V12.4228H2.43181V1.67396C2.43181 1.37445 2.20279 1.14544 1.90328 1.14544C1.60378 1.14544 1.37476 1.37445 1.37476 1.67396V12.4228H0.528522C0.252625 12.4228 0.0367638 12.6174 0.00472195 12.8825C0.00202369 12.9051 0 12.9281 0 12.9517C0 12.98 0.00269826 13.0077 0.00674565 13.0346C0.00809478 13.0431 0.00876934 13.0518 0.0104558 13.0603C0.0114676 13.0657 0.013154 13.0711 0.0145031 13.0765C0.0172014 13.0883 0.0198997 13.1001 0.0232725 13.1115C0.0404739 13.1689 0.0674565 13.2212 0.101185 13.2677C0.1167 13.289 0.133564 13.3095 0.152114 13.3281C0.159535 13.3355 0.167629 13.3422 0.175387 13.349C0.180109 13.353 0.184493 13.3578 0.189215 13.3618C0.194612 13.3662 0.200346 13.3699 0.205742 13.3739C0.253974 13.4104 0.308613 13.4387 0.36865 13.4569C0.380117 13.4603 0.391922 13.463 0.403727 13.4657C0.409124 13.467 0.41452 13.4687 0.419917 13.4697C0.426662 13.4711 0.433745 13.4718 0.440491 13.4728C0.46916 13.4772 0.498503 13.4802 0.528859 13.4802H1.37476V14.3261C1.37476 14.6256 1.60378 14.8546 1.90328 14.8546C2.20279 14.8546 2.43181 14.6256 2.43181 14.3261V13.4802H13.5331V14.3261C13.5331 14.6256 13.7621 14.8546 14.0616 14.8546C14.3611 14.8546 14.5902 14.6256 14.5902 14.3261V13.4802H15.4361C15.4664 13.4802 15.4958 13.4772 15.5244 13.4728C15.5312 13.4718 15.5383 13.4711 15.545 13.4697C15.5531 13.468 15.5609 13.4657 15.569 13.4637C15.5781 13.4613 15.5875 13.4596 15.5963 13.4569C15.658 13.4384 15.7143 13.4087 15.7636 13.3709C15.7676 13.3679 15.7717 13.3652 15.7757 13.3618C15.7993 13.3426 15.8209 13.3207 15.8408 13.2974C15.8428 13.295 15.8449 13.293 15.8469 13.2906C15.8553 13.2805 15.8634 13.2691 15.8712 13.2579Z" fill="#60859E"/>
</g>
</svg>
