<svg width="16" height="16" viewBox="0 0 16 16" fill="none" xmlns="http://www.w3.org/2000/svg">
<g opacity="0.5">
<path d="M6.41594 3.765L5.52594 2.875C6.59 1.52469 7.48062 0.55125 7.52656 0.50125L7.98656 0L8.44687 0.50125C8.50344 0.563125 9.85094 2.03562 11.2209 3.8875C13.1153 6.44844 14.0756 8.41844 14.0756 9.74344V9.91094C14.0756 10.3784 14.0225 10.8341 13.9222 11.2716L12.8197 10.1687C12.8241 10.0834 12.8266 9.9975 12.8266 9.91094V9.74344C12.8266 8.72281 11.9019 6.91 10.2228 4.63906C9.36469 3.47812 8.4975 2.45125 7.98625 1.86437C7.60844 2.29844 7.03562 2.97312 6.41594 3.765ZM15.0909 15.9928L12.7706 13.6725C11.655 15.0887 9.92531 16 7.98656 16C4.62906 16 1.8975 13.2684 1.8975 9.91094V9.74344C1.8975 8.6025 2.61062 6.98281 4.01812 4.91969L0 0.901563L0.883125 0.0184375L15.9744 15.1094L15.0909 15.9928ZM11.8806 12.7822L4.91812 5.81969C3.76906 7.53719 3.14656 8.90687 3.14656 9.74375V9.91125C3.14656 12.58 5.31781 14.7513 7.98656 14.7513C9.58156 14.7509 10.9981 13.9753 11.8806 12.7822Z" fill="#60859E"/>
</g>
</svg>
