<svg width="16" height="16" viewBox="0 0 16 16" fill="none" xmlns="http://www.w3.org/2000/svg">
<g opacity="0.5">
<path d="M9.39575 13.3372L8.64043 12.58V8.34031L12.2473 6.2L14.5726 6.8225C14.6267 6.83688 14.6811 6.84375 14.7345 6.84375C15.0104 6.84375 15.2632 6.65938 15.3379 6.38031C15.4273 6.04688 15.2292 5.70406 14.8957 5.615L13.7498 5.30813L14.6801 4.75594C14.977 4.57969 15.0748 4.19625 14.8986 3.89937C14.7223 3.6025 14.3389 3.50469 14.042 3.68094L13.1592 4.20469C13.2648 3.7875 13.3686 3.37781 13.4332 3.12188C13.5179 2.78719 13.3154 2.44719 12.9807 2.3625C12.6461 2.27781 12.3061 2.48031 12.2214 2.815L11.642 5.105L8.63949 6.88656V3.42281L10.3595 1.72625C10.6051 1.48375 10.6079 1.08812 10.3657 0.8425C10.1232 0.596875 9.72762 0.594063 9.48199 0.836563L8.64043 1.66719V0.625C8.64043 0.279687 8.36074 0 8.01543 0C7.67012 0 7.39043 0.279687 7.39043 0.625V1.66719C7.06762 1.34875 6.74606 1.03156 6.54824 0.83625C6.30262 0.59375 5.90699 0.596563 5.66449 0.842188C5.422 1.08781 5.42481 1.48375 5.67043 1.72594L7.39074 3.42281V6.88938L4.38887 5.11625L3.77668 2.77906C3.68918 2.44531 3.34762 2.24531 3.01356 2.33313C2.67981 2.42063 2.47981 2.76219 2.56731 3.09625C2.63637 3.35969 2.74762 3.78375 2.86012 4.21344L1.95856 3.68094C1.66137 3.50531 1.27793 3.60406 1.10262 3.90125C0.926995 4.19844 1.02574 4.58156 1.32293 4.75719L2.23824 5.29781L1.11293 5.58187C0.778245 5.66625 0.575432 6.00625 0.659807 6.34094C0.731057 6.62375 0.985433 6.8125 1.26512 6.8125C1.31575 6.8125 1.36731 6.80625 1.41856 6.79344L3.76699 6.20062L6.78856 7.98562L3.74637 9.79094L1.42512 9.17719C1.09106 9.08875 0.749182 9.28781 0.661057 9.62156C0.572932 9.95531 0.771682 10.2975 1.10543 10.3856L2.23887 10.6853L1.35043 11.2125C1.05356 11.3888 0.955745 11.7722 1.13199 12.0691C1.24887 12.2659 1.45668 12.3753 1.67012 12.3753C1.77856 12.3753 1.88856 12.3472 1.98856 12.2878L2.85981 11.7709C2.74762 12.1944 2.63668 12.6119 2.56793 12.8713C2.4795 13.205 2.67824 13.5472 3.01168 13.6356C3.06543 13.65 3.11918 13.6566 3.17231 13.6566C3.44887 13.6566 3.70168 13.4716 3.77606 13.1916L4.39418 10.86L7.39074 9.08187V12.5772L5.67074 14.2738C5.42512 14.5163 5.42231 14.9119 5.66449 15.1575C5.78668 15.2816 5.94793 15.3438 6.10949 15.3438C6.26793 15.3438 6.42668 15.2837 6.54824 15.1637L7.39074 14.3328V15.375C7.39074 15.7203 7.67043 16 8.01575 16C8.36106 16 8.64075 15.7203 8.64075 15.375V14.35C8.95106 14.6613 9.25762 14.9688 9.44793 15.16C9.57012 15.2825 9.73043 15.3438 9.89075 15.3438C10.0504 15.3438 10.2101 15.2831 10.332 15.1616C10.5764 14.9178 10.577 14.5222 10.3336 14.2778L9.39575 13.3372Z" fill="#60859E"/>
<path d="M14.5725 9.1775L12.2959 9.78687L10.7085 8.84906C10.4113 8.67344 10.0281 8.77219 9.85252 9.06938C9.67689 9.36656 9.77564 9.74969 10.0728 9.92531L11.6331 10.8469L12.255 13.2209C12.3288 13.5016 12.5819 13.6875 12.8591 13.6875C12.9116 13.6875 12.965 13.6809 13.0178 13.6669C13.3519 13.5794 13.5516 13.2378 13.4638 12.9037C13.3928 12.6328 13.2772 12.1916 13.1613 11.7497L14.0725 12.2881C14.1722 12.3472 14.2819 12.375 14.3897 12.375C14.6034 12.375 14.8119 12.2653 14.9284 12.0678C15.1041 11.7706 15.0053 11.3875 14.7081 11.2119L13.8034 10.6775L14.8956 10.385C15.2291 10.2956 15.4269 9.95312 15.3378 9.61969C15.2484 9.28625 14.9056 9.08813 14.5725 9.1775Z" fill="#60859E"/>
</g>
</svg>
