<svg width="16" height="16" viewBox="0 0 16 16" fill="none" xmlns="http://www.w3.org/2000/svg">
<g opacity="0.5">
<g clip-path="url(#clip0)">
<path d="M8.01254 3.44867C5.74797 3.44867 3.89783 5.29881 3.89783 7.56338C3.89783 8.74747 4.41587 9.88715 5.28913 10.6568C5.94038 11.3081 5.88118 12.6994 5.86638 12.7142C5.86638 12.7882 5.88118 12.8474 5.94038 12.9066C5.98479 12.951 6.05879 12.9806 6.118 12.9806H9.89228C9.96629 12.9806 10.0255 12.951 10.0699 12.9066C10.1143 12.8622 10.1439 12.7882 10.1439 12.7142C10.1439 12.6994 10.0699 11.3081 10.7211 10.6568C10.7359 10.642 10.7507 10.6272 10.7655 10.6124C11.624 9.82795 12.1273 8.71786 12.1273 7.56338C12.1273 5.29881 10.2771 3.44867 8.01254 3.44867ZM10.3807 10.272C10.3659 10.2868 10.3363 10.3164 10.3363 10.3312C9.75907 10.9528 9.65546 11.9741 9.64066 12.4625H6.36961C6.35481 11.9741 6.25121 10.9084 5.62956 10.272C4.8451 9.59113 4.38626 8.59946 4.38626 7.54858C4.38626 5.55043 5.99959 3.93711 7.99774 3.93711C9.99589 3.93711 11.6092 5.55043 11.6092 7.54858C11.6092 8.59946 11.1652 9.59113 10.3807 10.272Z" fill="#60859E"/>
<path d="M7.99771 4.49954C7.8645 4.49954 7.74609 4.61795 7.74609 4.75116C7.74609 4.88437 7.8645 5.00278 7.99771 5.00278C9.49263 5.00278 10.6915 6.21647 10.6915 7.69658C10.6915 7.82979 10.8099 7.9482 10.9431 7.9482C11.0763 7.9482 11.1948 7.82979 11.1948 7.69658C11.2096 5.93525 9.77385 4.49954 7.99771 4.49954Z" fill="#60859E"/>
<path d="M9.64046 13.2618H6.35462C6.01419 13.2618 5.73297 13.543 5.73297 13.8834C5.73297 14.2239 6.01419 14.5051 6.35462 14.5051H9.62566C9.98089 14.4903 10.2621 14.2239 10.2621 13.8834C10.2621 13.543 9.98089 13.2618 9.64046 13.2618ZM9.64046 13.987H6.35462C6.29541 13.987 6.23621 13.9426 6.23621 13.8686C6.23621 13.7946 6.28061 13.7502 6.35462 13.7502H9.62566C9.68487 13.7502 9.74407 13.7946 9.74407 13.8686C9.74407 13.9426 9.69967 13.987 9.64046 13.987Z" fill="#60859E"/>
<path d="M9.15196 14.7567H6.84299C6.50256 14.7567 6.22134 15.0379 6.22134 15.3784C6.22134 15.7188 6.50256 16 6.84299 16H9.15196C9.49239 16 9.77361 15.7188 9.77361 15.3784C9.77361 15.0231 9.49239 14.7567 9.15196 14.7567ZM9.15196 15.482H6.84299C6.78379 15.482 6.72458 15.4376 6.72458 15.3636C6.72458 15.2896 6.76898 15.2452 6.84299 15.2452H9.15196C9.21117 15.2452 9.27037 15.2896 9.27037 15.3636C9.27037 15.4376 9.21117 15.482 9.15196 15.482Z" fill="#60859E"/>
<path d="M7.99772 2.22017C8.14573 2.22017 8.24934 2.10176 8.24934 1.96855V0.251619C8.24934 0.118409 8.13093 0 7.99772 0C7.8645 0 7.74609 0.118409 7.74609 0.251619V1.96855C7.74609 2.10176 7.8645 2.22017 7.99772 2.22017Z" fill="#60859E"/>
<path d="M12.1863 1.2729C12.0679 1.18409 11.9199 1.22849 11.8459 1.3321L10.8986 2.75301C10.8098 2.87142 10.8394 3.03423 10.9578 3.10823C11.0022 3.13784 11.0466 3.15264 11.091 3.15264C11.1798 3.15264 11.2538 3.10823 11.2982 3.03423L12.2455 1.61332C12.3343 1.50971 12.3047 1.3469 12.1863 1.2729Z" fill="#60859E"/>
<path d="M4.99296 3.09346C5.03737 3.09346 5.08177 3.07866 5.12617 3.04906C5.24458 2.97505 5.27418 2.81224 5.20018 2.69383L4.28251 1.25812C4.2085 1.13971 4.04569 1.11011 3.92728 1.18412C3.80887 1.25812 3.77927 1.42093 3.85327 1.53934L4.77094 2.97505C4.83015 3.06386 4.90416 3.09346 4.99296 3.09346Z" fill="#60859E"/>
<path d="M3.20207 4.66238L1.70716 3.84831C1.58875 3.78911 1.42594 3.83351 1.36674 3.95192C1.29273 4.07033 1.33713 4.23314 1.47034 4.29235L2.96525 5.10641C3.00966 5.12121 3.03926 5.13601 3.08366 5.13601C3.17247 5.13601 3.26128 5.09161 3.30568 5.0028C3.36488 4.88439 3.32048 4.72158 3.20207 4.66238Z" fill="#60859E"/>
<path d="M14.6432 3.95192C14.584 3.83351 14.4212 3.78911 14.3028 3.84831L12.793 4.66238C12.6746 4.72158 12.6302 4.88439 12.6894 5.0028C12.7338 5.09161 12.8226 5.13601 12.9115 5.13601C12.9559 5.13601 13.0003 5.12121 13.0299 5.10641L14.5396 4.29235C14.658 4.23314 14.7024 4.07033 14.6432 3.95192Z" fill="#60859E"/>
</g>
</g>
<defs>
<clipPath id="clip0">
<rect width="16" height="16" fill="white"/>
</clipPath>
</defs>
</svg>
