<svg width="16" height="16" viewBox="0 0 16 16" fill="none" xmlns="http://www.w3.org/2000/svg">
<g opacity="0.5">
<path d="M8 9C8.82844 9 9.5 8.32844 9.5 7.5C9.5 6.67156 8.82844 6 8 6C7.17156 6 6.5 6.67156 6.5 7.5C6.50094 8.32812 7.17188 8.99906 8 9ZM8 6.5C8.55219 6.5 9 6.94781 9 7.5C9 8.05219 8.55219 8.5 8 8.5C7.44781 8.5 7 8.05219 7 7.5C7 6.94781 7.44781 6.5 8 6.5Z" fill="#60859E"/>
<path d="M14.25 8.24998V7.70498C14.6394 7.56873 14.8447 7.14248 14.7084 6.7531C14.6178 6.49435 14.3931 6.30623 14.1225 6.26248C13.7972 4.65685 12.8556 3.24248 11.5 2.32248V2.24998C11.5 1.69779 11.0522 1.24998 10.5 1.24998C10.2469 1.25029 10.0031 1.34779 9.82 1.52248C9.54625 1.43717 9.26625 1.37279 8.9825 1.32998C8.89062 0.787478 8.37625 0.421853 7.83344 0.51404C7.41563 0.584978 7.08812 0.912165 7.0175 1.32998C6.73375 1.37279 6.45375 1.43717 6.18 1.52248C5.99687 1.34779 5.75313 1.25029 5.5 1.24998C4.94781 1.24998 4.5 1.69779 4.5 2.24998V2.32248C3.14437 3.24248 2.20281 4.65685 1.8775 6.26248C1.72406 6.2856 1.58219 6.35748 1.4725 6.46748C1.32969 6.60779 1.24937 6.79966 1.25 6.99998C1.25156 7.31685 1.45156 7.59873 1.75 7.70498V8.24998C1.05969 8.24998 0.5 8.80967 0.5 9.49998C0.5 10.1903 1.05969 10.75 1.75 10.75H2.95C3.01 10.86 3.0725 10.9725 3.1475 11.085L1.99 12.2425C1.8925 12.3406 1.8925 12.4994 1.99 12.5975L3.4025 14.01C3.50062 14.1075 3.65937 14.1075 3.7575 14.01L4.915 12.8525C5.47656 13.2128 6.09812 13.47 6.75 13.6125V15.25C6.75 15.3881 6.86188 15.5 7 15.5H9C9.13813 15.5 9.25 15.3881 9.25 15.25V13.6125C9.90187 13.47 10.5234 13.2128 11.085 12.8525L12.2425 14.01C12.3406 14.1075 12.4994 14.1075 12.5975 14.01L14.01 12.5975C14.1075 12.4994 14.1075 12.3406 14.01 12.2425L12.8525 11.085C12.9275 10.9725 12.99 10.86 13.05 10.75H14.25C14.9403 10.75 15.5 10.1903 15.5 9.49998C15.5 8.80967 14.9403 8.24998 14.25 8.24998ZM14.25 6.99998C14.2506 7.06748 14.2225 7.13216 14.1725 7.17748C14.1278 7.22466 14.065 7.25123 14 7.24998H10.235C10.215 7.07935 10.1756 6.91154 10.1175 6.74998H14C14.1381 6.74998 14.25 6.86185 14.25 6.99998ZM13.75 7.74998V8.24998H10.1175C10.1756 8.08842 10.215 7.9206 10.235 7.74998H13.75ZM10 2.24998C10 1.97373 10.2238 1.74998 10.5 1.74998C10.7762 1.74998 11 1.97373 11 2.24998V4.74998C11 5.02623 10.7762 5.24998 10.5 5.24998C10.2238 5.24998 10 5.02623 10 4.74998V2.24998ZM7.5 1.49998C7.5 1.22373 7.72375 0.999978 8 0.999978C8.27625 0.999978 8.5 1.22373 8.5 1.49998V3.99998C8.5 4.27623 8.27625 4.49998 8 4.49998C7.72375 4.49998 7.5 4.27623 7.5 3.99998V1.49998ZM5 2.24998C5 1.97373 5.22375 1.74998 5.5 1.74998C5.77625 1.74998 6 1.97373 6 2.24998V4.74998C6 5.02623 5.77625 5.24998 5.5 5.24998C5.22375 5.24998 5 5.02623 5 4.74998V2.24998ZM4.5 2.94248V4.74998C4.5 5.30217 4.94781 5.74998 5.5 5.74998C6.05219 5.74998 6.5 5.30217 6.5 4.74998V2.24998C6.49813 2.15154 6.48219 2.05373 6.4525 1.95998C6.6325 1.90998 6.815 1.86998 7 1.83748V3.99998C7 4.55217 7.44781 4.99998 8 4.99998C8.55219 4.99998 9 4.55217 9 3.99998V1.83748C9.185 1.86998 9.3675 1.90998 9.5475 1.95998C9.51781 2.05373 9.50187 2.15154 9.5 2.24998V4.74998C9.5 5.30217 9.94781 5.74998 10.5 5.74998C11.0522 5.74998 11.5 5.30217 11.5 4.74998V2.93998C12.5697 3.76217 13.3175 4.93341 13.6125 6.24998H9.87C9.18031 5.21716 7.78438 4.93904 6.75156 5.62842C6.50563 5.79279 6.29437 6.00373 6.13 6.24998H2.3875C2.68281 4.93404 3.43031 3.76373 4.5 2.94248ZM9.75 7.49998C9.75 8.46654 8.96656 9.24998 8 9.24998C7.03344 9.24998 6.25 8.46654 6.25 7.49998C6.25 6.53341 7.03344 5.74998 8 5.74998C8.96594 5.75123 9.74875 6.53404 9.75 7.49998ZM1.8275 6.82248C1.87219 6.77529 1.935 6.74873 2 6.74998H5.8825C5.82438 6.91154 5.785 7.07935 5.765 7.24998H2C1.86188 7.24998 1.75 7.1381 1.75 6.99998C1.74937 6.93248 1.7775 6.86779 1.8275 6.82248ZM5.8825 8.24998H2.25V7.74998H5.765C5.785 7.9206 5.82438 8.08842 5.8825 8.24998ZM13.48 12.42L12.42 13.48L11.295 12.355C11.2091 12.2694 11.0744 12.2578 10.975 12.3275C10.3691 12.7469 9.68031 13.0315 8.955 13.1625C8.83656 13.184 8.75031 13.2872 8.75 13.4075V15H7.25V13.4075C7.24969 13.2872 7.16344 13.184 7.045 13.1625C6.31969 13.0315 5.63094 12.7469 5.025 12.3275C4.92563 12.2578 4.79094 12.2694 4.705 12.355L3.58 13.48L2.52 12.42L3.645 11.295C3.73 11.21 3.7425 11.0769 3.675 10.9775C3.62 10.9 3.575 10.825 3.53 10.75H5.4575C6.89031 12.0834 9.10969 12.0834 10.5425 10.75H12.47C12.425 10.825 12.38 10.9 12.325 10.9775C12.2575 11.0769 12.27 11.21 12.355 11.295L13.48 12.42ZM6.275 10.75H9.725C8.67156 11.4169 7.32844 11.4169 6.275 10.75ZM14.7825 10.03C14.6413 10.1709 14.4497 10.25 14.25 10.25H1.75C1.33594 10.25 1 9.91404 1 9.49998C1 9.08592 1.33594 8.74998 1.75 8.74998H6.13C6.81969 9.78279 8.21563 10.0609 9.24844 9.37154C9.49438 9.20717 9.70562 8.99623 9.87 8.74998H14.25C14.665 8.7506 15.0006 9.08748 15 9.50248C14.9997 9.69998 14.9216 9.88967 14.7825 10.03Z" fill="#60859E"/>
</g>
</svg>
