<svg width="30" height="30" viewBox="0 0 30 30" fill="none" xmlns="http://www.w3.org/2000/svg">
<path d="M29.8244 26.5059C29.8276 26.5008 29.8314 26.4956 29.8346 26.4897C29.8492 26.4646 29.8618 26.438 29.8745 26.4115C29.877 26.4056 29.8808 26.4004 29.8834 26.3945C29.8942 26.3709 29.903 26.3465 29.9125 26.3221C29.9163 26.3126 29.9208 26.303 29.9246 26.2926C29.9347 26.2646 29.943 26.2358 29.9506 26.207C29.9525 26.1996 29.955 26.193 29.9569 26.1856C29.962 26.1664 29.9651 26.1472 29.9689 26.1273C29.9727 26.1088 29.9772 26.0911 29.9804 26.0727C29.9816 26.0638 29.9823 26.055 29.9835 26.0468C29.9937 25.9782 30 25.9081 30 25.835C30 25.8217 29.9987 25.8084 29.9981 25.7944C29.9975 25.7605 29.9956 25.7265 29.9924 25.694C29.9354 25.1095 29.5284 24.6784 29.0068 24.6784H27.4172V1.15657C27.4172 0.501156 26.9869 0 26.4241 0C25.8612 0 25.4309 0.501156 25.4309 1.15657V24.6784H4.56975V1.15657C4.56975 0.501156 4.1394 0 3.57657 0C3.01375 0 2.5834 0.501156 2.5834 1.15657V24.6784H0.993176C0.474722 24.6784 0.069085 25.1043 0.0088733 25.6844C0.00380284 25.7339 0 25.7841 0 25.8358C0 25.8978 0.00507046 25.9583 0.0126761 26.0173C0.0152114 26.0358 0.016479 26.055 0.019648 26.0734C0.0215494 26.0852 0.0247185 26.097 0.0272537 26.1088C0.0323242 26.1347 0.0373946 26.1605 0.0437327 26.1856C0.0760569 26.3111 0.126761 26.4255 0.190142 26.5273C0.219297 26.5738 0.250988 26.6189 0.285847 26.6595C0.299791 26.6757 0.315002 26.6905 0.32958 26.7052C0.338453 26.7141 0.346693 26.7244 0.355566 26.7333C0.365707 26.7429 0.376482 26.751 0.386622 26.7598C0.477257 26.8395 0.579934 26.9015 0.692751 26.9414C0.714301 26.9488 0.736484 26.9547 0.758667 26.9606C0.768808 26.9635 0.778949 26.9672 0.78909 26.9694C0.801766 26.9724 0.815076 26.9739 0.827752 26.9761C0.881626 26.9857 0.936767 26.9923 0.99381 26.9923H2.5834V28.8434C2.5834 29.4988 3.01375 30 3.57657 30C4.1394 30 4.56975 29.4988 4.56975 28.8434V26.9923H25.4309V28.8434C25.4309 29.4988 25.8612 30 26.4241 30C26.9869 30 27.4172 29.4988 27.4172 28.8434V26.9923H29.0068C29.0639 26.9923 29.119 26.9857 29.1729 26.9761C29.1856 26.9739 29.1989 26.9724 29.2115 26.9694C29.2268 26.9658 29.2413 26.9606 29.2565 26.9562C29.2737 26.951 29.2914 26.9473 29.3079 26.9414C29.4239 26.9008 29.5297 26.8359 29.6223 26.7532C29.6299 26.7465 29.6375 26.7406 29.6451 26.7333C29.6894 26.6912 29.73 26.6432 29.7674 26.5923C29.7712 26.5871 29.775 26.5827 29.7788 26.5775C29.7946 26.5554 29.8099 26.5303 29.8244 26.5059Z" fill="black"/>
</svg>
