<svg viewBox="0 0 24 24" fill="none" xmlns="http://www.w3.org/2000/svg">
  <g id="ASIS">
    <path fill-rule="evenodd" clip-rule="evenodd" d="M2.4 14.2835C1.69925 13.8593 1.08767 13.3027 0.6 12.6483V16.8599C0.27 16.8599 0 17.0529 0 17.289V17.7181C0 17.9541 0.27 18.1472 0.6 18.1472H23.4C23.73 18.1472 24 17.9541 24 17.7181V17.289C24 17.0529 23.73 16.8599 23.4 16.8599V7.41963C23.73 7.41963 24 7.22653 24 6.99053V6.56143C24 6.32542 23.73 6.13232 23.4 6.13232H11.3418C11.539 6.53896 11.6939 6.96998 11.8006 7.41963H21.6V16.8599H2.4V14.2835ZM9 14.2368C9.70556 13.7961 10.3177 13.2197 10.8 12.5443V15.358C10.8 15.476 10.665 15.5726 10.5 15.5726H9.3C9.135 15.5726 9 15.476 9 15.358V14.2368ZM4.8 15.1328V15.358C4.8 15.476 4.935 15.5726 5.1 15.5726H6.3C6.465 15.5726 6.6 15.476 6.6 15.358V15.1219C6.29398 15.1675 5.98079 15.1912 5.66208 15.1912C5.36964 15.1912 5.08186 15.1713 4.8 15.1328ZM14.7 15.5726H13.5C13.335 15.5726 13.2 15.476 13.2 15.358V8.92148C13.2 8.80348 13.335 8.70693 13.5 8.70693H14.7C14.865 8.70693 15 8.80348 15 8.92148V15.358C15 15.476 14.865 15.5726 14.7 15.5726ZM18.9 15.5726H17.7C17.535 15.5726 17.4 15.476 17.4 15.358V8.92148C17.4 8.80348 17.535 8.70693 17.7 8.70693H18.9C19.065 8.70693 19.2 8.80348 19.2 8.92148V15.358C19.2 15.476 19.065 15.5726 18.9 15.5726Z" fill="black"/>
    <path d="M5.52097 7.17843C5.52097 7.36285 5.45521 7.52133 5.32369 7.65388C5.19218 7.78067 5.03207 7.84406 4.84337 7.84406C4.66039 7.84406 4.50314 7.78067 4.37163 7.65388C4.24583 7.52133 4.18293 7.36285 4.18293 7.17843C4.18293 6.98825 4.24583 6.82688 4.37163 6.69433C4.50314 6.55602 4.66039 6.48687 4.84337 6.48687C5.03207 6.48687 5.19218 6.55602 5.32369 6.69433C5.45521 6.82688 5.52097 6.98825 5.52097 7.17843ZM4.36305 8.8209L4.3802 8.35409H5.358C5.37515 8.56156 5.38373 8.75462 5.38373 8.93328C5.36086 9.12346 5.30082 9.31076 5.20361 9.49517C5.11212 9.67959 5.02349 9.82367 4.93772 9.9274C4.85195 10.0254 4.7433 10.1378 4.61179 10.2645C4.48027 10.3856 4.38592 10.4749 4.32874 10.5325C4.13433 10.7285 4.03712 10.9417 4.03712 11.1722C4.03712 11.6506 4.506 11.9329 5.44377 12.0194L5.22934 12.8147C4.51458 12.7801 3.95135 12.613 3.53964 12.3133C3.13366 12.0194 2.93066 11.6621 2.93066 11.2414C2.93066 11.0051 2.97641 10.8034 3.0679 10.6363C3.15939 10.4634 3.2423 10.3395 3.31664 10.2645C3.39669 10.1839 3.50533 10.083 3.64257 9.96198C3.78552 9.83519 3.89702 9.73146 3.97708 9.65078C4.05713 9.56433 4.13718 9.44619 4.21724 9.29635C4.29729 9.14651 4.3459 8.98803 4.36305 8.8209Z" fill="#0674BB"/>
    <path d="M6.87897 9.94469C7.06195 9.94469 7.2192 10.011 7.35072 10.1435C7.48223 10.2761 7.54799 10.4345 7.54799 10.619C7.54799 10.8034 7.48223 10.9619 7.35072 11.0944C7.22492 11.2327 7.06767 11.3019 6.87897 11.3019C6.69599 11.3019 6.53874 11.2327 6.40723 11.0944C6.27571 10.9619 6.20995 10.8034 6.20995 10.619C6.20995 10.4288 6.27571 10.2703 6.40723 10.1435C6.53874 10.011 6.69599 9.94469 6.87897 9.94469ZM7.35929 8.99379L7.34214 9.4606H6.36434C6.34719 9.25313 6.33861 9.06006 6.33861 8.88141C6.36148 8.69123 6.41866 8.50393 6.51015 8.31951C6.60736 8.1351 6.69885 7.9939 6.78462 7.89593C6.87039 7.79219 6.97904 7.67981 7.11055 7.55879C7.24207 7.432 7.33642 7.3398 7.3936 7.28217C7.58802 7.08622 7.68522 6.87299 7.68522 6.64247C7.68522 6.16413 7.21634 5.88175 6.27857 5.7953L6.493 5C7.20776 5.03458 7.76814 5.20171 8.17412 5.50138C8.58583 5.7953 8.79168 6.15261 8.79168 6.57331C8.79168 6.8096 8.74593 7.01418 8.65444 7.18707C8.56295 7.3542 8.47718 7.47811 8.39713 7.55879C8.32279 7.63371 8.21415 7.73456 8.0712 7.86135C7.93396 7.98237 7.82532 8.08611 7.74526 8.17256C7.66521 8.25324 7.58516 8.3685 7.5051 8.51834C7.42505 8.66818 7.37645 8.82666 7.35929 8.99379Z" fill="#0674BB"/>
  </g>
</svg>
