<svg width="35" height="35" viewBox="0 0 35 35" fill="none" xmlns="http://www.w3.org/2000/svg">
<circle cx="17.5" cy="17.5" r="17.5" fill="white"/>
<path fill-rule="evenodd" clip-rule="evenodd" d="M8.4 20.2835C7.69925 19.8593 7.08767 19.3027 6.6 18.6483V22.8599C6.27 22.8599 6 23.0529 6 23.289V23.7181C6 23.9541 6.27 24.1472 6.6 24.1472H29.4C29.73 24.1472 30 23.9541 30 23.7181V23.289C30 23.0529 29.73 22.8599 29.4 22.8599V13.4196C29.73 13.4196 30 13.2265 30 12.9905V12.5614C30 12.3254 29.73 12.1323 29.4 12.1323H17.3418C17.539 12.539 17.6939 12.97 17.8006 13.4196H27.6V22.8599H8.4V20.2835ZM15 20.2368C15.7056 19.7961 16.3177 19.2197 16.8 18.5443V21.358C16.8 21.476 16.665 21.5726 16.5 21.5726H15.3C15.135 21.5726 15 21.476 15 21.358V20.2368ZM10.8 21.1328V21.358C10.8 21.476 10.935 21.5726 11.1 21.5726H12.3C12.465 21.5726 12.6 21.476 12.6 21.358V21.1219C12.294 21.1675 11.9808 21.1912 11.6621 21.1912C11.3696 21.1912 11.0819 21.1713 10.8 21.1328ZM20.7 21.5726H19.5C19.335 21.5726 19.2 21.476 19.2 21.358V14.9215C19.2 14.8035 19.335 14.7069 19.5 14.7069H20.7C20.865 14.7069 21 14.8035 21 14.9215V21.358C21 21.476 20.865 21.5726 20.7 21.5726ZM24.9 21.5726H23.7C23.535 21.5726 23.4 21.476 23.4 21.358V14.9215C23.4 14.8035 23.535 14.7069 23.7 14.7069H24.9C25.065 14.7069 25.2 14.8035 25.2 14.9215V21.358C25.2 21.476 25.065 21.5726 24.9 21.5726Z" fill="black"/>
<path d="M11.521 13.1784C11.521 13.3628 11.4552 13.5213 11.3237 13.6539C11.1922 13.7807 11.0321 13.8441 10.8434 13.8441C10.6604 13.8441 10.5031 13.7807 10.3716 13.6539C10.2458 13.5213 10.1829 13.3628 10.1829 13.1784C10.1829 12.9882 10.2458 12.8269 10.3716 12.6943C10.5031 12.556 10.6604 12.4869 10.8434 12.4869C11.0321 12.4869 11.1922 12.556 11.3237 12.6943C11.4552 12.8269 11.521 12.9882 11.521 13.1784ZM10.363 14.8209L10.3802 14.3541H11.358C11.3752 14.5616 11.3837 14.7546 11.3837 14.9333C11.3609 15.1235 11.3008 15.3108 11.2036 15.4952C11.1121 15.6796 11.0235 15.8237 10.9377 15.9274C10.8519 16.0254 10.7433 16.1378 10.6118 16.2645C10.4803 16.3856 10.3859 16.4749 10.3287 16.5325C10.1343 16.7285 10.0371 16.9417 10.0371 17.1722C10.0371 17.6506 10.506 17.9329 11.4438 18.0194L11.2293 18.8147C10.5146 18.7801 9.95135 18.613 9.53964 18.3133C9.13366 18.0194 8.93066 17.6621 8.93066 17.2414C8.93066 17.0051 8.97641 16.8034 9.0679 16.6363C9.15939 16.4634 9.2423 16.3395 9.31664 16.2645C9.39669 16.1839 9.50533 16.083 9.64257 15.962C9.78552 15.8352 9.89702 15.7315 9.97708 15.6508C10.0571 15.5643 10.1372 15.4462 10.2172 15.2963C10.2973 15.1465 10.3459 14.988 10.363 14.8209Z" fill="#0674BB"/>
<path d="M12.879 15.9447C13.062 15.9447 13.2192 16.011 13.3507 16.1435C13.4822 16.2761 13.548 16.4345 13.548 16.619C13.548 16.8034 13.4822 16.9619 13.3507 17.0944C13.2249 17.2327 13.0677 17.3019 12.879 17.3019C12.696 17.3019 12.5387 17.2327 12.4072 17.0944C12.2757 16.9619 12.21 16.8034 12.21 16.619C12.21 16.4288 12.2757 16.2703 12.4072 16.1435C12.5387 16.011 12.696 15.9447 12.879 15.9447ZM13.3593 14.9938L13.3421 15.4606H12.3643C12.3472 15.2531 12.3386 15.0601 12.3386 14.8814C12.3615 14.6912 12.4187 14.5039 12.5102 14.3195C12.6074 14.1351 12.6989 13.9939 12.7846 13.8959C12.8704 13.7922 12.979 13.6798 13.1106 13.5588C13.2421 13.432 13.3364 13.3398 13.3936 13.2822C13.588 13.0862 13.6852 12.873 13.6852 12.6425C13.6852 12.1641 13.2163 11.8817 12.2786 11.7953L12.493 11C13.2078 11.0346 13.7681 11.2017 14.1741 11.5014C14.5858 11.7953 14.7917 12.1526 14.7917 12.5733C14.7917 12.8096 14.7459 13.0142 14.6544 13.1871C14.563 13.3542 14.4772 13.4781 14.3971 13.5588C14.3228 13.6337 14.2141 13.7346 14.0712 13.8614C13.934 13.9824 13.8253 14.0861 13.7453 14.1726C13.6652 14.2532 13.5852 14.3685 13.5051 14.5183C13.4251 14.6682 13.3764 14.8267 13.3593 14.9938Z" fill="#0674BB"/>
</svg>
