<svg width="83" height="111" viewBox="0 0 83 111" fill="none" xmlns="http://www.w3.org/2000/svg">
<path d="M79.8178 21.1423L61.718 3.04253C59.7759 1.10049 57.1434 0 54.4051 0H10.3554C4.63931 0.0215782 0 4.66089 0 10.377V100.125C0 105.841 4.63931 110.48 10.3554 110.48H72.5049C78.221 110.48 82.8603 105.841 82.8603 100.125V28.4767C82.8603 25.7385 81.7598 23.0844 79.8178 21.1423ZM55.2467 7.03233C55.8508 7.18338 56.3903 7.48548 56.8434 7.93862L74.9432 26.0384C75.3964 26.4916 75.6985 27.031 75.8495 27.6352H55.2467V7.03233ZM75.9574 100.125C75.9574 102.024 74.4038 103.578 72.5049 103.578H10.3554C8.4565 103.578 6.90287 102.024 6.90287 100.125V10.377C6.90287 8.47807 8.4565 6.90502 10.3554 6.90502H48.3416V29.3615C48.3416 32.2314 50.6505 34.5251 53.5204 34.5251H75.9574V100.125Z" fill="black"/>
<path d="M39.7268 20.8308H15.5593C14.6055 20.8308 13.833 20.0583 13.833 19.1045V15.652C13.833 14.6983 14.6055 13.9258 15.5593 13.9258H39.7268C40.6806 13.9258 41.4531 14.6983 41.4531 15.652V19.1045C41.4531 20.0583 40.6806 20.8308 39.7268 20.8308Z" fill="#0674BB"/>
<path d="M41.4531 29.4621V32.9146C41.4531 33.8684 40.6806 34.6409 39.7268 34.6409H15.5593C14.6055 34.6409 13.833 33.8684 13.833 32.9146V29.4621C13.833 28.5083 14.6055 27.7358 15.5593 27.7358H39.7268C40.6806 27.7358 41.4531 28.5083 41.4531 29.4621Z" fill="#0674BB"/>
<path d="M37.5699 67.7732L47.2801 70.6863C51.2936 71.8904 54.0945 75.7399 54.0945 80.0491C54.0945 85.3422 49.9838 89.6384 44.8871 89.7744V94.979C44.8871 95.9328 44.1146 96.7053 43.1608 96.7053H39.7083C38.7545 96.7053 37.982 95.9328 37.982 94.979V89.7377C35.5459 89.6125 33.1766 88.7623 31.213 87.2886C30.3714 86.6563 30.3282 85.3961 31.09 84.669L33.6254 82.2501C34.2231 81.6804 35.1121 81.6545 35.8113 82.0925C36.6442 82.6169 37.5936 82.8952 38.5776 82.8952H44.6432C46.0458 82.8952 47.1894 81.6178 47.1894 80.0491C47.1894 78.7652 46.4105 77.6366 45.297 77.3022L35.5869 74.3891C31.5733 73.185 28.7725 69.3355 28.7725 65.0263C28.7725 59.7354 32.8831 55.437 37.9799 55.301V50.0964C37.9799 49.1426 38.7524 48.3701 39.7061 48.3701H43.1586C44.1124 48.3701 44.8849 49.1426 44.8849 50.0964V55.3377C47.3211 55.4629 49.6904 56.3131 51.654 57.7868C52.4955 58.4191 52.5387 59.6793 51.777 60.4064L49.2415 62.8253C48.6438 63.395 47.7548 63.4209 47.0557 62.9829C46.2227 62.4585 45.2733 62.1802 44.2893 62.1802H38.2237C36.8211 62.1802 35.6775 63.4576 35.6775 65.0263C35.6775 66.3102 36.4565 67.4388 37.5699 67.7732Z" fill="#ECC800"/>
</svg>
