<svg viewBox="0 0 24 24" fill="none" xmlns="http://www.w3.org/2000/svg">
  <g id="CW">
    <path fill-rule="evenodd" clip-rule="evenodd" d="M2.4 13.666C1.69927 13.2725 1.08769 12.756 0.6 12.1488V16.0563C0.27 16.0563 0 16.2355 0 16.4545V16.8527C0 17.0716 0.27 17.2508 0.6 17.2508H23.4C23.73 17.2508 24 17.0716 24 16.8527V16.4545C24 16.2355 23.73 16.0563 23.4 16.0563V7.29656C23.73 7.29656 24 7.11739 24 6.89839V6.50022C24 6.28123 23.73 6.10205 23.4 6.10205H11.3414C11.5387 6.47938 11.6935 6.87932 11.8003 7.29656H21.6V16.0563H2.4V13.666ZM9 13.6224C9.70557 13.2134 10.3177 12.6785 10.8 12.0517V14.6627C10.8 14.7722 10.665 14.8618 10.5 14.8618H9.3C9.135 14.8618 9 14.7722 9 14.6627V13.6224ZM4.8 14.4539V14.6627C4.8 14.7722 4.935 14.8618 5.1 14.8618H6.3C6.465 14.8618 6.6 14.7722 6.6 14.6627V14.4438C6.2939 14.4862 5.98062 14.5081 5.66181 14.5081C5.36947 14.5081 5.08177 14.4897 4.8 14.4539ZM14.7 14.8618H13.5C13.335 14.8618 13.2 14.7722 13.2 14.6627V8.69016C13.2 8.58066 13.335 8.49107 13.5 8.49107H14.7C14.865 8.49107 15 8.58066 15 8.69016V14.6627C15 14.7722 14.865 14.8618 14.7 14.8618ZM18.9 14.8618H17.7C17.535 14.8618 17.4 14.7722 17.4 14.6627V8.69016C17.4 8.58066 17.535 8.49107 17.7 8.49107H18.9C19.065 8.49107 19.2 8.58066 19.2 8.69016V14.6627C19.2 14.7722 19.065 14.8618 18.9 14.8618Z" fill="black"/>
    <path d="M10 8.33333C10 7.4974 9.01 6.78208 7.60556 6.48313L6.78571 7.33333V6.16667C6.78571 6.12246 6.75185 6.08007 6.69157 6.04882C6.63129 6.01756 6.54953 6 6.46429 6H4.53571C4.45047 6 4.36871 6.01756 4.30843 6.04882C4.24815 6.08007 4.21429 6.12246 4.21429 6.16667V7.33333L3.39444 6.48313C1.99 6.78208 1 7.4974 1 8.33333V9H10V8.33333Z" fill="black"/>
    <path d="M1.28125 10H9.71875C9.79334 10 9.86488 10.0263 9.91762 10.0732C9.97037 10.1201 10 10.1837 10 10.25V10.75C10 10.8163 9.97037 10.8799 9.91762 10.9268C9.86488 10.9737 9.79334 11 9.71875 11H1.28125C1.20666 11 1.13512 10.9737 1.08238 10.9268C1.02963 10.8799 1 10.8163 1 10.75V10.25C1 10.1837 1.02963 10.1201 1.08238 10.0732C1.13512 10.0263 1.20666 10 1.28125 10Z" fill="#ECC800"/>
  </g>
</svg>
