<svg width="24" height="24" viewBox="0 0 24 24" fill="none" xmlns="http://www.w3.org/2000/svg">
<path fill-rule="evenodd" clip-rule="evenodd" d="M2.4 15.0098C1.69926 14.5857 1.08768 14.0291 0.6 13.3747V17.5859C0.27 17.5859 0 17.779 0 18.015V18.4441C0 18.6801 0.27 18.8732 0.6 18.8732H23.4C23.73 18.8732 24 18.6801 24 18.4441V18.015C24 17.779 23.73 17.5859 23.4 17.5859V8.1457C23.73 8.1457 24 7.95261 24 7.7166V7.2875C24 7.05149 23.73 6.8584 23.4 6.8584H11.3416C11.5388 7.26504 11.6937 7.69605 11.8005 8.1457H21.6V17.5859H2.4V15.0098ZM9 14.963C9.70556 14.5223 10.3177 13.9459 10.8 13.2704V16.0841C10.8 16.2021 10.665 16.2986 10.5 16.2986H9.3C9.135 16.2986 9 16.2021 9 16.0841V14.963ZM4.8 15.8591V16.0841C4.8 16.2021 4.935 16.2986 5.1 16.2986H6.3C6.465 16.2986 6.6 16.2021 6.6 16.0841V15.8482C6.29395 15.8938 5.98072 15.9174 5.66197 15.9174C5.36958 15.9174 5.08182 15.8976 4.8 15.8591ZM14.7 16.2986H13.5C13.335 16.2986 13.2 16.2021 13.2 16.0841V9.64756C13.2 9.52955 13.335 9.43301 13.5 9.43301H14.7C14.865 9.43301 15 9.52955 15 9.64756V16.0841C15 16.2021 14.865 16.2986 14.7 16.2986ZM18.9 16.2986H17.7C17.535 16.2986 17.4 16.2021 17.4 16.0841V9.64756C17.4 9.52955 17.535 9.43301 17.7 9.43301H18.9C19.065 9.43301 19.2 9.52955 19.2 9.64756V16.0841C19.2 16.2021 19.065 16.2986 18.9 16.2986Z" fill="black"/>
<path d="M9.9155 12.4396L5.7109 9.24381L1.50631 6.04799C1.40928 5.97252 1.26767 5.9877 1.19004 6.08203L1.04942 6.25279C0.971653 6.34713 0.987403 6.48481 1.08443 6.56028L9.49376 12.9521C9.59079 13.0275 9.73226 13.0122 9.81003 12.918L9.95065 12.7472C10.0283 12.6529 10.0127 12.5152 9.9155 12.4396Z" fill="black"/>
<path d="M6.79376 8.89014C6.49053 8.4284 6.1285 7.87702 5.83819 7.11774C5.72671 7.40886 5.60356 7.66218 5.47803 7.89933L5 7.50119C5.17606 7.15648 5.34084 6.76542 5.47176 6.29513C5.52757 6.0962 5.68294 6 5.83781 6C5.99632 6 6.15433 6.10074 6.20461 6.29513C6.72892 8.17936 7.77528 8.82828 8 10L6.94361 9.12008C6.89608 9.04633 6.84642 8.97031 6.79376 8.89014Z" fill="#0674BB"/>
<path d="M3.62241 10.4396C3.62241 11.4709 4.36696 12.3099 5.28216 12.3099C5.76789 12.3099 6.20124 12.0694 6.50506 11.6934L7 12.1224C6.58182 12.6594 5.96849 13 5.28216 13C4.02075 13 3 11.8549 3 10.4396C3 9.87614 3.16273 9.43476 3.39808 9L3.8916 9.42786C3.72264 9.75451 3.62241 10.0607 3.62241 10.4396Z" fill="#0674BB"/>
</svg>
