<svg width="24" height="24" viewBox="0 0 24 24" fill="none" xmlns="http://www.w3.org/2000/svg">
<g clip-path="url(#clip0)">
<path d="M19.23 5.09371C19.23 4.81792 19.0669 4.59229 18.8676 4.59229H5.09962C4.90035 4.59229 4.7373 4.81792 4.7373 5.09371V5.04518C4.7373 5.32096 4.90035 5.59513 5.09962 5.59513V17.6292C4.90035 17.6292 4.7373 17.8548 4.7373 18.1306C4.7373 18.4064 4.90035 18.6321 5.09962 18.6321H18.8676C19.0669 18.6321 19.23 18.4064 19.23 18.1306C19.23 17.8548 19.0669 17.6292 18.8676 17.6292V5.59513C19.0669 5.59513 19.23 5.36949 19.23 5.09371ZM17.7807 17.6292H6.18657V5.59513H17.7807V17.6292Z" fill="black"/>
<path d="M7.04451 16.4215C6.96114 16.4289 6.88794 16.3672 6.88101 16.2838V16.2838C6.87408 16.2004 6.93605 16.1268 7.01942 16.1195L10.5036 15.8121C10.5869 15.8048 10.6601 15.8664 10.6671 15.9498V15.9498C10.674 16.0333 10.612 16.1068 10.5286 16.1142L7.04451 16.4215Z" fill="#ECC800"/>
<path d="M7.04451 6.61854C6.96114 6.61119 6.88794 6.67284 6.88101 6.75625V6.75625C6.87408 6.83966 6.93605 6.91323 7.01942 6.92059L10.5036 7.22791C10.5869 7.23526 10.6601 7.1736 10.6671 7.0902V7.0902C10.674 7.00679 10.612 6.93321 10.5286 6.92586L7.04451 6.61854Z" fill="#ECC800"/>
<path d="M10.4043 15.9175C10.4043 16.0012 10.4721 16.0691 10.5558 16.0691V16.0691C10.6395 16.0691 10.7074 16.0012 10.7074 15.9175L10.7074 7.161C10.7074 7.0773 10.6395 7.00945 10.5558 7.00945V7.00945C10.4721 7.00945 10.4043 7.0773 10.4043 7.161L10.4043 15.9175Z" fill="#ECC800"/>
<path d="M7.71826 15.1375C7.71826 15.2212 7.78611 15.2891 7.86981 15.2891V15.2891C7.9535 15.2891 8.02135 15.2212 8.02135 15.1375L8.02135 8.12932C8.02135 8.04562 7.9535 7.97777 7.86981 7.97777V7.97777C7.78611 7.97777 7.71826 8.04562 7.71826 8.12932L7.71826 15.1375Z" fill="#ECC800"/>
<path d="M8.98975 14.637C8.98975 14.7207 9.05759 14.7886 9.14129 14.7886V14.7886C9.22499 14.7886 9.29284 14.7207 9.29284 14.637L9.29283 8.57526C9.29283 8.49156 9.22499 8.42372 9.14129 8.42372V8.42372C9.05759 8.42372 8.98975 8.49156 8.98975 8.57526L8.98975 14.637Z" fill="#ECC800"/>
<path d="M16.809 16.4217C16.8924 16.4291 16.9656 16.3674 16.9725 16.284V16.284C16.9794 16.2006 16.9175 16.127 16.8341 16.1197L13.35 15.8124C13.2666 15.805 13.1934 15.8667 13.1865 15.9501V15.9501C13.1795 16.0335 13.2415 16.1071 13.3249 16.1144L16.809 16.4217Z" fill="#ECC800"/>
<path d="M16.8085 6.61878C16.8919 6.61143 16.9651 6.67308 16.972 6.75649V6.75649C16.9789 6.8399 16.917 6.91348 16.8336 6.92083L13.3495 7.22815C13.2661 7.2355 13.1929 7.17385 13.186 7.09044V7.09044C13.179 7.00703 13.241 6.93346 13.3244 6.9261L16.8085 6.61878Z" fill="#ECC800"/>
<path d="M13.4492 15.9175C13.4492 16.0012 13.3814 16.0691 13.2977 16.0691V16.0691C13.214 16.0691 13.1461 16.0012 13.1461 15.9175L13.1461 7.161C13.1461 7.0773 13.214 7.00945 13.2977 7.00945V7.00945C13.3814 7.00945 13.4492 7.0773 13.4492 7.161L13.4492 15.9175Z" fill="#ECC800"/>
<path d="M16.1353 15.1378C16.1353 15.2215 16.0674 15.2893 15.9837 15.2893V15.2893C15.9 15.2893 15.8322 15.2215 15.8322 15.1378L15.8322 8.12956C15.8322 8.04587 15.9 7.97802 15.9837 7.97802V7.97802C16.0674 7.97802 16.1353 8.04587 16.1353 8.12956L16.1353 15.1378Z" fill="#ECC800"/>
<path d="M14.8638 14.6373C14.8638 14.721 14.7959 14.7888 14.7122 14.7888V14.7888C14.6285 14.7888 14.5607 14.721 14.5607 14.6373L14.5607 8.5755C14.5607 8.49181 14.6285 8.42396 14.7122 8.42396V8.42396C14.7959 8.42396 14.8638 8.49181 14.8638 8.5755L14.8638 14.6373Z" fill="#ECC800"/>
<path d="M5.17789 17.8446C5.36981 17.7943 5.48376 17.598 5.4324 17.4064V17.4064C5.38105 17.2147 5.18383 17.1002 4.99191 17.1506L0.347566 18.3697C0.155645 18.4201 0.0416952 18.6163 0.0930507 18.808V18.808C0.144406 18.9996 0.34162 19.1142 0.53354 19.0638L5.17789 17.8446Z" fill="black"/>
<path d="M5.17789 5.31064C5.36981 5.36101 5.48376 5.55723 5.4324 5.74889V5.74889C5.38105 5.94055 5.18383 6.05508 4.99191 6.0047L0.347566 4.78555C0.155645 4.73517 0.0416952 4.53896 0.0930507 4.34729V4.34729C0.144406 4.15563 0.34162 4.0411 0.53354 4.09148L5.17789 5.31064Z" fill="black"/>
<path d="M0.733887 18.6002C0.733887 18.8028 0.569646 18.967 0.367046 18.967V18.967C0.164445 18.967 0.000204375 18.8028 0.000204393 18.6002L0.000205649 4.51353C0.000205667 4.31093 0.164446 4.14669 0.367047 4.14669V4.14669C0.569648 4.14669 0.733888 4.31093 0.733888 4.51353L0.733887 18.6002Z" fill="black"/>
<path d="M2.16016 16.6205C2.16016 16.8118 2.00513 16.9668 1.81388 16.9668V16.9668C1.62264 16.9668 1.46761 16.8118 1.46761 16.6205L1.46761 6.69409C1.46761 6.50285 1.62265 6.34781 1.81389 6.34781V6.34781C2.00513 6.34781 2.16016 6.50285 2.16016 6.69409L2.16016 16.6205Z" fill="black"/>
<path d="M4.21436 16.2214C4.21436 16.4126 4.05932 16.5676 3.86808 16.5676V16.5676C3.67684 16.5676 3.52181 16.4126 3.52181 16.2214L3.52181 6.98746C3.52181 6.79622 3.67684 6.64119 3.86808 6.64119V6.64119C4.05933 6.64119 4.21436 6.79622 4.21436 6.98746L4.21436 16.2214Z" fill="black"/>
<path d="M18.8221 17.8444C18.6302 17.794 18.5162 17.5978 18.5676 17.4061V17.4061C18.619 17.2145 18.8162 17.0999 19.0081 17.1503L23.6524 18.3695C23.8444 18.4199 23.9583 18.6161 23.9069 18.8077V18.8077C23.8556 18.9994 23.6584 19.1139 23.4665 19.0635L18.8221 17.8444Z" fill="black"/>
<path d="M18.8221 5.31039C18.6302 5.36077 18.5162 5.55698 18.5676 5.74864V5.74864C18.619 5.94031 18.8162 6.05484 19.0081 6.00446L23.6524 4.7853C23.8444 4.73492 23.9583 4.53871 23.9069 4.34705V4.34705C23.8556 4.15539 23.6584 4.04086 23.4665 4.09124L18.8221 5.31039Z" fill="black"/>
<path d="M23.2661 18.6C23.2661 18.8026 23.4304 18.9668 23.633 18.9668V18.9668C23.8356 18.9668 23.9998 18.8026 23.9998 18.6L23.9998 4.51328C23.9998 4.31068 23.8356 4.14644 23.633 4.14644V4.14644C23.4304 4.14644 23.2661 4.31068 23.2661 4.51328L23.2661 18.6Z" fill="black"/>
<path d="M21.8398 16.6203C21.8398 16.8115 21.9949 16.9666 22.1861 16.9666V16.9666C22.3774 16.9666 22.5324 16.8115 22.5324 16.6203L22.5324 6.69384C22.5324 6.5026 22.3774 6.34757 22.1861 6.34757V6.34757C21.9949 6.34757 21.8398 6.5026 21.8398 6.69384L21.8398 16.6203Z" fill="black"/>
<path d="M19.7856 16.2211C19.7856 16.4124 19.9407 16.5674 20.1319 16.5674V16.5674C20.3232 16.5674 20.4782 16.4124 20.4782 16.2211L20.4782 6.98721C20.4782 6.79597 20.3232 6.64094 20.1319 6.64094V6.64094C19.9407 6.64094 19.7856 6.79597 19.7856 6.98721L19.7856 16.2211Z" fill="black"/>
<path fill-rule="evenodd" clip-rule="evenodd" d="M17.0542 6.48708C17.0542 6.42168 17.0012 6.36865 16.9358 6.36865H6.86922C6.85466 6.36865 6.84071 6.37128 6.82782 6.37609C6.78267 6.3928 6.75049 6.43624 6.75049 6.4872V16.5537C6.75049 16.6191 6.80351 16.6722 6.86892 16.6722C6.87147 16.6722 6.874 16.6721 6.87651 16.6719H16.9298L16.9353 16.6721C16.9533 16.6721 16.9703 16.6681 16.9855 16.6609C17.026 16.6421 17.054 16.6011 17.054 16.5535L17.0537 16.5455V6.49744C17.054 6.49402 17.0542 6.49057 17.0542 6.48708ZM6.98735 16.4351H16.8169V6.60551L6.98735 6.60551V16.4351Z" fill="black"/>
<path d="M6.1582 5.53955L6.86878 6.48699" stroke="black" stroke-width="0.3"/>
<path d="M16.9355 6.48699L17.883 5.53955" stroke="black" stroke-width="0.3"/>
<path d="M6.86878 16.5537L6.1582 17.6196" stroke="black" stroke-width="0.3"/>
<path d="M17.7646 17.6196L16.9355 16.5537" stroke="black" stroke-width="0.3"/>
</g>
<defs>
<clipPath id="clip0">
<rect width="24" height="24" fill="white"/>
</clipPath>
</defs>
</svg>
