<svg viewBox="0 0 35 35" fill="none" xmlns="http://www.w3.org/2000/svg">
  <g id="doubleTruck">
    <circle cx="17.5" cy="17.5" r="17.5" fill="white"/>
    <path d="M25.0142 13.3913V13.1957C25.0142 13.088 24.8911 13 24.7407 13L16.1232 13C15.9727 13 15.8496 13.088 15.8496 13.1957V13.3913C15.8496 13.4989 15.9727 13.587 16.1232 13.587V17.8914C15.9727 17.8914 15.8496 17.9795 15.8496 18.0871V18.2827C15.8496 18.3903 15.9727 18.4784 16.1232 18.4784H24.7407C24.8911 18.4784 25.0142 18.3903 25.0142 18.2827V18.0871C25.0142 17.9795 24.8911 17.8914 24.7407 17.8914V13.587C24.8911 13.587 25.0142 13.4989 25.0142 13.3913ZM23.9199 17.8914H16.9439V13.587H23.9199V17.8914Z" fill="black"/>
    <path d="M20.7941 17.2273H20.2059C20.125 17.2273 20.0588 17.1851 20.0588 17.1335V14.321C20.0588 14.2695 20.125 14.2273 20.2059 14.2273H20.7941C20.875 14.2273 20.9412 14.2695 20.9412 14.321V17.1335C20.9412 17.1851 20.875 17.2273 20.7941 17.2273Z" fill="black"/>
    <path d="M22.8529 17.2273H22.2647C22.1838 17.2273 22.1176 17.1851 22.1176 17.1335V14.321C22.1176 14.2695 22.1838 14.2273 22.2647 14.2273H22.8529C22.9338 14.2273 23 14.2695 23 14.321V17.1335C23 17.1851 22.9338 17.2273 22.8529 17.2273Z" fill="black"/>
    <path d="M18.7353 17.2273H18.1471C18.0662 17.2273 18 17.1851 18 17.1335V14.321C18 14.2695 18.0662 14.2273 18.1471 14.2273H18.7353C18.8162 14.2273 18.8824 14.2695 18.8824 14.321V17.1335C18.8824 17.1851 18.8162 17.2273 18.7353 17.2273Z" fill="black"/>
    <path d="M15.629 13.3913V13.1957C15.629 13.088 15.5059 13 15.3554 13L6.73794 13C6.58747 13 6.46436 13.088 6.46436 13.1957V13.3913C6.46436 13.4989 6.58747 13.587 6.73794 13.587V17.8914C6.58747 17.8914 6.46436 17.9795 6.46436 18.0871V18.2827C6.46436 18.3903 6.58747 18.4784 6.73794 18.4784H15.3554C15.5059 18.4784 15.629 18.3903 15.629 18.2827V18.0871C15.629 17.9795 15.5059 17.8914 15.3554 17.8914V13.587C15.5059 13.587 15.629 13.4989 15.629 13.3913ZM14.5347 17.8914H7.55868V13.587H14.5347V17.8914Z" fill="black"/>
    <path d="M11.2353 17.2273H10.7647C10.7 17.2273 10.6471 17.1851 10.6471 17.1335V14.321C10.6471 14.2695 10.7 14.2273 10.7647 14.2273H11.2353C11.3 14.2273 11.3529 14.2695 11.3529 14.321V17.1335C11.3529 17.1851 11.3 17.2273 11.2353 17.2273Z" fill="black"/>
    <path d="M12.8824 17.2273H12.4118C12.3471 17.2273 12.2941 17.1851 12.2941 17.1335V14.321C12.2941 14.2695 12.3471 14.2273 12.4118 14.2273H12.8824C12.9471 14.2273 13 14.2695 13 14.321V17.1335C13 17.1851 12.9471 17.2273 12.8824 17.2273Z" fill="black"/>
    <path d="M9.58824 17.2273H9.11765C9.05294 17.2273 9 17.1851 9 17.1335V14.321C9 14.2695 9.05294 14.2273 9.11765 14.2273H9.58824C9.65294 14.2273 9.70588 14.2695 9.70588 14.321V17.1335C9.70588 17.1851 9.65294 17.2273 9.58824 17.2273Z" fill="black"/>
    <path d="M29.5695 15.2009L28.2228 13.7054C27.9465 13.3986 27.5713 13.2273 27.1799 13.2273H25.9483C25.5409 13.2273 25.2117 13.5929 25.2117 14.0454V18.5448H6.73667C6.3292 18.5448 6 18.9104 6 19.3629V20.0736C6 21.1167 6.6607 22.0703 7.59074 22.2083C8.29748 22.3132 8.93286 21.9655 9.315 21.3979C9.73859 22.0294 10.4753 22.3873 11.2787 22.1572C11.8588 21.991 12.3399 21.4874 12.531 20.8585C12.6438 20.4801 12.6553 20.112 12.5955 19.7745H25.6191C25.557 20.112 25.5685 20.4801 25.6836 20.8585C25.877 21.5002 26.3719 22.0064 26.9635 22.1649C28.179 22.4921 29.2656 21.4772 29.2656 20.181C29.2656 20.0404 29.2518 19.9049 29.2288 19.772H29.6317C29.8342 19.772 30 19.5879 30 19.3629V16.3565C30 15.9219 29.8458 15.5077 29.5695 15.2009ZM7.84167 20.9965C7.4365 20.9965 7.105 20.6284 7.105 20.1785C7.105 19.7285 7.4365 19.3604 7.84167 19.3604C8.24683 19.3604 8.57833 19.7285 8.57833 20.1785C8.57833 20.6284 8.24683 20.9965 7.84167 20.9965ZM10.7883 20.9965C10.3832 20.9965 10.0517 20.6284 10.0517 20.1785C10.0517 19.7285 10.3832 19.3604 10.7883 19.3604C11.1935 19.3604 11.525 19.7285 11.525 20.1785C11.525 20.6284 11.1935 20.9965 10.7883 20.9965ZM26.3167 14.4519H27.1799C27.2789 14.4519 27.371 14.4953 27.4401 14.572L28.4369 15.679H26.3167V14.4519ZM27.4217 20.9965C27.0165 20.9965 26.685 20.6284 26.685 20.1785C26.685 19.7285 27.0165 19.3604 27.4217 19.3604C27.8268 19.3604 28.1583 19.7285 28.1583 20.1785C28.1583 20.6284 27.8268 20.9965 27.4217 20.9965ZM28.895 18.5423H28.5175C28.2113 18.2892 27.8337 18.1333 27.4217 18.1333C27.0096 18.1333 26.6344 18.2892 26.3259 18.5423H26.3167V16.4971H28.895V18.5423Z" fill="black"/>
  </g>
</svg>
