<svg width="24" height="24" viewBox="0 0 24 24" fill="none" xmlns="http://www.w3.org/2000/svg">
<g clip-path="url(#clip0)">
<path d="M21.8122 19.3325L12.4687 11.7234L3.12513 4.11426C2.9095 3.93457 2.59482 3.9707 2.42232 4.19531L2.10982 4.60189C1.93701 4.8265 1.97201 5.1543 2.18763 5.33399L20.875 20.5525C21.0907 20.7322 21.405 20.6957 21.5778 20.4715L21.8903 20.0649C22.0628 19.8403 22.0281 19.5125 21.8122 19.3325Z" fill="black"/>
<path d="M14.8179 11.2254C14.0598 10.071 13.1547 8.69254 12.429 6.79435C12.1503 7.52216 11.8424 8.15545 11.5286 8.74832L10.3335 7.75296C10.7737 6.89121 11.1856 5.91356 11.5129 4.73783C11.6524 4.24049 12.0408 4 12.428 4C12.8243 4 13.2193 4.25185 13.345 4.73783C14.6558 9.44841 17.2717 11.0707 17.8335 14L15.1925 11.8002C15.0737 11.6158 14.9496 11.4258 14.8179 11.2254Z" fill="#0674BB"/>
<path d="M7.72252 14.799C7.72252 17.1624 9.58391 19.0852 11.8719 19.0852C13.0862 19.0852 14.1696 18.534 14.9291 17.6724L16.1665 18.6555C15.1211 19.8861 13.5877 20.6667 11.8719 20.6667C8.71837 20.6667 6.1665 18.0424 6.1665 14.799C6.1665 13.5078 6.57334 12.4963 7.16171 11.5L8.3955 12.4805C7.9731 13.2291 7.72252 13.9309 7.72252 14.799Z" fill="#0674BB"/>
</g>
<defs>
<clipPath id="clip0">
<rect width="24" height="24" fill="white"/>
</clipPath>
</defs>
</svg>
