<svg width="24" height="24" viewBox="0 0 24 24" fill="none" xmlns="http://www.w3.org/2000/svg">
<g clip-path="url(#clip0)">
<path d="M23.7747 20.3989L12.5624 11.268L1.35015 2.13711C1.0914 1.92148 0.713779 1.96484 0.50678 2.23438L0.131782 2.72227C-0.0755917 2.9918 -0.0335919 3.38517 0.225157 3.60079L22.65 21.863C22.9088 22.0786 23.286 22.0349 23.4934 21.7657L23.8684 21.2779C24.0754 21.0083 24.0338 20.615 23.7747 20.3989Z" fill="black"/>
<path d="M15.3813 10.6704C14.4716 9.28521 13.3855 7.63105 12.5146 5.35322C12.1801 6.22659 11.8107 6.98654 11.4341 7.69799L10 6.50356C10.5282 5.46945 11.0225 4.29627 11.4153 2.8854C11.5827 2.28859 12.0488 2 12.5134 2C12.989 2 13.463 2.30221 13.6138 2.8854C15.1868 8.53809 18.3258 10.4849 19 14L15.8308 11.3602C15.6882 11.139 15.5393 10.9109 15.3813 10.6704Z" fill="#0674BB"/>
<path d="M6.86722 14.9588C6.86722 17.7948 9.10088 20.1022 11.8465 20.1022C13.3037 20.1022 14.6037 19.4408 15.5152 18.4069L17 19.5867C15.7455 21.0634 13.9055 22 11.8465 22C8.06224 22 5 18.8509 5 14.9588C5 13.4094 5.4882 12.1956 6.19424 11L7.67479 12.1766C7.16792 13.0749 6.86722 13.917 6.86722 14.9588Z" fill="#0674BB"/>
</g>
<defs>
<clipPath id="clip0">
<rect width="24" height="24" fill="white"/>
</clipPath>
</defs>
</svg>
