<svg width="100" height="73" viewBox="0 0 100 73" fill="none" xmlns="http://www.w3.org/2000/svg">
    <g id="en_flag">
        <path d="M0 11.275V22.2222H15.6333L0 11.275ZM12.9556 72.2222H36.1111V56.0083L12.9556 72.2222ZM63.8889 56.0111V72.2222H87.0417L63.8889 56.0111ZM0 50V60.9472L15.6389 50H0ZM87.0472 0H63.8889V16.2139L87.0472 0ZM100 60.95V50H84.3583L100 60.95ZM100 22.2222V11.275L84.3639 22.2222H100ZM36.1111 0H12.9556L36.1111 16.2139V0Z" fill="#00247D"/>
        <path d="M69.8342 50.0004L96.812 68.8921C98.1295 67.5348 99.0764 65.8619 99.562 64.0337L79.5203 50.0004H69.8342ZM36.112 50.0004H30.1648L3.18979 68.8893C4.63701 70.3615 6.49257 71.4143 8.57312 71.9032L36.112 52.6198V50.0004ZM63.8898 22.2226H69.837L96.812 3.33371C95.3399 1.84003 93.4741 0.794897 91.4314 0.319824L63.8898 19.6032V22.2226ZM30.1648 22.2226L3.18979 3.33371C1.87299 4.69198 0.925385 6.36439 0.437012 8.19205L20.4787 22.2226H30.1648Z" fill="#CF1B2B"/>
        <path d="M100 44.4444H58.3333V72.2222H63.8889V56.0111L87.0417 72.2222H88.8889C90.3646 72.2224 91.8255 71.928 93.1859 71.356C94.5463 70.7841 95.7788 69.9463 96.8111 68.8917L69.8333 50H79.5194L99.5611 64.0333C99.8194 63.0972 100 62.1278 100 61.1111V60.95L84.3583 50H100V44.4444ZM0 44.4444V50H15.6389L0 60.9472V61.1111C0 64.1417 1.21944 66.8833 3.18889 68.8889L30.1639 50H36.1111V52.6194L8.57222 71.9C9.38889 72.0944 10.2333 72.2222 11.1111 72.2222H12.9556L36.1111 56.0083V72.2222H41.6667V44.4444H0ZM100 11.1111C100.002 8.19995 98.8559 5.40543 96.8111 3.33333L69.8361 22.2222H63.8889V19.6028L91.4306 0.319445C90.5985 0.115354 89.7456 0.00816126 88.8889 1.05105e-06H87.0472L63.8889 16.2139V1.05105e-06H58.3333V27.7778H100V22.2222H84.3639L100 11.275V11.1111ZM36.1111 1.05105e-06V16.2139L12.9556 1.05105e-06H11.1111C9.63506 -0.000642145 8.17379 0.293926 6.81327 0.866376C5.45275 1.43883 4.22046 2.27759 3.18889 3.33333L30.1639 22.2222H20.4778L0.436111 8.19167C0.160501 9.14086 0.013815 10.1228 0 11.1111L0 11.275L15.6333 22.2222H0V27.7778H41.6667V1.05105e-06H36.1111Z" fill="#EEEEEE"/>
        <path d="M58.3333 27.7778V0H41.6667V27.7778H0V44.4444H41.6667V72.2222H58.3333V44.4444H100V27.7778H58.3333Z" fill="#CF1B2B"/>
        <path d="M0 14C0 6.26802 6.26801 0 14 0H50V72.2222H14C6.26801 72.2222 0 65.9542 0 58.2222V14Z" fill="white"/>
        <path d="M50 0H11.1111C8.16426 0 5.33811 1.17063 3.25437 3.25437C1.17063 5.33811 0 8.16426 0 11.1111L0 38.8889H50V0Z" fill="#3C3B6E"/>
        <path d="M5.55811 7.57233L7.27477 8.81955L6.61922 10.8334L8.33311 9.589L10.0498 10.8334L9.39422 8.81955L11.1109 7.57233H8.98866L8.33311 5.55566L7.68033 7.57233H5.55811ZM11.1137 13.1279L12.8303 14.3751L12.1748 16.389L13.8887 15.1446L15.6053 16.389L14.9498 14.3751L16.6664 13.1279H14.5442L13.8887 11.1112L13.2359 13.1279H11.1137ZM22.2248 13.1279L23.9414 14.3751L23.2859 16.389L24.9998 15.1446L26.7164 16.389L26.0609 14.3751L27.7775 13.1279H25.6553L24.9998 11.1112L24.347 13.1279H22.2248ZM33.3359 13.1279L35.0525 14.3751L34.397 16.389L36.1109 15.1446L37.8276 16.389L37.172 14.3751L38.8887 13.1279H36.7664L36.1109 11.1112L35.4581 13.1279H33.3359ZM11.1137 24.239L12.8303 25.4862L12.1748 27.5001L13.8887 26.2557L15.6053 27.5001L14.9498 25.4862L16.6664 24.239H14.5442L13.8887 22.2223L13.2359 24.239H11.1137ZM22.2248 24.239L23.9414 25.4862L23.2859 27.5001L24.9998 26.2557L26.7164 27.5001L26.0609 25.4862L27.7775 24.239H25.6553L24.9998 22.2223L24.347 24.239H22.2248ZM33.3359 24.239L35.0525 25.4862L34.397 27.5001L36.1109 26.2557L37.8276 27.5001L37.172 25.4862L38.8887 24.239H36.7664L36.1109 22.2223L35.4581 24.239H33.3359ZM16.6692 7.57233L18.3859 8.81955L17.7303 10.8334L19.4442 9.589L21.1609 10.8334L20.5053 8.81955L22.222 7.57233H20.0998L19.4442 5.55566L18.7914 7.57233H16.6692ZM27.7803 7.57233L29.497 8.81955L28.8414 10.8334L30.5553 9.589L32.272 10.8334L31.6164 8.81955L33.3331 7.57233H31.2109L30.5553 5.55566L29.9025 7.57233H27.7803ZM38.8914 7.57233L40.6081 8.81955L39.9525 10.8334L41.6664 9.589L43.3831 10.8334L42.7275 8.81955L44.4442 7.57233H42.322L41.6664 5.55566L41.0137 7.57233H38.8914ZM5.55811 18.6834L7.27477 19.9307L6.61922 21.9446L8.33311 20.7001L10.0498 21.9446L9.39422 19.9307L11.1109 18.6834H8.98866L8.33311 16.6668L7.68033 18.6834H5.55811ZM17.7303 21.9446L19.4442 20.7001L21.1609 21.9446L20.5053 19.9307L22.222 18.6834H20.0998L19.4442 16.6668L18.7914 18.6834H16.6692L18.3859 19.9307L17.7303 21.9446ZM27.7803 18.6834L29.497 19.9307L28.8414 21.9446L30.5553 20.7001L32.272 21.9446L31.6164 19.9307L33.3331 18.6834H31.2109L30.5553 16.6668L29.9025 18.6834H27.7803ZM38.8914 18.6834L40.6081 19.9307L39.9525 21.9446L41.6664 20.7001L43.3831 21.9446L42.7275 19.9307L44.4442 18.6834H42.322L41.6664 16.6668L41.0137 18.6834H38.8914ZM5.55811 29.7946L7.27477 31.0418L6.61922 33.0557L8.33311 31.8112L10.0498 33.0557L9.39422 31.0418L11.1109 29.7946H8.98866L8.33311 27.7779L7.68033 29.7946H5.55811ZM17.7303 33.0557L19.4442 31.8112L21.1609 33.0557L20.5053 31.0418L22.222 29.7946H20.0998L19.4442 27.7779L18.7914 29.7946H16.6692L18.3859 31.0418L17.7303 33.0557ZM27.7803 29.7946L29.497 31.0418L28.8414 33.0557L30.5553 31.8112L32.272 33.0557L31.6164 31.0418L33.3331 29.7946H31.2109L30.5553 27.7779L29.9025 29.7946H27.7803ZM38.8914 29.7946L40.6081 31.0418L39.9525 33.0557L41.6664 31.8112L43.3831 33.0557L42.7275 31.0418L44.4442 29.7946H42.322L41.6664 27.7779L41.0137 29.7946H38.8914Z" fill="white"/>
        <path fill-rule="evenodd" clip-rule="evenodd" d="M50 66.6666V72.2221H11.1111C7.00833 72.2221 3.46667 69.9749 1.54167 66.6666H50ZM50 55.5554V61.111H0V55.5554H50ZM50 44.4443V49.9999H0V44.4443H50Z" fill="#B22334"/>
    </g>
</svg>
