<svg width="100" height="73" viewBox="0 0 100 73" fill="none" xmlns="http://www.w3.org/2000/svg">
<path d="M100 61.1111C100 64.058 98.8294 66.8841 96.7456 68.9678C94.6619 71.0516 91.8357 72.2222 88.8889 72.2222H11.1111C8.16426 72.2222 5.33811 71.0516 3.25437 68.9678C1.17063 66.8841 0 64.058 0 61.1111V11.1111C0 8.16426 1.17063 5.33811 3.25437 3.25437C5.33811 1.17063 8.16426 0 11.1111 0H88.8889C91.8357 0 94.6619 1.17063 96.7456 3.25437C98.8294 5.33811 100 8.16426 100 11.1111V61.1111Z" fill="#C60A1D"/>
<path d="M0 19.4443H100V52.7777H0V19.4443Z" fill="#FFC400"/>
</svg>
