<svg viewBox="0 0 24 24" fill="none" xmlns="http://www.w3.org/2000/svg">
  <g id="FR">
    <g clip-path="url(#clip0)">
    <rect x="2.74072" y="14.9814" width="18.5185" height="2.22222" fill="#ECC800"/>
    <path fill-rule="evenodd" clip-rule="evenodd" d="M4 19C3.71285 19 3.45397 18.879 3.27158 18.6851H2.93067C2.41668 18.6851 2 18.2685 2 17.7545C2 17.2405 2.41668 16.8238 2.93067 16.8238H3L3 5C3 4.44772 3.44771 4 4 4C4.55228 4 5 4.44772 5 5L5 16.8238L19 16.8238V5C19 4.44772 19.4477 4 20 4C20.5523 4 21 4.44772 21 5V16.8238H21.0693C21.5833 16.8238 22 17.2405 22 17.7545C22 18.2685 21.5833 18.6851 21.0693 18.6851H20.7284C20.546 18.879 20.2871 19 20 19C19.7129 19 19.454 18.879 19.2716 18.6851L4.72842 18.6851C4.54603 18.879 4.28715 19 4 19Z" fill="black"/>
    </g>
    <defs>
    <clipPath id="clip0">
    <rect width="24" height="24" fill="white"/>
    </clipPath>
    </defs>
  </g>
</svg>
