<svg viewBox="0 0 24 24" fill="none" xmlns="http://www.w3.org/2000/svg">
  <g id="FR">
    <g clip-path="url(#clip0)">
      <rect x="0.888672" y="14.7778" width="22.2222" height="2.66667" fill="#ECC800"/>
      <path fill-rule="evenodd" clip-rule="evenodd" d="M1.77771 19.2222L1.77588 19.2222H1.11681C0.500011 19.2222 0 18.7222 0 18.1054C0 17.5667 0.381363 17.1172 0.888822 17.0119L0.888822 5.88889C0.888822 5.39797 1.28679 5 1.77771 5C2.26863 5 2.6666 5.39797 2.6666 5.88889L2.6666 16.9886L21.3335 16.9886V5.88889C21.3335 5.39797 21.7315 5 22.2224 5C22.7133 5 23.1113 5.39797 23.1113 5.88889V17.0119C23.6187 17.1172 24 17.5668 24 18.1054C24 18.7222 23.5 19.2222 22.8832 19.2222H22.2228C22.2226 19.2222 22.2225 19.2222 22.2224 19.2222C22.2223 19.2222 22.2222 19.2222 22.2221 19.2222L1.77954 19.2222L1.77771 19.2222Z" fill="black"/>
    </g>
    <defs>
      <clipPath id="clip0">
        <rect width="24" height="24" fill="white"/>
      </clipPath>
    </defs>
  </g>
</svg>
