<svg width="24" height="24" viewBox="0 0 24 24" fill="none" xmlns="http://www.w3.org/2000/svg">
  <g id="HC">
    <path d="M18.8571 8.93643V8.55159C18.8571 8.33993 18.645 8.16675 18.3857 8.16675H0.471429C0.212143 8.16675 0 8.33993 0 8.55159V8.93643C0 9.14809 0.212143 9.32127 0.471429 9.32127V17.7877C0.212143 17.7877 0 17.9609 0 18.1726V18.5574C0 18.7691 0.212143 18.9423 0.471429 18.9423H18.3857C18.645 18.9423 18.8571 18.7691 18.8571 18.5574V18.1726C18.8571 17.9609 18.645 17.7877 18.3857 17.7877V9.32127C18.645 9.32127 18.8571 9.14809 18.8571 8.93643ZM16.9714 17.7877H1.88571V9.32127H16.9714V17.7877ZM4.00714 16.6332H4.95C5.07964 16.6332 5.18571 16.5466 5.18571 16.4408V10.6682C5.18571 10.5624 5.07964 10.4758 4.95 10.4758H4.00714C3.8775 10.4758 3.77143 10.5624 3.77143 10.6682V16.4408C3.77143 16.5466 3.8775 16.6332 4.00714 16.6332ZM10.6071 16.6332H11.55C11.6796 16.6332 11.7857 16.5466 11.7857 16.4408V10.6682C11.7857 10.5624 11.6796 10.4758 11.55 10.4758H10.6071C10.4775 10.4758 10.3714 10.5624 10.3714 10.6682V16.4408C10.3714 16.5466 10.4775 16.6332 10.6071 16.6332ZM13.9071 16.6332H14.85C14.9796 16.6332 15.0857 16.5466 15.0857 16.4408V10.6682C15.0857 10.5624 14.9796 10.4758 14.85 10.4758H13.9071C13.7775 10.4758 13.6714 10.5624 13.6714 10.6682V16.4408C13.6714 16.5466 13.7775 16.6332 13.9071 16.6332ZM7.30714 16.6332H8.25C8.37964 16.6332 8.48571 16.5466 8.48571 16.4408V10.6682C8.48571 10.5624 8.37964 10.4758 8.25 10.4758H7.30714C7.1775 10.4758 7.07143 10.5624 7.07143 10.6682V16.4408C7.07143 16.5466 7.1775 16.6332 7.30714 16.6332Z" fill="black"/>
    <path fill-rule="evenodd" clip-rule="evenodd" d="M20.4714 9.14119L18.8806 9.14119L21.3714 6L23.8623 9.14119L22.2714 9.14119L22.2714 18.9424L20.4714 18.9424L20.4714 9.14119Z" fill="#0674BB"/>
  </g>
</svg>
