<svg width="35" height="35" viewBox="0 0 35 35" fill="none" xmlns="http://www.w3.org/2000/svg">
<circle cx="17.5" cy="17.5" r="17.5" fill="white"/>
<path d="M24.8571 12.9364V12.5516C24.8571 12.3399 24.645 12.1667 24.3857 12.1667H6.47143C6.21214 12.1667 6 12.3399 6 12.5516V12.9364C6 13.1481 6.21214 13.3213 6.47143 13.3213V21.7877C6.21214 21.7877 6 21.9609 6 22.1726V22.5574C6 22.7691 6.21214 22.9423 6.47143 22.9423H24.3857C24.645 22.9423 24.8571 22.7691 24.8571 22.5574V22.1726C24.8571 21.9609 24.645 21.7877 24.3857 21.7877V13.3213C24.645 13.3213 24.8571 13.1481 24.8571 12.9364ZM22.9714 21.7877H7.88571V13.3213H22.9714V21.7877ZM10.0071 20.6332H10.95C11.0796 20.6332 11.1857 20.5466 11.1857 20.4408V14.6682C11.1857 14.5624 11.0796 14.4758 10.95 14.4758H10.0071C9.8775 14.4758 9.77143 14.5624 9.77143 14.6682V20.4408C9.77143 20.5466 9.8775 20.6332 10.0071 20.6332ZM16.6071 20.6332H17.55C17.6796 20.6332 17.7857 20.5466 17.7857 20.4408V14.6682C17.7857 14.5624 17.6796 14.4758 17.55 14.4758H16.6071C16.4775 14.4758 16.3714 14.5624 16.3714 14.6682V20.4408C16.3714 20.5466 16.4775 20.6332 16.6071 20.6332ZM19.9071 20.6332H20.85C20.9796 20.6332 21.0857 20.5466 21.0857 20.4408V14.6682C21.0857 14.5624 20.9796 14.4758 20.85 14.4758H19.9071C19.7775 14.4758 19.6714 14.5624 19.6714 14.6682V20.4408C19.6714 20.5466 19.7775 20.6332 19.9071 20.6332ZM13.3071 20.6332H14.25C14.3796 20.6332 14.4857 20.5466 14.4857 20.4408V14.6682C14.4857 14.5624 14.3796 14.4758 14.25 14.4758H13.3071C13.1775 14.4758 13.0714 14.5624 13.0714 14.6682V20.4408C13.0714 20.5466 13.1775 20.6332 13.3071 20.6332Z" fill="black"/>
<path fill-rule="evenodd" clip-rule="evenodd" d="M26.4714 13.1412L24.8806 13.1412L27.3714 10L29.8623 13.1412L28.2714 13.1412L28.2714 22.9424L26.4714 22.9424L26.4714 13.1412Z" fill="#0674BB"/>
</svg>
