<svg width="35" height="35" viewBox="0 0 35 35" fill="none" xmlns="http://www.w3.org/2000/svg">
<circle cx="17.5" cy="17.5" r="17.5" fill="white"/>
<path d="M20.8876 13.344C20.8876 13.1305 20.7614 12.9558 20.6071 12.9558H9.94798C9.79371 12.9558 9.66748 13.1305 9.66748 13.344V13.3064C9.66748 13.5199 9.79371 13.7322 9.94798 13.7322V23.0489C9.79371 23.0489 9.66748 23.2236 9.66748 23.4371C9.66748 23.6506 9.79371 23.8253 9.94798 23.8253H20.6071C20.7614 23.8253 20.8876 23.6506 20.8876 23.4371C20.8876 23.2236 20.7614 23.0489 20.6071 23.0489V13.7322C20.7614 13.7322 20.8876 13.5575 20.8876 13.344ZM19.7656 23.0489H10.7895V13.7322H19.7656V23.0489Z" fill="black"/>
<path d="M11.4533 22.114C11.3888 22.1197 11.3321 22.0719 11.3267 22.0073C11.3213 21.9428 11.3693 21.8858 11.4339 21.8801L14.1313 21.6422C14.1958 21.6365 14.2525 21.6842 14.2579 21.7488C14.2632 21.8134 14.2152 21.8703 14.1507 21.876L11.4533 22.114Z" fill="#ECC800"/>
<path d="M11.4533 14.5245C11.3888 14.5188 11.3321 14.5665 11.3267 14.6311C11.3213 14.6957 11.3693 14.7526 11.4339 14.7583L14.1313 14.9962C14.1958 15.0019 14.2525 14.9542 14.2579 14.8896C14.2632 14.825 14.2152 14.7681 14.1507 14.7624L11.4533 14.5245Z" fill="#ECC800"/>
<path d="M14.0542 21.7237C14.0542 21.7885 14.1067 21.8411 14.1715 21.8411C14.2363 21.8411 14.2888 21.7885 14.2888 21.7237L14.2888 14.9445C14.2888 14.8797 14.2363 14.8271 14.1715 14.8271C14.1067 14.8271 14.0542 14.8797 14.0542 14.9445L14.0542 21.7237Z" fill="#ECC800"/>
<path d="M11.9751 21.1197C11.9751 21.1845 12.0276 21.2371 12.0924 21.2371C12.1572 21.2371 12.2097 21.1845 12.2097 21.1197L12.2097 15.694C12.2097 15.6292 12.1572 15.5767 12.0924 15.5767C12.0276 15.5767 11.9751 15.6292 11.9751 15.694L11.9751 21.1197Z" fill="#ECC800"/>
<path d="M12.9595 20.7323C12.9595 20.7971 13.012 20.8496 13.0768 20.8496C13.1416 20.8496 13.1941 20.7971 13.1941 20.7323L13.1941 16.0393C13.1941 15.9745 13.1416 15.922 13.0768 15.922C13.012 15.922 12.9595 15.9745 12.9595 16.0393L12.9595 20.7323Z" fill="#ECC800"/>
<path d="M19.0135 22.1142C19.078 22.1199 19.1347 22.0722 19.1401 22.0076C19.1454 21.943 19.0975 21.8861 19.0329 21.8804L16.3355 21.6424C16.271 21.6367 16.2143 21.6845 16.2089 21.749C16.2036 21.8136 16.2516 21.8706 16.3161 21.8763L19.0135 22.1142Z" fill="#ECC800"/>
<path d="M19.013 14.5247C19.0776 14.519 19.1342 14.5668 19.1396 14.6313C19.145 14.6959 19.097 14.7529 19.0324 14.7586L16.335 14.9965C16.2705 15.0022 16.2138 14.9544 16.2085 14.8899C16.2031 14.8253 16.2511 14.7683 16.3156 14.7626L19.013 14.5247Z" fill="#ECC800"/>
<path d="M16.4126 21.7237C16.4126 21.7885 16.3601 21.8411 16.2953 21.8411C16.2305 21.8411 16.1779 21.7885 16.1779 21.7237L16.1779 14.9445C16.1779 14.8797 16.2305 14.8271 16.2953 14.8271C16.3601 14.8271 16.4126 14.8797 16.4126 14.9445L16.4126 21.7237Z" fill="#ECC800"/>
<path d="M18.4917 21.12C18.4917 21.1848 18.4392 21.2373 18.3744 21.2373C18.3096 21.2373 18.257 21.1848 18.2571 21.12L18.2571 15.6943C18.2571 15.6295 18.3096 15.577 18.3744 15.577C18.4392 15.577 18.4917 15.6295 18.4917 15.6943L18.4917 21.12Z" fill="#ECC800"/>
<path d="M17.5073 20.7325C17.5073 20.7973 17.4548 20.8499 17.39 20.8499C17.3252 20.8499 17.2727 20.7973 17.2727 20.7325L17.2727 16.0395C17.2727 15.9747 17.3252 15.9222 17.39 15.9222C17.4548 15.9222 17.5073 15.9747 17.5073 16.0395L17.5073 20.7325Z" fill="#ECC800"/>
<path d="M10.0088 23.2159C10.1574 23.1769 10.2456 23.025 10.2058 22.8766C10.1661 22.7282 10.0134 22.6395 9.86482 22.6785L6.26919 23.6224C6.12061 23.6614 6.03239 23.8133 6.07215 23.9617C6.11191 24.1101 6.26459 24.1988 6.41317 24.1597L10.0088 23.2159Z" fill="black"/>
<path d="M10.0088 13.5121C10.1574 13.5511 10.2456 13.7031 10.2058 13.8514C10.1661 13.9998 10.0134 14.0885 9.86482 14.0495L6.26919 13.1056C6.12061 13.0666 6.03239 12.9147 6.07215 12.7663C6.11191 12.6179 6.26459 12.5293 6.41317 12.5683L10.0088 13.5121Z" fill="black"/>
<path d="M6.56836 23.8007C6.56836 23.9576 6.44121 24.0847 6.28435 24.0847C6.1275 24.0847 6.00035 23.9576 6.00035 23.8007L6.00035 12.8949C6.00035 12.738 6.1275 12.6109 6.28435 12.6109C6.44121 12.6109 6.56836 12.738 6.56836 12.8949L6.56836 23.8007Z" fill="black"/>
<path d="M7.67236 22.2678C7.67236 22.4159 7.55234 22.5359 7.40428 22.5359C7.25622 22.5359 7.1362 22.4159 7.1362 22.2678L7.1362 14.5828C7.1362 14.4348 7.25623 14.3147 7.40428 14.3147C7.55234 14.3147 7.67236 14.4348 7.67236 14.5828L7.67236 22.2678Z" fill="black"/>
<path d="M9.2627 21.959C9.2627 22.107 9.14267 22.2271 8.99461 22.2271C8.84656 22.2271 8.72653 22.107 8.72653 21.959L8.72653 14.8101C8.72653 14.6621 8.84656 14.5421 8.99461 14.5421C9.14267 14.5421 9.2627 14.6621 9.2627 14.8101L9.2627 21.959Z" fill="black"/>
<path d="M20.5723 23.2154C20.4237 23.1764 20.3355 23.0245 20.3752 22.8761C20.415 22.7277 20.5677 22.6391 20.7162 22.6781L24.3119 23.6219C24.4604 23.6609 24.5487 23.8128 24.5089 23.9612C24.4691 24.1096 24.3165 24.1983 24.1679 24.1593L20.5723 23.2154Z" fill="black"/>
<path d="M20.5723 13.5117C20.4237 13.5507 20.3355 13.7026 20.3752 13.8509C20.415 13.9993 20.5677 14.088 20.7162 14.049L24.3119 13.1051C24.4604 13.0661 24.5487 12.9142 24.5089 12.7658C24.4691 12.6175 24.3165 12.5288 24.1679 12.5678L20.5723 13.5117Z" fill="black"/>
<path d="M24.0132 23.8005C24.0132 23.9573 24.1403 24.0845 24.2972 24.0845C24.454 24.0845 24.5812 23.9573 24.5812 23.8005L24.5812 12.8947C24.5812 12.7378 24.454 12.6106 24.2972 12.6106C24.1403 12.6106 24.0132 12.7378 24.0132 12.8947L24.0132 23.8005Z" fill="black"/>
<path d="M22.9087 22.2678C22.9087 22.4159 23.0287 22.5359 23.1768 22.5359C23.3248 22.5359 23.4449 22.4159 23.4449 22.2678L23.4449 14.5828C23.4449 14.4348 23.3248 14.3147 23.1768 14.3147C23.0287 14.3147 22.9087 14.4348 22.9087 14.5828L22.9087 22.2678Z" fill="black"/>
<path d="M21.3179 21.9587C21.3179 22.1068 21.4379 22.2268 21.586 22.2268C21.734 22.2268 21.854 22.1068 21.854 21.9587L21.854 14.8099C21.854 14.6618 21.734 14.5418 21.586 14.5418C21.4379 14.5418 21.3179 14.6618 21.3179 14.8099L21.3179 21.9587Z" fill="black"/>
<path fill-rule="evenodd" clip-rule="evenodd" d="M19.2033 14.4227C19.2033 14.3721 19.1622 14.3311 19.1116 14.3311H11.3181C11.2675 14.3311 11.2264 14.3721 11.2264 14.4227C11.2264 14.4238 11.2265 14.4249 11.2265 14.4259V22.2072C11.2262 22.2102 11.2261 22.2131 11.2261 22.2162C11.2261 22.2556 11.2509 22.2892 11.2858 22.3021C11.2959 22.3059 11.3068 22.308 11.3182 22.308C11.32 22.308 11.3218 22.3079 11.3236 22.3078L19.1084 22.3078L19.1112 22.3079C19.1619 22.3079 19.2029 22.2668 19.2029 22.2162V14.4309C19.2032 14.4282 19.2033 14.4255 19.2033 14.4227ZM11.4099 22.1245L19.0195 22.1245V14.5144L11.4099 14.5144V22.1245Z" fill="black"/>
<path d="M10.7676 13.6892L11.3177 14.4227" stroke="black" stroke-width="0.3"/>
<path d="M19.1113 14.4227L19.8448 13.6892" stroke="black" stroke-width="0.3"/>
<path d="M11.3177 22.2163L10.7676 23.0415" stroke="black" stroke-width="0.3"/>
<path d="M19.7531 23.0415L19.1113 22.2163" stroke="black" stroke-width="0.3"/>
<path fill-rule="evenodd" clip-rule="evenodd" d="M26.5967 14.1552L25 14.1552L27.5 11L30 14.1552L28.4033 14.1552L28.4033 24L26.5967 24L26.5967 14.1552Z" fill="#0674BB"/>
</svg>
