<svg width="24" height="24" viewBox="0 0 24 24" fill="none" xmlns="http://www.w3.org/2000/svg">
<path d="M14.8876 7.34401C14.8876 7.1305 14.7614 6.95581 14.6071 6.95581H3.94798C3.79371 6.95581 3.66748 7.1305 3.66748 7.34401V7.30644C3.66748 7.51995 3.79371 7.7322 3.94798 7.7322V17.0489C3.79371 17.0489 3.66748 17.2236 3.66748 17.4371C3.66748 17.6506 3.79371 17.8253 3.94798 17.8253H14.6071C14.7614 17.8253 14.8876 17.6506 14.8876 17.4371C14.8876 17.2236 14.7614 17.0489 14.6071 17.0489V7.7322C14.7614 7.7322 14.8876 7.55751 14.8876 7.34401ZM13.7656 17.0489H4.78949V7.7322H13.7656V17.0489Z" fill="black"/>
<path d="M5.4533 16.114C5.38875 16.1197 5.33208 16.0719 5.32671 16.0073C5.32135 15.9428 5.36932 15.8858 5.43387 15.8801L8.13127 15.6422C8.19581 15.6365 8.25249 15.6842 8.25785 15.7488C8.26321 15.8134 8.21524 15.8703 8.15069 15.876L5.4533 16.114Z" fill="#ECC800"/>
<path d="M5.4533 8.52447C5.38875 8.51878 5.33208 8.56651 5.32671 8.63108C5.32135 8.69566 5.36932 8.75262 5.43387 8.75831L8.13127 8.99624C8.19581 9.00193 8.25249 8.9542 8.25785 8.88962C8.26321 8.82505 8.21524 8.76809 8.15069 8.76239L5.4533 8.52447Z" fill="#ECC800"/>
<path d="M8.0542 15.7237C8.0542 15.7885 8.10673 15.8411 8.17152 15.8411C8.23632 15.8411 8.28885 15.7885 8.28885 15.7237L8.28885 8.94447C8.28885 8.87968 8.23632 8.82715 8.17152 8.82715C8.10673 8.82715 8.0542 8.87968 8.0542 8.94447L8.0542 15.7237Z" fill="#ECC800"/>
<path d="M5.9751 15.1197C5.9751 15.1845 6.02763 15.2371 6.09242 15.2371C6.15722 15.2371 6.20975 15.1845 6.20975 15.1197L6.20975 9.69403C6.20975 9.62924 6.15722 9.57671 6.09242 9.57671C6.02763 9.57671 5.9751 9.62924 5.9751 9.69403L5.9751 15.1197Z" fill="#ECC800"/>
<path d="M6.95947 14.7323C6.95947 14.7971 7.012 14.8496 7.0768 14.8496C7.14159 14.8496 7.19412 14.7971 7.19412 14.7323L7.19412 10.0393C7.19412 9.9745 7.14159 9.92198 7.0768 9.92198C7.012 9.92198 6.95947 9.9745 6.95947 10.0393L6.95947 14.7323Z" fill="#ECC800"/>
<path d="M13.0135 16.1142C13.078 16.1199 13.1347 16.0722 13.1401 16.0076C13.1454 15.943 13.0975 15.8861 13.0329 15.8804L10.3355 15.6424C10.271 15.6367 10.2143 15.6845 10.2089 15.749C10.2036 15.8136 10.2516 15.8706 10.3161 15.8763L13.0135 16.1142Z" fill="#ECC800"/>
<path d="M13.013 8.52471C13.0776 8.51902 13.1342 8.56675 13.1396 8.63133C13.145 8.6959 13.097 8.75286 13.0324 8.75856L10.335 8.99648C10.2705 9.00217 10.2138 8.95444 10.2085 8.88987C10.2031 8.82529 10.2511 8.76833 10.3156 8.76264L13.013 8.52471Z" fill="#ECC800"/>
<path d="M10.4126 15.7237C10.4126 15.7885 10.3601 15.8411 10.2953 15.8411C10.2305 15.8411 10.1779 15.7885 10.1779 15.7237L10.1779 8.94447C10.1779 8.87968 10.2305 8.82715 10.2953 8.82715C10.3601 8.82715 10.4126 8.87968 10.4126 8.94447L10.4126 15.7237Z" fill="#ECC800"/>
<path d="M12.4917 15.12C12.4917 15.1848 12.4392 15.2373 12.3744 15.2373C12.3096 15.2373 12.257 15.1848 12.2571 15.12L12.2571 9.69428C12.2571 9.62948 12.3096 9.57695 12.3744 9.57695C12.4392 9.57695 12.4917 9.62948 12.4917 9.69428L12.4917 15.12Z" fill="#ECC800"/>
<path d="M11.5073 14.7325C11.5073 14.7973 11.4548 14.8499 11.39 14.8499C11.3252 14.8499 11.2727 14.7973 11.2727 14.7325L11.2727 10.0395C11.2727 9.97475 11.3252 9.92222 11.39 9.92222C11.4548 9.92222 11.5073 9.97475 11.5073 10.0395L11.5073 14.7325Z" fill="#ECC800"/>
<path d="M4.0088 17.2159C4.15738 17.1769 4.2456 17.025 4.20584 16.8766C4.16608 16.7282 4.0134 16.6395 3.86482 16.6785L0.269193 17.6224C0.12061 17.6614 0.0323906 17.8133 0.0721497 17.9617C0.111909 18.1101 0.26459 18.1988 0.413173 18.1597L4.0088 17.2159Z" fill="black"/>
<path d="M4.0088 7.51214C4.15738 7.55115 4.2456 7.70305 4.20584 7.85143C4.16608 7.99982 4.0134 8.08849 3.86482 8.04948L0.269193 7.10562C0.12061 7.06662 0.0323906 6.91471 0.0721497 6.76633C0.111909 6.61795 0.26459 6.52928 0.413173 6.56828L4.0088 7.51214Z" fill="black"/>
<path d="M0.568359 17.8007C0.568359 17.9576 0.441206 18.0847 0.284353 18.0847C0.127501 18.0847 0.000347268 17.9576 0.000347282 17.8007L0.000348254 6.8949C0.000348268 6.73805 0.127502 6.61089 0.284354 6.61089C0.441207 6.61089 0.56836 6.73805 0.56836 6.8949L0.568359 17.8007Z" fill="black"/>
<path d="M1.67236 16.2678C1.67236 16.4159 1.55234 16.5359 1.40428 16.5359C1.25622 16.5359 1.1362 16.4159 1.1362 16.2678L1.1362 8.58282C1.1362 8.43476 1.25623 8.31474 1.40428 8.31474C1.55234 8.31474 1.67236 8.43476 1.67236 8.58282L1.67236 16.2678Z" fill="black"/>
<path d="M3.2627 15.959C3.2627 16.107 3.14267 16.2271 2.99461 16.2271C2.84656 16.2271 2.72653 16.107 2.72653 15.959L2.72653 8.81015C2.72653 8.66209 2.84656 8.54207 2.99461 8.54207C3.14267 8.54207 3.2627 8.66209 3.2627 8.81015L3.2627 15.959Z" fill="black"/>
<path d="M14.5723 17.2154C14.4237 17.1764 14.3355 17.0245 14.3752 16.8761C14.415 16.7277 14.5677 16.6391 14.7162 16.6781L18.3119 17.6219C18.4604 17.6609 18.5487 17.8128 18.5089 17.9612C18.4691 18.1096 18.3165 18.1983 18.1679 18.1593L14.5723 17.2154Z" fill="black"/>
<path d="M14.5723 7.51165C14.4237 7.55066 14.3355 7.70256 14.3752 7.85095C14.415 7.99933 14.5677 8.088 14.7162 8.049L18.3119 7.10513C18.4604 7.06613 18.5487 6.91422 18.5089 6.76584C18.4691 6.61746 18.3165 6.52879 18.1679 6.56779L14.5723 7.51165Z" fill="black"/>
<path d="M18.0132 17.8005C18.0132 17.9573 18.1403 18.0845 18.2972 18.0845C18.454 18.0845 18.5812 17.9573 18.5812 17.8005L18.5812 6.89465C18.5812 6.7378 18.454 6.61065 18.2972 6.61065C18.1403 6.61065 18.0132 6.7378 18.0132 6.89465L18.0132 17.8005Z" fill="black"/>
<path d="M16.9087 16.2678C16.9087 16.4159 17.0287 16.5359 17.1768 16.5359C17.3248 16.5359 17.4449 16.4159 17.4449 16.2678L17.4449 8.58282C17.4449 8.43476 17.3248 8.31474 17.1768 8.31474C17.0287 8.31474 16.9087 8.43476 16.9087 8.58282L16.9087 16.2678Z" fill="black"/>
<path d="M15.3179 15.9587C15.3179 16.1068 15.4379 16.2268 15.586 16.2268C15.734 16.2268 15.854 16.1068 15.854 15.9587L15.854 8.8099C15.854 8.66185 15.734 8.54182 15.586 8.54182C15.4379 8.54182 15.3179 8.66185 15.3179 8.8099L15.3179 15.9587Z" fill="black"/>
<path fill-rule="evenodd" clip-rule="evenodd" d="M13.2033 8.42274C13.2033 8.37211 13.1622 8.33105 13.1116 8.33105H5.31814C5.2675 8.33105 5.22645 8.3721 5.22645 8.42274C5.22645 8.4238 5.22647 8.42486 5.2265 8.42591V16.2072C5.22622 16.2102 5.22607 16.2131 5.22607 16.2162C5.22607 16.2556 5.25093 16.2892 5.28582 16.3021C5.29588 16.3059 5.30679 16.308 5.31819 16.308C5.32002 16.308 5.32184 16.3079 5.32364 16.3078L13.1084 16.3078L13.1112 16.3079C13.1619 16.3079 13.2029 16.2668 13.2029 16.2162V8.4309C13.2032 8.42821 13.2033 8.42549 13.2033 8.42274ZM5.40988 16.1245L13.0195 16.1245V8.51443L5.40988 8.51443V16.1245Z" fill="black"/>
<path d="M4.76758 7.68921L5.3177 8.42271" stroke="black" stroke-width="0.3"/>
<path d="M13.1113 8.42271L13.8448 7.68921" stroke="black" stroke-width="0.3"/>
<path d="M5.3177 16.2163L4.76758 17.0415" stroke="black" stroke-width="0.3"/>
<path d="M13.7531 17.0415L13.1113 16.2163" stroke="black" stroke-width="0.3"/>
<path fill-rule="evenodd" clip-rule="evenodd" d="M20.5967 8.15517L19 8.15517L21.5 5L24 8.15517L22.4033 8.15517L22.4033 18L20.5967 18L20.5967 8.15517Z" fill="#0674BB"/>
</svg>
