<svg width="35" height="35" viewBox="0 0 35 35" fill="none" xmlns="http://www.w3.org/2000/svg">
<circle cx="17.5" cy="17.5" r="17.5" fill="white"/>
<path fill-rule="evenodd" clip-rule="evenodd" d="M24.5967 14.4383L23 14.4383L25.5 11L28 14.4383L26.4033 14.4383L26.4033 25.1667L24.5967 25.1667L24.5967 14.4383Z" fill="#0674BB"/>
<rect x="23.4551" y="13.397" width="15.4553" height="1.17595" rx="0.587973" transform="rotate(-180 23.4551 13.397)" fill="black"/>
<rect x="23.4551" y="25.3247" width="15.4553" height="1.17595" rx="0.587973" transform="rotate(-180 23.4551 25.3247)" fill="black"/>
<rect x="8.50391" y="25.3247" width="13.1034" height="1.17595" rx="0.587974" transform="rotate(-90 8.50391 25.3247)" fill="black"/>
<rect x="21.7588" y="25.3247" width="13.1034" height="1.17595" rx="0.587974" transform="rotate(-90 21.7588 25.3247)" fill="black"/>
<path d="M16.0144 21.7475C15.9404 21.7475 15.8798 21.6845 15.8798 21.6075V21.3275C15.8798 21.2505 15.9404 21.1875 16.0144 21.1875H21.1305C21.2046 21.1875 21.2651 21.2505 21.2651 21.3275V21.6075C21.2651 21.6845 21.2046 21.7475 21.1305 21.7475H20.7266V22.3074H21.1305C21.2046 22.3074 21.2651 22.3704 21.2651 22.4474V22.7274C21.2651 22.8044 21.2046 22.8674 21.1305 22.8674H16.0144C15.9404 22.8674 15.8798 22.8044 15.8798 22.7274V22.4474C15.8798 22.3704 15.9404 22.3074 16.0144 22.3074H16.4183V21.7475H16.0144ZM18.8417 22.3074H20.1881V21.7475H18.8417V22.3074ZM16.9568 22.3074H18.3032V21.7475H16.9568V22.3074Z" fill="black"/>
<path d="M10.3123 21.7467C10.2382 21.7467 10.1776 21.6837 10.1776 21.6067V21.3268C10.1776 21.2498 10.2382 21.1868 10.3123 21.1868H15.4284C15.5024 21.1868 15.563 21.2498 15.563 21.3268V21.6067C15.563 21.6837 15.5024 21.7467 15.4284 21.7467H15.0245V22.3067H15.4284C15.5024 22.3067 15.563 22.3697 15.563 22.4467V22.7267C15.563 22.8037 15.5024 22.8667 15.4284 22.8667H10.3123C10.2382 22.8667 10.1776 22.8037 10.1776 22.7267V22.4467C10.1776 22.3697 10.2382 22.3067 10.3123 22.3067H10.7162V21.7467H10.3123ZM13.1396 22.3067H14.4859V21.7467H13.1396V22.3067ZM11.2547 22.3067H12.601V21.7467H11.2547V22.3067Z" fill="#0674BB"/>
<path d="M16.0144 18.5885C15.9404 18.5885 15.8798 18.5255 15.8798 18.4485V18.1686C15.8798 18.0916 15.9404 18.0286 16.0144 18.0286H21.1305C21.2046 18.0286 21.2651 18.0916 21.2651 18.1686V18.4485C21.2651 18.5255 21.2046 18.5885 21.1305 18.5885H20.7266V19.1485H21.1305C21.2046 19.1485 21.2651 19.2115 21.2651 19.2885V19.5685C21.2651 19.6455 21.2046 19.7085 21.1305 19.7085H16.0144C15.9404 19.7085 15.8798 19.6455 15.8798 19.5685V19.2885C15.8798 19.2115 15.9404 19.1485 16.0144 19.1485H16.4183V18.5885H16.0144ZM18.8417 19.1485H20.1881V18.5885H18.8417V19.1485ZM16.9568 19.1485H18.3032V18.5885H16.9568V19.1485Z" fill="#0674BB"/>
<path d="M10.3123 18.5876C10.2382 18.5876 10.1776 18.5246 10.1776 18.4476V18.1676C10.1776 18.0906 10.2382 18.0276 10.3123 18.0276H15.4284C15.5024 18.0276 15.563 18.0906 15.563 18.1676V18.4476C15.563 18.5246 15.5024 18.5876 15.4284 18.5876H15.0245V19.1475H15.4284C15.5024 19.1475 15.563 19.2105 15.563 19.2875V19.5675C15.563 19.6445 15.5024 19.7075 15.4284 19.7075H10.3123C10.2382 19.7075 10.1776 19.6445 10.1776 19.5675V19.2875C10.1776 19.2105 10.2382 19.1475 10.3123 19.1475H10.7162V18.5876H10.3123ZM13.1396 19.1475H14.4859V18.5876H13.1396V19.1475ZM11.2547 19.1475H12.601V18.5876H11.2547V19.1475Z" fill="black"/>
<path d="M16.0144 15.4301C15.9404 15.4301 15.8798 15.3671 15.8798 15.2901V15.0101C15.8798 14.9331 15.9404 14.8701 16.0144 14.8701H21.1305C21.2046 14.8701 21.2651 14.9331 21.2651 15.0101V15.2901C21.2651 15.3671 21.2046 15.4301 21.1305 15.4301H20.7266V15.9901H21.1305C21.2046 15.9901 21.2651 16.0531 21.2651 16.1301V16.41C21.2651 16.487 21.2046 16.55 21.1305 16.55H16.0144C15.9404 16.55 15.8798 16.487 15.8798 16.41V16.1301C15.8798 16.0531 15.9404 15.9901 16.0144 15.9901H16.4183V15.4301H16.0144ZM18.8417 15.9901H20.1881V15.4301H18.8417V15.9901ZM16.9568 15.9901H18.3032V15.4301H16.9568V15.9901Z" fill="black"/>
<path d="M10.3123 15.4281C10.2382 15.4281 10.1776 15.3651 10.1776 15.2881V15.0082C10.1776 14.9312 10.2382 14.8682 10.3123 14.8682H15.4284C15.5024 14.8682 15.563 14.9312 15.563 15.0082V15.2881C15.563 15.3651 15.5024 15.4281 15.4284 15.4281H15.0245V15.9881H15.4284C15.5024 15.9881 15.563 16.0511 15.563 16.1281V16.4081C15.563 16.4851 15.5024 16.5481 15.4284 16.5481H10.3123C10.2382 16.5481 10.1776 16.4851 10.1776 16.4081V16.1281C10.1776 16.0511 10.2382 15.9881 10.3123 15.9881H10.7162V15.4281H10.3123ZM13.1396 15.9881H14.4859V15.4281H13.1396V15.9881ZM11.2547 15.9881H12.601V15.4281H11.2547V15.9881Z" fill="#0674BB"/>
</svg>
