<svg viewBox="0 0 24 24" fill="none" xmlns="http://www.w3.org/2000/svg">
  <g id="HCPW">
    <rect x="18.5464" y="5.87646" width="18.5464" height="1.41114" rx="0.705568" transform="rotate(-180 18.5464 5.87646)" fill="black"/>
    <rect x="18.5464" y="20.1897" width="18.5464" height="1.41114" rx="0.705568" transform="rotate(-180 18.5464 20.1897)" fill="black"/>
    <rect x="0.60498" y="20.1897" width="15.7241" height="1.41114" rx="0.705569" transform="rotate(-90 0.60498 20.1897)" fill="black"/>
    <rect x="16.5103" y="20.1897" width="15.7241" height="1.41114" rx="0.705569" transform="rotate(-90 16.5103 20.1897)" fill="black"/>
    <path d="M9.6171 15.8968C9.52824 15.8968 9.45554 15.8212 9.45554 15.7288V15.3928C9.45554 15.3005 9.52824 15.2249 9.6171 15.2249H15.7564C15.8453 15.2249 15.918 15.3005 15.918 15.3928V15.7288C15.918 15.8212 15.8453 15.8968 15.7564 15.8968H15.2717V16.5688H15.7564C15.8453 16.5688 15.918 16.6444 15.918 16.7368V17.0728C15.918 17.1652 15.8453 17.2408 15.7564 17.2408H9.6171C9.52824 17.2408 9.45554 17.1652 9.45554 17.0728V16.7368C9.45554 16.6444 9.52824 16.5688 9.6171 16.5688H10.1018V15.8968H9.6171ZM13.0099 16.5688H14.6255V15.8968H13.0099V16.5688ZM10.748 16.5688H12.3636V15.8968H10.748V16.5688Z" fill="black"/>
    <path d="M2.77481 15.8961C2.68595 15.8961 2.61325 15.8205 2.61325 15.7281V15.3921C2.61325 15.2997 2.68595 15.2241 2.77481 15.2241H8.91412C9.00298 15.2241 9.07568 15.2997 9.07568 15.3921V15.7281C9.07568 15.8205 9.00298 15.8961 8.91412 15.8961H8.42944V16.5681H8.91412C9.00298 16.5681 9.07568 16.6437 9.07568 16.7361V17.072C9.07568 17.1644 9.00298 17.24 8.91412 17.24H2.77481C2.68595 17.24 2.61325 17.1644 2.61325 17.072V16.7361C2.61325 16.6437 2.68595 16.5681 2.77481 16.5681H3.2595V15.8961H2.77481ZM6.16759 16.5681H7.7832V15.8961H6.16759V16.5681ZM3.90574 16.5681H5.52135V15.8961H3.90574V16.5681Z" fill="#0674BB"/>
    <path d="M9.6171 8.31577C9.52824 8.31577 9.45554 8.24017 9.45554 8.14778V7.81179C9.45554 7.7194 9.52824 7.6438 9.6171 7.6438H15.7564C15.8453 7.6438 15.918 7.7194 15.918 7.81179V8.14778C15.918 8.24017 15.8453 8.31577 15.7564 8.31577H15.2717V8.98774H15.7564C15.8453 8.98774 15.918 9.06334 15.918 9.15573V9.49172C15.918 9.58411 15.8453 9.65971 15.7564 9.65971H9.6171C9.52824 9.65971 9.45554 9.58411 9.45554 9.49172V9.15573C9.45554 9.06334 9.52824 8.98774 9.6171 8.98774H10.1018V8.31577H9.6171ZM13.0099 8.98774H14.6255V8.31577H13.0099V8.98774ZM10.748 8.98774H12.3636V8.31577H10.748V8.98774Z" fill="black"/>
    <path d="M2.77481 8.31382C2.68595 8.31382 2.61325 8.23822 2.61325 8.14582V7.80984C2.61325 7.71744 2.68595 7.64185 2.77481 7.64185H8.91412C9.00298 7.64185 9.07568 7.71744 9.07568 7.80984V8.14582C9.07568 8.23822 9.00298 8.31382 8.91412 8.31382H8.42944V8.98579H8.91412C9.00298 8.98579 9.07568 9.06138 9.07568 9.15378V9.48976C9.07568 9.58216 9.00298 9.65776 8.91412 9.65776H2.77481C2.68595 9.65776 2.61325 9.58216 2.61325 9.48976V9.15378C2.61325 9.06138 2.68595 8.98579 2.77481 8.98579H3.2595V8.31382H2.77481ZM6.16759 8.98579H7.7832V8.31382H6.16759V8.98579ZM3.90574 8.98579H5.52135V8.31382H3.90574V8.98579Z" fill="#0674BB"/>
    <path d="M9.6171 12.1061C9.52824 12.1061 9.45554 12.0305 9.45554 11.9381V11.6021C9.45554 11.5097 9.52824 11.4341 9.6171 11.4341H15.7564C15.8453 11.4341 15.918 11.5097 15.918 11.6021V11.9381C15.918 12.0305 15.8453 12.1061 15.7564 12.1061H15.2717V12.778H15.7564C15.8453 12.778 15.918 12.8536 15.918 12.946V13.282C15.918 13.3744 15.8453 13.45 15.7564 13.45H9.6171C9.52824 13.45 9.45554 13.3744 9.45554 13.282V12.946C9.45554 12.8536 9.52824 12.778 9.6171 12.778H10.1018V12.1061H9.6171ZM13.0099 12.778H14.6255V12.1061H13.0099V12.778ZM10.748 12.778H12.3636V12.1061H10.748V12.778Z" fill="#0674BB"/>
    <path d="M2.77481 12.1051C2.68595 12.1051 2.61325 12.0295 2.61325 11.9371V11.6011C2.61325 11.5087 2.68595 11.4331 2.77481 11.4331H8.91412C9.00298 11.4331 9.07568 11.5087 9.07568 11.6011V11.9371C9.07568 12.0295 9.00298 12.1051 8.91412 12.1051H8.42944V12.777H8.91412C9.00298 12.777 9.07568 12.8526 9.07568 12.945V13.281C9.07568 13.3734 9.00298 13.449 8.91412 13.449H2.77481C2.68595 13.449 2.61325 13.3734 2.61325 13.281V12.945C2.61325 12.8526 2.68595 12.777 2.77481 12.777H3.2595V12.1051H2.77481ZM6.16759 12.777H7.7832V12.1051H6.16759V12.777ZM3.90574 12.777H5.52135V12.1051H3.90574V12.777Z" fill="black"/>
    <path fill-rule="evenodd" clip-rule="evenodd" d="M19.916 7.12599L18 7.12599L21 3L24 7.12599L22.084 7.12599L22.084 20L19.916 20L19.916 7.12599Z" fill="#0674BB"/>
  </g>
</svg>
