<svg width="24" height="24" viewBox="0 0 24 24" fill="none" xmlns="http://www.w3.org/2000/svg">
  <!-- <g id="HCPW"> -->
  <g id="HC-PW">
    <path fill-rule="evenodd" clip-rule="evenodd" d="M18.5967 8.43833L17 8.43833L19.5 5L22 8.43833L20.4033 8.43833L20.4033 19.1667L18.5967 19.1667L18.5967 8.43833Z" fill="#0674BB"/>
    <rect x="17.4551" y="7.39697" width="15.4553" height="1.17595" rx="0.587973" transform="rotate(-180 17.4551 7.39697)" fill="black"/>
    <rect x="17.4551" y="19.3247" width="15.4553" height="1.17595" rx="0.587973" transform="rotate(-180 17.4551 19.3247)" fill="black"/>
    <rect x="2.50391" y="19.3247" width="13.1034" height="1.17595" rx="0.587974" transform="rotate(-90 2.50391 19.3247)" fill="black"/>
    <rect x="15.7588" y="19.3247" width="13.1034" height="1.17595" rx="0.587974" transform="rotate(-90 15.7588 19.3247)" fill="black"/>
    <path d="M10.0144 15.7475C9.94036 15.7475 9.87978 15.6845 9.87978 15.6075V15.3275C9.87978 15.2505 9.94036 15.1875 10.0144 15.1875H15.1305C15.2046 15.1875 15.2651 15.2505 15.2651 15.3275V15.6075C15.2651 15.6845 15.2046 15.7475 15.1305 15.7475H14.7266V16.3074H15.1305C15.2046 16.3074 15.2651 16.3704 15.2651 16.4474V16.7274C15.2651 16.8044 15.2046 16.8674 15.1305 16.8674H10.0144C9.94036 16.8674 9.87978 16.8044 9.87978 16.7274V16.4474C9.87978 16.3704 9.94036 16.3074 10.0144 16.3074H10.4183V15.7475H10.0144ZM12.8417 16.3074H14.1881V15.7475H12.8417V16.3074ZM10.9568 16.3074H12.3032V15.7475H10.9568V16.3074Z" fill="black"/>
    <path d="M4.31226 15.7467C4.23821 15.7467 4.17763 15.6837 4.17763 15.6067V15.3268C4.17763 15.2498 4.23821 15.1868 4.31226 15.1868H9.42835C9.5024 15.1868 9.56299 15.2498 9.56299 15.3268V15.6067C9.56299 15.6837 9.5024 15.7467 9.42835 15.7467H9.02445V16.3067H9.42835C9.5024 16.3067 9.56299 16.3697 9.56299 16.4467V16.7267C9.56299 16.8037 9.5024 16.8667 9.42835 16.8667H4.31226C4.23821 16.8667 4.17763 16.8037 4.17763 16.7267V16.4467C4.17763 16.3697 4.23821 16.3067 4.31226 16.3067H4.71616V15.7467H4.31226ZM7.13958 16.3067H8.48592V15.7467H7.13958V16.3067ZM5.2547 16.3067H6.60104V15.7467H5.2547V16.3067Z" fill="#0674BB"/>
    <path d="M10.0144 12.5885C9.94036 12.5885 9.87978 12.5255 9.87978 12.4485V12.1686C9.87978 12.0916 9.94036 12.0286 10.0144 12.0286H15.1305C15.2046 12.0286 15.2651 12.0916 15.2651 12.1686V12.4485C15.2651 12.5255 15.2046 12.5885 15.1305 12.5885H14.7266V13.1485H15.1305C15.2046 13.1485 15.2651 13.2115 15.2651 13.2885V13.5685C15.2651 13.6455 15.2046 13.7085 15.1305 13.7085H10.0144C9.94036 13.7085 9.87978 13.6455 9.87978 13.5685V13.2885C9.87978 13.2115 9.94036 13.1485 10.0144 13.1485H10.4183V12.5885H10.0144ZM12.8417 13.1485H14.1881V12.5885H12.8417V13.1485ZM10.9568 13.1485H12.3032V12.5885H10.9568V13.1485Z" fill="#0674BB"/>
    <path d="M4.31226 12.5876C4.23821 12.5876 4.17763 12.5246 4.17763 12.4476V12.1676C4.17763 12.0906 4.23821 12.0276 4.31226 12.0276H9.42835C9.5024 12.0276 9.56299 12.0906 9.56299 12.1676V12.4476C9.56299 12.5246 9.5024 12.5876 9.42835 12.5876H9.02445V13.1475H9.42835C9.5024 13.1475 9.56299 13.2105 9.56299 13.2875V13.5675C9.56299 13.6445 9.5024 13.7075 9.42835 13.7075H4.31226C4.23821 13.7075 4.17763 13.6445 4.17763 13.5675V13.2875C4.17763 13.2105 4.23821 13.1475 4.31226 13.1475H4.71616V12.5876H4.31226ZM7.13958 13.1475H8.48592V12.5876H7.13958V13.1475ZM5.2547 13.1475H6.60104V12.5876H5.2547V13.1475Z" fill="black"/>
    <path d="M10.0144 9.43009C9.94036 9.43009 9.87978 9.36709 9.87978 9.2901V9.01011C9.87978 8.93311 9.94036 8.87012 10.0144 8.87012H15.1305C15.2046 8.87012 15.2651 8.93311 15.2651 9.01011V9.2901C15.2651 9.36709 15.2046 9.43009 15.1305 9.43009H14.7266V9.99007H15.1305C15.2046 9.99007 15.2651 10.0531 15.2651 10.1301V10.41C15.2651 10.487 15.2046 10.55 15.1305 10.55H10.0144C9.94036 10.55 9.87978 10.487 9.87978 10.41V10.1301C9.87978 10.0531 9.94036 9.99007 10.0144 9.99007H10.4183V9.43009H10.0144ZM12.8417 9.99007H14.1881V9.43009H12.8417V9.99007ZM10.9568 9.99007H12.3032V9.43009H10.9568V9.99007Z" fill="black"/>
    <path d="M4.31226 9.42814C4.23821 9.42814 4.17763 9.36514 4.17763 9.28815V9.00816C4.17763 8.93116 4.23821 8.86816 4.31226 8.86816H9.42835C9.5024 8.86816 9.56299 8.93116 9.56299 9.00816V9.28815C9.56299 9.36514 9.5024 9.42814 9.42835 9.42814H9.02445V9.98811H9.42835C9.5024 9.98811 9.56299 10.0511 9.56299 10.1281V10.4081C9.56299 10.4851 9.5024 10.5481 9.42835 10.5481H4.31226C4.23821 10.5481 4.17763 10.4851 4.17763 10.4081V10.1281C4.17763 10.0511 4.23821 9.98811 4.31226 9.98811H4.71616V9.42814H4.31226ZM7.13958 9.98811H8.48592V9.42814H7.13958V9.98811ZM5.2547 9.98811H6.60104V9.42814H5.2547V9.98811Z" fill="#0674BB"/>
  </g>
</svg>
