<svg width="35" height="35" viewBox="0 0 35 35" fill="none" xmlns="http://www.w3.org/2000/svg">
<circle cx="17.5" cy="17.5" r="17.5" fill="white"/>
<path fill-rule="evenodd" clip-rule="evenodd" d="M8.4 20.2837C7.69924 19.8595 7.08766 19.3028 6.6 18.6484V22.8601C6.27 22.8601 6 23.0532 6 23.2892V23.7183C6 23.9543 6.27 24.1474 6.6 24.1474H29.4C29.73 24.1474 30 23.9543 30 23.7183V23.2892C30 23.0532 29.73 22.8601 29.4 22.8601V13.4199C29.73 13.4199 30 13.2268 30 12.9908V12.5617C30 12.3257 29.73 12.1326 29.4 12.1326H17.3419C17.5391 12.5392 17.694 12.9702 17.8007 13.4199H27.6V22.8601H8.4V20.2837ZM15 20.2371C15.7056 19.7964 16.3177 19.2201 16.8 18.5447V21.3582C16.8 21.4762 16.665 21.5728 16.5 21.5728H15.3C15.135 21.5728 15 21.4762 15 21.3582V20.2371ZM10.8 21.133V21.3582C10.8 21.4762 10.935 21.5728 11.1 21.5728H12.3C12.465 21.5728 12.6 21.4762 12.6 21.3582V21.1222C12.294 21.1678 11.9809 21.1914 11.6622 21.1914C11.3697 21.1914 11.0819 21.1715 10.8 21.133ZM20.7 21.5728H19.5C19.335 21.5728 19.2 21.4762 19.2 21.3582V14.9217C19.2 14.8037 19.335 14.7072 19.5 14.7072H20.7C20.865 14.7072 21 14.8037 21 14.9217V21.3582C21 21.4762 20.865 21.5728 20.7 21.5728ZM24.9 21.5728H23.7C23.535 21.5728 23.4 21.4762 23.4 21.3582V14.9217C23.4 14.8037 23.535 14.7072 23.7 14.7072H24.9C25.065 14.7072 25.2 14.8037 25.2 14.9217V21.3582C25.2 21.4762 25.065 21.5728 24.9 21.5728Z" fill="black"/>
<path d="M12.7284 15.0627C12.7756 14.9594 12.9065 14.8638 13.0193 14.851C13.1322 14.8382 13.235 14.7349 13.2478 14.6221C13.2614 14.51 13.3567 14.3788 13.4595 14.3312C13.5113 14.3048 13.5535 14.2627 13.58 14.211C13.6065 14.1593 13.616 14.1005 13.6072 14.043C13.584 13.9318 13.6344 13.7777 13.7176 13.7013C13.7589 13.6601 13.7861 13.6069 13.7952 13.5493C13.8043 13.4917 13.795 13.4327 13.7685 13.3807C13.741 13.3249 13.7267 13.2635 13.7267 13.2012C13.7267 13.139 13.741 13.0776 13.7685 13.0218C13.795 12.9698 13.8044 12.9108 13.7953 12.8532C13.7862 12.7956 13.759 12.7424 13.7176 12.7012C13.6344 12.624 13.5844 12.4703 13.6072 12.3595C13.6161 12.3019 13.6067 12.243 13.5802 12.1911C13.5537 12.1392 13.5114 12.097 13.4595 12.0705C13.4045 12.0412 13.3569 11.9998 13.3202 11.9494C13.2836 11.899 13.2588 11.8409 13.2478 11.7796C13.2387 11.7222 13.2117 11.6692 13.1707 11.6281C13.1296 11.587 13.0767 11.5599 13.0193 11.5507C12.9579 11.5399 12.8998 11.5153 12.8494 11.4787C12.799 11.4421 12.7576 11.3944 12.7284 11.3394C12.702 11.2875 12.6598 11.2453 12.6078 11.219C12.5559 11.1927 12.4969 11.1836 12.4395 11.1929C12.3778 11.2016 12.3149 11.1961 12.2557 11.1768C12.1965 11.1575 12.1425 11.125 12.0977 11.0817C12.0205 10.9977 11.8764 10.9752 11.7776 11.0309C11.6787 11.0865 11.5166 11.0865 11.4182 11.0309C11.3664 11.0039 11.3074 10.9943 11.2497 11.0033C11.192 11.0123 11.1388 11.0395 11.0976 11.0809C11.0529 11.1242 10.9989 11.1568 10.9396 11.1761C10.8804 11.1953 10.8176 11.2008 10.7559 11.1921C10.6985 11.1829 10.6397 11.1922 10.5879 11.2186C10.5361 11.245 10.494 11.2871 10.4678 11.339C10.4201 11.4415 10.2893 11.5371 10.1764 11.5499C10.119 11.5591 10.0659 11.5863 10.0248 11.6275C9.9837 11.6686 9.95666 11.7217 9.94753 11.7792C9.93667 11.8405 9.91196 11.8986 9.87527 11.949C9.83859 11.9993 9.7909 12.0406 9.73583 12.0697C9.6841 12.0963 9.64208 12.1386 9.61578 12.1905C9.58948 12.2424 9.58023 12.3012 9.58936 12.3587C9.61137 12.4695 9.56135 12.6236 9.47811 12.7004C9.39488 12.7773 9.37167 12.9213 9.42729 13.021C9.48292 13.1194 9.48292 13.2815 9.42729 13.3799C9.40074 13.4319 9.39136 13.491 9.40049 13.5487C9.40963 13.6063 9.4368 13.6596 9.47811 13.7009C9.56175 13.7769 9.61137 13.931 9.58936 14.0426C9.58022 14.1 9.58947 14.1587 9.61578 14.2105C9.64209 14.2623 9.68412 14.3044 9.73583 14.3308C9.83908 14.3784 9.93392 14.5096 9.94713 14.6217C9.96073 14.7345 10.0632 14.8378 10.176 14.8506C10.2889 14.8634 10.4197 14.9594 10.4674 15.0623C10.4938 15.114 10.5359 15.1559 10.5877 15.1823C10.6394 15.2086 10.6982 15.2178 10.7555 15.2088C10.8667 15.1867 11.0208 15.2364 11.0972 15.32C11.1385 15.3612 11.1917 15.3884 11.2493 15.3975C11.3068 15.4066 11.3658 15.3973 11.4178 15.3708C11.5162 15.3152 11.6783 15.3152 11.7772 15.3708C11.876 15.4265 12.0201 15.4032 12.0973 15.32C12.1745 15.236 12.3278 15.1867 12.4391 15.2088C12.4965 15.218 12.5554 15.2089 12.6074 15.1826C12.6594 15.1564 12.7017 15.1144 12.7284 15.0627ZM11.5979 14.5609C11.237 14.5609 10.8909 14.4175 10.6358 14.1623C10.3806 13.9072 10.2373 13.5611 10.2373 13.2002C10.2373 12.8394 10.3806 12.4933 10.6358 12.2381C10.8909 11.983 11.237 11.8396 11.5979 11.8396C11.9587 11.8396 12.3048 11.983 12.56 12.2381C12.8151 12.4933 12.9585 12.8394 12.9585 13.2002C12.9585 13.5611 12.8151 13.9072 12.56 14.1623C12.3048 14.4175 11.9587 14.5609 11.5979 14.5609ZM9.98714 15.3652L9.48972 18.1861L10.7415 18.0004L11.8544 18.6031L12.3498 15.7934C11.9498 15.9104 11.528 15.9326 11.1179 15.8583C10.7078 15.7839 10.3207 15.6151 9.98714 15.3652ZM13.183 15.3844C13.058 15.4753 12.9255 15.5552 12.7868 15.6233L12.4875 17.3185L13.8357 16.587L13.183 15.3844Z" fill="#ECC800"/>
</svg>
