<svg width="24" height="24" viewBox="0 0 24 24" fill="none" xmlns="http://www.w3.org/2000/svg">
<path fill-rule="evenodd" clip-rule="evenodd" d="M2.4 14.2837C1.69924 13.8595 1.08766 13.3028 0.6 12.6484V16.8601C0.27 16.8601 0 17.0532 0 17.2892V17.7183C0 17.9543 0.27 18.1474 0.6 18.1474H23.4C23.73 18.1474 24 17.9543 24 17.7183V17.2892C24 17.0532 23.73 16.8601 23.4 16.8601V7.41987C23.73 7.41987 24 7.22678 24 6.99077V6.56167C24 6.32566 23.73 6.13257 23.4 6.13257H11.3419C11.5391 6.53921 11.694 6.97022 11.8007 7.41987H21.6V16.8601H2.4V14.2837ZM9 14.2371C9.70555 13.7964 10.3177 13.2201 10.8 12.5447V15.3582C10.8 15.4762 10.665 15.5728 10.5 15.5728H9.3C9.135 15.5728 9 15.4762 9 15.3582V14.2371ZM4.8 15.133V15.3582C4.8 15.4762 4.935 15.5728 5.1 15.5728H6.3C6.465 15.5728 6.6 15.4762 6.6 15.3582V15.1222C6.29401 15.1678 5.98085 15.1914 5.66217 15.1914C5.36971 15.1914 5.08189 15.1715 4.8 15.133ZM14.7 15.5728H13.5C13.335 15.5728 13.2 15.4762 13.2 15.3582V8.92173C13.2 8.80372 13.335 8.70718 13.5 8.70718H14.7C14.865 8.70718 15 8.80372 15 8.92173V15.3582C15 15.4762 14.865 15.5728 14.7 15.5728ZM18.9 15.5728H17.7C17.535 15.5728 17.4 15.4762 17.4 15.3582V8.92173C17.4 8.80372 17.535 8.70718 17.7 8.70718H18.9C19.065 8.70718 19.2 8.80372 19.2 8.92173V15.3582C19.2 15.4762 19.065 15.5728 18.9 15.5728Z" fill="black"/>
<path d="M6.72838 9.06269C6.7756 8.95944 6.90646 8.8638 7.01931 8.85099C7.13216 8.83819 7.23501 8.73494 7.24782 8.62209C7.26142 8.51004 7.35667 8.37878 7.45951 8.33116C7.51132 8.30479 7.55349 8.26274 7.58001 8.21101C7.60652 8.15927 7.61603 8.10048 7.60718 8.04303C7.58397 7.93178 7.63439 7.77771 7.71763 7.70127C7.75891 7.66008 7.78607 7.60687 7.7952 7.54927C7.80433 7.49168 7.79497 7.43267 7.76845 7.38073C7.74101 7.32488 7.72674 7.26348 7.72674 7.20125C7.72674 7.13902 7.74101 7.07762 7.76845 7.02177C7.79503 6.96984 7.80443 6.91082 7.79529 6.85321C7.78616 6.7956 7.75896 6.74238 7.71763 6.70122C7.63439 6.62399 7.58437 6.47032 7.60718 6.35947C7.61615 6.30189 7.6067 6.24295 7.58018 6.19107C7.55366 6.13918 7.51143 6.097 7.45951 6.07054C7.40453 6.0412 7.35691 5.99978 7.32024 5.94939C7.28358 5.899 7.25881 5.84095 7.24782 5.77961C7.23869 5.72225 7.21169 5.66924 7.17065 5.62813C7.12962 5.58703 7.07666 5.55993 7.01931 5.5507C6.95795 5.53992 6.89985 5.51528 6.84943 5.47867C6.79902 5.44205 6.75762 5.39443 6.72838 5.33941C6.70198 5.28751 6.65976 5.24535 6.60782 5.21902C6.55588 5.19269 6.49692 5.18356 6.43945 5.19294C6.37778 5.20159 6.31494 5.19606 6.25573 5.17678C6.19651 5.15751 6.14246 5.12498 6.0977 5.08169C6.02046 4.99765 5.8764 4.97524 5.77755 5.03087C5.67871 5.08649 5.51663 5.08649 5.41819 5.03087C5.36641 5.00394 5.30737 4.99427 5.24971 5.00327C5.19204 5.01227 5.13876 5.03947 5.09765 5.08089C5.05291 5.12423 4.99887 5.15679 4.93964 5.17607C4.88042 5.19535 4.81757 5.20085 4.75589 5.19214C4.6985 5.18291 4.63965 5.19216 4.58786 5.21856C4.53607 5.24496 4.49401 5.28714 4.46776 5.33901C4.42014 5.44145 4.28928 5.5371 4.17643 5.5499C4.11898 5.55913 4.06592 5.58627 4.02481 5.62745C3.9837 5.66863 3.95666 5.72174 3.94753 5.77921C3.93667 5.84055 3.91196 5.8986 3.87527 5.94895C3.83859 5.9993 3.7909 6.04061 3.73583 6.06974C3.6841 6.09633 3.64208 6.13858 3.61578 6.19047C3.58948 6.24235 3.58023 6.30122 3.58936 6.35867C3.61137 6.46952 3.56135 6.62359 3.47811 6.70042C3.39488 6.77726 3.37167 6.92132 3.42729 7.02097C3.48292 7.11941 3.48292 7.28148 3.42729 7.37993C3.40074 7.43193 3.39136 7.491 3.40049 7.54867C3.40963 7.60633 3.4368 7.65962 3.47811 7.70087C3.56175 7.77691 3.61137 7.93098 3.58936 8.04263C3.58022 8.09997 3.58947 8.15873 3.61578 8.21049C3.64209 8.26225 3.68412 8.30435 3.73583 8.33076C3.83908 8.37838 3.93392 8.50964 3.94713 8.62169C3.96073 8.73454 4.06318 8.83779 4.17603 8.85059C4.28888 8.8634 4.41974 8.95944 4.46736 9.06229C4.49382 9.11396 4.53592 9.15595 4.58767 9.18225C4.63942 9.20856 4.69816 9.21783 4.75549 9.20875C4.86674 9.18674 5.02081 9.23637 5.09725 9.32C5.13847 9.36123 5.19168 9.38835 5.24926 9.39748C5.30684 9.40661 5.36584 9.39728 5.41779 9.37083C5.51623 9.3152 5.67831 9.3152 5.77715 9.37083C5.876 9.42645 6.02006 9.40324 6.0973 9.32C6.17453 9.23597 6.3278 9.18674 6.43905 9.20875C6.49652 9.21801 6.55544 9.20887 6.6074 9.18264C6.65936 9.1564 6.70171 9.11442 6.72838 9.06269V9.06269ZM5.59787 8.56086C5.23701 8.56086 4.89094 8.41751 4.63577 8.16235C4.38061 7.90718 4.23726 7.5611 4.23726 7.20025C4.23726 6.83939 4.38061 6.49331 4.63577 6.23815C4.89094 5.98298 5.23701 5.83963 5.59787 5.83963C5.95873 5.83963 6.30481 5.98298 6.55997 6.23815C6.81514 6.49331 6.95849 6.83939 6.95849 7.20025C6.95849 7.5611 6.81514 7.90718 6.55997 8.16235C6.30481 8.41751 5.95873 8.56086 5.59787 8.56086ZM3.98714 9.36522L3.48972 12.1861L4.74148 12.0004L5.85439 12.6031L6.34981 9.79342C5.94979 9.91038 5.52802 9.93258 5.11792 9.85826C4.70783 9.78394 4.32068 9.61514 3.98714 9.36522V9.36522ZM7.18299 9.38443C7.05801 9.47527 6.92547 9.5552 6.78681 9.62334L6.48747 11.3185L7.83568 10.587L7.18299 9.38443V9.38443Z" fill="#ECC800"/>
</svg>
