<svg width="24" height="24" viewBox="0 0 24 24" fill="none" xmlns="http://www.w3.org/2000/svg">
<path fill-rule="evenodd" clip-rule="evenodd" d="M2.4 14.7178C1.69926 14.2937 1.08768 13.7371 0.6 13.0827V17.2942C0.27 17.2942 0 17.4873 0 17.7233V18.1524C0 18.3884 0.27 18.5815 0.6 18.5815H23.4C23.73 18.5815 24 18.3884 24 18.1524V17.7233C24 17.4873 23.73 17.2942 23.4 17.2942V7.85395C23.73 7.85395 24 7.66086 24 7.42485V6.99575C24 6.75975 23.73 6.56665 23.4 6.56665H11.3417C11.5389 6.97329 11.6938 7.40431 11.8005 7.85395H21.6V17.2942H2.4V14.7178ZM9 14.671C9.70556 14.2303 10.3177 13.6539 10.8 12.9784V15.7923C10.8 15.9103 10.665 16.0069 10.5 16.0069H9.3C9.135 16.0069 9 15.9103 9 15.7923V14.671ZM4.8 15.5671V15.7923C4.8 15.9103 4.935 16.0069 5.1 16.0069H6.3C6.465 16.0069 6.6 15.9103 6.6 15.7923V15.5562C6.29395 15.6018 5.98072 15.6255 5.66197 15.6255C5.36958 15.6255 5.08183 15.6056 4.8 15.5671ZM14.7 16.0069H13.5C13.335 16.0069 13.2 15.9103 13.2 15.7923V9.35581C13.2 9.23781 13.335 9.14126 13.5 9.14126H14.7C14.865 9.14126 15 9.23781 15 9.35581V15.7923C15 15.9103 14.865 16.0069 14.7 16.0069ZM18.9 16.0069H17.7C17.535 16.0069 17.4 15.9103 17.4 15.7923V9.35581C17.4 9.23781 17.535 9.14126 17.7 9.14126H18.9C19.065 9.14126 19.2 9.23781 19.2 9.35581V15.7923C19.2 15.9103 19.065 16.0069 18.9 16.0069Z" fill="black"/>
<path d="M9.59992 8.83599C9.59992 8.74717 9.5566 8.66909 9.49067 8.62012L9.49206 8.61771L8.56347 8.07748L9.09798 7.14455L9.09619 7.14345C9.11307 7.105 9.12072 7.06308 9.11853 7.02109C9.11633 6.97911 9.10434 6.93823 9.08354 6.90179C9.06258 6.86537 9.0334 6.83445 8.99836 6.81154C8.96332 6.78863 8.9234 6.77437 8.88187 6.76991V6.76731H7.80947V5.68976H7.80727C7.80281 5.64796 7.78864 5.6078 7.7659 5.57254C7.74317 5.53729 7.71251 5.50793 7.67641 5.48684C7.64019 5.46581 7.59954 5.45371 7.5578 5.45153C7.51605 5.44935 7.47438 5.45715 7.4362 5.47429L7.4349 5.47198L6.49067 6.02134L5.96782 5.10869L5.96593 5.10979C5.94131 5.07584 5.90911 5.04821 5.87193 5.02914C5.83475 5.01007 5.79363 5.00008 5.7519 5C5.66377 5 5.58618 5.04366 5.53768 5.11009L5.53529 5.10869L5.00377 6.0364L4.08853 5.5039L4.08743 5.5058C4.04928 5.48879 4.00768 5.48108 3.96601 5.48329C3.92435 5.48551 3.88378 5.49759 3.84762 5.51855C3.81146 5.53965 3.78075 5.56905 3.75799 5.60437C3.73524 5.63968 3.72107 5.67991 3.71665 5.72178H3.71396V6.793H2.6571V6.7951C2.61561 6.7996 2.57576 6.81388 2.54078 6.83679C2.50579 6.85971 2.47665 6.8906 2.45572 6.92697C2.43491 6.96346 2.42293 7.00437 2.42075 7.04639C2.41857 7.08842 2.42625 7.13037 2.44318 7.16884L2.44089 7.17024L2.96334 8.0822L2.02778 8.62654L2.02887 8.62844C1.99519 8.65325 1.96777 8.6857 1.94884 8.72317C1.92991 8.76064 1.92 8.80207 1.91992 8.84411C1.91992 8.93293 1.96324 9.01111 2.02917 9.05999L2.02778 9.06239L2.95637 9.60262L2.42186 10.5355L2.42366 10.5366C2.40677 10.575 2.39912 10.6169 2.40132 10.6589C2.40351 10.7009 2.4155 10.7418 2.4363 10.7782C2.45726 10.8146 2.48645 10.8455 2.52149 10.8685C2.55653 10.8914 2.59644 10.9056 2.63798 10.9101V10.9128H3.71028V11.9902H3.71247C3.72163 12.0721 3.76715 12.1488 3.84333 12.1932C3.87956 12.2142 3.92021 12.2263 3.96195 12.2284C4.00369 12.2306 4.04536 12.2228 4.08355 12.2057L4.08484 12.208L5.02907 11.6587L5.55192 12.5713L5.55382 12.5702C5.57843 12.6042 5.61063 12.6318 5.64782 12.6509C5.685 12.6699 5.72612 12.6799 5.76784 12.68C5.85598 12.68 5.93356 12.6363 5.98206 12.57L5.98435 12.5713L6.51587 11.6436L7.43122 12.1761L7.43231 12.1742C7.47047 12.1912 7.51207 12.1989 7.55373 12.1967C7.5954 12.1945 7.63596 12.1824 7.67213 12.1614C7.70829 12.1403 7.73899 12.1109 7.76175 12.0756C7.78451 12.0403 7.79867 12.0001 7.80309 11.9582H7.80578V10.8871H8.86275V10.885C8.90423 10.8805 8.94408 10.8662 8.97907 10.8433C9.01405 10.8204 9.04319 10.7895 9.06412 10.7531C9.08493 10.7166 9.0969 10.6757 9.09908 10.6337C9.10126 10.5916 9.09358 10.5497 9.07667 10.5112L9.07896 10.5099L8.5565 9.5979L9.49206 9.05356L9.49097 9.05166C9.52467 9.02686 9.5521 8.99441 9.57103 8.95694C9.58996 8.91947 9.59986 8.87803 9.59992 8.83599ZM5.13394 9.97957L4.15336 9.54301L4.58609 10.2982L4.34149 10.4405L3.67801 9.28268L3.92948 9.13626L4.87859 9.55395L4.4618 8.82655L4.70649 8.68424L5.36977 9.84208L5.13394 9.97957ZM5.59724 9.71L4.93386 8.55207L5.74702 8.07909L5.87132 8.29606L5.30275 8.62674L5.44198 8.86981L5.99839 8.54615L6.12268 8.76292L5.56627 9.08678L5.71745 9.35062L6.28601 9.01994L6.4103 9.23692L5.59724 9.71ZM7.48012 8.6146L6.82301 7.93678L7.07866 8.84803L6.81863 8.99937L5.8262 8.03302L6.10008 7.87365L6.78108 8.59302L6.52045 7.62908L6.71167 7.51788L7.40811 8.22832L7.13025 7.27431L7.40413 7.11495L7.74025 8.46336L7.48012 8.6146Z" fill="#ECC800"/>
</svg>
