<svg width="35" height="35" viewBox="0 0 35 35" fill="none" xmlns="http://www.w3.org/2000/svg">
<circle cx="17.5" cy="17.5" r="17.5" fill="white"/>
<path fill-rule="evenodd" clip-rule="evenodd" d="M8.4 20.7178C7.69926 20.2937 7.08768 19.7371 6.6 19.0827V23.2942C6.27 23.2942 6 23.4873 6 23.7233V24.1524C6 24.3884 6.27 24.5815 6.6 24.5815H29.4C29.73 24.5815 30 24.3884 30 24.1524V23.7233C30 23.4873 29.73 23.2942 29.4 23.2942V13.854C29.73 13.854 30 13.6609 30 13.4249V12.9958C30 12.7597 29.73 12.5667 29.4 12.5667H17.3417C17.5389 12.9733 17.6938 13.4043 17.8005 13.854H27.6V23.2942H8.4V20.7178ZM15 20.671C15.7056 20.2303 16.3177 19.6539 16.8 18.9784V21.7923C16.8 21.9103 16.665 22.0069 16.5 22.0069H15.3C15.135 22.0069 15 21.9103 15 21.7923V20.671ZM10.8 21.5671V21.7923C10.8 21.9103 10.935 22.0069 11.1 22.0069H12.3C12.465 22.0069 12.6 21.9103 12.6 21.7923V21.5562C12.294 21.6018 11.9807 21.6255 11.662 21.6255C11.3696 21.6255 11.0818 21.6056 10.8 21.5671ZM20.7 22.0069H19.5C19.335 22.0069 19.2 21.9103 19.2 21.7923V15.3558C19.2 15.2378 19.335 15.1413 19.5 15.1413H20.7C20.865 15.1413 21 15.2378 21 15.3558V21.7923C21 21.9103 20.865 22.0069 20.7 22.0069ZM24.9 22.0069H23.7C23.535 22.0069 23.4 21.9103 23.4 21.7923V15.3558C23.4 15.2378 23.535 15.1413 23.7 15.1413H24.9C25.065 15.1413 25.2 15.2378 25.2 15.3558V21.7923C25.2 21.9103 25.065 22.0069 24.9 22.0069Z" fill="black"/>
<path d="M15.5999 14.836C15.5999 14.7472 15.5566 14.6691 15.4907 14.6201L15.4921 14.6177L14.5635 14.0775L15.098 13.1446L15.0962 13.1434C15.1131 13.105 15.1207 13.0631 15.1185 13.0211C15.1163 12.9791 15.1043 12.9382 15.0835 12.9018C15.0626 12.8654 15.0334 12.8345 14.9984 12.8115C14.9633 12.7886 14.9234 12.7744 14.8819 12.7699V12.7673H13.8095V11.6898H13.8073C13.8028 11.648 13.7886 11.6078 13.7659 11.5725C13.7432 11.5373 13.7125 11.5079 13.6764 11.4868C13.6402 11.4658 13.5995 11.4537 13.5578 11.4515C13.516 11.4494 13.4744 11.4572 13.4362 11.4743L13.4349 11.472L12.4907 12.0213L11.9678 11.1087L11.9659 11.1098C11.9413 11.0758 11.9091 11.0482 11.8719 11.0291C11.8347 11.0101 11.7936 11.0001 11.7519 11C11.6638 11 11.5862 11.0437 11.5377 11.1101L11.5353 11.1087L11.0038 12.0364L10.0885 11.5039L10.0874 11.5058C10.0493 11.4888 10.0077 11.4811 9.96601 11.4833C9.92435 11.4855 9.88378 11.4976 9.84762 11.5185C9.81146 11.5397 9.78075 11.5691 9.75799 11.6044C9.73524 11.6397 9.72107 11.6799 9.71665 11.7218H9.71396V12.793H8.6571V12.7951C8.61561 12.7996 8.57576 12.8139 8.54078 12.8368C8.50579 12.8597 8.47665 12.8906 8.45572 12.927C8.43491 12.9635 8.42293 13.0044 8.42075 13.0464C8.41857 13.0884 8.42625 13.1304 8.44318 13.1688L8.44089 13.1702L8.96334 14.0822L8.02778 14.6265L8.02887 14.6284C7.99519 14.6532 7.96777 14.6857 7.94884 14.7232C7.92991 14.7606 7.92 14.8021 7.91992 14.8441C7.91992 14.9329 7.96324 15.0111 8.02917 15.06L8.02778 15.0624L8.95637 15.6026L8.42186 16.5355L8.42366 16.5366C8.40677 16.575 8.39912 16.6169 8.40132 16.6589C8.40351 16.7009 8.4155 16.7418 8.4363 16.7782C8.45726 16.8146 8.48645 16.8455 8.52149 16.8685C8.55653 16.8914 8.59644 16.9056 8.63798 16.9101V16.9128H9.71028V17.9902H9.71247C9.72163 18.0721 9.76715 18.1488 9.84333 18.1932C9.87956 18.2142 9.92021 18.2263 9.96195 18.2284C10.0037 18.2306 10.0454 18.2228 10.0835 18.2057L10.0848 18.208L11.0291 17.6587L11.5519 18.5713L11.5538 18.5702C11.5784 18.6042 11.6106 18.6318 11.6478 18.6509C11.685 18.6699 11.7261 18.6799 11.7678 18.68C11.856 18.68 11.9336 18.6363 11.9821 18.57L11.9844 18.5713L12.5159 17.6436L13.4312 18.1761L13.4323 18.1742C13.4705 18.1912 13.5121 18.1989 13.5537 18.1967C13.5954 18.1945 13.636 18.1824 13.6721 18.1614C13.7083 18.1403 13.739 18.1109 13.7617 18.0756C13.7845 18.0403 13.7987 18.0001 13.8031 17.9582H13.8058V16.8871H14.8627V16.885C14.9042 16.8805 14.9441 16.8662 14.9791 16.8433C15.0141 16.8204 15.0432 16.7895 15.0641 16.7531C15.0849 16.7166 15.0969 16.6757 15.0991 16.6337C15.1013 16.5916 15.0936 16.5497 15.0767 16.5112L15.079 16.5099L14.5565 15.5979L15.4921 15.0536L15.491 15.0517C15.5247 15.0269 15.5521 14.9944 15.571 14.9569C15.59 14.9195 15.5999 14.878 15.5999 14.836ZM11.1339 15.9796L10.1534 15.543L10.5861 16.2982L10.3415 16.4405L9.67801 15.2827L9.92948 15.1363L10.8786 15.5539L10.4618 14.8266L10.7065 14.6842L11.3698 15.8421L11.1339 15.9796ZM11.5972 15.71L10.9339 14.5521L11.747 14.0791L11.8713 14.2961L11.3027 14.6267L11.442 14.8698L11.9984 14.5462L12.1227 14.7629L11.5663 15.0868L11.7174 15.3506L12.286 15.0199L12.4103 15.2369L11.5972 15.71ZM13.4801 14.6146L12.823 13.9368L13.0787 14.848L12.8186 14.9994L11.8262 14.033L12.1001 13.8737L12.7811 14.593L12.5205 13.6291L12.7117 13.5179L13.4081 14.2283L13.1303 13.2743L13.4041 13.1149L13.7402 14.4634L13.4801 14.6146Z" fill="#ECC800"/>
</svg>
