<svg width="24" height="24" viewBox="0 0 24 24" fill="none" xmlns="http://www.w3.org/2000/svg">
<path d="M19.5866 14.4639V6.64382C19.5866 5.21818 18.4261 4.05762 17.0006 4.05762C15.575 4.05762 14.4145 5.21818 14.4145 6.64382V14.4639C13.7583 15.1363 13.3801 16.0447 13.3801 16.9887C13.3801 18.9865 15.0028 20.6093 17.0006 20.6093C18.9983 20.6093 20.6211 18.9865 20.6211 16.9887C20.6211 16.0447 20.2428 15.133 19.5866 14.4639ZM17.0006 19.5749C15.575 19.5749 14.4145 18.4143 14.4145 16.9887C14.4145 16.1643 14.8089 15.4078 15.4489 14.9262V6.64382C15.4489 5.78714 16.1439 5.0921 17.0006 5.0921C17.8572 5.0921 18.5522 5.78714 18.5522 6.64382V14.9262C19.1923 15.4046 19.5866 16.1643 19.5866 16.9887C19.5866 18.4143 18.4261 19.5749 17.0006 19.5749ZM13.0277 14.5964C13.1377 14.4154 13.2476 14.2376 13.3801 14.0727V13.6137L11.2757 12.3335L13.3801 11.0565V9.85719L10.794 11.4283V8.41214L12.2713 6.93477C12.3715 6.83456 12.3715 6.66969 12.2713 6.56947L11.906 6.20417C11.8058 6.10395 11.641 6.10395 11.5408 6.20417L10.7973 6.9477V5.35072C10.7973 5.20848 10.6809 5.0921 10.5387 5.0921H10.0215C9.87923 5.0921 9.76285 5.20848 9.76285 5.35072V6.9477L9.01936 6.20417C8.91915 6.10395 8.75429 6.10395 8.65408 6.20417L8.2888 6.56947C8.18859 6.66969 8.18859 6.83456 8.2888 6.93477L9.76609 8.41214V11.4283L7.25438 9.92507L6.73393 7.90783C6.69838 7.76882 6.56261 7.68801 6.43007 7.72357L5.94842 7.85611C5.81588 7.89167 5.73507 8.03391 5.77063 8.17292L6.03247 9.19124L4.70065 8.39275C4.58104 8.32163 4.42911 8.36365 4.36123 8.4865L4.10262 8.93585C4.03474 9.05869 4.07353 9.2171 4.19313 9.28822L5.52495 10.0867L4.54872 10.3615C4.41618 10.3971 4.33537 10.5393 4.37092 10.6783L4.50023 11.1794C4.53579 11.3184 4.67155 11.3992 4.80409 11.3637L6.7501 10.8238L9.27797 12.3367L6.7501 13.8496L4.80409 13.3098C4.67155 13.2742 4.53579 13.355 4.50023 13.494L4.37092 13.9951C4.33537 14.1341 4.41295 14.2764 4.54872 14.3119L5.52818 14.5835L4.19637 15.3755C4.07676 15.4466 4.03474 15.605 4.10585 15.7279L4.35476 16.1772C4.42265 16.3001 4.57781 16.3421 4.69418 16.271L6.026 15.4725L5.76416 16.4908C5.7286 16.6298 5.80619 16.7721 5.94195 16.8076L6.42361 16.9402C6.55614 16.9757 6.69191 16.8949 6.72747 16.7559L7.24791 14.7387L9.75962 13.2354V16.2516L8.28234 17.7322C8.18213 17.8324 8.18213 17.9973 8.28234 18.0975L8.64762 18.4628C8.74783 18.563 8.91269 18.563 9.0129 18.4628L9.75639 17.7193V19.3162C9.75639 19.4585 9.87276 19.5749 10.015 19.5749H10.5322C10.6744 19.5749 10.7908 19.4585 10.7908 19.3162V17.7193L11.5343 18.4628C11.6345 18.563 11.7994 18.563 11.8996 18.4628L12.2649 18.0975C12.3651 17.9973 12.3651 17.8324 12.2649 17.7322L10.794 16.258V13.2419L13.0277 14.5964Z" fill="black"/>
<path d="M17.5256 14.705V15.3607C18.1514 15.5897 18.6022 16.2003 18.6022 16.9253C18.6022 17.8447 17.8789 18.5906 16.9874 18.5906C16.0959 18.5906 15.3726 17.8447 15.3726 16.9253C15.3726 16.2003 15.8234 15.5897 16.4491 15.3607V14.705C16.4491 14.3997 16.6913 14.1499 16.9874 14.1499C17.2834 14.1499 17.5256 14.3997 17.5256 14.705Z" fill="#0674BB"/>
<path d="M21.8122 19.3325L12.4687 11.7234L3.12513 4.11426C2.9095 3.93457 2.59482 3.9707 2.42232 4.19531L2.10982 4.60189C1.93701 4.8265 1.97201 5.1543 2.18763 5.33399L20.875 20.5525C21.0907 20.7322 21.405 20.6957 21.5778 20.4715L21.8903 20.0649C22.0628 19.8403 22.0281 19.5125 21.8122 19.3325Z" fill="#F00000"/>
</svg>
