<svg viewBox="0 0 24 24" fill="none" xmlns="http://www.w3.org/2000/svg">
  <g id="NOR">
    <path d="M21.1037 14.5566V5.17254C21.1037 3.46176 19.7111 2.06909 18.0004 2.06909C16.2897 2.06909 14.8971 3.46176 14.8971 5.17254V14.5566C14.1097 15.3635 13.6558 16.4536 13.6558 17.5863C13.6558 19.9837 15.6031 21.9312 18.0004 21.9312C20.3977 21.9312 22.345 19.9837 22.345 17.5863C22.345 16.4536 21.8911 15.3596 21.1037 14.5566ZM18.0004 20.6898C16.2897 20.6898 14.8971 19.2971 14.8971 17.5863C14.8971 16.5971 15.3704 15.6894 16.1384 15.1113V5.17254C16.1384 4.14452 16.9724 3.31047 18.0004 3.31047C19.0284 3.31047 19.8624 4.14452 19.8624 5.17254V15.1113C20.6304 15.6855 21.1037 16.5971 21.1037 17.5863C21.1037 19.2971 19.7111 20.6898 18.0004 20.6898ZM13.233 14.7156C13.3649 14.4984 13.4968 14.285 13.6558 14.0872V13.5363L11.1305 12.0001L13.6558 10.4678V9.02857L10.5526 10.9139V7.29452L12.3253 5.52168C12.4456 5.40142 12.4456 5.20357 12.3253 5.08332L11.887 4.64495C11.7667 4.5247 11.5689 4.5247 11.4486 4.64495L10.5564 5.5372V3.62082C10.5564 3.45013 10.4168 3.31047 10.2461 3.31047H9.62546C9.45478 3.31047 9.31513 3.45013 9.31513 3.62082V5.5372L8.42294 4.64495C8.30269 4.5247 8.10486 4.5247 7.9846 4.64495L7.54627 5.08332C7.42602 5.20357 7.42602 5.40142 7.54627 5.52168L9.31901 7.29452V10.9139L6.30496 9.11004L5.68043 6.68935C5.63776 6.52254 5.47484 6.42556 5.31579 6.46823L4.73781 6.62728C4.57877 6.66995 4.48179 6.84064 4.52446 7.00745L4.83867 8.22944L3.24048 7.27125C3.09696 7.1859 2.91464 7.23633 2.83318 7.38375L2.52285 7.92297C2.44139 8.07038 2.48794 8.26047 2.63147 8.34582L4.22965 9.30401L3.05817 9.63375C2.89912 9.67642 2.80215 9.84711 2.84482 10.0139L2.99998 10.6152C3.04265 10.782 3.20557 10.879 3.36461 10.8363L5.69982 10.1885L8.73327 12.004L5.69982 13.8195L3.36461 13.1717C3.20557 13.129 3.04265 13.226 2.99998 13.3928L2.84482 13.9941C2.80215 14.1609 2.89524 14.3316 3.05817 14.3743L4.23353 14.7001L2.63535 15.6506C2.49182 15.7359 2.44139 15.926 2.52673 16.0734L2.82542 16.6126C2.90688 16.76 3.09308 16.8105 3.23272 16.7251L4.83091 15.7669L4.5167 16.9889C4.47403 17.1557 4.56713 17.3264 4.73005 17.3691L5.30804 17.5281C5.46708 17.5708 5.63 17.4738 5.67267 17.307L6.2972 14.8863L9.31125 13.0825V16.7019L7.53851 18.4786C7.41826 18.5988 7.41826 18.7967 7.53851 18.9169L7.97685 19.3553C8.0971 19.4756 8.29493 19.4756 8.41518 19.3553L9.30737 18.4631V20.3794C9.30737 20.5501 9.44702 20.6898 9.6177 20.6898H10.2384C10.409 20.6898 10.5487 20.5501 10.5487 20.3794V18.4631L11.4409 19.3553C11.5611 19.4756 11.759 19.4756 11.8792 19.3553L12.3175 18.9169C12.4378 18.7967 12.4378 18.5988 12.3175 18.4786L10.5526 16.7096V13.0902L13.233 14.7156Z" fill="black"/>
    <path d="M18.6306 14.846V15.6329C19.3814 15.9076 19.9224 16.6404 19.9224 17.5105C19.9224 18.6137 19.0544 19.5088 17.9846 19.5088C16.9148 19.5088 16.0469 18.6137 16.0469 17.5105C16.0469 16.6404 16.5878 15.9076 17.3387 15.6329V14.846C17.3387 14.4797 17.6294 14.1799 17.9846 14.1799C18.3399 14.1799 18.6306 14.4797 18.6306 14.846Z" fill="#0674BB"/>
    <path d="M23.7747 20.3989L12.5624 11.268L1.35015 2.13711C1.0914 1.92148 0.713779 1.96484 0.50678 2.23438L0.131782 2.72227C-0.0755917 2.9918 -0.0335919 3.38517 0.225157 3.60079L22.65 21.863C22.9088 22.0786 23.286 22.0349 23.4934 21.7657L23.8684 21.2779C24.0754 21.0083 24.0338 20.615 23.7747 20.3989Z" fill="#F00000"/>
  </g>
</svg>
