<svg width="35" height="35" viewBox="0 0 35 35" fill="none" xmlns="http://www.w3.org/2000/svg">
<circle cx="17.5" cy="17.5" r="17.5" fill="white"/>
<path fill-rule="evenodd" clip-rule="evenodd" d="M26.3465 12.3929C26.3465 12.1759 26.1706 12 25.9537 12H8.55568C8.33871 12 8.16282 12.1759 8.16282 12.3929C8.16282 12.5923 8.31146 12.7571 8.50402 12.7823C8.50111 12.8016 8.4996 12.8214 8.4996 12.8415V13.2916L3.39612 12.4766C3.35568 12.4701 3.31 12.4835 3.26627 12.511C3.23869 12.4717 3.20489 12.4485 3.16837 12.4485C3.07538 12.4485 3 12.5987 3 12.7839V22.552C3 22.7372 3.07538 22.8873 3.16837 22.8873C3.17876 22.8873 3.18893 22.8855 3.19881 22.8819C3.25954 22.9452 3.33402 22.982 3.39612 22.972L8.4996 22.1571V22.2185C8.3092 22.2457 8.16282 22.4094 8.16282 22.6074C8.16282 22.8243 8.33871 23.0002 8.55568 23.0002L25.9537 23.0002C26.1706 23.0002 26.3465 22.8243 26.3465 22.6074C26.3465 22.4096 26.2004 22.246 26.0103 22.2186V22.1494L31.1618 22.972C31.2239 22.982 31.2983 22.9453 31.359 22.882C31.3687 22.8855 31.3787 22.8873 31.389 22.8873C31.482 22.8873 31.5574 22.7372 31.5574 22.552L31.5574 12.7839C31.5574 12.5987 31.482 12.4485 31.389 12.4485C31.3525 12.4485 31.3188 12.4716 31.2913 12.5108C31.2477 12.4834 31.2021 12.4702 31.1618 12.4766L26.0103 13.2992V12.8415C26.0103 12.8213 26.0088 12.8016 26.0059 12.7823C26.1982 12.7567 26.3465 12.5921 26.3465 12.3929ZM25.2285 12.7857L9.28139 12.7857C9.28398 12.8039 9.28532 12.8225 9.28532 12.8415V22.2145L25.2246 22.2145V12.8415C25.2246 12.8225 25.2259 12.8039 25.2285 12.7857ZM31.2206 12.9844L31.2206 22.4642L28.5247 22.0337C28.5262 22.0036 28.5271 21.971 28.5271 21.9371V13.6239C28.5271 13.5416 28.5221 13.4674 28.5144 13.4166L31.2206 12.9844ZM26.0103 13.8164V21.6322L28.3035 21.9984C28.3029 21.9787 28.3026 21.9581 28.3026 21.9371V13.6239C28.3026 13.5578 28.3057 13.4968 28.311 13.449L26.0103 13.8164ZM3.33674 22.4643L3.33674 12.9843L6.04298 13.4165C6.03522 13.4673 6.0303 13.5416 6.0303 13.6239V21.9371C6.0303 21.9711 6.03114 22.0037 6.03267 22.0338L3.33674 22.4643ZM6.24633 13.4489C6.25162 13.4967 6.25479 13.5577 6.25479 13.6239V21.9371C6.25479 21.9582 6.25447 21.9787 6.25386 21.9985L8.4996 21.6399V13.8088L6.24633 13.4489Z" fill="black"/>
<path d="M4.73862 20.8675H4.51413C4.48326 20.8675 4.45801 20.7728 4.45801 20.6571V14.3433C4.45801 14.2275 4.48326 14.1328 4.51413 14.1328H4.73862C4.76949 14.1328 4.79474 14.2275 4.79474 14.3433V20.6571C4.79474 20.7728 4.76949 20.8675 4.73862 20.8675Z" fill="#0674BB"/>
<path d="M30.2196 20.7555H29.9951C29.9642 20.7555 29.939 20.6607 29.939 20.545V14.2312C29.939 14.1155 29.9642 14.0208 29.9951 14.0208H30.2196C30.2504 14.0208 30.2757 14.1155 30.2757 14.2312V20.545C30.2757 20.6607 30.2504 20.7555 30.2196 20.7555Z" fill="#0674BB"/>
<path d="M7.65757 20.3063H7.43308C7.40221 20.3063 7.37695 20.2274 7.37695 20.131V14.8695C7.37695 14.773 7.40221 14.6941 7.43308 14.6941H7.65757C7.68843 14.6941 7.71369 14.773 7.71369 14.8695V20.131C7.71369 20.2274 7.68843 20.3063 7.65757 20.3063Z" fill="#0674BB"/>
<path d="M26.8512 20.3063H27.0757C27.1066 20.3063 27.1318 20.2274 27.1318 20.131V14.8695C27.1318 14.773 27.1066 14.6941 27.0757 14.6941H26.8512C26.8204 14.6941 26.7951 14.773 26.7951 14.8695V20.131C26.7951 20.2274 26.8204 20.3063 26.8512 20.3063Z" fill="#0674BB"/>
</svg>
