<svg width="24" height="24" viewBox="0 0 24 24" fill="none" xmlns="http://www.w3.org/2000/svg">
<path fill-rule="evenodd" clip-rule="evenodd" d="M11.9933 9H12V9.68389H11.9933H6.88696V14.6991H11.9933H12V15.383H11.9933H5.92952C5.75399 15.383 5.61037 15.2804 5.61037 15.155V14.927C5.61037 14.8017 5.75399 14.6991 5.92952 14.6991V14.6481L0.378422 15.1542C0.293547 15.162 0.185434 15.1197 0.12137 15.0569C0.0504177 15.0299 0 14.9613 0 14.8809V9.39606C0 9.29207 0.0843052 9.20777 0.188299 9.20777C0.202884 9.20777 0.217082 9.20942 0.230714 9.21256C0.279637 9.1921 0.33244 9.18163 0.378422 9.18582L5.92952 9.69196V9.68389C5.75399 9.68389 5.61037 9.5813 5.61037 9.45593V9.22796C5.61037 9.10258 5.75399 9 5.92952 9H11.9933ZM5.92952 9.9849C5.92177 9.98497 5.91416 9.98468 5.90672 9.984L0.376597 9.47977L0.376595 14.8603L5.90672 14.356C5.91416 14.3554 5.92177 14.3551 5.92952 14.3551V9.9849ZM2.66657 14.1063H2.43962C2.40842 14.1063 2.38288 14.0524 2.38288 13.9866V10.3962C2.38288 10.3304 2.40842 10.2765 2.43962 10.2765H2.66657C2.69778 10.2765 2.72331 10.3304 2.72331 10.3962V13.9866C2.72331 14.0524 2.69778 14.1063 2.66657 14.1063ZM3.84399 13.8936H4.07094C4.10215 13.8936 4.12768 13.8457 4.12768 13.7872V10.5957C4.12768 10.5372 4.10215 10.4893 4.07094 10.4893H3.84399C3.81279 10.4893 3.78726 10.5372 3.78726 10.5957V13.7872C3.78726 13.8457 3.81279 13.8936 3.84399 13.8936ZM5.24813 13.6809H5.47508C5.50629 13.6809 5.53182 13.639 5.53182 13.5878V10.7952C5.53182 10.744 5.50629 10.7021 5.47508 10.7021H5.24813C5.21692 10.7021 5.19139 10.744 5.19139 10.7952V13.5878C5.19139 13.639 5.21692 13.6809 5.24813 13.6809ZM18.5246 13.6809H18.7516C18.7828 13.6809 18.8083 13.639 18.8083 13.5878V10.7952C18.8083 10.744 18.7828 10.7021 18.7516 10.7021H18.5246C18.4934 10.7021 18.4679 10.744 18.4679 10.7952V13.5878C18.4679 13.639 18.4934 13.6809 18.5246 13.6809ZM20.1559 13.8936H19.929C19.8978 13.8936 19.8723 13.8457 19.8723 13.7872V10.5957C19.8723 10.5372 19.8978 10.4893 19.929 10.4893H20.1559C20.1872 10.4893 20.2127 10.5372 20.2127 10.5957V13.7872C20.2127 13.8457 20.1872 13.8936 20.1559 13.8936ZM21.3331 14.1063H21.5601C21.5913 14.1063 21.6168 14.0524 21.6168 13.9866V10.3962C21.6168 10.3304 21.5913 10.2765 21.5601 10.2765H21.3331C21.3019 10.2765 21.2764 10.3304 21.2764 10.3962V13.9866C21.2764 14.0524 21.3019 14.1063 21.3331 14.1063ZM12.0062 9H12.0001V9.68389H12.0062H17.1126V14.6991H12.0062H12.0001V15.383H12.0062H18.07C18.2455 15.383 18.3892 15.2804 18.3892 15.155V14.927C18.3892 14.8017 18.2455 14.6991 18.07 14.6991V14.648L23.6215 15.1542C23.7065 15.162 23.8147 15.1197 23.8788 15.0567C23.9496 15.0297 23.9999 14.9611 23.9999 14.8808L23.9999 9.39595C23.9999 9.29195 23.9156 9.20765 23.8116 9.20765C23.797 9.20765 23.7827 9.20932 23.769 9.21249C23.7202 9.19207 23.6674 9.18164 23.6215 9.18582L18.07 9.692V9.68389C18.2455 9.68389 18.3892 9.5813 18.3892 9.45593V9.22796C18.3892 9.10258 18.2455 9 18.07 9H12.0062ZM18.07 9.9849C18.0779 9.98498 18.0857 9.98469 18.0932 9.984L23.6233 9.47977L23.6233 14.8603L18.0932 14.356C18.0857 14.3554 18.0779 14.3551 18.07 14.3551V9.9849Z" fill="black"/>
</svg>
