<svg width="24" height="24" viewBox="0 0 24 24" fill="none" xmlns="http://www.w3.org/2000/svg">
<path fill-rule="evenodd" clip-rule="evenodd" d="M19.6208 7.47469C19.6208 7.29235 19.473 7.14453 19.2906 7.14453L4.6694 7.14453C4.48706 7.14453 4.33924 7.29235 4.33924 7.47469C4.33924 7.6422 4.46399 7.78058 4.62566 7.80198C4.62322 7.81816 4.62196 7.83472 4.62196 7.85159V8.22982L0.333004 7.54493C0.298983 7.53949 0.260537 7.55072 0.223753 7.57395C0.200573 7.54091 0.172176 7.52147 0.141498 7.52147C0.0633515 7.52147 1.29679e-06 7.64765 1.27265e-06 7.80329L0 16.0124C-2.41271e-08 16.168 0.0633502 16.2942 0.141497 16.2942C0.150287 16.2942 0.15889 16.2926 0.167237 16.2896C0.218269 16.3428 0.280838 16.3736 0.333004 16.3653L4.62196 15.6804V15.732C4.46209 15.755 4.33924 15.8925 4.33924 16.0588C4.33924 16.2411 4.48706 16.3889 4.6694 16.3889L19.2906 16.3889C19.473 16.3889 19.6208 16.2411 19.6208 16.0588C19.6208 15.8925 19.4979 15.7549 19.338 15.732V15.674L23.6673 16.3653C23.7194 16.3736 23.7819 16.3429 23.8329 16.2897C23.8412 16.2927 23.8496 16.2942 23.8583 16.2942C23.9364 16.2942 23.9998 16.168 23.9998 16.0124L23.9998 7.80329C23.9998 7.64765 23.9364 7.52147 23.8583 7.52147C23.8277 7.52147 23.7993 7.54082 23.7762 7.57372C23.7395 7.55064 23.7012 7.53951 23.6673 7.54493L19.338 8.23627V7.85158C19.338 7.83473 19.3367 7.81817 19.3343 7.80199C19.496 7.78064 19.6208 7.64224 19.6208 7.47469ZM18.681 7.80485L5.27899 7.80485C5.28116 7.82011 5.28227 7.83572 5.28227 7.85158V15.7286L18.6777 15.7286V7.85159C18.6777 7.83572 18.6788 7.82012 18.681 7.80485ZM23.7168 7.97169L23.7168 15.9385L21.4513 15.5768C21.4526 15.5514 21.4533 15.524 21.4533 15.4954V8.50909C21.4533 8.43995 21.4491 8.37759 21.4426 8.33484L23.7168 7.97169ZM19.338 8.67093V15.2393L21.2654 15.5471C21.2649 15.5305 21.2646 15.5132 21.2646 15.4954V8.50909C21.2646 8.4535 21.2673 8.40229 21.2717 8.36214L19.338 8.67093ZM2.54905 15.5768L0.282993 15.9386L0.282995 7.9716L2.5577 8.33484C2.55118 8.37759 2.54706 8.43995 2.54706 8.50909V15.4954C2.54706 15.524 2.54777 15.5514 2.54905 15.5768ZM2.72863 8.36214C2.73306 8.40229 2.73572 8.4535 2.73572 8.50909V15.4954C2.73572 15.5132 2.73545 15.5305 2.73494 15.5471L4.62196 15.2458V8.66448L2.72863 8.36214Z" fill="black"/>
<path d="M1.46141 14.5968H1.27275C1.24681 14.5968 1.22559 14.5173 1.22559 14.42V9.11388C1.22559 9.0166 1.24681 8.93701 1.27275 8.93701H1.46141C1.48735 8.93701 1.50858 9.0166 1.50858 9.11388V14.42C1.50858 14.5173 1.48735 14.5968 1.46141 14.5968Z" fill="#0674BB"/>
<path d="M22.8755 14.5026H22.6868C22.6609 14.5026 22.6396 14.423 22.6396 14.3257V9.01964C22.6396 8.92237 22.6609 8.84277 22.6868 8.84277H22.8755C22.9014 8.84277 22.9226 8.92237 22.9226 9.01964V14.3257C22.9226 14.423 22.9014 14.5026 22.8755 14.5026Z" fill="#0674BB"/>
<path d="M3.91454 14.1252H3.72588C3.69994 14.1252 3.67871 14.0589 3.67871 13.9778V9.55608C3.67871 9.47502 3.69994 9.40869 3.72588 9.40869H3.91454C3.94048 9.40869 3.9617 9.47502 3.9617 9.55608V13.9778C3.9617 14.0589 3.94048 14.1252 3.91454 14.1252Z" fill="#0674BB"/>
<path d="M20.0449 14.1252H20.2336C20.2595 14.1252 20.2808 14.0589 20.2808 13.9778V9.55608C20.2808 9.47502 20.2595 9.40869 20.2336 9.40869H20.0449C20.019 9.40869 19.9978 9.47502 19.9978 9.55608V13.9778C19.9978 14.0589 20.019 14.1252 20.0449 14.1252Z" fill="#0674BB"/>
</svg>
