<svg viewBox="0 0 24 24" fill="none" xmlns="http://www.w3.org/2000/svg">
  <g id="OT">
    <g clip-path="url(#clip0)">
      <path fill-rule="evenodd" clip-rule="evenodd" d="M1.69576 24.8888L1.6939 24.8888H1.11681C0.500011 24.8888 0 24.3888 0 23.772C0 23.2716 0.329124 22.8481 0.782715 22.706L0.782714 0.913043C0.782714 0.408783 1.1915 2.98023e-08 1.69576 0C2.20002 -2.98023e-08 2.6088 0.408784 2.6088 0.913044L2.6088 22.6552L21.3652 22.6552V0.913043C21.3652 0.408783 21.774 2.98023e-08 22.2783 0C22.7825 -2.98023e-08 23.1913 0.408784 23.1913 0.913044L23.1913 22.6983C23.6583 22.832 24 23.2621 24 23.772C24 24.3888 23.5 24.8888 22.8832 24.8888H22.2786C22.2785 24.8888 22.2784 24.8888 22.2783 24.8888C22.2782 24.8888 22.2781 24.8888 22.278 24.8888L1.69762 24.8888L1.69576 24.8888Z" fill="black"/>
    </g>
    <defs>
      <clipPath id="clip0">
        <rect width="24" height="24" fill="white"/>
      </clipPath>
    </defs>
  </g>
</svg>
