<svg width="24" height="24" viewBox="0 0 24 24" fill="none" xmlns="http://www.w3.org/2000/svg">
<path fill-rule="evenodd" clip-rule="evenodd" d="M3.77756 20.8889L3.77575 20.8889H2.88889C2.39797 20.8889 2 20.4909 2 20C2 19.5092 2.39785 19.1112 2.88867 19.1111L2.88867 4.88889C2.88867 4.39797 3.28664 4 3.77756 4C4.26848 4 4.66645 4.39797 4.66645 4.88889L4.66645 19.1111L19.334 19.1111V4.88889C19.334 4.39797 19.732 4 20.2229 4C20.7138 4 21.1118 4.39797 21.1118 4.88889V19.1111C21.6024 19.1115 22 19.5093 22 20C22 20.4909 21.602 20.8889 21.1111 20.8889H20.2233C20.2232 20.8889 20.223 20.8889 20.2229 20.8889C20.2227 20.8889 20.2226 20.8889 20.2225 20.8889L3.77938 20.8889L3.77756 20.8889Z" fill="black"/>
</svg>
