<svg viewBox="0 0 35 35" fill="none" xmlns="http://www.w3.org/2000/svg">
  <g id="OT">
    <circle cx="17.5" cy="17.5" r="17.5" fill="white"/>
    <path fill-rule="evenodd" clip-rule="evenodd" d="M9.77756 26.8889L9.77575 26.8889H8.88889C8.39797 26.8889 8 26.4909 8 26C8 25.5092 8.39785 25.1112 8.88867 25.1111L8.88867 10.8889C8.88867 10.398 9.28664 10 9.77756 10C10.2685 10 10.6664 10.398 10.6664 10.8889L10.6665 25.1111L25.334 25.1111V10.8889C25.334 10.398 25.732 10 26.2229 10C26.7138 10 27.1118 10.398 27.1118 10.8889V25.1111C27.6024 25.1115 28 25.5093 28 26C28 26.4909 27.602 26.8889 27.1111 26.8889H26.2233C26.2232 26.8889 26.223 26.8889 26.2229 26.8889C26.2227 26.8889 26.2226 26.8889 26.2225 26.8889L9.77938 26.8889L9.77756 26.8889Z" fill="black"/>
  </g>
</svg>
