<svg width="24" height="24" viewBox="0 0 24 24" fill="none" xmlns="http://www.w3.org/2000/svg">
<path d="M17.0524 7.4311L16.167 6.91676C16.5403 6.33081 16.7334 5.72532 16.7464 5.1003V4H18.2439V5.00915C18.2439 5.39979 18.1354 5.82298 17.9184 6.27872C17.7013 6.73447 17.4127 7.11859 17.0524 7.4311Z" fill="#0674BB"/>
<path d="M2 14.8337L4.08014 14.8396L4.09193 16.5014L5.3353 16.5073L5.32941 14.8396H7.00295L6.99705 17.7565H8.24632L8.25221 14.8396L9.91397 14.8396L9.91986 16.5073H11.1691L11.1632 14.8396H12.8368L12.8309 17.7565H14.0801L14.086 14.8396L15.7478 14.8396V16.5014L17.0029 16.5073L16.9971 14.8396H18.6706L18.6588 17.7507L19.914 17.7565L19.9199 14.8396L22 14.8337V19.8426H2V14.8337Z" fill="black"/>
<path d="M14.5739 11.3801C14.5739 12.1268 14.325 12.7624 13.8272 13.2869C13.3383 13.8113 12.6093 14.0736 11.6404 14.0736C10.6804 14.0736 9.94259 13.838 9.42702 13.3669C8.92033 12.8957 8.66699 12.2468 8.66699 11.4201C8.66699 10.9846 8.79589 10.5623 9.05367 10.1534C9.32035 9.74453 9.68036 9.40674 10.1337 9.14006C9.42257 8.70449 9.06701 8.08225 9.06701 7.27333C9.06701 6.46442 9.30701 5.85551 9.78703 5.44661C10.2759 5.0377 10.9071 4.83325 11.6804 4.83325C12.4627 4.83325 13.0849 5.02881 13.5472 5.41994C14.0094 5.81106 14.2405 6.3533 14.2405 7.04666C14.2405 7.94447 13.8272 8.63782 13.0005 9.12673C14.0494 9.63341 14.5739 10.3845 14.5739 11.3801ZM12.5871 7.14C12.5871 6.8911 12.4982 6.69998 12.3204 6.56664C12.1516 6.42442 11.9338 6.3533 11.6671 6.3533C11.4093 6.3533 11.1871 6.41997 11.0004 6.55331C10.8137 6.67776 10.7204 6.88665 10.7204 7.18C10.7204 7.46445 10.8137 7.73113 11.0004 7.98002C11.196 8.22892 11.436 8.42004 11.7204 8.55338C11.9782 8.40226 12.1871 8.18892 12.3471 7.91335C12.5071 7.63779 12.5871 7.38 12.5871 7.14ZM10.4004 11.3801C10.4004 11.7446 10.5159 12.029 10.7471 12.2335C10.9782 12.4291 11.276 12.5268 11.6404 12.5268C12.0049 12.5268 12.2938 12.4157 12.5071 12.1935C12.7293 11.9624 12.8405 11.6646 12.8405 11.3001C12.8405 10.9357 12.716 10.6468 12.4671 10.4334C12.2182 10.2201 11.8671 10.0245 11.4138 9.84675C11.4049 9.84675 11.3871 9.84231 11.3604 9.83342C11.3337 9.81564 11.316 9.80675 11.3071 9.80675L11.2937 9.79342C10.6982 10.1579 10.4004 10.6868 10.4004 11.3801Z" fill="black"/>
</svg>
