<svg viewBox="0 0 35 35" fill="none" xmlns="http://www.w3.org/2000/svg">
  <g id="6-pies">
    <circle cx="17.5" cy="17.5" r="17.5" fill="white"/>
    <path d="M24.0625 12.1172L23 11.5C23.4479 10.7969 23.6797 10.0703 23.6953 9.32031V8H25.4922V9.21094C25.4922 9.67969 25.362 10.1875 25.1016 10.7344C24.8411 11.2812 24.4948 11.7422 24.0625 12.1172Z" fill="#0674BB"/>
    <path d="M6 21L8.49609 21.0071L8.51023 23.0011L10.0022 23.0082L9.99515 21.0071H12.0033L11.9963 24.5072H13.4953L13.5024 21.0071L15.4964 21.0071L15.5035 23.0082H17.0026L16.9955 21.0071H19.0037L18.9966 24.5072H20.4957L20.5028 21.0071L22.4968 21.0071V23.0011L24.0029 23.0082L23.9959 21.0071H26.0041L25.9899 24.5002L27.496 24.5072L27.5031 21.0071L29.9992 21V27.0104H6V21Z" fill="black"/>
    <path d="M20.1172 8V9.85938H19.8984C18.8776 9.875 18.0547 10.1406 17.4297 10.6562C16.8099 11.1719 16.4375 11.888 16.3125 12.8047C16.9167 12.1901 17.6797 11.8828 18.6016 11.8828C19.5911 11.8828 20.3776 12.237 20.9609 12.9453C21.5443 13.6536 21.8359 14.5859 21.8359 15.7422C21.8359 16.4818 21.6745 17.151 21.3516 17.75C21.0339 18.349 20.5807 18.8151 19.9922 19.1484C19.4089 19.4818 18.7474 19.6484 18.0078 19.6484C16.8099 19.6484 15.8411 19.2318 15.1016 18.3984C14.3672 17.5651 14 16.4531 14 15.0625V14.25C14 13.0156 14.2318 11.9271 14.6953 10.9844C15.1641 10.0365 15.8333 9.30469 16.7031 8.78906C17.5781 8.26823 18.5911 8.00521 19.7422 8H20.1172ZM17.9141 13.6953C17.5495 13.6953 17.2188 13.7917 16.9219 13.9844C16.625 14.1719 16.4062 14.4219 16.2656 14.7344V15.4219C16.2656 16.1771 16.4141 16.7682 16.7109 17.1953C17.0078 17.6172 17.4245 17.8281 17.9609 17.8281C18.4453 17.8281 18.8359 17.638 19.1328 17.2578C19.4349 16.8724 19.5859 16.375 19.5859 15.7656C19.5859 15.1458 19.4349 14.6458 19.1328 14.2656C18.8307 13.8854 18.4245 13.6953 17.9141 13.6953Z" fill="black"/>
  </g>
</svg>
