<svg width="24" height="24" viewBox="0 0 24 24" fill="none" xmlns="http://www.w3.org/2000/svg">
<path d="M18.0625 6.11719L17 5.5C17.4479 4.79688 17.6797 4.07031 17.6953 3.32031V2H19.4922V3.21094C19.4922 3.67969 19.362 4.1875 19.1016 4.73438C18.8411 5.28125 18.4948 5.74219 18.0625 6.11719Z" fill="#0674BB"/>
<path d="M0 15L2.49609 15.0071L2.51023 17.0011L4.00222 17.0082L3.99515 15.0071H6.00334L5.99627 18.5072H7.49533L7.5024 15.0071L9.49644 15.0071L9.50352 17.0082H11.0026L10.9955 15.0071H13.0037L12.9966 18.5072H14.4957L14.5028 15.0071L16.4968 15.0071V17.0011L18.0029 17.0082L17.9959 15.0071H20.0041L19.9899 18.5002L21.496 18.5072L21.5031 15.0071L23.9992 15V21.0104H0V15Z" fill="black"/>
<path d="M15.088 10.856C15.088 11.752 14.7893 12.5147 14.192 13.144C13.6053 13.7733 12.7307 14.088 11.568 14.088C10.416 14.088 9.53067 13.8053 8.912 13.24C8.304 12.6747 8 11.896 8 10.904C8 10.3813 8.15467 9.87467 8.464 9.384C8.784 8.89333 9.216 8.488 9.76 8.168C8.90667 7.64533 8.48 6.89867 8.48 5.928C8.48 4.95733 8.768 4.22667 9.344 3.736C9.93067 3.24533 10.688 3 11.616 3C12.5547 3 13.3013 3.23467 13.856 3.704C14.4107 4.17333 14.688 4.824 14.688 5.656C14.688 6.73333 14.192 7.56533 13.2 8.152C14.4587 8.76 15.088 9.66133 15.088 10.856ZM12.704 5.768C12.704 5.46933 12.5973 5.24 12.384 5.08C12.1813 4.90933 11.92 4.824 11.6 4.824C11.2907 4.824 11.024 4.904 10.8 5.064C10.576 5.21333 10.464 5.464 10.464 5.816C10.464 6.15733 10.576 6.47733 10.8 6.776C11.0347 7.07467 11.3227 7.304 11.664 7.464C11.9733 7.28267 12.224 7.02667 12.416 6.696C12.608 6.36533 12.704 6.056 12.704 5.768ZM10.08 10.856C10.08 11.2933 10.2187 11.6347 10.496 11.88C10.7733 12.1147 11.1307 12.232 11.568 12.232C12.0053 12.232 12.352 12.0987 12.608 11.832C12.8747 11.5547 13.008 11.1973 13.008 10.76C13.008 10.3227 12.8587 9.976 12.56 9.72C12.2613 9.464 11.84 9.22933 11.296 9.016C11.2853 9.016 11.264 9.01067 11.232 9C11.2 8.97867 11.1787 8.968 11.168 8.968L11.152 8.952C10.4373 9.38933 10.08 10.024 10.08 10.856Z" fill="black"/>
</svg>
