<svg width="24" height="24" viewBox="0 0 24 24" fill="none" xmlns="http://www.w3.org/2000/svg">
  <g id="pies20">
    <path d="M0 15L2.49609 15.0071L2.51023 17.0011L4.00222 17.0082L3.99515 15.0071H6.00334L5.99627 18.5072H7.49533L7.5024 15.0071L9.49644 15.0071L9.50352 17.0082H11.0026L10.9955 15.0071H13.0037L12.9966 18.5072H14.4957L14.5028 15.0071L16.4968 15.0071V17.0011L18.0029 17.0082L17.9959 15.0071H20.0041L19.9899 18.5002L21.496 18.5072L21.5031 15.0071L23.9992 15V21.0104H0V15Z" fill="black"/>
    <path d="M11.0234 14H3.22656V12.4531L6.90625 8.53125C7.41146 7.97917 7.78385 7.4974 8.02344 7.08594C8.26823 6.67448 8.39062 6.28385 8.39062 5.91406C8.39062 5.40885 8.26302 5.01302 8.00781 4.72656C7.7526 4.4349 7.38802 4.28906 6.91406 4.28906C6.40365 4.28906 6 4.46615 5.70312 4.82031C5.41146 5.16927 5.26562 5.63021 5.26562 6.20312H3C3 5.51042 3.16406 4.8776 3.49219 4.30469C3.82552 3.73177 4.29427 3.28385 4.89844 2.96094C5.5026 2.63281 6.1875 2.46875 6.95312 2.46875C8.125 2.46875 9.03385 2.75 9.67969 3.3125C10.3307 3.875 10.6562 4.66927 10.6562 5.69531C10.6562 6.25781 10.5104 6.83073 10.2188 7.41406C9.92708 7.9974 9.42708 8.67708 8.71875 9.45312L6.13281 12.1797H11.0234V14Z" fill="black"/>
    <path d="M20.0703 9.29688C20.0703 10.8698 19.7448 12.0729 19.0938 12.9062C18.4427 13.7396 17.4896 14.1562 16.2344 14.1562C14.9948 14.1562 14.0469 13.7474 13.3906 12.9297C12.7344 12.112 12.3984 10.9401 12.3828 9.41406V7.32031C12.3828 5.73177 12.7109 4.52604 13.3672 3.70312C14.0286 2.88021 14.9792 2.46875 16.2188 2.46875C17.4583 2.46875 18.4062 2.8776 19.0625 3.69531C19.7188 4.50781 20.0547 5.67708 20.0703 7.20312V9.29688ZM17.8125 7C17.8125 6.05729 17.6823 5.3724 17.4219 4.94531C17.1667 4.51302 16.7656 4.29688 16.2188 4.29688C15.6875 4.29688 15.2943 4.5026 15.0391 4.91406C14.7891 5.32031 14.6562 5.95833 14.6406 6.82812V9.59375C14.6406 10.5208 14.7656 11.2109 15.0156 11.6641C15.2708 12.112 15.6771 12.3359 16.2344 12.3359C16.7865 12.3359 17.1849 12.1198 17.4297 11.6875C17.6745 11.2552 17.8021 10.5938 17.8125 9.70312V7Z" fill="black"/>
    <path d="M22.0625 6.11719L21 5.5C21.4479 4.79688 21.6797 4.07031 21.6953 3.32031V2H23.4922V3.21094C23.4922 3.67969 23.362 4.1875 23.1016 4.73438C22.8411 5.28125 22.4948 5.74219 22.0625 6.11719Z" fill="#0674BB"/>
  </g>
</svg>
