<svg width="24" height="24" viewBox="0 0 24 24" fill="none" xmlns="http://www.w3.org/2000/svg">
<path d="M2 14.8337L4.08014 14.8396L4.09193 16.5014L5.3353 16.5073L5.32941 14.8396H7.00295L6.99705 17.7565H8.24632L8.25221 14.8396L9.91397 14.8396L9.91986 16.5073H11.1691L11.1632 14.8396H12.8368L12.8309 17.7565H14.0801L14.086 14.8396L15.7478 14.8396V16.5014L17.0029 16.5073L16.9971 14.8396H18.6706L18.6588 17.7507L19.914 17.7565L19.9199 14.8396L22 14.8337V19.8426H2V14.8337Z" fill="black"/>
<path d="M9.51956 10.4325H10.5938V11.9495H9.51956V14.0003H7.63799V11.9495H3.75114L3.6665 10.7645L7.61846 4.52084H9.51956V10.4325ZM5.54157 10.4325H7.63799V7.08603L7.51429 7.30088L5.54157 10.4325Z" fill="black"/>
<path d="M17.9899 10.0809C17.9899 11.3917 17.7186 12.3944 17.1761 13.0888C16.6335 13.7833 15.8392 14.1305 14.7932 14.1305C13.7602 14.1305 12.9702 13.7898 12.4233 13.1084C11.8764 12.4269 11.5965 11.4503 11.5834 10.1786V8.43373C11.5834 7.1099 11.8569 6.10509 12.4038 5.4193C12.955 4.73352 13.7471 4.39062 14.7802 4.39062C15.8132 4.39062 16.6031 4.73135 17.15 5.41279C17.6969 6.0899 17.9769 7.06432 17.9899 8.33607V10.0809ZM16.1083 8.16679C16.1083 7.38118 15.9998 6.81041 15.7828 6.4545C15.5701 6.09424 15.2359 5.91411 14.7802 5.91411C14.3374 5.91411 14.0097 6.08556 13.797 6.42845C13.5887 6.76701 13.478 7.29871 13.465 8.02356V10.3283C13.465 11.1009 13.5692 11.676 13.7775 12.0536C13.9902 12.4269 14.3287 12.6136 14.7932 12.6136C15.2533 12.6136 15.5853 12.4334 15.7893 12.0732C15.9933 11.7129 16.0996 11.1617 16.1083 10.4195V8.16679Z" fill="black"/>
<path d="M20.3859 7.4311L19.5005 6.91676C19.8738 6.33081 20.0669 5.72532 20.0799 5.1003V4H21.5774V5.00915C21.5774 5.39979 21.4689 5.82298 21.2518 6.27872C21.0348 6.73447 20.7462 7.11859 20.3859 7.4311Z" fill="#0674BB"/>
</svg>
