<svg width="35" height="35" viewBox="0 0 35 35" fill="none" xmlns="http://www.w3.org/2000/svg">
<circle cx="17.5" cy="17.5" r="17.5" fill="white"/>
<path d="M20.1172 8.50781V10.3672H19.8984C18.8776 10.3828 18.0547 10.6484 17.4297 11.1641C16.8099 11.6797 16.4375 12.3958 16.3125 13.3125C16.9167 12.6979 17.6797 12.3906 18.6016 12.3906C19.5911 12.3906 20.3776 12.7448 20.9609 13.4531C21.5443 14.1615 21.8359 15.0938 21.8359 16.25C21.8359 16.9896 21.6745 17.6589 21.3516 18.2578C21.0339 18.8568 20.5807 19.3229 19.9922 19.6562C19.4089 19.9896 18.7474 20.1562 18.0078 20.1562C16.8099 20.1562 15.8411 19.7396 15.1016 18.9062C14.3672 18.0729 14 16.9609 14 15.5703V14.7578C14 13.5234 14.2318 12.4349 14.6953 11.4922C15.1641 10.5443 15.8333 9.8125 16.7031 9.29688C17.5781 8.77604 18.5911 8.51302 19.7422 8.50781H20.1172ZM17.9141 14.2031C17.5495 14.2031 17.2188 14.2995 16.9219 14.4922C16.625 14.6797 16.4062 14.9297 16.2656 15.2422V15.9297C16.2656 16.6849 16.4141 17.276 16.7109 17.7031C17.0078 18.125 17.4245 18.3359 17.9609 18.3359C18.4453 18.3359 18.8359 18.1458 19.1328 17.7656C19.4349 17.3802 19.5859 16.8828 19.5859 16.2734C19.5859 15.6536 19.4349 15.1536 19.1328 14.7734C18.8307 14.3932 18.4245 14.2031 17.9141 14.2031Z" fill="black"/>
<path d="M24.0625 12.1172L23 11.5C23.4479 10.7969 23.6797 10.0703 23.6953 9.32031V8H25.4922V9.21094C25.4922 9.67969 25.362 10.1875 25.1016 10.7344C24.8411 11.2812 24.4948 11.7422 24.0625 12.1172Z" fill="#0674BB"/>
<path d="M6 21L8.49609 21.0071L8.51023 23.0011L10.0022 23.0082L9.99515 21.0071H12.0033L11.9963 24.5072H13.4953L13.5024 21.0071L15.4964 21.0071L15.5035 23.0082H17.0026L16.9955 21.0071H19.0037L18.9966 24.5072H20.4957L20.5028 21.0071L22.4968 21.0071V23.0011L24.0029 23.0082L23.9959 21.0071H26.0041L25.9899 24.5002L27.496 24.5072L27.5031 21.0071L29.9992 21V27.0104H6V21Z" fill="black"/>
</svg>
