<svg viewBox="0 0 24 24" fill="none" xmlns="http://www.w3.org/2000/svg">
  <!-- <g id="pies45"> -->
  <g id="45pies">
    <path d="M2 14.8337L4.08014 14.8396L4.09193 16.5014L5.3353 16.5073L5.32941 14.8396H7.00295L6.99705 17.7565H8.24632L8.25221 14.8396L9.91397 14.8396L9.91986 16.5073H11.1691L11.1632 14.8396H12.8368L12.8309 17.7565H14.0801L14.086 14.8396L15.7478 14.8396V16.5014L17.0029 16.5073L16.9971 14.8396H18.6706L18.6588 17.7507L19.914 17.7565L19.9199 14.8396L22 14.8337V19.8426H2V14.8337Z" fill="black"/>
    <path d="M9.51956 10.4324H10.5938V11.9494H9.51956V14.0002H7.63799V11.9494H3.75114L3.6665 10.7644L7.61846 4.52075H9.51956V10.4324ZM5.54157 10.4324H7.63799V7.08594L7.51429 7.30079L5.54157 10.4324Z" fill="black"/>
    <path d="M11.8894 9.33862L12.4363 4.52075H17.749V6.08981H13.9793L13.745 8.12764C14.192 7.88892 14.6673 7.76956 15.1708 7.76956C16.0736 7.76956 16.7811 8.04951 17.2933 8.60943C17.8054 9.16934 18.0615 9.95279 18.0615 10.9598C18.0615 11.5718 17.9313 12.1208 17.6709 12.607C17.4148 13.0887 17.0459 13.4642 16.5641 13.7333C16.0823 13.9981 15.5137 14.1304 14.8583 14.1304C14.2853 14.1304 13.7536 14.0154 13.2632 13.7854C12.7727 13.551 12.3842 13.2233 12.0978 12.8023C11.8156 12.3813 11.6659 11.9016 11.6485 11.3634H13.5106C13.5496 11.7584 13.6864 12.0666 13.9207 12.2879C14.1595 12.505 14.4698 12.6135 14.8518 12.6135C15.2771 12.6135 15.6048 12.4616 15.8349 12.1577C16.0649 11.8496 16.1799 11.4155 16.1799 10.8556C16.1799 10.3174 16.0476 9.90505 15.7828 9.61858C15.518 9.33211 15.1426 9.18888 14.6565 9.18888C14.2094 9.18888 13.847 9.30607 13.5692 9.54045L13.3869 9.70973L11.8894 9.33862Z" fill="black"/>
    <path d="M20.3859 7.4311L19.5005 6.91676C19.8738 6.33081 20.0669 5.72532 20.0799 5.1003V4H21.5774V5.00915C21.5774 5.39979 21.4689 5.82298 21.2518 6.27872C21.0348 6.73447 20.7462 7.11859 20.3859 7.4311Z" fill="#0674BB"/>
  </g>
</svg>
