<svg width="24" height="24" viewBox="0 0 24 24" fill="none" xmlns="http://www.w3.org/2000/svg">
<path d="M0 15L2.49609 15.0071L2.51023 17.0011L4.00222 17.0082L3.99515 15.0071H6.00334L5.99627 18.5072H7.49533L7.5024 15.0071L9.49644 15.0071L9.50352 17.0082H11.0026L10.9955 15.0071H13.0037L12.9966 18.5072H14.4957L14.5028 15.0071L16.4968 15.0071V17.0011L18.0029 17.0082L17.9959 15.0071H20.0041L19.9899 18.5002L21.496 18.5072L21.5031 15.0071L23.9992 15V21.0104H0V15Z" fill="black"/>
<path d="M6.95312 14H4.69531V5.29688L2 6.13281V4.29688L6.71094 2.60938H6.95312V14Z" fill="black"/>
<path d="M18.3125 9.29688C18.3125 10.8698 17.987 12.0729 17.3359 12.9062C16.6849 13.7396 15.7318 14.1562 14.4766 14.1562C13.237 14.1562 12.2891 13.7474 11.6328 12.9297C10.9766 12.112 10.6406 10.9401 10.625 9.41406V7.32031C10.625 5.73177 10.9531 4.52604 11.6094 3.70312C12.2708 2.88021 13.2214 2.46875 14.4609 2.46875C15.7005 2.46875 16.6484 2.8776 17.3047 3.69531C17.9609 4.50781 18.2969 5.67708 18.3125 7.20312V9.29688ZM16.0547 7C16.0547 6.05729 15.9245 5.3724 15.6641 4.94531C15.4089 4.51302 15.0078 4.29688 14.4609 4.29688C13.9297 4.29688 13.5365 4.5026 13.2812 4.91406C13.0312 5.32031 12.8984 5.95833 12.8828 6.82812V9.59375C12.8828 10.5208 13.0078 11.2109 13.2578 11.6641C13.513 12.112 13.9193 12.3359 14.4766 12.3359C15.0286 12.3359 15.4271 12.1198 15.6719 11.6875C15.9167 11.2552 16.0443 10.5938 16.0547 9.70312V7Z" fill="black"/>
<path d="M20.0625 6.11719L19 5.5C19.4479 4.79688 19.6797 4.07031 19.6953 3.32031V2H21.4922V3.21094C21.4922 3.67969 21.362 4.1875 21.1016 4.73438C20.8411 5.28125 20.4948 5.74219 20.0625 6.11719Z" fill="#0674BB"/>
</svg>
