<svg width="24" height="24" viewBox="0 0 24 24" fill="none" xmlns="http://www.w3.org/2000/svg">
  <g id="pies45">
    <path d="M0 15L2.49609 15.0071L2.51023 17.0011L4.00222 17.0082L3.99515 15.0071H6.00334L5.99627 18.5072H7.49533L7.5024 15.0071L9.49644 15.0071L9.50352 17.0082H11.0026L10.9955 15.0071H13.0037L12.9966 18.5072H14.4957L14.5028 15.0071L16.4968 15.0071V17.0011L18.0029 17.0082L17.9959 15.0071H20.0041L19.9899 18.5002L21.496 18.5072L21.5031 15.0071L23.9992 15V21.0104H0V15Z" fill="black"/>
    <path d="M9.02344 9.71875H10.3125V11.5391H9.02344V14H6.76562V11.5391H2.10156L2 10.1172L6.74219 2.625H9.02344V9.71875ZM4.25 9.71875H6.76562V5.70312L6.61719 5.96094L4.25 9.71875Z" fill="black"/>
    <path d="M11.8672 8.40625L12.5234 2.625H18.8984V4.50781H14.375L14.0938 6.95312C14.6302 6.66667 15.2005 6.52344 15.8047 6.52344C16.888 6.52344 17.737 6.85938 18.3516 7.53125C18.9661 8.20312 19.2734 9.14323 19.2734 10.3516C19.2734 11.0859 19.1172 11.7448 18.8047 12.3281C18.4974 12.9062 18.0547 13.3568 17.4766 13.6797C16.8984 13.9974 16.2161 14.1562 15.4297 14.1562C14.7422 14.1562 14.1042 14.0182 13.5156 13.7422C12.9271 13.4609 12.4609 13.0677 12.1172 12.5625C11.7786 12.0573 11.599 11.4818 11.5781 10.8359H13.8125C13.8594 11.3099 14.0234 11.6797 14.3047 11.9453C14.5911 12.2057 14.9635 12.3359 15.4219 12.3359C15.9323 12.3359 16.3255 12.1536 16.6016 11.7891C16.8776 11.4193 17.0156 10.8984 17.0156 10.2266C17.0156 9.58073 16.8568 9.08594 16.5391 8.74219C16.2214 8.39844 15.7708 8.22656 15.1875 8.22656C14.651 8.22656 14.2161 8.36719 13.8828 8.64844L13.6641 8.85156L11.8672 8.40625Z" fill="black"/>
    <path d="M22.0625 6.11719L21 5.5C21.4479 4.79688 21.6797 4.07031 21.6953 3.32031V2H23.4922V3.21094C23.4922 3.67969 23.362 4.1875 23.1016 4.73438C22.8411 5.28125 22.4948 5.74219 22.0625 6.11719Z" fill="#0674BB"/>
  </g>
</svg>
