<svg width="24" height="24" viewBox="0 0 24 24" fill="none" xmlns="http://www.w3.org/2000/svg">
  <g id="pies10">
    <path d="M2 14.8337L4.08014 14.8396L4.09193 16.5014L5.3353 16.5073L5.32941 14.8396H7.00295L6.99705 17.7565H8.24632L8.25221 14.8396L9.91397 14.8396L9.91986 16.5073H11.1691L11.1632 14.8396H12.8368L12.8309 17.7565H14.0801L14.086 14.8396L15.7478 14.8396V16.5014L17.0029 16.5073L16.9971 14.8396H18.6706L18.6588 17.7507L19.914 17.7565L19.9199 14.8396L22 14.8337V19.8426H2V14.8337Z" fill="black"/>
    <path d="M7.79424 14.0003H5.91267V6.74747L3.6665 7.44411V5.91411L7.59242 4.50782H7.79424V14.0003Z" fill="black"/>
    <path d="M17.2607 10.0809C17.2607 11.3917 16.9894 12.3944 16.4469 13.0888C15.9043 13.7833 15.11 14.1305 14.064 14.1305C13.031 14.1305 12.241 13.7898 11.6941 13.1084C11.1472 12.4269 10.8673 11.4503 10.8542 10.1786V8.43373C10.8542 7.1099 11.1277 6.10509 11.6746 5.4193C12.2258 4.73352 13.0179 4.39062 14.051 4.39062C15.084 4.39062 15.8739 4.73135 16.4208 5.41279C16.9677 6.0899 17.2477 7.06432 17.2607 8.33607V10.0809ZM15.3791 8.16679C15.3791 7.38118 15.2706 6.81041 15.0536 6.4545C14.8409 6.09424 14.5067 5.91411 14.051 5.91411C13.6082 5.91411 13.2805 6.08556 13.0679 6.42845C12.8595 6.76701 12.7488 7.29871 12.7358 8.02356V10.3283C12.7358 11.1009 12.84 11.676 13.0483 12.0536C13.261 12.4269 13.5996 12.6136 14.064 12.6136C14.5241 12.6136 14.8561 12.4334 15.0601 12.0732C15.2641 11.7129 15.3705 11.1617 15.3791 10.4195V8.16679Z" fill="black"/>
    <path d="M18.7194 7.4311L17.834 6.91676C18.2073 6.33081 18.4004 5.72532 18.4134 5.1003V4H19.9109V5.00915C19.9109 5.39979 19.8024 5.82298 19.5853 6.27872C19.3683 6.73447 19.0797 7.11859 18.7194 7.4311Z" fill="#0674BB"/>
  </g>
</svg>
