<svg viewBox="0 0 35 35" fill="none" xmlns="http://www.w3.org/2000/svg">
  <g id="40-pies">
    <circle cx="17.5" cy="17.5" r="17.5" fill="white"/>
    <path d="M6 21L8.49609 21.0071L8.51023 23.0011L10.0022 23.0082L9.99515 21.0071H12.0033L11.9963 24.5072H13.4953L13.5024 21.0071L15.4964 21.0071L15.5035 23.0082H17.0026L16.9955 21.0071H19.0037L18.9966 24.5072H20.4957L20.5028 21.0071L22.4968 21.0071V23.0011L24.0029 23.0082L23.9959 21.0071H26.0041L25.9899 24.5002L27.496 24.5072L27.5031 21.0071L29.9992 21V27.0104H6V21Z" fill="black"/>
    <path d="M15.0234 15.7188H16.3125V17.5391H15.0234V20H12.7656V17.5391H8.10156L8 16.1172L12.7422 8.625H15.0234V15.7188ZM10.25 15.7188H12.7656V11.7031L12.6172 11.9609L10.25 15.7188Z" fill="black"/>
    <path d="M25.1875 15.2969C25.1875 16.8698 24.862 18.0729 24.2109 18.9062C23.5599 19.7396 22.6068 20.1562 21.3516 20.1562C20.112 20.1562 19.1641 19.7474 18.5078 18.9297C17.8516 18.112 17.5156 16.9401 17.5 15.4141V13.3203C17.5 11.7318 17.8281 10.526 18.4844 9.70312C19.1458 8.88021 20.0964 8.46875 21.3359 8.46875C22.5755 8.46875 23.5234 8.8776 24.1797 9.69531C24.8359 10.5078 25.1719 11.6771 25.1875 13.2031V15.2969ZM22.9297 13C22.9297 12.0573 22.7995 11.3724 22.5391 10.9453C22.2839 10.513 21.8828 10.2969 21.3359 10.2969C20.8047 10.2969 20.4115 10.5026 20.1562 10.9141C19.9062 11.3203 19.7734 11.9583 19.7578 12.8281V15.5938C19.7578 16.5208 19.8828 17.2109 20.1328 17.6641C20.388 18.112 20.7943 18.3359 21.3516 18.3359C21.9036 18.3359 22.3021 18.1198 22.5469 17.6875C22.7917 17.2552 22.9193 16.5938 22.9297 15.7031V13Z" fill="black"/>
    <path d="M28.0625 12.1172L27 11.5C27.4479 10.7969 27.6797 10.0703 27.6953 9.32031V8H29.4922V9.21094C29.4922 9.67969 29.362 10.1875 29.1016 10.7344C28.8411 11.2812 28.4948 11.7422 28.0625 12.1172Z" fill="#0674BB"/>
  </g>
</svg>
