<svg viewBox="0 0 35 35" fill="none" xmlns="http://www.w3.org/2000/svg">
  <g id="20-pies">
    <circle cx="17.5" cy="17.5" r="17.5" fill="white"/>
    <path d="M6 21L8.49609 21.0071L8.51023 23.0011L10.0022 23.0082L9.99515 21.0071H12.0033L11.9963 24.5072H13.4953L13.5024 21.0071L15.4964 21.0071L15.5035 23.0082H17.0026L16.9955 21.0071H19.0037L18.9966 24.5072H20.4957L20.5028 21.0071L22.4968 21.0071V23.0011L24.0029 23.0082L23.9959 21.0071H26.0041L25.9899 24.5002L27.496 24.5072L27.5031 21.0071L29.9992 21V27.0104H6V21Z" fill="black"/>
    <path d="M17.0234 20H9.22656V18.4531L12.9062 14.5312C13.4115 13.9792 13.7839 13.4974 14.0234 13.0859C14.2682 12.6745 14.3906 12.2839 14.3906 11.9141C14.3906 11.4089 14.263 11.013 14.0078 10.7266C13.7526 10.4349 13.388 10.2891 12.9141 10.2891C12.4036 10.2891 12 10.4661 11.7031 10.8203C11.4115 11.1693 11.2656 11.6302 11.2656 12.2031H9C9 11.5104 9.16406 10.8776 9.49219 10.3047C9.82552 9.73177 10.2943 9.28385 10.8984 8.96094C11.5026 8.63281 12.1875 8.46875 12.9531 8.46875C14.125 8.46875 15.0339 8.75 15.6797 9.3125C16.3307 9.875 16.6562 10.6693 16.6562 11.6953C16.6562 12.2578 16.5104 12.8307 16.2188 13.4141C15.9271 13.9974 15.4271 14.6771 14.7188 15.4531L12.1328 18.1797H17.0234V20Z" fill="black"/>
    <path d="M26.0703 15.2969C26.0703 16.8698 25.7448 18.0729 25.0938 18.9062C24.4427 19.7396 23.4896 20.1562 22.2344 20.1562C20.9948 20.1562 20.0469 19.7474 19.3906 18.9297C18.7344 18.112 18.3984 16.9401 18.3828 15.4141V13.3203C18.3828 11.7318 18.7109 10.526 19.3672 9.70312C20.0286 8.88021 20.9792 8.46875 22.2188 8.46875C23.4583 8.46875 24.4062 8.8776 25.0625 9.69531C25.7188 10.5078 26.0547 11.6771 26.0703 13.2031V15.2969ZM23.8125 13C23.8125 12.0573 23.6823 11.3724 23.4219 10.9453C23.1667 10.513 22.7656 10.2969 22.2188 10.2969C21.6875 10.2969 21.2943 10.5026 21.0391 10.9141C20.7891 11.3203 20.6562 11.9583 20.6406 12.8281V15.5938C20.6406 16.5208 20.7656 17.2109 21.0156 17.6641C21.2708 18.112 21.6771 18.3359 22.2344 18.3359C22.7865 18.3359 23.1849 18.1198 23.4297 17.6875C23.6745 17.2552 23.8021 16.5938 23.8125 15.7031V13Z" fill="black"/>
    <path d="M28.0625 12.1172L27 11.5C27.4479 10.7969 27.6797 10.0703 27.6953 9.32031V8H29.4922V9.21094C29.4922 9.67969 29.362 10.1875 29.1016 10.7344C28.8411 11.2812 28.4948 11.7422 28.0625 12.1172Z" fill="#0674BB"/>
  </g>
</svg>
