<svg width="24" height="24" viewBox="0 0 24 24" fill="none" xmlns="http://www.w3.org/2000/svg">
<path d="M2 14.8337L4.08014 14.8396L4.09193 16.5014L5.3353 16.5073L5.32941 14.8396H7.00295L6.99705 17.7565H8.24632L8.25221 14.8396L9.91397 14.8396L9.91986 16.5073H11.1691L11.1632 14.8396H12.8368L12.8309 17.7565H14.0801L14.086 14.8396L15.7478 14.8396V16.5014L17.0029 16.5073L16.9971 14.8396H18.6706L18.6588 17.7507L19.914 17.7565L19.9199 14.8396L22 14.8337V19.8426H2V14.8337Z" fill="black"/>
<path d="M11.1864 14.0003H4.68881V12.7112L7.75532 9.44288C8.17634 8.98279 8.48668 8.5813 8.68634 8.23841C8.89034 7.89552 8.99234 7.56998 8.99234 7.26181C8.99234 6.84079 8.886 6.51092 8.67332 6.2722C8.46063 6.02913 8.15681 5.9076 7.76183 5.9076C7.33647 5.9076 7.00008 6.05518 6.75268 6.35033C6.50962 6.64113 6.38808 7.02526 6.38808 7.50271H4.5C4.5 6.92543 4.63672 6.39807 4.91017 5.92062C5.18796 5.44318 5.57859 5.0699 6.08208 4.80079C6.58557 4.52735 7.15634 4.39062 7.79438 4.39062C8.77097 4.39062 9.52838 4.62501 10.0666 5.09377C10.6091 5.56254 10.8804 6.22445 10.8804 7.07952C10.8804 7.54828 10.7589 8.02573 10.5158 8.51186C10.2728 8.99798 9.85608 9.56441 9.26578 10.2111L7.11076 12.4833H11.1864V14.0003Z" fill="black"/>
<path d="M18.7257 10.0809C18.7257 11.3917 18.4545 12.3944 17.9119 13.0888C17.3694 13.7833 16.5751 14.1305 15.529 14.1305C14.496 14.1305 13.706 13.7898 13.1591 13.1084C12.6122 12.4269 12.3323 11.4503 12.3193 10.1786V8.43373C12.3193 7.1099 12.5927 6.10509 13.1396 5.4193C13.6908 4.73352 14.483 4.39062 15.516 4.39062C16.549 4.39062 17.339 4.73135 17.8859 5.41279C18.4328 6.0899 18.7127 7.06432 18.7257 8.33607V10.0809ZM16.8442 8.16679C16.8442 7.38118 16.7356 6.81041 16.5186 6.4545C16.3059 6.09424 15.9717 5.91411 15.516 5.91411C15.0733 5.91411 14.7456 6.08556 14.5329 6.42845C14.3245 6.76701 14.2139 7.29871 14.2008 8.02356V10.3283C14.2008 11.1009 14.305 11.676 14.5134 12.0536C14.726 12.4269 15.0646 12.6136 15.529 12.6136C15.9891 12.6136 16.3211 12.4334 16.5251 12.0732C16.7291 11.7129 16.8355 11.1617 16.8442 10.4195V8.16679Z" fill="black"/>
<path d="M20.3859 7.4311L19.5005 6.91676C19.8738 6.33081 20.0669 5.72532 20.0799 5.1003V4H21.5774V5.00915C21.5774 5.39979 21.4689 5.82298 21.2518 6.27872C21.0348 6.73447 20.7462 7.11859 20.3859 7.4311Z" fill="#0674BB"/>
</svg>
