<svg width="35" height="35" viewBox="0 0 35 35" fill="none" xmlns="http://www.w3.org/2000/svg">
<circle cx="17.5" cy="17.5" r="17.5" fill="white"/>
<path d="M24.0625 12.1172L23 11.5C23.4479 10.7969 23.6797 10.0703 23.6953 9.32031V8H25.4922V9.21094C25.4922 9.67969 25.362 10.1875 25.1016 10.7344C24.8411 11.2812 24.4948 11.7422 24.0625 12.1172Z" fill="#0674BB"/>
<path d="M6 21L8.49609 21.0071L8.51023 23.0011L10.0022 23.0082L9.99515 21.0071H12.0033L11.9963 24.5072H13.4953L13.5024 21.0071L15.4964 21.0071L15.5035 23.0082H17.0026L16.9955 21.0071H19.0037L18.9966 24.5072H20.4957L20.5028 21.0071L22.4968 21.0071V23.0011L24.0029 23.0082L23.9959 21.0071H26.0041L25.9899 24.5002L27.496 24.5072L27.5031 21.0071L29.9992 21V27.0104H6V21Z" fill="black"/>
<path d="M21.088 16.856C21.088 17.752 20.7893 18.5147 20.192 19.144C19.6053 19.7733 18.7307 20.088 17.568 20.088C16.416 20.088 15.5307 19.8053 14.912 19.24C14.304 18.6747 14 17.896 14 16.904C14 16.3813 14.1547 15.8747 14.464 15.384C14.784 14.8933 15.216 14.488 15.76 14.168C14.9067 13.6453 14.48 12.8987 14.48 11.928C14.48 10.9573 14.768 10.2267 15.344 9.736C15.9307 9.24533 16.688 9 17.616 9C18.5547 9 19.3013 9.23467 19.856 9.704C20.4107 10.1733 20.688 10.824 20.688 11.656C20.688 12.7333 20.192 13.5653 19.2 14.152C20.4587 14.76 21.088 15.6613 21.088 16.856ZM18.704 11.768C18.704 11.4693 18.5973 11.24 18.384 11.08C18.1813 10.9093 17.92 10.824 17.6 10.824C17.2907 10.824 17.024 10.904 16.8 11.064C16.576 11.2133 16.464 11.464 16.464 11.816C16.464 12.1573 16.576 12.4773 16.8 12.776C17.0347 13.0747 17.3227 13.304 17.664 13.464C17.9733 13.2827 18.224 13.0267 18.416 12.696C18.608 12.3653 18.704 12.056 18.704 11.768ZM16.08 16.856C16.08 17.2933 16.2187 17.6347 16.496 17.88C16.7733 18.1147 17.1307 18.232 17.568 18.232C18.0053 18.232 18.352 18.0987 18.608 17.832C18.8747 17.5547 19.008 17.1973 19.008 16.76C19.008 16.3227 18.8587 15.976 18.56 15.72C18.2613 15.464 17.84 15.2293 17.296 15.016C17.2853 15.016 17.264 15.0107 17.232 15C17.2 14.9787 17.1787 14.968 17.168 14.968L17.152 14.952C16.4373 15.3893 16.08 16.024 16.08 16.856Z" fill="black"/>
</svg>
