<svg width="24" height="24" viewBox="0 0 24 24" fill="none" xmlns="http://www.w3.org/2000/svg">
<path d="M14.1172 2.50781V4.36719H13.8984C12.8776 4.38281 12.0547 4.64844 11.4297 5.16406C10.8099 5.67969 10.4375 6.39583 10.3125 7.3125C10.9167 6.69792 11.6797 6.39062 12.6016 6.39062C13.5911 6.39062 14.3776 6.74479 14.9609 7.45312C15.5443 8.16146 15.8359 9.09375 15.8359 10.25C15.8359 10.9896 15.6745 11.6589 15.3516 12.2578C15.0339 12.8568 14.5807 13.3229 13.9922 13.6562C13.4089 13.9896 12.7474 14.1562 12.0078 14.1562C10.8099 14.1562 9.84115 13.7396 9.10156 12.9062C8.36719 12.0729 8 10.9609 8 9.57031V8.75781C8 7.52344 8.23177 6.4349 8.69531 5.49219C9.16406 4.54427 9.83333 3.8125 10.7031 3.29688C11.5781 2.77604 12.5911 2.51302 13.7422 2.50781H14.1172ZM11.9141 8.20312C11.5495 8.20312 11.2188 8.29948 10.9219 8.49219C10.625 8.67969 10.4062 8.92969 10.2656 9.24219V9.92969C10.2656 10.6849 10.4141 11.276 10.7109 11.7031C11.0078 12.125 11.4245 12.3359 11.9609 12.3359C12.4453 12.3359 12.8359 12.1458 13.1328 11.7656C13.4349 11.3802 13.5859 10.8828 13.5859 10.2734C13.5859 9.65365 13.4349 9.15365 13.1328 8.77344C12.8307 8.39323 12.4245 8.20312 11.9141 8.20312Z" fill="black"/>
<path d="M18.0625 6.11719L17 5.5C17.4479 4.79688 17.6797 4.07031 17.6953 3.32031V2H19.4922V3.21094C19.4922 3.67969 19.362 4.1875 19.1016 4.73438C18.8411 5.28125 18.4948 5.74219 18.0625 6.11719Z" fill="#0674BB"/>
<path d="M0 15L2.49609 15.0071L2.51023 17.0011L4.00222 17.0082L3.99515 15.0071H6.00334L5.99627 18.5072H7.49533L7.5024 15.0071L9.49644 15.0071L9.50352 17.0082H11.0026L10.9955 15.0071H13.0037L12.9966 18.5072H14.4957L14.5028 15.0071L16.4968 15.0071V17.0011L18.0029 17.0082L17.9959 15.0071H20.0041L19.9899 18.5002L21.496 18.5072L21.5031 15.0071L23.9992 15V21.0104H0V15Z" fill="black"/>
</svg>
