<svg width="35" height="35" viewBox="0 0 35 35" fill="none" xmlns="http://www.w3.org/2000/svg">
<circle cx="17.5" cy="17.5" r="17.5" fill="white"/>
<path d="M6 21L8.49609 21.0071L8.51023 23.0011L10.0022 23.0082L9.99515 21.0071H12.0033L11.9963 24.5072H13.4953L13.5024 21.0071L15.4964 21.0071L15.5035 23.0082H17.0026L16.9955 21.0071H19.0037L18.9966 24.5072H20.4957L20.5028 21.0071L22.4968 21.0071V23.0011L24.0029 23.0082L23.9959 21.0071H26.0041L25.9899 24.5002L27.496 24.5072L27.5031 21.0071L29.9992 21V27.0104H6V21Z" fill="black"/>
<path d="M15.0234 15.7188H16.3125V17.5391H15.0234V20H12.7656V17.5391H8.10156L8 16.1172L12.7422 8.625H15.0234V15.7188ZM10.25 15.7188H12.7656V11.7031L12.6172 11.9609L10.25 15.7188Z" fill="black"/>
<path d="M17.8672 14.4062L18.5234 8.625H24.8984V10.5078H20.375L20.0938 12.9531C20.6302 12.6667 21.2005 12.5234 21.8047 12.5234C22.888 12.5234 23.737 12.8594 24.3516 13.5312C24.9661 14.2031 25.2734 15.1432 25.2734 16.3516C25.2734 17.0859 25.1172 17.7448 24.8047 18.3281C24.4974 18.9062 24.0547 19.3568 23.4766 19.6797C22.8984 19.9974 22.2161 20.1562 21.4297 20.1562C20.7422 20.1562 20.1042 20.0182 19.5156 19.7422C18.9271 19.4609 18.4609 19.0677 18.1172 18.5625C17.7786 18.0573 17.599 17.4818 17.5781 16.8359H19.8125C19.8594 17.3099 20.0234 17.6797 20.3047 17.9453C20.5911 18.2057 20.9635 18.3359 21.4219 18.3359C21.9323 18.3359 22.3255 18.1536 22.6016 17.7891C22.8776 17.4193 23.0156 16.8984 23.0156 16.2266C23.0156 15.5807 22.8568 15.0859 22.5391 14.7422C22.2214 14.3984 21.7708 14.2266 21.1875 14.2266C20.651 14.2266 20.2161 14.3672 19.8828 14.6484L19.6641 14.8516L17.8672 14.4062Z" fill="black"/>
<path d="M28.0625 12.1172L27 11.5C27.4479 10.7969 27.6797 10.0703 27.6953 9.32031V8H29.4922V9.21094C29.4922 9.67969 29.362 10.1875 29.1016 10.7344C28.8411 11.2812 28.4948 11.7422 28.0625 12.1172Z" fill="#0674BB"/>
</svg>
