<svg width="24" height="24" viewBox="0 0 24 24" fill="none" xmlns="http://www.w3.org/2000/svg">
  <g id="pies6">
    <path d="M13.7648 4.4231V5.97263H13.5825C12.7318 5.98565 12.046 6.20701 11.5252 6.63671C11.0086 7.06641 10.6983 7.66322 10.5941 8.42713C11.0976 7.91496 11.7335 7.65888 12.5018 7.65888C13.3264 7.65888 13.9818 7.95403 14.468 8.54433C14.9541 9.13462 15.1972 9.91156 15.1972 10.8751C15.1972 11.4915 15.0626 12.0492 14.7935 12.5484C14.5287 13.0475 14.1511 13.436 13.6606 13.7138C13.1745 13.9916 12.6233 14.1304 12.0069 14.1304C11.0086 14.1304 10.2013 13.7832 9.58499 13.0887C8.97299 12.3943 8.66699 11.4676 8.66699 10.3087V9.6316C8.66699 8.60292 8.86014 7.69577 9.24644 6.91016C9.63708 6.1202 10.1948 5.51037 10.9197 5.08067C11.6489 4.64663 12.4931 4.42744 13.4523 4.4231H13.7648ZM11.9288 9.16935C11.625 9.16935 11.3494 9.24964 11.102 9.41024C10.8546 9.5665 10.6723 9.77484 10.5551 10.0353V10.6082C10.5551 11.2376 10.6788 11.7302 10.9262 12.0861C11.1736 12.4377 11.5208 12.6135 11.9679 12.6135C12.3715 12.6135 12.6971 12.455 12.9445 12.1382C13.1962 11.817 13.3221 11.4025 13.3221 10.8947C13.3221 10.3782 13.1962 9.96147 12.9445 9.64462C12.6927 9.32777 12.3542 9.16935 11.9288 9.16935Z" fill="black"/>
    <path d="M17.0524 7.4311L16.167 6.91676C16.5403 6.33081 16.7334 5.72532 16.7464 5.1003V4H18.2439V5.00915C18.2439 5.39979 18.1354 5.82298 17.9184 6.27872C17.7013 6.73447 17.4127 7.11859 17.0524 7.4311Z" fill="#0674BB"/>
    <path d="M2 14.8337L4.08014 14.8396L4.09193 16.5014L5.3353 16.5073L5.32941 14.8396H7.00295L6.99705 17.7565H8.24632L8.25221 14.8396L9.91397 14.8396L9.91986 16.5073H11.1691L11.1632 14.8396H12.8368L12.8309 17.7565H14.0801L14.086 14.8396L15.7478 14.8396V16.5014L17.0029 16.5073L16.9971 14.8396H18.6706L18.6588 17.7507L19.914 17.7565L19.9199 14.8396L22 14.8337V19.8426H2V14.8337Z" fill="black"/>
  </g>
</svg>
