<svg width="24" height="24" viewBox="0 0 24 24" fill="none" xmlns="http://www.w3.org/2000/svg">
<path d="M0 15L2.49609 15.0071L2.51023 17.0011L4.00222 17.0082L3.99515 15.0071H6.00334L5.99627 18.5072H7.49533L7.5024 15.0071L9.49644 15.0071L9.50352 17.0082H11.0026L10.9955 15.0071H13.0037L12.9966 18.5072H14.4957L14.5028 15.0071L16.4968 15.0071V17.0011L18.0029 17.0082L17.9959 15.0071H20.0041L19.9899 18.5002L21.496 18.5072L21.5031 15.0071L23.9992 15V21.0104H0V15Z" fill="black"/>
<path d="M9.02344 9.71875H10.3125V11.5391H9.02344V14H6.76562V11.5391H2.10156L2 10.1172L6.74219 2.625H9.02344V9.71875ZM4.25 9.71875H6.76562V5.70312L6.61719 5.96094L4.25 9.71875Z" fill="black"/>
<path d="M19.1875 9.29688C19.1875 10.8698 18.862 12.0729 18.2109 12.9062C17.5599 13.7396 16.6068 14.1562 15.3516 14.1562C14.112 14.1562 13.1641 13.7474 12.5078 12.9297C11.8516 12.112 11.5156 10.9401 11.5 9.41406V7.32031C11.5 5.73177 11.8281 4.52604 12.4844 3.70312C13.1458 2.88021 14.0964 2.46875 15.3359 2.46875C16.5755 2.46875 17.5234 2.8776 18.1797 3.69531C18.8359 4.50781 19.1719 5.67708 19.1875 7.20312V9.29688ZM16.9297 7C16.9297 6.05729 16.7995 5.3724 16.5391 4.94531C16.2839 4.51302 15.8828 4.29688 15.3359 4.29688C14.8047 4.29688 14.4115 4.5026 14.1562 4.91406C13.9062 5.32031 13.7734 5.95833 13.7578 6.82812V9.59375C13.7578 10.5208 13.8828 11.2109 14.1328 11.6641C14.388 12.112 14.7943 12.3359 15.3516 12.3359C15.9036 12.3359 16.3021 12.1198 16.5469 11.6875C16.7917 11.2552 16.9193 10.5938 16.9297 9.70312V7Z" fill="black"/>
<path d="M22.0625 6.11719L21 5.5C21.4479 4.79688 21.6797 4.07031 21.6953 3.32031V2H23.4922V3.21094C23.4922 3.67969 23.362 4.1875 23.1016 4.73438C22.8411 5.28125 22.4948 5.74219 22.0625 6.11719Z" fill="#0674BB"/>
</svg>
