<svg width="35" height="35" viewBox="0 0 35 35" fill="none" xmlns="http://www.w3.org/2000/svg">
<circle cx="17.5" cy="17.5" r="17.5" fill="white"/>
<path d="M6 21L8.49609 21.0071L8.51023 23.0011L10.0022 23.0082L9.99515 21.0071H12.0033L11.9963 24.5072H13.4953L13.5024 21.0071L15.4964 21.0071L15.5035 23.0082H17.0026L16.9955 21.0071H19.0037L18.9966 24.5072H20.4957L20.5028 21.0071L22.4968 21.0071V23.0011L24.0029 23.0082L23.9959 21.0071H26.0041L25.9899 24.5002L27.496 24.5072L27.5031 21.0071L29.9992 21V27.0104H6V21Z" fill="black"/>
<path d="M12.9531 20H10.6953V11.2969L8 12.1328V10.2969L12.7109 8.60938H12.9531V20Z" fill="black"/>
<path d="M24.3125 15.2969C24.3125 16.8698 23.987 18.0729 23.3359 18.9062C22.6849 19.7396 21.7318 20.1562 20.4766 20.1562C19.237 20.1562 18.2891 19.7474 17.6328 18.9297C16.9766 18.112 16.6406 16.9401 16.625 15.4141V13.3203C16.625 11.7318 16.9531 10.526 17.6094 9.70312C18.2708 8.88021 19.2214 8.46875 20.4609 8.46875C21.7005 8.46875 22.6484 8.8776 23.3047 9.69531C23.9609 10.5078 24.2969 11.6771 24.3125 13.2031V15.2969ZM22.0547 13C22.0547 12.0573 21.9245 11.3724 21.6641 10.9453C21.4089 10.513 21.0078 10.2969 20.4609 10.2969C19.9297 10.2969 19.5365 10.5026 19.2812 10.9141C19.0312 11.3203 18.8984 11.9583 18.8828 12.8281V15.5938C18.8828 16.5208 19.0078 17.2109 19.2578 17.6641C19.513 18.112 19.9193 18.3359 20.4766 18.3359C21.0286 18.3359 21.4271 18.1198 21.6719 17.6875C21.9167 17.2552 22.0443 16.5938 22.0547 15.7031V13Z" fill="black"/>
<path d="M26.0625 12.1172L25 11.5C25.4479 10.7969 25.6797 10.0703 25.6953 9.32031V8H27.4922V9.21094C27.4922 9.67969 27.362 10.1875 27.1016 10.7344C26.8411 11.2812 26.4948 11.7422 26.0625 12.1172Z" fill="#0674BB"/>
</svg>
