<svg width="24" height="16" viewBox="0 0 24 16" fill="none" xmlns="http://www.w3.org/2000/svg">
<path d="M22.3529 5.64029C22.665 5.64029 22.9642 5.76156 23.1848 5.97743C23.4055 6.1933 23.5294 6.48608 23.5294 6.79137C23.5294 7.09665 23.4055 7.38943 23.1848 7.6053C22.9642 7.82117 22.665 7.94245 22.3529 7.94245H17.0941L16.9412 9.33525L14.3529 15.0216C14.1176 15.5971 13.4941 16 12.7765 16H7.64706C6.70588 16 5.88235 15.1597 5.88235 14.2734V6.79137C5.88235 6.34245 6.07059 5.93957 6.38823 5.64029L11.3294 0L12.2353 0.851799C12.4706 1.0705 12.6118 1.36978 12.6118 1.7036L12.5765 1.95683L10.5882 5.64029H22.3529ZM0 16V6.79137H3.52941V16H0Z" fill="white"/>
</svg>
