<svg width="24" height="24" viewBox="0 0 24 24" fill="none" xmlns="http://www.w3.org/2000/svg">
<rect x="22" y="5.52173" width="20" height="1.52174" rx="0.760869" transform="rotate(-180 22 5.52173)" fill="black"/>
<rect x="22" y="20.9565" width="20" height="1.52174" rx="0.760869" transform="rotate(-180 22 20.9565)" fill="black"/>
<rect x="2.65234" y="20.9565" width="16.9565" height="1.52174" rx="0.76087" transform="rotate(-90 2.65234 20.9565)" fill="black"/>
<rect x="19.8037" y="20.9565" width="16.9565" height="1.52174" rx="0.76087" transform="rotate(-90 19.8037 20.9565)" fill="black"/>
<path d="M12.3708 16.3277C12.275 16.3277 12.1966 16.2461 12.1966 16.1465V15.7842C12.1966 15.6845 12.275 15.603 12.3708 15.603H18.9913C19.0871 15.603 19.1655 15.6845 19.1655 15.7842V16.1465C19.1655 16.2461 19.0871 16.3277 18.9913 16.3277H18.4686V17.0523H18.9913C19.0871 17.0523 19.1655 17.1338 19.1655 17.2335V17.5958C19.1655 17.6954 19.0871 17.7769 18.9913 17.7769H12.3708C12.275 17.7769 12.1966 17.6954 12.1966 17.5958V17.2335C12.1966 17.1338 12.275 17.0523 12.3708 17.0523H12.8935V16.3277H12.3708ZM16.0295 17.0523H17.7717V16.3277H16.0295V17.0523ZM13.5904 17.0523H15.3326V16.3277H13.5904V17.0523Z" fill="black"/>
<path d="M4.9919 16.3267C4.89608 16.3267 4.81768 16.2452 4.81768 16.1455V15.7832C4.81768 15.6836 4.89608 15.6021 4.9919 15.6021H11.6124C11.7082 15.6021 11.7866 15.6836 11.7866 15.7832V16.1455C11.7866 16.2452 11.7082 16.3267 11.6124 16.3267H11.0897V17.0513H11.6124C11.7082 17.0513 11.7866 17.1328 11.7866 17.2325V17.5948C11.7866 17.6944 11.7082 17.776 11.6124 17.776H4.9919C4.89608 17.776 4.81768 17.6944 4.81768 17.5948V17.2325C4.81768 17.1328 4.89608 17.0513 4.9919 17.0513H5.51457V16.3267H4.9919ZM8.6506 17.0513H10.3928V16.3267H8.6506V17.0513ZM6.21147 17.0513H7.9537V16.3267H6.21147V17.0513Z" fill="#0674BB"/>
<path d="M12.3708 8.1514C12.275 8.1514 12.1966 8.06987 12.1966 7.97024V7.60792C12.1966 7.50828 12.275 7.42676 12.3708 7.42676H18.9913C19.0871 7.42676 19.1655 7.50828 19.1655 7.60792V7.97024C19.1655 8.06987 19.0871 8.1514 18.9913 8.1514H18.4686V8.87603H18.9913C19.0871 8.87603 19.1655 8.95755 19.1655 9.05719V9.41951C19.1655 9.51915 19.0871 9.60067 18.9913 9.60067H12.3708C12.275 9.60067 12.1966 9.51915 12.1966 9.41951V9.05719C12.1966 8.95755 12.275 8.87603 12.3708 8.87603H12.8935V8.1514H12.3708ZM16.0295 8.87603H17.7717V8.1514H16.0295V8.87603ZM13.5904 8.87603H15.3326V8.1514H13.5904V8.87603Z" fill="black"/>
<path d="M4.9919 8.15017C4.89608 8.15017 4.81768 8.06865 4.81768 7.96902V7.6067C4.81768 7.50706 4.89608 7.42554 4.9919 7.42554H11.6124C11.7082 7.42554 11.7866 7.50706 11.7866 7.6067V7.96902C11.7866 8.06865 11.7082 8.15017 11.6124 8.15017H11.0897V8.87481H11.6124C11.7082 8.87481 11.7866 8.95633 11.7866 9.05597V9.41829C11.7866 9.51793 11.7082 9.59945 11.6124 9.59945H4.9919C4.89608 9.59945 4.81768 9.51793 4.81768 9.41829V9.05597C4.81768 8.95633 4.89608 8.87481 4.9919 8.87481H5.51457V8.15017H4.9919ZM8.6506 8.87481H10.3928V8.15017H8.6506V8.87481ZM6.21147 8.87481H7.9537V8.15017H6.21147V8.87481Z" fill="#0674BB"/>
<path d="M12.3708 12.2388C12.275 12.2388 12.1966 12.1573 12.1966 12.0576V11.6953C12.1966 11.5957 12.275 11.5142 12.3708 11.5142H18.9913C19.0871 11.5142 19.1655 11.5957 19.1655 11.6953V12.0576C19.1655 12.1573 19.0871 12.2388 18.9913 12.2388H18.4686V12.9634H18.9913C19.0871 12.9634 19.1655 13.045 19.1655 13.1446V13.5069C19.1655 13.6066 19.0871 13.6881 18.9913 13.6881H12.3708C12.275 13.6881 12.1966 13.6066 12.1966 13.5069V13.1446C12.1966 13.045 12.275 12.9634 12.3708 12.9634H12.8935V12.2388H12.3708ZM16.0295 12.9634H17.7717V12.2388H16.0295V12.9634ZM13.5904 12.9634H15.3326V12.2388H13.5904V12.9634Z" fill="#0674BB"/>
<path d="M4.9919 12.2383C4.89608 12.2383 4.81768 12.1568 4.81768 12.0572V11.6948C4.81768 11.5952 4.89608 11.5137 4.9919 11.5137H11.6124C11.7082 11.5137 11.7866 11.5952 11.7866 11.6948V12.0572C11.7866 12.1568 11.7082 12.2383 11.6124 12.2383H11.0897V12.9629H11.6124C11.7082 12.9629 11.7866 13.0445 11.7866 13.1441V13.5064C11.7866 13.6061 11.7082 13.6876 11.6124 13.6876H4.9919C4.89608 13.6876 4.81768 13.6061 4.81768 13.5064V13.1441C4.81768 13.0445 4.89608 12.9629 4.9919 12.9629H5.51457V12.2383H4.9919ZM8.6506 12.9629H10.3928V12.2383H8.6506V12.9629ZM6.21147 12.9629H7.9537V12.2383H6.21147V12.9629Z" fill="black"/>
</svg>
