<svg width="24" height="24" viewBox="0 0 24 24" fill="none" xmlns="http://www.w3.org/2000/svg">
<rect x="24" y="3.82617" width="24" height="1.82609" rx="0.913043" transform="rotate(-180 24 3.82617)" fill="black"/>
<rect x="24" y="22.3479" width="24" height="1.82609" rx="0.913043" transform="rotate(-180 24 22.3479)" fill="black"/>
<rect x="0.782715" y="22.3479" width="20.3478" height="1.82609" rx="0.913044" transform="rotate(-90 0.782715 22.3479)" fill="black"/>
<rect x="21.3647" y="22.3479" width="20.3478" height="1.82609" rx="0.913044" transform="rotate(-90 21.3647 22.3479)" fill="black"/>
<path d="M12.445 16.7929C12.33 16.7929 12.2359 16.6951 12.2359 16.5755V16.1407C12.2359 16.0212 12.33 15.9233 12.445 15.9233H20.3896C20.5046 15.9233 20.5986 16.0212 20.5986 16.1407V16.5755C20.5986 16.6951 20.5046 16.7929 20.3896 16.7929H19.7624V17.6625H20.3896C20.5046 17.6625 20.5986 17.7603 20.5986 17.8799V18.3146C20.5986 18.4342 20.5046 18.532 20.3896 18.532H12.445C12.33 18.532 12.2359 18.4342 12.2359 18.3146V17.8799C12.2359 17.7603 12.33 17.6625 12.445 17.6625H13.0722V16.7929H12.445ZM16.8354 17.6625H18.9261V16.7929H16.8354V17.6625ZM13.9084 17.6625H15.9991V16.7929H13.9084V17.6625Z" fill="black"/>
<path d="M3.59048 16.7919C3.47549 16.7919 3.38141 16.6941 3.38141 16.5745V16.1398C3.38141 16.0202 3.47549 15.9224 3.59048 15.9224H11.5351C11.6501 15.9224 11.7441 16.0202 11.7441 16.1398V16.5745C11.7441 16.6941 11.6501 16.7919 11.5351 16.7919H10.9079V17.6615H11.5351C11.6501 17.6615 11.7441 17.7593 11.7441 17.8789V18.3137C11.7441 18.4332 11.6501 18.5311 11.5351 18.5311H3.59048C3.47549 18.5311 3.38141 18.4332 3.38141 18.3137V17.8789C3.38141 17.7593 3.47549 17.6615 3.59048 17.6615H4.21768V16.7919H3.59048ZM7.98091 17.6615H10.0716V16.7919H7.98091V17.6615ZM5.05395 17.6615H7.14464V16.7919H5.05395V17.6615Z" fill="#0674BB"/>
<path d="M12.445 6.98138C12.33 6.98138 12.2359 6.88356 12.2359 6.76399V6.32921C12.2359 6.20964 12.33 6.11182 12.445 6.11182H20.3896C20.5046 6.11182 20.5986 6.20964 20.5986 6.32921V6.76399C20.5986 6.88356 20.5046 6.98138 20.3896 6.98138H19.7624V7.85095H20.3896C20.5046 7.85095 20.5986 7.94877 20.5986 8.06834V8.50312C20.5986 8.62269 20.5046 8.72051 20.3896 8.72051H12.445C12.33 8.72051 12.2359 8.62269 12.2359 8.50312V8.06834C12.2359 7.94877 12.33 7.85095 12.445 7.85095H13.0722V6.98138H12.445ZM16.8354 7.85095H18.9261V6.98138H16.8354V7.85095ZM13.9084 7.85095H15.9991V6.98138H13.9084V7.85095Z" fill="black"/>
<path d="M3.59048 6.98016C3.47549 6.98016 3.38141 6.88233 3.38141 6.76277V6.32799C3.38141 6.20842 3.47549 6.1106 3.59048 6.1106H11.5351C11.6501 6.1106 11.7441 6.20842 11.7441 6.32799V6.76277C11.7441 6.88233 11.6501 6.98016 11.5351 6.98016H10.9079V7.84973H11.5351C11.6501 7.84973 11.7441 7.94755 11.7441 8.06712V8.5019C11.7441 8.62147 11.6501 8.71929 11.5351 8.71929H3.59048C3.47549 8.71929 3.38141 8.62147 3.38141 8.5019V8.06712C3.38141 7.94755 3.47549 7.84973 3.59048 7.84973H4.21768V6.98016H3.59048ZM7.98091 7.84973H10.0716V6.98016H7.98091V7.84973ZM5.05395 7.84973H7.14464V6.98016H5.05395V7.84973Z" fill="#0674BB"/>
<path d="M12.445 11.8864C12.33 11.8864 12.2359 11.7886 12.2359 11.669V11.2342C12.2359 11.1147 12.33 11.0168 12.445 11.0168H20.3896C20.5046 11.0168 20.5986 11.1147 20.5986 11.2342V11.669C20.5986 11.7886 20.5046 11.8864 20.3896 11.8864H19.7624V12.756H20.3896C20.5046 12.756 20.5986 12.8538 20.5986 12.9734V13.4082C20.5986 13.5277 20.5046 13.6255 20.3896 13.6255H12.445C12.33 13.6255 12.2359 13.5277 12.2359 13.4082V12.9734C12.2359 12.8538 12.33 12.756 12.445 12.756H13.0722V11.8864H12.445ZM16.8354 12.756H18.9261V11.8864H16.8354V12.756ZM13.9084 12.756H15.9991V11.8864H13.9084V12.756Z" fill="#0674BB"/>
<path d="M3.59048 11.8859C3.47549 11.8859 3.38141 11.7881 3.38141 11.6685V11.2337C3.38141 11.1142 3.47549 11.0164 3.59048 11.0164H11.5351C11.6501 11.0164 11.7441 11.1142 11.7441 11.2337V11.6685C11.7441 11.7881 11.6501 11.8859 11.5351 11.8859H10.9079V12.7555H11.5351C11.6501 12.7555 11.7441 12.8533 11.7441 12.9729V13.4077C11.7441 13.5272 11.6501 13.6251 11.5351 13.6251H3.59048C3.47549 13.6251 3.38141 13.5272 3.38141 13.4077V12.9729C3.38141 12.8533 3.47549 12.7555 3.59048 12.7555H4.21768V11.8859H3.59048ZM7.98091 12.7555H10.0716V11.8859H7.98091V12.7555ZM5.05395 12.7555H7.14464V11.8859H5.05395V12.7555Z" fill="black"/>
</svg>
