<svg width="35" height="35" viewBox="0 0 35 35" fill="none" xmlns="http://www.w3.org/2000/svg">
<circle cx="17.5" cy="17.5" r="17.5" fill="white"/>
<path fill-rule="evenodd" clip-rule="evenodd" d="M8.4 20.8347C7.69923 20.4105 7.08764 19.8538 6.6 19.1992V23.4114C6.27 23.4114 6 23.6045 6 23.8405V24.2696C6 24.5056 6.27 24.6987 6.6 24.6987H29.4C29.73 24.6987 30 24.5056 30 24.2696V23.8405C30 23.6045 29.73 23.4114 29.4 23.4114V13.9711C29.73 13.9711 30 13.778 30 13.542V13.1129C30 12.8769 29.73 12.6838 29.4 12.6838H17.3422C17.5394 13.0905 17.6943 13.5215 17.801 13.9711H27.6V23.4114H8.4V20.8347ZM15 20.7885C15.7055 20.3479 16.3177 19.7716 16.8 19.0963V21.9095C16.8 22.0275 16.665 22.1241 16.5 22.1241H15.3C15.135 22.1241 15 22.0275 15 21.9095V20.7885ZM10.8 21.6842V21.9095C10.8 22.0275 10.935 22.1241 11.1 22.1241H12.3C12.465 22.1241 12.6 22.0275 12.6 21.9095V21.6735C12.2941 21.719 11.981 21.7426 11.6625 21.7426C11.3699 21.7426 11.082 21.7227 10.8 21.6842ZM20.7 22.1241H19.5C19.335 22.1241 19.2 22.0275 19.2 21.9095V15.473C19.2 15.355 19.335 15.2584 19.5 15.2584H20.7C20.865 15.2584 21 15.355 21 15.473V21.9095C21 22.0275 20.865 22.1241 20.7 22.1241ZM24.9 22.1241H23.7C23.535 22.1241 23.4 22.0275 23.4 21.9095V15.473C23.4 15.355 23.535 15.2584 23.7 15.2584H24.9C25.065 15.2584 25.2 15.355 25.2 15.473V21.9095C25.2 22.0275 25.065 22.1241 24.9 22.1241Z" fill="black"/>
<path d="M9.16757 14.2185C9.53363 13.9387 9.83731 14.1316 10.2426 14.5932C10.2881 14.6453 10.3493 14.5843 10.3842 14.5546C10.4188 14.5245 10.9535 14.051 10.9798 14.0294C11.0057 14.0066 11.0371 13.9641 10.9959 13.9167C10.8967 13.796 10.7995 13.6736 10.7044 13.5497C9.99504 12.637 12.645 12.0181 12.2381 12.0084C12.0309 12.003 11.1999 11.9934 11.0756 12.0069C10.5722 12.059 9.94011 12.5217 9.62191 12.7374C9.20563 13.0175 9.05026 13.1819 9.02476 13.2047C8.90705 13.3058 9.00592 13.5393 8.79249 13.7233C8.56689 13.9175 8.42603 13.7704 8.29538 13.8831C8.23064 13.9394 8.04938 14.073 7.99759 14.1173C7.9454 14.1625 7.93599 14.2385 7.98935 14.2991C7.98935 14.2991 8.48528 14.8378 8.52687 14.8857C8.56806 14.9328 8.68027 14.9737 8.74933 14.9131C8.81877 14.8529 8.99729 14.6997 9.02711 14.6727C9.05771 14.6472 9.00749 14.3404 9.16757 14.2185ZM11.4071 14.418C11.36 14.3643 11.3016 14.3628 11.2513 14.4068L10.6887 14.8899C10.667 14.9093 10.6538 14.9362 10.6518 14.965C10.6498 14.9938 10.6592 15.0222 10.6781 15.0443L13.9323 18.6868C14.0084 18.7728 14.1402 18.7817 14.2269 18.7072L14.6075 18.3935C14.6494 18.3572 14.675 18.3061 14.6789 18.2514C14.6827 18.1966 14.6644 18.1425 14.6279 18.101L11.4071 14.418ZM15.7461 12.8678C15.7171 12.6772 15.6166 12.7169 15.5644 12.7976C15.5123 12.879 15.2816 13.2228 15.1866 13.3787C15.0924 13.5331 14.8602 13.8383 14.4278 13.537C13.9774 13.224 14.1339 13.0056 14.2124 12.8585C14.2913 12.7107 14.5333 12.2963 14.5683 12.245C14.6032 12.1929 14.5624 12.0416 14.4227 12.1049C14.2826 12.1682 13.4328 12.5004 13.3151 12.977C13.1946 13.4617 13.4159 13.8951 12.9816 14.3253L12.4547 14.8656L12.984 15.4699L13.6329 14.8641C13.7875 14.7112 14.1178 14.5627 14.4168 14.6298C15.0575 14.7722 15.4071 14.5357 15.6178 14.1444C15.8069 13.7947 15.7755 13.0584 15.7461 12.8678ZM9.0122 18.1403C8.97296 18.1792 8.95093 18.2318 8.95093 18.2866C8.95093 18.3414 8.97296 18.394 9.0122 18.4328L9.38533 18.7917C9.46694 18.8724 9.59641 18.8384 9.67802 18.7578L11.6033 16.8962L11.0136 16.2348L9.0122 18.1403Z" fill="#0674BB"/>
</svg>
