<svg width="24" height="24" viewBox="0 0 24 24" fill="none" xmlns="http://www.w3.org/2000/svg">
  <g id="rebuilt">
    <path fill-rule="evenodd" clip-rule="evenodd" d="M2.4 14.8347C1.69923 14.4105 1.08764 13.8538 0.6 13.1992V17.4114C0.27 17.4114 0 17.6045 0 17.8405V18.2696C0 18.5056 0.27 18.6987 0.6 18.6987H23.4C23.73 18.6987 24 18.5056 24 18.2696V17.8405C24 17.6045 23.73 17.4114 23.4 17.4114V7.97114C23.73 7.97114 24 7.77805 24 7.54204V7.11294C24 6.87693 23.73 6.68384 23.4 6.68384H11.3422C11.5394 7.09048 11.6943 7.52149 11.801 7.97114H21.6V17.4114H2.4V14.8347ZM9 14.7885C9.70553 14.3479 10.3177 13.7716 10.8 13.0963V15.9095C10.8 16.0275 10.665 16.1241 10.5 16.1241H9.3C9.135 16.1241 9 16.0275 9 15.9095V14.7885ZM4.8 15.6842V15.9095C4.8 16.0275 4.935 16.1241 5.1 16.1241H6.3C6.465 16.1241 6.6 16.0275 6.6 15.9095V15.6735C6.29411 15.719 5.98104 15.7426 5.66246 15.7426C5.36989 15.7426 5.08198 15.7227 4.8 15.6842ZM14.7 16.1241H13.5C13.335 16.1241 13.2 16.0275 13.2 15.9095V9.473C13.2 9.35499 13.335 9.25844 13.5 9.25844H14.7C14.865 9.25844 15 9.35499 15 9.473V15.9095C15 16.0275 14.865 16.1241 14.7 16.1241ZM18.9 16.1241H17.7C17.535 16.1241 17.4 16.0275 17.4 15.9095V9.473C17.4 9.35499 17.535 9.25844 17.7 9.25844H18.9C19.065 9.25844 19.2 9.35499 19.2 9.473V15.9095C19.2 16.0275 19.065 16.1241 18.9 16.1241Z" fill="black"/>
    <path d="M3.16757 8.21845C3.53363 7.93868 3.83731 8.13163 4.24261 8.59316C4.28812 8.64526 4.34933 8.58429 4.38425 8.55457C4.41878 8.52447 4.95355 8.05097 4.97983 8.02936C5.00573 8.0066 5.03712 7.96415 4.99592 7.91668C4.89668 7.79595 4.7995 7.67361 4.70441 7.54969C3.99504 6.63704 6.64497 6.01806 6.2381 6.00842C6.03094 6.00301 5.19994 5.99337 5.07557 6.00687C4.57218 6.05897 3.94011 6.52166 3.62191 6.73738C3.20563 7.01754 3.05026 7.18193 3.02476 7.2047C2.90705 7.3058 3.00592 7.53927 2.79249 7.72335C2.56689 7.91745 2.42603 7.77043 2.29538 7.88311C2.23064 7.93945 2.04938 8.07297 1.99759 8.11735C1.9454 8.1625 1.93599 8.23852 1.98935 8.29911C1.98935 8.29911 2.48528 8.83782 2.52687 8.88567C2.56806 8.93275 2.68027 8.97366 2.74933 8.91307C2.81877 8.85287 2.99729 8.69967 3.02711 8.67266C3.05771 8.64719 3.00749 8.3404 3.16757 8.21845ZM5.4071 8.41796C5.36002 8.36432 5.30156 8.36278 5.25134 8.40677L4.68871 8.88992C4.66699 8.9093 4.65375 8.93621 4.65178 8.965C4.6498 8.99378 4.65924 9.02219 4.67812 9.04428L7.93226 12.6868C8.00838 12.7728 8.14021 12.7817 8.22692 12.7072L8.6075 12.3935C8.64939 12.3572 8.67503 12.3061 8.67885 12.2514C8.68267 12.1966 8.66436 12.1425 8.6279 12.101L5.4071 8.41796ZM9.7461 6.86781C9.71706 6.67718 9.61662 6.71692 9.56444 6.79758C9.51226 6.879 9.28155 7.22284 9.18661 7.37874C9.09244 7.5331 8.86017 7.83834 8.4278 7.53696C7.97739 7.22399 8.13393 7.00558 8.2124 6.85855C8.29126 6.71075 8.53334 6.2963 8.56826 6.24497C8.60318 6.19287 8.56238 6.0416 8.4227 6.10489C8.28263 6.16818 7.4328 6.50044 7.3151 6.97702C7.19465 7.46171 7.41593 7.89507 6.9816 8.32535L6.45468 8.86561L6.98396 9.46992L7.6329 8.86406C7.78749 8.71125 8.11785 8.56267 8.41682 8.62982C9.05752 8.77222 9.40711 8.53566 9.6178 8.14436C9.80691 7.79474 9.77552 7.05844 9.7461 6.86781ZM3.0122 12.1403C2.97296 12.1792 2.95093 12.2318 2.95093 12.2866C2.95093 12.3414 2.97296 12.394 3.0122 12.4328L3.38533 12.7917C3.46694 12.8724 3.59641 12.8384 3.67802 12.7578L5.60328 10.8962L5.01358 10.2348L3.0122 12.1403Z" fill="#0674BB"/>
  </g>
</svg>
