<svg viewBox="0 0 35 35" fill="none" xmlns="http://www.w3.org/2000/svg">
  <g id="Reefer">
    <circle cx="17.5" cy="17.5" r="17.5" fill="white"/>
    <path d="M26.7501 20.5742V11.125C26.7501 9.40234 25.3478 8 23.6253 8C21.9027 8 20.5004 9.40234 20.5004 11.125V20.5742C19.7075 21.3867 19.2505 22.4844 19.2505 23.625C19.2505 26.0391 21.2113 28 23.6253 28C26.0392 28 28 26.0391 28 23.625C28 22.4844 27.543 21.3828 26.7501 20.5742ZM23.6253 26.75C21.9027 26.75 20.5004 25.3477 20.5004 23.625C20.5004 22.6289 20.977 21.7148 21.7504 21.1328V11.125C21.7504 10.0898 22.5902 9.25 23.6253 9.25C24.6603 9.25 25.5001 10.0898 25.5001 11.125V21.1328C26.2735 21.7109 26.7501 22.6289 26.7501 23.625C26.7501 25.3477 25.3478 26.75 23.6253 26.75ZM18.8247 20.7344C18.9576 20.5156 19.0904 20.3008 19.2505 20.1016V19.5469L16.7077 18L19.2505 16.457V15.0078L16.1257 16.9062V13.2617L17.9107 11.4766C18.0318 11.3555 18.0318 11.1563 17.9107 11.0352L17.4694 10.5938C17.3483 10.4727 17.1491 10.4727 17.028 10.5938L16.1296 11.4922V9.5625C16.1296 9.39062 15.989 9.25 15.8171 9.25H15.1921C15.0203 9.25 14.8797 9.39062 14.8797 9.5625V11.4922L13.9813 10.5938C13.8602 10.4727 13.661 10.4727 13.5399 10.5938L13.0985 11.0352C12.9774 11.1563 12.9774 11.3555 13.0985 11.4766L14.8836 13.2617V16.9062L11.8486 15.0898L11.2197 12.6523C11.1768 12.4844 11.0127 12.3867 10.8526 12.4297L10.2706 12.5898C10.1104 12.6328 10.0128 12.8047 10.0557 12.9727L10.3721 14.2031L8.76283 13.2383C8.61831 13.1523 8.43473 13.2031 8.3527 13.3516L8.04022 13.8945C7.95819 14.043 8.00506 14.2344 8.14959 14.3203L9.75887 15.2852L8.57925 15.6172C8.4191 15.6602 8.32145 15.832 8.36442 16L8.52066 16.6055C8.56363 16.7734 8.72768 16.8711 8.88783 16.8281L11.2393 16.1758L14.2938 18.0039L11.2393 19.832L8.88783 19.1797C8.72768 19.1367 8.56363 19.2344 8.52066 19.4023L8.36442 20.0078C8.32145 20.1758 8.4152 20.3477 8.57925 20.3906L9.76278 20.7188L8.15349 21.6758C8.00897 21.7617 7.95819 21.9531 8.04412 22.1016L8.34489 22.6445C8.42692 22.793 8.6144 22.8438 8.75502 22.7578L10.3643 21.793L10.0479 23.0234C10.0049 23.1914 10.0987 23.3633 10.2627 23.4062L10.8447 23.5664C11.0049 23.6094 11.1689 23.5117 11.2119 23.3438L11.8408 20.9062L14.8758 19.0898V22.7344L13.0907 24.5234C12.9696 24.6445 12.9696 24.8438 13.0907 24.9648L13.5321 25.4062C13.6532 25.5273 13.8524 25.5273 13.9735 25.4062L14.8719 24.5078V26.4375C14.8719 26.6094 15.0125 26.75 15.1843 26.75H15.8093C15.9812 26.75 16.1218 26.6094 16.1218 26.4375V24.5078L17.0202 25.4062C17.1413 25.5273 17.3405 25.5273 17.4615 25.4062L17.9029 24.9648C18.024 24.8438 18.024 24.6445 17.9029 24.5234L16.1257 22.7422V19.0977L18.8247 20.7344Z" fill="black"/>
    <path d="M24.2598 20.8658V21.6581C25.0159 21.9348 25.5606 22.6726 25.5606 23.5487C25.5606 24.6596 24.6867 25.5609 23.6094 25.5609C22.5322 25.5609 21.6582 24.6596 21.6582 23.5487C21.6582 22.6726 22.2029 21.9348 22.959 21.6581V20.8658C22.959 20.4969 23.2517 20.1951 23.6094 20.1951C23.9671 20.1951 24.2598 20.4969 24.2598 20.8658Z" fill="#0674BB"/>
  </g>
</svg>
