<svg width="24" height="24" viewBox="0 0 24 24" fill="none" xmlns="http://www.w3.org/2000/svg">
  <g id="reefer">
    <path d="M20.7501 14.5742V5.125C20.7501 3.40234 19.3478 2 17.6253 2C15.9027 2 14.5004 3.40234 14.5004 5.125V14.5742C13.7075 15.3867 13.2505 16.4844 13.2505 17.625C13.2505 20.0391 15.2113 22 17.6253 22C20.0392 22 22 20.0391 22 17.625C22 16.4844 21.543 15.3828 20.7501 14.5742ZM17.6253 20.75C15.9027 20.75 14.5004 19.3477 14.5004 17.625C14.5004 16.6289 14.977 15.7148 15.7504 15.1328V5.125C15.7504 4.08984 16.5902 3.25 17.6253 3.25C18.6603 3.25 19.5001 4.08984 19.5001 5.125V15.1328C20.2735 15.7109 20.7501 16.6289 20.7501 17.625C20.7501 19.3477 19.3478 20.75 17.6253 20.75ZM12.8248 14.7344C12.9576 14.5156 13.0904 14.3008 13.2505 14.1016V13.5469L10.7077 12L13.2505 10.457V9.00781L10.1257 10.9063V7.26172L11.9107 5.47656C12.0318 5.35547 12.0318 5.15625 11.9107 5.03516L11.4694 4.59375C11.3483 4.47266 11.1491 4.47266 11.028 4.59375L10.1296 5.49219V3.5625C10.1296 3.39063 9.98898 3.25 9.81711 3.25H9.19215C9.02028 3.25 8.87967 3.39063 8.87967 3.5625V5.49219L7.98128 4.59375C7.86019 4.47266 7.66099 4.47266 7.5399 4.59375L7.09852 5.03516C6.97743 5.15625 6.97743 5.35547 7.09852 5.47656L8.88357 7.26172V10.9063L5.84859 9.08984L5.21972 6.65234C5.17676 6.48438 5.0127 6.38672 4.85256 6.42969L4.27056 6.58984C4.11041 6.63281 4.01276 6.80469 4.05573 6.97266L4.37212 8.20313L2.76283 7.23828C2.61831 7.15234 2.43473 7.20313 2.3527 7.35156L2.04022 7.89453C1.95819 8.04297 2.00506 8.23438 2.14959 8.32031L3.75887 9.28516L2.57925 9.61719C2.4191 9.66016 2.32145 9.83203 2.36442 10L2.52066 10.6055C2.56363 10.7734 2.72768 10.8711 2.88783 10.8281L5.23925 10.1758L8.29376 12.0039L5.23925 13.832L2.88783 13.1797C2.72768 13.1367 2.56363 13.2344 2.52066 13.4023L2.36442 14.0078C2.32145 14.1758 2.4152 14.3477 2.57925 14.3906L3.76278 14.7188L2.15349 15.6758C2.00897 15.7617 1.95819 15.9531 2.04412 16.1016L2.34489 16.6445C2.42692 16.793 2.6144 16.8437 2.75502 16.7578L4.3643 15.793L4.04792 17.0234C4.00495 17.1914 4.09869 17.3633 4.26275 17.4063L4.84474 17.5664C5.00489 17.6094 5.16894 17.5117 5.21191 17.3437L5.84078 14.9063L8.87576 13.0898V16.7344L7.09071 18.5234C6.96962 18.6445 6.96962 18.8437 7.09071 18.9648L7.53209 19.4063C7.65318 19.5273 7.85238 19.5273 7.97347 19.4063L8.87185 18.5078V20.4375C8.87185 20.6094 9.01247 20.75 9.18434 20.75H9.8093C9.98117 20.75 10.1218 20.6094 10.1218 20.4375V18.5078L11.0202 19.4063C11.1413 19.5273 11.3405 19.5273 11.4615 19.4063L11.9029 18.9648C12.024 18.8437 12.024 18.6445 11.9029 18.5234L10.1257 16.7422V13.0977L12.8248 14.7344Z" fill="black"/>
    <path d="M18.2598 14.8658V15.6581C19.0159 15.9348 19.5606 16.6726 19.5606 17.5487C19.5606 18.6596 18.6867 19.5609 17.6094 19.5609C16.5322 19.5609 15.6582 18.6596 15.6582 17.5487C15.6582 16.6726 16.2029 15.9348 16.959 15.6581V14.8658C16.959 14.4969 17.2517 14.1951 17.6094 14.1951C17.9671 14.1951 18.2598 14.4969 18.2598 14.8658Z" fill="#0674BB"/>
  </g>
</svg>
