<svg viewBox="0 0 24 24" fill="none" xmlns="http://www.w3.org/2000/svg">
  <g id="Reefer">
    <path d="M22.5001 15.0891V3.75C22.5001 1.68281 20.8174 0 18.7503 0C16.6832 0 15.0005 1.68281 15.0005 3.75V15.0891C14.049 16.0641 13.5006 17.3813 13.5006 18.75C13.5006 21.6469 15.8536 24 18.7503 24C21.647 24 24 21.6469 24 18.75C24 17.3813 23.4516 16.0594 22.5001 15.0891ZM18.7503 22.5C16.6832 22.5 15.0005 20.8172 15.0005 18.75C15.0005 17.5547 15.5724 16.4578 16.5004 15.7594V3.75C16.5004 2.50781 17.5082 1.5 18.7503 1.5C19.9924 1.5 21.0002 2.50781 21.0002 3.75V15.7594C21.9282 16.4531 22.5001 17.5547 22.5001 18.75C22.5001 20.8172 20.8174 22.5 18.7503 22.5ZM12.9897 15.2813C13.1491 15.0188 13.3084 14.7609 13.5006 14.5219V13.8563L10.4492 12L13.5006 10.1484V8.40937L9.75083 10.6875V6.31406L11.8929 4.17188C12.0382 4.02656 12.0382 3.7875 11.8929 3.64219L11.3632 3.1125C11.2179 2.96719 10.9789 2.96719 10.8336 3.1125L9.75551 4.19063V1.875C9.75551 1.66875 9.58677 1.5 9.38054 1.5H8.63058C8.42434 1.5 8.2556 1.66875 8.2556 1.875V4.19063L7.17754 3.1125C7.03223 2.96719 6.79318 2.96719 6.64788 3.1125L6.11822 3.64219C5.97292 3.7875 5.97292 4.02656 6.11822 4.17188L8.26029 6.31406V10.6875L4.61831 8.50781L3.86367 5.58281C3.81211 5.38125 3.61524 5.26406 3.42307 5.31563L2.72467 5.50781C2.53249 5.55938 2.41531 5.76563 2.46687 5.96719L2.84654 7.44375L0.9154 6.28594C0.741972 6.18281 0.521673 6.24375 0.423241 6.42188L0.0482625 7.07344C-0.0501693 7.25156 0.00607746 7.48125 0.179505 7.58438L2.11064 8.74219L0.6951 9.14063C0.502924 9.19219 0.385743 9.39844 0.437302 9.6L0.624792 10.3266C0.676351 10.5281 0.873215 10.6453 1.06539 10.5938L3.8871 9.81094L7.55252 12.0047L3.8871 14.1984L1.06539 13.4156C0.873215 13.3641 0.676351 13.4812 0.624792 13.6828L0.437302 14.4094C0.385743 14.6109 0.498236 14.8172 0.6951 14.8687L2.11533 15.2625L0.184192 16.4109C0.0107647 16.5141 -0.0501693 16.7438 0.0529498 16.9219L0.413866 17.5734C0.512298 17.7516 0.737285 17.8125 0.906025 17.7094L2.83716 16.5516L2.4575 18.0281C2.40594 18.2297 2.51843 18.4359 2.7153 18.4875L3.41369 18.6797C3.60587 18.7313 3.80273 18.6141 3.85429 18.4125L4.60894 15.4875L8.25091 13.3078V17.6813L6.10885 19.8281C5.96355 19.9734 5.96355 20.2125 6.10885 20.3578L6.63851 20.8875C6.78381 21.0328 7.02286 21.0328 7.16816 20.8875L8.24622 19.8094V22.125C8.24622 22.3313 8.41497 22.5 8.6212 22.5H9.37116C9.5774 22.5 9.74614 22.3313 9.74614 22.125V19.8094L10.8242 20.8875C10.9695 21.0328 11.2086 21.0328 11.3539 20.8875L11.8835 20.3578C12.0288 20.2125 12.0288 19.9734 11.8835 19.8281L9.75083 17.6906V13.3172L12.9897 15.2813Z" fill="black"/>
    <path d="M19.5116 15.4389V16.3897C20.4189 16.7217 21.0726 17.6071 21.0726 18.6584C21.0726 19.9915 20.0238 21.0731 18.7311 21.0731C17.4384 21.0731 16.3896 19.9915 16.3896 18.6584C16.3896 17.6071 17.0433 16.7217 17.9506 16.3897V15.4389C17.9506 14.9962 18.3018 14.634 18.7311 14.634C19.1604 14.634 19.5116 14.9962 19.5116 15.4389Z" fill="#0674BB"/>
  </g>
</svg>
