<svg width="24" height="24" viewBox="0 0 24 24" fill="none" xmlns="http://www.w3.org/2000/svg">
  <g id="RF">
    <path fill-rule="evenodd" clip-rule="evenodd" d="M2.4 14.2839C1.69928 13.8599 1.0877 13.3034 0.6 12.6491V16.8599C0.27 16.8599 0 17.0529 0 17.289V17.7181C0 17.9541 0.27 18.1472 0.6 18.1472H23.4C23.73 18.1472 24 17.9541 24 17.7181V17.289C24 17.0529 23.73 16.8599 23.4 16.8599V7.41963C23.73 7.41963 24 7.22653 24 6.99053V6.56143C24 6.32542 23.73 6.13232 23.4 6.13232H11.3412C11.5385 6.53896 11.6933 6.96998 11.8001 7.41963H21.6V16.8599H2.4V14.2839ZM9 14.2367C9.70559 13.7958 10.3178 13.2194 10.8 12.5438V15.358C10.8 15.476 10.665 15.5725 10.5 15.5725H9.3C9.135 15.5725 9 15.476 9 15.358V14.2367ZM4.8 15.133V15.358C4.8 15.476 4.935 15.5725 5.1 15.5725H6.3C6.465 15.5725 6.6 15.476 6.6 15.358V15.122C6.29383 15.1677 5.98047 15.1913 5.66158 15.1913C5.36932 15.1913 5.0817 15.1715 4.8 15.133ZM14.7 15.5725H13.5C13.335 15.5725 13.2 15.476 13.2 15.358V8.92148C13.2 8.80348 13.335 8.70693 13.5 8.70693H14.7C14.865 8.70693 15 8.80348 15 8.92148V15.358C15 15.476 14.865 15.5725 14.7 15.5725ZM18.9 15.5725H17.7C17.535 15.5725 17.4 15.476 17.4 15.358V8.92148C17.4 8.80348 17.535 8.70693 17.7 8.70693H18.9C19.065 8.70693 19.2 8.80348 19.2 8.92148V15.358C19.2 15.476 19.065 15.5725 18.9 15.5725Z" fill="black"/>
    <path d="M8.90722 9.78014V6.18798C8.90722 5.53311 8.37414 5 7.7193 5C7.06447 5 6.53139 5.53311 6.53139 6.18798V9.78014C6.22996 10.089 6.05623 10.5063 6.05623 10.9399C6.05623 11.8576 6.80164 12.6031 7.7193 12.6031C8.63697 12.6031 9.38238 11.8576 9.38238 10.9399C9.38238 10.5063 9.20865 10.0875 8.90722 9.78014ZM7.7193 12.1279C7.06447 12.1279 6.53139 11.5948 6.53139 10.9399C6.53139 10.5612 6.71255 10.2138 7.00656 9.9925V6.18798C7.00656 5.79446 7.32581 5.47519 7.7193 5.47519C8.1128 5.47519 8.43205 5.79446 8.43205 6.18798V9.9925C8.72606 10.2123 8.90722 10.5612 8.90722 10.9399C8.90722 11.5948 8.37414 12.1279 7.7193 12.1279ZM5.89437 9.84103C5.94486 9.75787 5.99535 9.67619 6.05623 9.60046V9.38959L5.08956 8.80154L6.05623 8.21498V7.66405L4.86831 8.38575V7.00026L5.54691 6.32163C5.59294 6.2756 5.59294 6.19986 5.54691 6.15383L5.37911 5.98603C5.33308 5.93999 5.25735 5.93999 5.21132 5.98603L4.8698 6.32757V5.59399C4.8698 5.52865 4.81634 5.47519 4.75101 5.47519H4.51342C4.44809 5.47519 4.39463 5.52865 4.39463 5.59399V6.32757L4.05311 5.98603C4.00708 5.93999 3.93135 5.93999 3.88531 5.98603L3.71752 6.15383C3.67149 6.19986 3.67149 6.2756 3.71752 6.32163L4.39612 7.00026V8.38575L3.24236 7.69523L3.00329 6.76861C2.98695 6.70475 2.92459 6.66763 2.86371 6.68396L2.64246 6.74485C2.58158 6.76118 2.54446 6.82652 2.56079 6.89038L2.68107 7.35814L2.06929 6.99136C2.01435 6.95869 1.94456 6.97799 1.91338 7.03442L1.79459 7.24083C1.7634 7.29726 1.78122 7.37002 1.83616 7.40269L2.44794 7.76948L1.9995 7.89571C1.93862 7.91204 1.9015 7.97738 1.91783 8.04123L1.97723 8.27141C1.99356 8.33526 2.05593 8.37238 2.11681 8.35605L3.01071 8.10806L4.1719 8.80303L3.01071 9.498L2.11681 9.25001C2.05593 9.23367 1.99356 9.2708 1.97723 9.33465L1.91783 9.56482C1.9015 9.62868 1.93714 9.69401 1.9995 9.71035L2.44942 9.83509L1.83765 10.1989C1.78271 10.2316 1.7634 10.3043 1.79607 10.3608L1.91041 10.5672C1.94159 10.6236 2.01287 10.6429 2.06632 10.6102L2.6781 10.2435L2.55782 10.7112C2.54149 10.7751 2.57712 10.8404 2.63949 10.8568L2.86074 10.9176C2.92162 10.934 2.98398 10.8968 3.00032 10.833L3.23939 9.90637L4.39315 9.21585V10.6013L3.71455 11.2815C3.66852 11.3275 3.66852 11.4032 3.71455 11.4493L3.88234 11.6171C3.92838 11.6631 4.00411 11.6631 4.05014 11.6171L4.39166 11.2755V12.0091C4.39166 12.0744 4.44512 12.1279 4.51045 12.1279H4.74804C4.81337 12.1279 4.86683 12.0744 4.86683 12.0091V11.2755L5.20835 11.6171C5.25438 11.6631 5.33011 11.6631 5.37614 11.6171L5.54394 11.4493C5.58997 11.4032 5.58997 11.3275 5.54394 11.2815L4.86831 10.6043V9.21882L5.89437 9.84103Z" fill="black"/>
    <path d="M7.9607 9.89097V10.1922C8.24813 10.2973 8.45521 10.5778 8.45521 10.9109C8.45521 11.3332 8.12296 11.6758 7.71344 11.6758C7.30393 11.6758 6.97168 11.3332 6.97168 10.9109C6.97168 10.5778 7.17876 10.2973 7.46619 10.1922V9.89097C7.46619 9.75073 7.57745 9.63599 7.71344 9.63599C7.84943 9.63599 7.9607 9.75073 7.9607 9.89097Z" fill="#0674BB"/>
  </g>
</svg>
