<svg width="35" height="35" viewBox="0 0 35 35" fill="none" xmlns="http://www.w3.org/2000/svg">
<circle cx="17.5" cy="17.5" r="17.5" fill="white"/>
<path fill-rule="evenodd" clip-rule="evenodd" d="M8.4 20.2839C7.69928 19.8599 7.0877 19.3034 6.6 18.6491V22.8599C6.27 22.8599 6 23.0529 6 23.289V23.7181C6 23.9541 6.27 24.1472 6.6 24.1472H29.4C29.73 24.1472 30 23.9541 30 23.7181V23.289C30 23.0529 29.73 22.8599 29.4 22.8599V13.4196C29.73 13.4196 30 13.2265 30 12.9905V12.5614C30 12.3254 29.73 12.1323 29.4 12.1323H17.3412C17.5385 12.539 17.6933 12.97 17.8001 13.4196H27.6V22.8599H8.4V20.2839ZM15 20.2367C15.7056 19.7958 16.3178 19.2194 16.8 18.5438V21.358C16.8 21.476 16.665 21.5725 16.5 21.5725H15.3C15.135 21.5725 15 21.476 15 21.358V20.2367ZM10.8 21.133V21.358C10.8 21.476 10.935 21.5725 11.1 21.5725H12.3C12.465 21.5725 12.6 21.476 12.6 21.358V21.122C12.2938 21.1677 11.9805 21.1913 11.6616 21.1913C11.3693 21.1913 11.0817 21.1715 10.8 21.133ZM20.7 21.5725H19.5C19.335 21.5725 19.2 21.476 19.2 21.358V14.9215C19.2 14.8035 19.335 14.7069 19.5 14.7069H20.7C20.865 14.7069 21 14.8035 21 14.9215V21.358C21 21.476 20.865 21.5725 20.7 21.5725ZM24.9 21.5725H23.7C23.535 21.5725 23.4 21.476 23.4 21.358V14.9215C23.4 14.8035 23.535 14.7069 23.7 14.7069H24.9C25.065 14.7069 25.2 14.8035 25.2 14.9215V21.358C25.2 21.476 25.065 21.5725 24.9 21.5725Z" fill="black"/>
<path d="M14.9072 15.7801V12.188C14.9072 11.5331 14.3741 11 13.7193 11C13.0645 11 12.5314 11.5331 12.5314 12.188V15.7801C12.23 16.089 12.0562 16.5063 12.0562 16.9399C12.0562 17.8576 12.8016 18.6031 13.7193 18.6031C14.637 18.6031 15.3824 17.8576 15.3824 16.9399C15.3824 16.5063 15.2087 16.0875 14.9072 15.7801ZM13.7193 18.1279C13.0645 18.1279 12.5314 17.5948 12.5314 16.9399C12.5314 16.5612 12.7125 16.2138 13.0066 15.9925V12.188C13.0066 11.7945 13.3258 11.4752 13.7193 11.4752C14.1128 11.4752 14.4321 11.7945 14.4321 12.188V15.9925C14.7261 16.2123 14.9072 16.5612 14.9072 16.9399C14.9072 17.5948 14.3741 18.1279 13.7193 18.1279ZM11.8944 15.841C11.9449 15.7579 11.9953 15.6762 12.0562 15.6005V15.3896L11.0896 14.8015L12.0562 14.215V13.664L10.8683 14.3857V13.0003L11.5469 12.3216C11.5929 12.2756 11.5929 12.1999 11.5469 12.1538L11.3791 11.986C11.3331 11.94 11.2574 11.94 11.2113 11.986L10.8698 12.3276V11.594C10.8698 11.5287 10.8163 11.4752 10.751 11.4752H10.5134C10.4481 11.4752 10.3946 11.5287 10.3946 11.594V12.3276L10.0531 11.986C10.0071 11.94 9.93135 11.94 9.88531 11.986L9.71752 12.1538C9.67149 12.1999 9.67149 12.2756 9.71752 12.3216L10.3961 13.0003V14.3857L9.24236 13.6952L9.00329 12.7686C8.98695 12.7048 8.92459 12.6676 8.86371 12.684L8.64246 12.7448C8.58158 12.7612 8.54446 12.8265 8.56079 12.8904L8.68107 13.3581L8.06929 12.9914C8.01435 12.9587 7.94456 12.978 7.91338 13.0344L7.79459 13.2408C7.7634 13.2973 7.78122 13.37 7.83616 13.4027L8.44794 13.7695L7.9995 13.8957C7.93862 13.912 7.9015 13.9774 7.91783 14.0412L7.97723 14.2714C7.99356 14.3353 8.05593 14.3724 8.11681 14.356L9.01071 14.1081L10.1719 14.803L9.01071 15.498L8.11681 15.25C8.05593 15.2337 7.99356 15.2708 7.97723 15.3346L7.91783 15.5648C7.9015 15.6287 7.93714 15.694 7.9995 15.7103L8.44942 15.8351L7.83765 16.1989C7.78271 16.2316 7.7634 16.3043 7.79607 16.3608L7.91041 16.5672C7.94159 16.6236 8.01287 16.6429 8.06632 16.6102L8.6781 16.2435L8.55782 16.7112C8.54149 16.7751 8.57712 16.8404 8.63949 16.8568L8.86074 16.9176C8.92162 16.934 8.98398 16.8968 9.00032 16.833L9.23939 15.9064L10.3931 15.2159V16.6013L9.71455 17.2815C9.66852 17.3275 9.66852 17.4032 9.71455 17.4493L9.88234 17.6171C9.92838 17.6631 10.0041 17.6631 10.0501 17.6171L10.3917 17.2755V18.0091C10.3917 18.0744 10.4451 18.1279 10.5105 18.1279H10.748C10.8134 18.1279 10.8668 18.0744 10.8668 18.0091V17.2755L11.2084 17.6171C11.2544 17.6631 11.3301 17.6631 11.3761 17.6171L11.5439 17.4493C11.59 17.4032 11.59 17.3275 11.5439 17.2815L10.8683 16.6043V15.2188L11.8944 15.841Z" fill="black"/>
<path d="M13.9607 15.891V16.1922C14.2481 16.2973 14.4552 16.5778 14.4552 16.9109C14.4552 17.3332 14.123 17.6758 13.7134 17.6758C13.3039 17.6758 12.9717 17.3332 12.9717 16.9109C12.9717 16.5778 13.1788 16.2973 13.4662 16.1922V15.891C13.4662 15.7507 13.5775 15.636 13.7134 15.636C13.8494 15.636 13.9607 15.7507 13.9607 15.891Z" fill="#0674BB"/>
</svg>
