<svg width="35" height="35" viewBox="0 0 35 35" fill="none" xmlns="http://www.w3.org/2000/svg">
<circle cx="17.5" cy="17.5" r="17.5" fill="white"/>
<path d="M22.0626 19.4307V12.3438C22.0626 11.0518 21.0109 10 19.7189 10C18.427 10 17.3753 11.0518 17.3753 12.3438V19.4307C16.7806 20.04 16.4379 20.8633 16.4379 21.7188C16.4379 23.5293 17.9085 25 19.7189 25C21.5294 25 23 23.5293 23 21.7188C23 20.8633 22.6572 20.0371 22.0626 19.4307ZM19.7189 24.0625C18.427 24.0625 17.3753 23.0107 17.3753 21.7188C17.3753 20.9717 17.7327 20.2861 18.3128 19.8496V12.3438C18.3128 11.5674 18.9426 10.9375 19.7189 10.9375C20.4953 10.9375 21.1251 11.5674 21.1251 12.3438V19.8496C21.7052 20.2832 22.0626 20.9717 22.0626 21.7188C22.0626 23.0107 21.0109 24.0625 19.7189 24.0625ZM16.1186 19.5508C16.2182 19.3867 16.3178 19.2256 16.4379 19.0762V18.6602L14.5308 17.5L16.4379 16.3428V15.2559L14.0943 16.6797V13.9463L15.4331 12.6074C15.5239 12.5166 15.5239 12.3672 15.4331 12.2764L15.102 11.9453C15.0112 11.8545 14.8618 11.8545 14.771 11.9453L14.0972 12.6191V11.1719C14.0972 11.043 13.9917 10.9375 13.8628 10.9375H13.3941C13.2652 10.9375 13.1597 11.043 13.1597 11.1719V12.6191L12.486 11.9453C12.3951 11.8545 12.2457 11.8545 12.1549 11.9453L11.8239 12.2764C11.7331 12.3672 11.7331 12.5166 11.8239 12.6074L13.1627 13.9463V16.6797L10.8864 15.3174L10.4148 13.4893C10.3826 13.3633 10.2595 13.29 10.1394 13.3223L9.70292 13.4424C9.58281 13.4746 9.50957 13.6035 9.5418 13.7295L9.77909 14.6523L8.57212 13.9287C8.46373 13.8643 8.32605 13.9023 8.26453 14.0137L8.03016 14.4209C7.96864 14.5322 8.0038 14.6758 8.11219 14.7402L9.31915 15.4639L8.43444 15.7129C8.31433 15.7451 8.24109 15.874 8.27331 16L8.39049 16.4541C8.42272 16.5801 8.54576 16.6533 8.66587 16.6211L10.4294 16.1318L12.7203 17.5029L10.4294 18.874L8.66587 18.3848C8.54576 18.3525 8.42272 18.4258 8.39049 18.5518L8.27331 19.0059C8.24109 19.1318 8.3114 19.2607 8.43444 19.293L9.32208 19.5391L8.11512 20.2568C8.00673 20.3213 7.96864 20.4648 8.03309 20.5762L8.25867 20.9834C8.32019 21.0947 8.4608 21.1328 8.56627 21.0684L9.77323 20.3447L9.53594 21.2676C9.50371 21.3936 9.57402 21.5225 9.69706 21.5547L10.1336 21.6748C10.2537 21.707 10.3767 21.6338 10.4089 21.5078L10.8806 19.6797L13.1568 18.3174V21.0508L11.818 22.3926C11.7272 22.4834 11.7272 22.6328 11.818 22.7236L12.1491 23.0547C12.2399 23.1455 12.3893 23.1455 12.4801 23.0547L13.1539 22.3809V23.8281C13.1539 23.957 13.2594 24.0625 13.3883 24.0625H13.857C13.9859 24.0625 14.0913 23.957 14.0913 23.8281V22.3809L14.7651 23.0547C14.8559 23.1455 15.0053 23.1455 15.0962 23.0547L15.4272 22.7236C15.518 22.6328 15.518 22.4834 15.4272 22.3926L14.0943 21.0566V18.3232L16.1186 19.5508Z" fill="black"/>
<path d="M20.2222 19.6876V20.3028C20.8681 20.5177 21.3333 21.0906 21.3333 21.7709C21.3333 22.6335 20.5868 23.3334 19.6667 23.3334C18.7465 23.3334 18 22.6335 18 21.7709C18 21.0906 18.4653 20.5177 19.1111 20.3028V19.6876C19.1111 19.4011 19.3611 19.1667 19.6667 19.1667C19.9722 19.1667 20.2222 19.4011 20.2222 19.6876Z" fill="#0674BB"/>
<path fill-rule="evenodd" clip-rule="evenodd" d="M24.0295 13.6406L22.1667 13.6406L25.0833 10L28 13.6406L26.1372 13.6406L26.1372 25L24.0295 25L24.0295 13.6406Z" fill="#0674BB"/>
</svg>
