<svg viewBox="0 0 24 24" fill="none" xmlns="http://www.w3.org/2000/svg">
  <g id="RH">
    <path d="M16.8751 14.3168V5.8125C16.8751 4.26211 15.613 3 14.0627 3C12.5124 3 11.2504 4.26211 11.2504 5.8125V14.3168C10.5368 15.048 10.1255 16.0359 10.1255 17.0625C10.1255 19.2352 11.8902 21 14.0627 21C16.2353 21 18 19.2352 18 17.0625C18 16.0359 17.5887 15.0445 16.8751 14.3168ZM14.0627 19.875C12.5124 19.875 11.2504 18.6129 11.2504 17.0625C11.2504 16.166 11.6793 15.3434 12.3753 14.8195V5.8125C12.3753 4.88086 13.1311 4.125 14.0627 4.125C14.9943 4.125 15.7501 4.88086 15.7501 5.8125V14.8195C16.4462 15.3398 16.8751 16.166 16.8751 17.0625C16.8751 18.6129 15.613 19.875 14.0627 19.875ZM9.74228 14.4609C9.8618 14.2641 9.98132 14.0707 10.1255 13.8914V13.3922L7.83692 12L10.1255 10.6113V9.30703L7.31312 11.0156V7.73555L8.91967 6.12891C9.02864 6.01992 9.02864 5.84063 8.91967 5.73164L8.52242 5.33438C8.41345 5.22539 8.23416 5.22539 8.12518 5.33438L7.31663 6.14297V4.40625C7.31663 4.25156 7.19008 4.125 7.0354 4.125H6.47293C6.31826 4.125 6.1917 4.25156 6.1917 4.40625V6.14297L5.38315 5.33438C5.27418 5.22539 5.09489 5.22539 4.98591 5.33438L4.58867 5.73164C4.47969 5.84063 4.47969 6.01992 4.58867 6.12891L6.19522 7.73555V11.0156L3.46373 9.38086L2.89775 7.18711C2.85908 7.03594 2.71143 6.94805 2.5673 6.98672L2.0435 7.13086C1.89937 7.16953 1.81148 7.32422 1.85015 7.47539L2.1349 8.58281L0.68655 7.71445C0.556479 7.63711 0.391254 7.68281 0.317431 7.81641L0.0361969 8.30508C-0.037627 8.43867 0.00455809 8.61094 0.134629 8.68828L1.58298 9.55664L0.521325 9.85547C0.377193 9.89414 0.289307 10.0488 0.327977 10.2L0.468594 10.7449C0.507263 10.8961 0.654911 10.984 0.799043 10.9453L2.91533 10.3582L5.66439 12.0035L2.91533 13.6488L0.799043 13.0617C0.654911 13.023 0.507263 13.1109 0.468594 13.2621L0.327977 13.807C0.289307 13.9582 0.373677 14.1129 0.521325 14.1516L1.5865 14.4469L0.138144 15.3082C0.00807353 15.3855 -0.037627 15.5578 0.0397123 15.6914L0.3104 16.1801C0.384224 16.3137 0.552964 16.3594 0.679519 16.282L2.12787 15.4137L1.84312 16.5211C1.80445 16.6723 1.88882 16.827 2.03647 16.8656L2.56027 17.0098C2.7044 17.0484 2.85205 16.9605 2.89072 16.8094L3.4567 14.6156L6.18818 12.9809V16.2609L4.58164 17.8711C4.47266 17.9801 4.47266 18.1594 4.58164 18.2684L4.97888 18.6656C5.08786 18.7746 5.26714 18.7746 5.37612 18.6656L6.18467 17.857V19.5938C6.18467 19.7484 6.31122 19.875 6.4659 19.875H7.02837C7.18305 19.875 7.3096 19.7484 7.3096 19.5938V17.857L8.11815 18.6656C8.22713 18.7746 8.40641 18.7746 8.51539 18.6656L8.91264 18.2684C9.02161 18.1594 9.02161 17.9801 8.91264 17.8711L7.31312 16.268V12.9879L9.74228 14.4609Z" fill="black"/>
    <path d="M14.6667 14.625V15.3633C15.4417 15.6211 16 16.3086 16 17.125C16 18.1602 15.1042 19 14 19C12.8958 19 12 18.1602 12 17.125C12 16.3086 12.5583 15.6211 13.3333 15.3633V14.625C13.3333 14.2812 13.6333 14 14 14C14.3667 14 14.6667 14.2812 14.6667 14.625Z" fill="#0674BB"/>
    <path fill-rule="evenodd" clip-rule="evenodd" d="M19.2354 7.3687L17 7.3687L20.5 3L24 7.3687L21.7646 7.3687L21.7646 21L19.2354 21L19.2354 7.3687Z" fill="#0674BB"/>
  </g>
</svg>
