<svg width="24" height="24" viewBox="0 0 24 24" fill="none" xmlns="http://www.w3.org/2000/svg">
  <g id="RH">
    <path d="M16.0626 13.4307V6.34375C16.0626 5.05176 15.0109 4 13.7189 4C12.427 4 11.3753 5.05176 11.3753 6.34375V13.4307C10.7806 14.04 10.4379 14.8633 10.4379 15.7188C10.4379 17.5293 11.9085 19 13.7189 19C15.5294 19 17 17.5293 17 15.7188C17 14.8633 16.6572 14.0371 16.0626 13.4307ZM13.7189 18.0625C12.427 18.0625 11.3753 17.0107 11.3753 15.7188C11.3753 14.9717 11.7327 14.2861 12.3128 13.8496V6.34375C12.3128 5.56738 12.9426 4.9375 13.7189 4.9375C14.4953 4.9375 15.1251 5.56738 15.1251 6.34375V13.8496C15.7052 14.2832 16.0626 14.9717 16.0626 15.7188C16.0626 17.0107 15.0109 18.0625 13.7189 18.0625ZM10.1186 13.5508C10.2182 13.3867 10.3178 13.2256 10.4379 13.0762V12.6602L8.53076 11.5L10.4379 10.3428V9.25586L8.09427 10.6797V7.94629L9.43306 6.60742C9.52387 6.5166 9.52387 6.36719 9.43306 6.27637L9.10202 5.94531C9.01121 5.85449 8.8618 5.85449 8.77098 5.94531L8.0972 6.61914V5.17188C8.0972 5.04297 7.99173 4.9375 7.86283 4.9375H7.39411C7.26521 4.9375 7.15975 5.04297 7.15975 5.17188V6.61914L6.48596 5.94531C6.39515 5.85449 6.24574 5.85449 6.15493 5.94531L5.82389 6.27637C5.73307 6.36719 5.73307 6.5166 5.82389 6.60742L7.16268 7.94629V10.6797L4.88644 9.31738L4.41479 7.48926C4.38257 7.36328 4.25953 7.29004 4.13942 7.32227L3.70292 7.44238C3.58281 7.47461 3.50957 7.60352 3.5418 7.72949L3.77909 8.65234L2.57212 7.92871C2.46373 7.86426 2.32605 7.90234 2.26453 8.01367L2.03016 8.4209C1.96864 8.53223 2.0038 8.67578 2.11219 8.74023L3.31915 9.46387L2.43444 9.71289C2.31433 9.74512 2.24109 9.87402 2.27331 10L2.39049 10.4541C2.42272 10.5801 2.54576 10.6533 2.66587 10.6211L4.42944 10.1318L6.72032 11.5029L4.42944 12.874L2.66587 12.3848C2.54576 12.3525 2.42272 12.4258 2.39049 12.5518L2.27331 13.0059C2.24109 13.1318 2.3114 13.2607 2.43444 13.293L3.32208 13.5391L2.11512 14.2568C2.00673 14.3213 1.96864 14.4648 2.03309 14.5762L2.25867 14.9834C2.32019 15.0947 2.4608 15.1328 2.56627 15.0684L3.77323 14.3447L3.53594 15.2676C3.50371 15.3936 3.57402 15.5225 3.69706 15.5547L4.13356 15.6748C4.25367 15.707 4.37671 15.6338 4.40893 15.5078L4.88059 13.6797L7.15682 12.3174V15.0508L5.81803 16.3926C5.72722 16.4834 5.72722 16.6328 5.81803 16.7236L6.14907 17.0547C6.23988 17.1455 6.38929 17.1455 6.4801 17.0547L7.15389 16.3809V17.8281C7.15389 17.957 7.25935 18.0625 7.38825 18.0625H7.85698C7.98587 18.0625 8.09134 17.957 8.09134 17.8281V16.3809L8.76513 17.0547C8.85594 17.1455 9.00535 17.1455 9.09616 17.0547L9.4272 16.7236C9.51801 16.6328 9.51801 16.4834 9.4272 16.3926L8.09427 15.0566V12.3232L10.1186 13.5508Z" fill="black"/>
    <path d="M14.2222 13.6876V14.3028C14.8681 14.5177 15.3333 15.0906 15.3333 15.7709C15.3333 16.6335 14.5868 17.3334 13.6667 17.3334C12.7465 17.3334 12 16.6335 12 15.7709C12 15.0906 12.4653 14.5177 13.1111 14.3028V13.6876C13.1111 13.4011 13.3611 13.1667 13.6667 13.1667C13.9722 13.1667 14.2222 13.4011 14.2222 13.6876Z" fill="#0674BB"/>
    <path fill-rule="evenodd" clip-rule="evenodd" d="M18.0295 7.64058L16.1667 7.64058L19.0833 4L22 7.64058L20.1372 7.64058L20.1372 19L18.0295 19L18.0295 7.64058Z" fill="#0674BB"/>
  </g>
</svg>
