<svg viewBox="0 0 35 35" fill="none" xmlns="http://www.w3.org/2000/svg">
  <g id="SCRAP">
    <circle cx="17.5" cy="17.5" r="17.5" fill="white"/>
    <path fill-rule="evenodd" clip-rule="evenodd" d="M8.4 20.3015C7.69926 19.8774 7.08768 19.3208 6.6 18.6665V22.8777C6.27 22.8777 6 23.0708 6 23.3068V23.7359C6 23.9719 6.27 24.165 6.6 24.165H29.4C29.73 24.165 30 23.9719 30 23.7359V23.3068C30 23.0708 29.73 22.8777 29.4 22.8777V13.4375C29.73 13.4375 30 13.2444 30 13.0083V12.5792C30 12.3432 29.73 12.1501 29.4 12.1501H17.3415C17.5388 12.5568 17.6937 12.9878 17.8004 13.4375H27.6V22.8777H8.4V20.3015ZM15 20.2547C15.7056 19.8139 16.3177 19.2375 16.8 18.5621V21.3758C16.8 21.4938 16.665 21.5904 16.5 21.5904H15.3C15.135 21.5904 15 21.4938 15 21.3758V20.2547ZM10.8 21.1508V21.3758C10.8 21.4938 10.935 21.5904 11.1 21.5904H12.3C12.465 21.5904 12.6 21.4938 12.6 21.3758V21.1399C12.2939 21.1855 11.9807 21.2091 11.6619 21.2091C11.3695 21.2091 11.0818 21.1893 10.8 21.1508ZM20.7 21.5904H19.5C19.335 21.5904 19.2 21.4938 19.2 21.3758V14.9393C19.2 14.8213 19.335 14.7248 19.5 14.7248H20.7C20.865 14.7248 21 14.8213 21 14.9393V21.3758C21 21.4938 20.865 21.5904 20.7 21.5904ZM24.9 21.5904H23.7C23.535 21.5904 23.4 21.4938 23.4 21.3758V14.9393C23.4 14.8213 23.535 14.7248 23.7 14.7248H24.9C25.065 14.7248 25.2 14.8213 25.2 14.9393V21.3758C25.2 21.4938 25.065 21.5904 24.9 21.5904Z" fill="black"/>
    <path d="M10.8838 15.0922C10.9343 15.3109 10.6943 15.4772 10.5077 15.3605L9.8712 14.9627L9.0764 16.2347C8.86884 16.5668 9.10875 17 9.50018 17H10.3125C10.416 17 10.5 17.0839 10.5 17.1875V17.8125C10.5 17.916 10.416 18 10.3125 18H9.50179C8.3247 18 7.60645 16.7024 8.22979 15.705L9.02389 14.4333L8.38756 14.0357C8.19879 13.9178 8.24746 13.63 8.46379 13.5801L10.1862 13.1824C10.3208 13.1514 10.455 13.2353 10.4861 13.3698L10.8838 15.0922ZM12.4238 12.2342L13.0689 13.2666L12.4324 13.6644C12.2441 13.782 12.2917 14.0699 12.5086 14.12L14.231 14.5176C14.3665 14.5489 14.5 14.4639 14.5309 14.3303L14.9285 12.6078C14.9785 12.3915 14.7412 12.2216 14.5525 12.3396L13.9167 12.7368L13.272 11.7043C12.6857 10.7663 11.3156 10.7641 10.728 11.7043L10.4473 12.1538C10.3925 12.2416 10.4192 12.3572 10.507 12.4121L11.037 12.7433C11.1248 12.7982 11.2405 12.7715 11.2954 12.6836L11.576 12.2345C11.7746 11.9167 12.2318 11.9271 12.4238 12.2342ZM15.7701 15.705L15.3402 15.0165C15.2853 14.9286 15.1696 14.9019 15.0818 14.9568L14.5527 15.2874C14.4649 15.3423 14.4382 15.4579 14.4931 15.5458L14.9237 16.235C15.1309 16.5664 14.8916 17 14.4997 17H13V16.2503C13 16.0282 12.7306 15.9162 12.5732 16.0735L11.3232 17.3232C11.2256 17.4209 11.2256 17.5792 11.3232 17.6768L12.5732 18.9266C12.7295 19.0829 13 18.9734 13 18.7498V18H14.4981C15.6743 18 16.394 16.7032 15.7701 15.705Z" fill="black"/>
  </g>
</svg>
