<svg viewBox="0 0 24 24" fill="none" xmlns="http://www.w3.org/2000/svg">
  <g id="scrap">
    <path fill-rule="evenodd" clip-rule="evenodd" d="M2.4 14.3015C1.69926 13.8774 1.08768 13.3208 0.6 12.6665V16.8777C0.27 16.8777 0 17.0708 0 17.3068V17.7359C0 17.9719 0.27 18.165 0.6 18.165H23.4C23.73 18.165 24 17.9719 24 17.7359V17.3068C24 17.0708 23.73 16.8777 23.4 16.8777V7.43745C23.73 7.43745 24 7.24435 24 7.00835V6.57925C24 6.34324 23.73 6.15015 23.4 6.15015H11.3415C11.5388 6.55679 11.6937 6.9878 11.8004 7.43745H21.6V16.8777H2.4V14.3015ZM9 14.2547C9.70557 13.8139 10.3177 13.2375 10.8 12.5621V15.3758C10.8 15.4938 10.665 15.5904 10.5 15.5904H9.3C9.135 15.5904 9 15.4938 9 15.3758V14.2547ZM4.8 15.1508V15.3758C4.8 15.4938 4.935 15.5904 5.1 15.5904H6.3C6.465 15.5904 6.6 15.4938 6.6 15.3758V15.1399C6.29393 15.1855 5.98069 15.2091 5.66192 15.2091C5.36954 15.2091 5.08181 15.1893 4.8 15.1508ZM14.7 15.5904H13.5C13.335 15.5904 13.2 15.4938 13.2 15.3758V8.9393C13.2 8.8213 13.335 8.72475 13.5 8.72475H14.7C14.865 8.72475 15 8.8213 15 8.9393V15.3758C15 15.4938 14.865 15.5904 14.7 15.5904ZM18.9 15.5904H17.7C17.535 15.5904 17.4 15.4938 17.4 15.3758V8.9393C17.4 8.8213 17.535 8.72475 17.7 8.72475H18.9C19.065 8.72475 19.2 8.8213 19.2 8.9393V15.3758C19.2 15.4938 19.065 15.5904 18.9 15.5904Z" fill="black"/>
    <path d="M4.88376 9.09223C4.93426 9.31094 4.69434 9.47716 4.5077 9.36048L3.8712 8.96275L3.0764 10.2347C2.86884 10.5668 3.10875 11 3.50018 11H4.3125C4.41604 11 4.5 11.0839 4.5 11.1875V11.8125C4.5 11.916 4.41604 12 4.3125 12H3.50179C2.3247 12 1.60645 10.7024 2.22979 9.705L3.02389 8.43331L2.38756 8.03569C2.19879 7.91777 2.24746 7.63005 2.46379 7.5801L4.18625 7.18244C4.32079 7.15138 4.45501 7.23527 4.48607 7.36978L4.88376 9.09223ZM6.42378 6.23419L7.06892 7.26663L6.43236 7.66439C6.24406 7.78202 6.29173 8.06991 6.50859 8.11999L8.23105 8.51764C8.36655 8.54888 8.50003 8.46392 8.53087 8.3303L8.92853 6.60785C8.97848 6.39154 8.74119 6.22161 8.55247 6.3396L7.91673 6.73685L7.272 5.70432C6.68573 4.76631 5.31561 4.76415 4.728 5.70432L4.44732 6.15379C4.39248 6.2416 4.4192 6.35724 4.50701 6.41211L5.037 6.74329C5.12481 6.79816 5.2405 6.77146 5.29537 6.68365L5.57601 6.23454C5.77464 5.91671 6.23184 5.9271 6.42378 6.23419ZM9.77012 9.705L9.3402 9.01648C9.28534 8.92862 9.16964 8.90189 9.0818 8.95678L8.55272 9.28739C8.4649 9.34226 8.43819 9.45794 8.49306 9.54576L8.92375 10.235C9.13089 10.5664 8.89161 11 8.49975 11H7V10.2503C7 10.0282 6.73059 9.9162 6.57323 10.0735L5.32323 11.3232C5.22559 11.4209 5.22559 11.5792 5.32323 11.6768L6.57323 12.9266C6.72951 13.0829 7 12.9734 7 12.7498V12H8.49812C9.67428 12 10.394 10.7032 9.77012 9.705Z" fill="black"/>
  </g>
</svg>
