<svg width="35" height="35" viewBox="0 0 35 35" fill="none" xmlns="http://www.w3.org/2000/svg">
<g id="simpleTruck">
<circle cx="17.5" cy="17.5" r="17.5" fill="white"/>
<path d="M23.3112 11.6007V11.3004C23.3112 11.1352 23.1222 11 22.8912 11H6.93123C6.70023 11 6.51123 11.1352 6.51123 11.3004V11.6007C6.51123 11.7659 6.70023 11.9011 6.93123 11.9011V18.5093C6.70023 18.5093 6.51123 18.6444 6.51123 18.8096V19.11C6.51123 19.2752 6.70023 19.4104 6.93123 19.4104H22.8912C23.1222 19.4104 23.3112 19.2752 23.3112 19.11V18.8096C23.3112 18.6444 23.1222 18.5093 22.8912 18.5093V11.9011C23.1222 11.9011 23.3112 11.7659 23.3112 11.6007ZM21.6312 18.5093H8.19123V11.9011H21.6312V18.5093ZM10.0812 17.6082H10.9212C11.0367 17.6082 11.1312 17.5406 11.1312 17.458V12.9524C11.1312 12.8698 11.0367 12.8022 10.9212 12.8022H10.0812C9.96573 12.8022 9.87123 12.8698 9.87123 12.9524V17.458C9.87123 17.5406 9.96573 17.6082 10.0812 17.6082ZM15.9612 17.6082H16.8012C16.9167 17.6082 17.0112 17.5406 17.0112 17.458V12.9524C17.0112 12.8698 16.9167 12.8022 16.8012 12.8022H15.9612C15.8457 12.8022 15.7512 12.8698 15.7512 12.9524V17.458C15.7512 17.5406 15.8457 17.6082 15.9612 17.6082ZM18.9012 17.6082H19.7412C19.8567 17.6082 19.9512 17.5406 19.9512 17.458V12.9524C19.9512 12.8698 19.8567 12.8022 19.7412 12.8022H18.9012C18.7857 12.8022 18.6912 12.8698 18.6912 12.9524V17.458C18.6912 17.5406 18.7857 17.6082 18.9012 17.6082ZM13.0212 17.6082H13.8612C13.9767 17.6082 14.0712 17.5406 14.0712 17.458V12.9524C14.0712 12.8698 13.9767 12.8022 13.8612 12.8022H13.0212C12.9057 12.8022 12.8112 12.8698 12.8112 12.9524V17.458C12.8112 17.5406 12.9057 17.6082 13.0212 17.6082Z" fill="black"/>
<path d="M29.4521 16.4122L27.738 14.5843C27.3864 14.2094 26.9088 14 26.4107 14H24.8431C24.3244 14 23.9054 14.4468 23.9054 14.9999V20.4992H6.93762C6.419 20.4992 6 20.9461 6 21.4991V22.3678C6 23.6426 6.84093 24.8081 8.02468 24.9768C8.92422 25.1049 9.73292 24.68 10.2193 23.9863C10.7584 24.7581 11.6961 25.1956 12.7187 24.9143C13.457 24.7112 14.0694 24.0957 14.3126 23.327C14.4562 22.8646 14.4709 22.4146 14.3947 22.0022H24.4241C24.345 22.4146 24.3596 22.8646 24.5061 23.327C24.7522 24.1113 25.3822 24.73 26.1352 24.9237C27.6823 25.3237 29.0653 24.0832 29.0653 22.499C29.0653 22.3271 29.0477 22.1615 29.0184 21.9991H29.5312C29.789 21.9991 30 21.7741 30 21.4991V17.8245C30 17.2934 29.8037 16.7872 29.4521 16.4122ZM8.34406 23.4958C7.82837 23.4958 7.40644 23.0458 7.40644 22.4959C7.40644 21.9459 7.82837 21.496 8.34406 21.496C8.85976 21.496 9.28169 21.9459 9.28169 22.4959C9.28169 23.0458 8.85976 23.4958 8.34406 23.4958ZM12.0946 23.4958C11.5789 23.4958 11.1569 23.0458 11.1569 22.4959C11.1569 21.9459 11.5789 21.496 12.0946 21.496C12.6103 21.496 13.0322 21.9459 13.0322 22.4959C13.0322 23.0458 12.6103 23.4958 12.0946 23.4958ZM25.3119 15.4967H26.4107C26.5367 15.4967 26.6539 15.5498 26.7418 15.6436L28.0105 16.9965H25.3119V15.4967ZM26.7183 23.4958C26.2026 23.4958 25.7807 23.0458 25.7807 22.4959C25.7807 21.9459 26.2026 21.496 26.7183 21.496C27.234 21.496 27.6559 21.9459 27.6559 22.4959C27.6559 23.0458 27.234 23.4958 26.7183 23.4958ZM28.5936 20.4961H28.113C27.7233 20.1868 27.2428 19.9962 26.7183 19.9962C26.1938 19.9962 25.7162 20.1868 25.3236 20.4961H25.3119V17.9964H28.5936V20.4961Z" fill="black"/>
</g>
</svg>
