<svg viewBox="0 0 24 24" fill="none" xmlns="http://www.w3.org/2000/svg">
  <g id="Special">
    <g clip-path="url(#clip0)">
      <path d="M17.8505 11.9005C17.8505 11.6933 17.7927 11.4901 17.6836 11.3138C17.5746 11.1375 17.4186 10.9951 17.2331 10.9025L12.3591 8.46581L9.92317 3.59241C9.54524 2.83704 8.30498 2.83704 7.92705 3.59241L5.4907 8.46581L0.617077 10.9025C0.431666 10.9951 0.275721 11.1376 0.166727 11.3138C0.0577334 11.4901 0 11.6933 0 11.9005C0 12.1078 0.0577334 12.3109 0.166727 12.4872C0.275721 12.6635 0.431666 12.8059 0.617077 12.8985L5.4907 15.3353L7.92705 20.2091C8.01967 20.3945 8.16212 20.5505 8.3384 20.6595C8.51469 20.7684 8.71785 20.8262 8.92511 20.8262C9.13237 20.8262 9.33553 20.7684 9.51182 20.6595C9.68811 20.5505 9.83055 20.3945 9.92317 20.2091L12.3591 15.3353L17.2331 12.8985C17.4186 12.806 17.5746 12.6635 17.6836 12.4873C17.7927 12.311 17.8505 12.1078 17.8505 11.9005ZM11.03 13.5056C10.8138 13.6135 10.6384 13.7887 10.5303 14.0049L8.92511 17.2151L7.31994 14.0049C7.21184 13.7887 7.03647 13.6135 6.82021 13.5056L3.60987 11.9005L6.82021 10.2954C7.03639 10.1877 7.21175 10.0126 7.31994 9.79666L8.92511 6.58599L10.5303 9.79666C10.6385 10.0126 10.8138 10.1877 11.03 10.2954L14.2404 11.9005L11.03 13.5056Z" fill="black"/>
      <path d="M18.0494 5.95051L15.2797 4.79585C15.2178 4.765 15.1658 4.71752 15.1294 4.65873C15.093 4.59994 15.0737 4.53216 15.0737 4.46302C15.0737 4.39388 15.093 4.3261 15.1294 4.26731C15.1658 4.20852 15.2178 4.16103 15.2797 4.13019L18.0494 2.97552L19.2041 0.205994C19.235 0.144111 19.2824 0.0920525 19.3412 0.0556645C19.4 0.0192764 19.4678 0 19.5369 0C19.6061 0 19.6739 0.0192764 19.7327 0.0556645C19.7915 0.0920525 19.8389 0.144111 19.8698 0.205994L21.0245 2.97552L23.7942 4.13019C23.8561 4.16103 23.9081 4.20852 23.9445 4.26731C23.9809 4.3261 24.0002 4.39388 24.0002 4.46302C24.0002 4.53216 23.9809 4.59994 23.9445 4.65873C23.9081 4.71752 23.8561 4.765 23.7942 4.79585L21.0245 5.95051L19.8698 8.72005C19.8389 8.78193 19.7915 8.83399 19.7327 8.87037C19.6739 8.90676 19.6061 8.92604 19.5369 8.92604C19.4678 8.92604 19.4 8.90676 19.3412 8.87037C19.2824 8.83399 19.235 8.78193 19.2041 8.72005L18.0494 5.95051Z" fill="#ECC800"/>
      <path d="M18.0494 21.0245L15.2797 19.8698C15.2178 19.839 15.1658 19.7915 15.1294 19.7327C15.093 19.6739 15.0737 19.6061 15.0737 19.537C15.0737 19.4679 15.093 19.4001 15.1294 19.3413C15.1658 19.2825 15.2178 19.235 15.2797 19.2042L18.0494 18.0495L19.2041 15.28C19.235 15.2181 19.2824 15.166 19.3412 15.1296C19.4 15.0933 19.4678 15.074 19.5369 15.074C19.6061 15.074 19.6739 15.0933 19.7327 15.1296C19.7915 15.166 19.8389 15.2181 19.8698 15.28L21.0245 18.0495L23.7942 19.2042C23.8561 19.235 23.9081 19.2825 23.9445 19.3413C23.9809 19.4001 24.0002 19.4679 24.0002 19.537C24.0002 19.6061 23.9809 19.6739 23.9445 19.7327C23.9081 19.7915 23.8561 19.839 23.7942 19.8698L21.0245 21.0245L19.8698 23.794C19.8389 23.8559 19.7915 23.908 19.7327 23.9443C19.6739 23.9807 19.6061 24 19.5369 24C19.4678 24 19.4 23.9807 19.3412 23.9443C19.2824 23.908 19.235 23.8559 19.2041 23.794L18.0494 21.0245Z" fill="#ECC800"/>
    </g>
    <defs>
      <clipPath id="clip0">
        <rect width="24" height="24" fill="white"/>
      </clipPath>
    </defs>
  </g>
</svg>
