<svg width="24" height="24" viewBox="0 0 24 24" fill="none" xmlns="http://www.w3.org/2000/svg">
  <g id="special">
    <path d="M16.8754 11.917C16.8754 11.7443 16.8272 11.575 16.7364 11.4281C16.6455 11.2812 16.5155 11.1625 16.361 11.0853L12.2992 9.05476L10.2693 4.99359C9.95437 4.36412 8.92082 4.36412 8.60588 4.99359L6.57559 9.05476L2.51423 11.0853C2.35972 11.1625 2.22977 11.2812 2.13894 11.4281C2.04811 11.575 2 11.7443 2 11.917C2 12.0897 2.04811 12.259 2.13894 12.4059C2.22977 12.5528 2.35972 12.6715 2.51423 12.7487L6.57559 14.7793L8.60588 18.8409C8.68306 18.9954 8.80176 19.1253 8.94867 19.2161C9.09557 19.307 9.26488 19.3551 9.43759 19.3551C9.61031 19.3551 9.77961 19.307 9.92652 19.2161C10.0734 19.1253 10.1921 18.9954 10.2693 18.8409L12.2992 14.7793L16.361 12.7487C16.5155 12.6716 16.6455 12.5529 16.7364 12.406C16.8272 12.2591 16.8754 12.0898 16.8754 11.917ZM11.1917 13.2546C11.0115 13.3445 10.8653 13.4905 10.7752 13.6706L9.43759 16.3458L8.09995 13.6706C8.00986 13.4905 7.86372 13.3445 7.68351 13.2546L5.00822 11.917L7.68351 10.5794C7.86366 10.4896 8.0098 10.3438 8.09995 10.1638L9.43759 7.48824L10.7752 10.1638C10.8654 10.3438 11.0115 10.4896 11.1917 10.5794L13.867 11.917L11.1917 13.2546Z" fill="black"/>
    <path d="M17.0412 6.95876L14.7332 5.99654C14.6816 5.97084 14.6382 5.93127 14.6079 5.88227C14.5776 5.83328 14.5615 5.7768 14.5615 5.71918C14.5615 5.66156 14.5776 5.60509 14.6079 5.55609C14.6382 5.5071 14.6816 5.46753 14.7332 5.44183L17.0412 4.4796L18.0035 2.17166C18.0292 2.12009 18.0688 2.07671 18.1178 2.04639C18.1668 2.01606 18.2233 2 18.2809 2C18.3385 2 18.395 2.01606 18.444 2.04639C18.493 2.07671 18.5325 2.12009 18.5582 2.17166L19.5205 4.4796L21.8286 5.44183C21.8801 5.46753 21.9235 5.5071 21.9538 5.55609C21.9842 5.60509 22.0002 5.66156 22.0002 5.71918C22.0002 5.7768 21.9842 5.83328 21.9538 5.88227C21.9235 5.93127 21.8801 5.97084 21.8286 5.99654L19.5205 6.95876L18.5582 9.2667C18.5325 9.31827 18.493 9.36165 18.444 9.39198C18.395 9.4223 18.3385 9.43837 18.2809 9.43837C18.2233 9.43837 18.1668 9.4223 18.1178 9.39198C18.0688 9.36165 18.0292 9.31827 18.0035 9.2667L17.0412 6.95876Z" fill="#ECC800"/>
    <path d="M17.0412 19.5203L14.7332 18.5581C14.6816 18.5324 14.6382 18.4928 14.6079 18.4438C14.5776 18.3948 14.5615 18.3383 14.5615 18.2807C14.5615 18.2231 14.5776 18.1666 14.6079 18.1176C14.6382 18.0686 14.6816 18.0291 14.7332 18.0034L17.0412 17.0411L18.0035 14.7332C18.0292 14.6816 18.0688 14.6382 18.1178 14.6079C18.1668 14.5776 18.2233 14.5615 18.2809 14.5615C18.3385 14.5615 18.395 14.5776 18.444 14.6079C18.493 14.6382 18.5325 14.6816 18.5582 14.7332L19.5205 17.0411L21.8286 18.0034C21.8801 18.0291 21.9235 18.0686 21.9538 18.1176C21.9842 18.1666 22.0002 18.2231 22.0002 18.2807C22.0002 18.3383 21.9842 18.3948 21.9538 18.4438C21.9235 18.4928 21.8801 18.5324 21.8286 18.5581L19.5205 19.5203L18.5582 21.8282C18.5325 21.8798 18.493 21.9232 18.444 21.9535C18.395 21.9838 18.3385 21.9999 18.2809 21.9999C18.2233 21.9999 18.1668 21.9838 18.1178 21.9535C18.0688 21.9232 18.0292 21.8798 18.0035 21.8282L17.0412 19.5203Z" fill="#ECC800"/>
  </g>
</svg>
