<svg width="263" height="199" viewBox="0 0 263 199" fill="none" xmlns="http://www.w3.org/2000/svg">
<path d="M29.0718 164.899C29.0718 164.225 29.6518 163.649 30.3251 163.649C30.9944 163.649 31.5744 164.225 31.5744 164.899V196.453C31.5744 197.127 30.9944 197.703 30.3251 197.703C29.6518 197.703 29.0718 197.127 29.0718 196.453V164.899Z" fill="#688299"/>
<path d="M41.9211 164.899C41.9211 164.225 42.5011 163.649 43.1745 163.649C43.8438 163.649 44.4238 164.225 44.4238 164.899V195.2H63.2305C63.8571 195.2 64.3851 195.732 64.3851 196.355C64.3851 196.981 63.8571 197.511 63.2305 197.511H43.1745C42.5011 197.511 41.9211 196.935 41.9211 196.261V164.899Z" fill="#688299"/>
<path d="M77.6696 196.743L63.963 165.38C63.8683 165.188 63.8683 165.091 63.8683 164.852C63.8683 164.276 64.3976 163.649 65.1176 163.649C65.7443 163.649 66.175 164.084 66.4176 164.66L79.2603 194.816L92.1483 164.613C92.3909 164.084 92.8216 163.649 93.3976 163.649C94.071 163.649 94.6003 164.225 94.6003 164.805C94.6003 164.997 94.6003 165.091 94.5056 165.287L80.7483 196.743C80.4616 197.412 80.027 197.847 79.2603 197.847H79.1616C78.3936 197.847 77.959 197.412 77.6696 196.743Z" fill="#688299"/>
<path d="M102.268 196.261V165.09C102.268 164.417 102.848 163.841 103.522 163.841H125.262C125.884 163.841 126.412 164.37 126.412 164.997C126.412 165.624 125.884 166.152 125.262 166.152H104.771V179.377H123.095C123.722 179.377 124.251 179.906 124.251 180.533C124.251 181.156 123.722 181.685 123.095 181.685H104.771V195.2H125.5C126.127 195.2 126.655 195.732 126.655 196.354C126.655 196.981 126.127 197.51 125.5 197.51H103.522C102.848 197.51 102.268 196.934 102.268 196.261Z" fill="#688299"/>
<path d="M148.364 181.3C153.992 181.3 158.178 178.464 158.178 173.604V173.511C158.178 168.987 154.618 166.152 148.509 166.152H137.014V181.3H148.364ZM134.512 165.091C134.512 164.416 135.092 163.842 135.765 163.842H148.653C152.789 163.842 156.11 165.142 158.128 167.162C159.717 168.748 160.677 171.008 160.677 173.412V173.511C160.677 179.139 156.494 182.358 150.82 183.13L160.39 195.536C160.629 195.826 160.774 196.116 160.774 196.406C160.774 197.075 160.148 197.702 159.474 197.702C158.993 197.702 158.656 197.412 158.37 197.028L148.026 183.56H137.014V196.452C137.014 197.126 136.434 197.702 135.765 197.702C135.092 197.702 134.512 197.126 134.512 196.452V165.091Z" fill="#688299"/>
<path d="M199.429 194.53V166.826C199.429 165.142 200.729 163.842 202.413 163.842H221.988C223.433 163.842 224.634 165.043 224.634 166.488C224.634 167.976 223.433 169.132 221.988 169.132H205.346V177.886H219.825C221.266 177.886 222.469 179.087 222.469 180.579C222.469 182.02 221.266 183.176 219.825 183.176H205.346V192.219H222.23C223.672 192.219 224.873 193.422 224.873 194.867C224.873 196.355 223.672 197.51 222.23 197.51H202.413C200.729 197.51 199.429 196.21 199.429 194.53Z" fill="#1C76BC"/>
<path d="M251.779 184.14L245.861 170.526L239.948 184.14H251.779ZM229.749 193.664L242.255 165.764C242.928 164.276 244.131 163.36 245.815 163.36H246.104C247.788 163.36 248.939 164.276 249.613 165.764L262.117 193.664C262.36 194.096 262.455 194.53 262.455 194.913C262.455 196.5 261.252 197.749 259.667 197.749C258.272 197.749 257.308 196.934 256.78 195.681L254.039 189.38H237.684L234.848 195.873C234.367 197.076 233.356 197.749 232.107 197.749C230.568 197.749 229.365 196.546 229.365 195.008C229.365 194.577 229.511 194.142 229.749 193.664" fill="#1C76BC"/>
<path d="M5.36267 168.784C6.80667 167.712 8.844 167.176 11.4693 167.176L22.3147 167.271H22.3187C23.0787 167.271 23.6947 166.655 23.6947 165.895C23.6947 165.135 23.0787 164.519 22.3187 164.519H22.3147H11.4693C8.09733 164.519 5.432 165.303 3.47467 166.874C1.516 168.459 0.537333 170.611 0.537333 173.33C0.537333 176.05 1.516 178.202 3.47467 179.787C5.432 181.372 8.09733 182.166 11.4693 182.166C14.2667 182.166 16.4347 182.739 17.9733 183.89C19.5107 185.04 20.2813 186.656 20.2813 188.739C20.2813 190.836 19.5107 192.46 17.9733 193.61C16.4347 194.76 14.2667 195.335 11.4693 195.335H1.328C0.594666 195.335 0 195.93 0 196.664C0 197.398 0.594666 197.992 1.328 197.992L1.32933 197.991V197.992H11.4693C15.0587 197.992 17.872 197.176 19.908 195.544C21.944 193.912 22.9613 191.644 22.9613 188.739C22.9613 185.848 21.944 183.587 19.908 181.955C17.872 180.308 15.0587 179.484 11.4693 179.484C8.844 179.484 6.80667 178.948 5.36267 177.875C3.91733 176.804 3.19467 175.288 3.19467 173.33C3.19467 171.372 3.91733 169.856 5.36267 168.784" fill="#688299"/>
<path d="M179.715 177.71C177.503 177.71 175.806 177.278 174.663 176.429C173.613 175.652 173.125 174.612 173.125 173.154C173.125 171.697 173.613 170.653 174.663 169.876C175.806 169.028 177.503 168.6 179.707 168.596L190.034 168.72V168.71C191.511 168.71 192.709 167.513 192.709 166.036C192.709 164.557 191.511 163.36 190.034 163.36H179.715C176.181 163.36 173.319 164.216 171.201 165.917C169.005 167.697 167.889 170.136 167.889 173.154C167.889 176.174 169.005 178.608 171.201 180.388C173.315 182.101 176.181 182.968 179.715 182.968C182.089 182.968 183.914 183.438 185.15 184.358C186.273 185.196 186.821 186.364 186.821 187.929C186.821 189.506 186.273 190.682 185.15 191.524C183.914 192.44 182.089 192.909 179.715 192.909H169.851C168.405 192.909 167.233 194.082 167.233 195.529C167.233 196.976 168.405 198.149 169.851 198.149C169.865 198.149 169.874 198.142 169.874 198.142L169.886 198.149H179.715C183.453 198.149 186.457 197.262 188.65 195.509C190.93 193.68 192.083 191.129 192.083 187.929C192.083 184.737 190.93 182.198 188.658 180.377C186.469 178.608 183.459 177.71 179.715 177.71Z" fill="#1C76BC"/>
<path d="M141.884 125.643H79.253C82.0023 120.16 87.9983 112.171 99.5983 112.171H162.89C159.393 120.215 151.256 125.643 141.884 125.643ZM153.324 50.4681H121.3C111.752 50.4681 105.21 48.5107 101.858 44.6481C99.485 41.9107 98.6583 37.7427 99.3703 32.7534C99.3863 32.6401 96.6917 32.6561 94.805 33.0667C93.4357 33.3654 92.2277 33.9081 91.0663 34.5694C90.7743 40.5947 92.3957 45.9787 95.7997 49.9041C100.742 55.6027 109.324 58.4894 121.3 58.4894H153.324C172.992 58.4894 186.205 67.8574 186.205 81.7987C186.205 92.8081 178.466 101.725 167.908 103.727C167.736 103.747 167.568 103.777 167.402 103.817C166.098 104.036 164.756 104.149 163.377 104.149H99.5983C80.745 104.149 71.6677 120.183 69.505 128.663L68.229 133.664H141.884C156.112 133.664 168.245 124.323 171.73 111.085C184.846 107.584 194.226 95.9681 194.226 81.7987C194.226 60.2707 173.022 50.4681 153.324 50.4681" fill="#1C76BC"/>
<path d="M120.571 8.02145H183.201C180.452 13.5041 174.456 21.4934 162.856 21.4934H99.5641C103.06 13.4494 111.199 8.02145 120.571 8.02145ZM109.131 83.1961H141.155C150.703 83.1961 157.244 85.1534 160.596 89.0161C162.969 91.7534 163.796 95.9214 163.084 100.911C163.068 101.024 165.763 101.008 167.649 100.597C169.019 100.299 170.227 99.7561 171.388 99.0948C171.68 93.0694 170.059 87.6854 166.655 83.7601C161.712 78.0614 153.131 75.1748 141.155 75.1748H109.131C89.4628 75.1748 76.2495 65.8068 76.2495 51.8654C76.2495 40.8561 83.9881 31.9388 94.5468 29.9374C94.7188 29.9174 94.8868 29.8868 95.0521 29.8468C96.3561 29.6281 97.6988 29.5148 99.0775 29.5148H162.856C181.709 29.5148 190.787 13.4814 192.949 5.00145L194.225 0.000117916H120.571C106.343 0.000117916 94.2095 9.34145 90.7241 22.5788C77.6081 26.0801 68.2281 37.6961 68.2281 51.8654C68.2281 73.3934 89.4321 83.1961 109.131 83.1961" fill="#688299"/>
</svg>
