<svg width="15" height="13" viewBox="0 0 15 13" fill="none" xmlns="http://www.w3.org/2000/svg">
<g clip-path="url(#clip0)">
<path d="M11.6705 5.31913L6.70451 0.330979C6.49353 0.119058 6.20738 1.56714e-06 5.90902 0H1.125C0.503672 0 0 0.50592 0 1.13002V5.93539C1.56018e-06 6.23509 0.118529 6.52252 0.329508 6.73444L5.29549 11.7226C5.7348 12.1639 6.44712 12.1639 6.88648 11.7226L11.6705 6.91722C12.1098 6.47592 12.1098 5.76043 11.6705 5.31913ZM2.625 3.76674C2.00367 3.76674 1.5 3.26082 1.5 2.63672C1.5 2.01262 2.00367 1.5067 2.625 1.5067C3.24633 1.5067 3.75 2.01262 3.75 2.63672C3.75 3.26082 3.24633 3.76674 2.625 3.76674ZM14.6705 6.91722L9.88648 11.7226C9.44714 12.1639 8.73483 12.1639 8.29549 11.7226L8.28705 11.7141L12.3666 7.6164C12.765 7.2162 12.9844 6.68413 12.9844 6.11818C12.9844 5.55222 12.765 5.02015 12.3666 4.61996L7.76712 0H8.90902C9.20738 1.56714e-06 9.49353 0.119058 9.70451 0.330979L14.6705 5.31913C15.1098 5.76043 15.1098 6.47592 14.6705 6.91722Z" fill="black"/>
</g>
<defs>
<clipPath id="clip0">
<rect width="15" height="12.0536" fill="white"/>
</clipPath>
</defs>
</svg>
