<svg width="24" height="24" viewBox="0 0 24 24" fill="none" xmlns="http://www.w3.org/2000/svg">
<rect x="22" y="21.2595" width="20" height="1.72839" rx="0.864197" transform="rotate(-180 22 21.2595)" fill="black"/>
<rect x="22" y="3.72827" width="20" height="1.72839" rx="0.864197" transform="rotate(-180 22 3.72827)" fill="black"/>
<rect x="2.65332" y="21.2595" width="19.2593" height="1.52174" rx="0.76087" transform="rotate(-90 2.65332 21.2595)" fill="black"/>
<rect x="19.8037" y="21.2595" width="19.2593" height="1.52174" rx="0.76087" transform="rotate(-90 19.8037 21.2595)" fill="black"/>
<circle cx="12.0004" cy="11.6298" r="7.77778" fill="#0674BB"/>
<rect x="11.8623" y="3.2644" width="11.1111" height="0.74074" rx="0.37037" transform="rotate(135 11.8623 3.2644)" fill="black"/>
<rect width="11.1111" height="0.74074" rx="0.37037" transform="matrix(0.707107 0.707107 0.707107 -0.707107 12 3.2644)" fill="black"/>
<rect width="11.1111" height="0.74074" rx="0.37037" transform="matrix(-0.707107 -0.707107 -0.707107 0.707107 11.8623 19.8567)" fill="black"/>
<rect x="12" y="19.8567" width="11.1111" height="0.74074" rx="0.37037" transform="rotate(-45 12 19.8567)" fill="black"/>
</svg>
