<svg viewBox="0 0 24 24" fill="none" xmlns="http://www.w3.org/2000/svg">
  <g id="TK">
    <rect x="24" y="23.1113" width="24" height="2.07407" rx="1.03704" transform="rotate(-180 24 23.1113)" fill="black"/>
    <rect x="24" y="2.07397" width="24" height="2.07407" rx="1.03704" transform="rotate(-180 24 2.07397)" fill="black"/>
    <rect x="0.783691" y="23.1113" width="23.1111" height="1.82609" rx="0.913044" transform="rotate(-90 0.783691 23.1113)" fill="black"/>
    <rect x="21.3647" y="23.1113" width="23.1111" height="1.82609" rx="0.913044" transform="rotate(-90 21.3647 23.1113)" fill="black"/>
    <circle cx="12.0003" cy="11.5557" r="9.33333" fill="#0674BB"/>
    <rect x="11.835" y="1.51733" width="13.3333" height="0.888888" rx="0.444444" transform="rotate(135 11.835 1.51733)" fill="black"/>
    <rect width="13.3333" height="0.888888" rx="0.444444" transform="matrix(0.707107 0.707107 0.707107 -0.707107 12 1.51733)" fill="black"/>
    <rect width="13.3333" height="0.888888" rx="0.444444" transform="matrix(-0.707107 -0.707107 -0.707107 0.707107 11.835 21.428)" fill="black"/>
    <rect x="12" y="21.428" width="13.3333" height="0.888888" rx="0.444444" transform="rotate(-45 12 21.428)" fill="black"/>
  </g>
</svg>
