<svg width="52" height="59" viewBox="0 0 52 59" fill="none" xmlns="http://www.w3.org/2000/svg">
<path d="M36.8749 0H14.75C7.37499 0 0 4.95288 0 11.0625V40.5624C0 45.9979 5.8373 50.5176 12.3185 51.4489L5.94781 57.8197C5.51223 58.2552 5.82071 59 6.43675 59H9.40956C9.77635 59 10.128 58.8543 10.3873 58.595L17.3574 51.6249H34.2674L41.2375 58.5948C41.4968 58.8541 41.8485 58.9998 42.2152 58.9999H45.188C45.804 58.9999 46.1124 58.2551 45.677 57.8195L39.3064 51.4488C45.7876 50.5176 51.6249 45.9979 51.6249 40.5624V11.0625C51.6249 4.95288 44.3651 0 36.8749 0ZM3.68749 14.75H47.9374V25.8125H3.68749V14.75ZM14.75 3.68749H36.8749C43.5858 3.68749 47.9374 8.05268 47.9374 11.0625H3.68749C3.68749 7.34053 9.16711 3.68749 14.75 3.68749ZM36.8749 47.9374H14.75C9.16711 47.9374 3.68749 44.2844 3.68749 40.5624V29.4999H47.9374V40.5624C47.9374 44.2844 42.4578 47.9374 36.8749 47.9374Z" fill="black"/>
<path fill-rule="evenodd" clip-rule="evenodd" d="M25.8125 33.1875C22.7576 33.1875 20.2812 35.6639 20.2812 38.7187C20.2812 41.7736 22.7576 44.25 25.8125 44.25C28.8673 44.25 31.3437 41.7736 31.3437 38.7187C31.3437 35.6639 28.8673 33.1875 25.8125 33.1875ZM25.8125 40.9081C27.0216 40.9081 28.0019 39.9279 28.0019 38.7187C28.0019 37.5095 27.0216 36.5292 25.8125 36.5292C24.6033 36.5292 23.623 37.5095 23.623 38.7187C23.623 39.9279 24.6033 40.9081 25.8125 40.9081Z" fill="#ECC800"/>
<rect x="3.6875" y="14.75" width="44.2499" height="11.0625" fill="#0674BB"/>
</svg>
