<svg width="103" height="103" viewBox="0 0 103 103" fill="none" xmlns="http://www.w3.org/2000/svg">
<g clip-path="url(#clip0)">
<path d="M51.4905 0C41.3018 6.76826e-07 31.3424 2.99186 22.8714 8.59718C14.4002 14.2025 7.79817 22.1695 3.9001 31.4905C0.00202358 40.8115 -1.01693 51.0677 0.972101 60.9625C2.96113 70.8569 7.86879 79.9451 15.0744 87.0775C22.28 94.2099 31.4599 99.066 41.4531 101.032C51.4461 102.998 61.8034 101.985 71.2153 98.122C80.6269 94.2585 88.6706 87.7183 94.3282 79.328C99.9858 70.938 103.004 61.0748 103 50.9863C102.985 37.4653 97.5524 24.5024 87.8955 14.9433C78.2383 5.38423 65.1451 0.00989016 51.4905 0ZM81.3206 32.4337C81.3363 32.7769 81.2295 33.1142 81.0187 33.3868C79.6768 35.2508 78.0687 36.9123 76.2452 38.3192C75.962 38.5246 75.5091 38.7489 75.5091 39.1223C75.5091 48.9498 72.9811 58.7583 65.7547 65.8765C56.5471 74.9193 42.7358 77.3855 30.4715 74.0412C28.1036 73.3823 25.8138 72.474 23.6413 71.332C22.9244 70.9396 22.2074 70.5473 21.5093 70.0802C21.3395 69.9496 21.2074 69.8189 21.3583 69.7255C21.5093 69.6319 21.6225 69.7255 22.1697 69.7255C25.6262 70.0291 29.1083 69.5894 32.3772 68.4361C34.1697 67.8197 38.0377 66.5679 39.0941 64.9051H39.1884C38.7355 64.7931 38.283 64.7931 37.8488 64.7184C34.5093 63.7654 30.0564 62.1212 27.9999 56.5538C27.8678 56.2361 27.9999 56.068 28.3395 56.1241C29.8955 56.3416 31.4775 56.2972 33.0187 55.9934C32.4751 55.8855 31.9439 55.7227 31.4338 55.5077C29.3541 54.6711 27.5355 53.3035 26.1633 51.5444C24.7911 49.785 23.9144 47.6974 23.6225 45.4935C23.567 45.0281 23.567 44.5575 23.6225 44.092C23.6225 43.756 23.7923 43.6623 24.0753 43.8307C25.5597 44.5874 27.1835 45.0387 28.8489 45.1571C28.3206 44.7461 27.8112 44.2977 27.3206 43.8307C23.698 40.4304 22.2829 33.4802 25.1885 29.1644C25.4338 28.8094 25.5848 28.8094 25.8678 29.1644C32.5282 36.6377 40.7357 40.1874 50.6224 41.6445C50.8866 41.6445 50.9056 41.6445 50.8677 41.3458C50.5368 39.6148 50.5625 37.8354 50.9433 36.1144C51.3862 34.3441 52.217 32.6922 53.3773 31.2755C54.5116 29.9345 55.9031 28.8296 57.4716 28.0247C59.0475 27.2154 60.7756 26.7383 62.5469 26.6234C64.3684 26.4978 66.1944 26.7854 67.8865 27.4642C69.1537 27.9842 70.3314 28.6964 71.3772 29.5754C71.6035 29.775 71.8117 29.9939 71.9997 30.2293C72.0657 30.2933 72.1475 30.339 72.2369 30.362C72.3264 30.3849 72.4201 30.3843 72.5092 30.3601C75.0131 29.7493 77.4288 28.8265 79.698 27.6137C79.7482 27.5903 79.8029 27.5782 79.8583 27.5782C79.9137 27.5782 79.9684 27.5903 80.0186 27.6137C80.1319 27.6137 80.0186 27.8191 80.0186 27.9312C79.5956 29.2942 78.91 30.5631 77.9998 31.6679C77.4339 32.3777 75.981 34.1152 75.0186 34.2836C77.1327 33.9195 79.1885 33.2787 81.132 32.3777C81.3772 32.2657 81.3582 32.2284 81.3582 32.3777L81.3206 32.4337Z" fill="white"/>
</g>
<defs>
<clipPath id="clip0">
<rect width="103" height="103" fill="white"/>
</clipPath>
</defs>
</svg>
