<svg width="24" height="24" viewBox="0 0 24 24" fill="none" xmlns="http://www.w3.org/2000/svg">
<path fill-rule="evenodd" clip-rule="evenodd" d="M2.4 14.1515C1.69927 13.7275 1.08769 13.1709 0.6 12.5166V16.7275C0.27 16.7275 0 16.9206 0 17.1566V17.5857C0 17.8217 0.27 18.0148 0.6 18.0148H23.4C23.73 18.0148 24 17.8217 24 17.5857V17.1566C24 16.9206 23.73 16.7275 23.4 16.7275V7.2873C23.73 7.2873 24 7.09421 24 6.8582V6.4291C24 6.1931 23.73 6 23.4 6H11.3413C11.5386 6.40664 11.6935 6.83765 11.8002 7.2873H21.6V16.7275H2.4V14.1515ZM9 14.1044C9.70558 13.6636 10.3177 13.0872 10.8 12.4116V15.2257C10.8 15.3437 10.665 15.4402 10.5 15.4402H9.3C9.135 15.4402 9 15.3437 9 15.2257V14.1044ZM4.8 15.0006V15.2257C4.8 15.3437 4.935 15.4402 5.1 15.4402H6.3C6.465 15.4402 6.6 15.3437 6.6 15.2257V14.9897C6.29387 15.0353 5.98055 15.059 5.66171 15.059C5.3694 15.059 5.08174 15.0391 4.8 15.0006ZM14.7 15.4402H13.5C13.335 15.4402 13.2 15.3437 13.2 15.2257V8.78916C13.2 8.67115 13.335 8.57461 13.5 8.57461H14.7C14.865 8.57461 15 8.67115 15 8.78916V15.2257C15 15.3437 14.865 15.4402 14.7 15.4402ZM18.9 15.4402H17.7C17.535 15.4402 17.4 15.3437 17.4 15.2257V8.78916C17.4 8.67115 17.535 8.57461 17.7 8.57461H18.9C19.065 8.57461 19.2 8.67115 19.2 8.78916V15.2257C19.2 15.3437 19.065 15.4402 18.9 15.4402Z" fill="black"/>
<path d="M4.06949 10.9045H3.12943V6.97649L2.29757 7.36562L2 6.63875L3.33908 6.00732H4.06949V10.9045Z" fill="#0674BB"/>
<path d="M6.10485 7.87223C5.79826 7.87223 5.64497 7.98236 5.64497 8.20263C5.64497 8.3201 5.69682 8.42044 5.80052 8.50365C5.90422 8.58686 6.02821 8.66029 6.17248 8.72392C6.32127 8.78265 6.4678 8.85118 6.61208 8.9295C6.76087 9.00292 6.88711 9.1106 6.99081 9.25255C7.09451 9.3945 7.14636 9.56826 7.14636 9.77384C7.14636 10.141 7.03139 10.4395 6.80145 10.6696C6.5715 10.8947 6.23335 11.0073 5.78699 11.0073C5.5841 11.0073 5.36994 10.9829 5.1445 10.9339C4.92357 10.885 4.76126 10.8287 4.65756 10.765L4.8875 10.0308C5.23918 10.1581 5.55479 10.2217 5.83433 10.2217C6.11838 10.2217 6.2604 10.1018 6.2604 9.86195C6.2604 9.75916 6.20855 9.66616 6.10485 9.58295C6.00115 9.49974 5.87491 9.42387 5.72612 9.35534C5.58184 9.28192 5.43531 9.2036 5.28652 9.12039C5.14225 9.03718 5.01826 8.91971 4.91456 8.76797C4.81086 8.61623 4.75901 8.44002 4.75901 8.23934C4.75901 7.86244 4.87398 7.57365 5.10392 7.37296C5.33387 7.17228 5.663 7.07194 6.09133 7.07194C6.51965 7.07194 6.85555 7.1478 7.09902 7.29954L6.87584 8.02641C6.56474 7.92362 6.30774 7.87223 6.10485 7.87223Z" fill="#0674BB"/>
<path d="M8.04548 9.70042V7.85754L7.4368 7.81349V7.21144L8.06577 7.1527V6.29367L9.01259 6.20556V7.14536H10L9.9459 7.85754H9.00583V9.79587C9.00583 9.93782 9.02612 10.0406 9.0667 10.1042C9.10728 10.163 9.19294 10.1923 9.32369 10.1923C9.45445 10.1923 9.60098 10.1703 9.76329 10.1263L9.90532 10.8531C9.68439 10.9559 9.45896 11.0073 9.22901 11.0073C9.00358 11.0073 8.83225 10.9926 8.71502 10.9633C8.6023 10.9339 8.50762 10.8996 8.43097 10.8605C8.35883 10.8213 8.29571 10.765 8.24161 10.6916C8.19201 10.6133 8.15369 10.5448 8.12664 10.486C8.10409 10.4273 8.08606 10.3441 8.07253 10.2364C8.0545 10.0896 8.04548 9.9109 8.04548 9.70042Z" fill="#0674BB"/>
</svg>
