<svg width="129" height="106" viewBox="0 0 129 106" fill="none" xmlns="http://www.w3.org/2000/svg">
<path d="M87.2978 32.0768C88.7989 32.0768 90.2531 32.1477 91.7073 32.337C87.8138 13.7911 68.0885 0 45.666 0C20.5227 0 0 17.2212 0 39.1261C0 51.7581 6.87218 62.1901 18.2711 70.2566L13.7444 84.1187L29.6935 76.0522C35.4164 77.1877 39.9665 78.3468 45.6895 78.3468C47.1436 78.3468 48.5275 78.2758 49.9816 78.1576C49.0435 75.106 48.5275 71.8652 48.5275 68.5061C48.504 48.4227 65.6258 32.0768 87.2978 32.0768V32.0768ZM62.7878 19.563C66.1887 19.563 68.4638 21.8576 68.4638 25.335C68.4638 28.765 66.1887 31.0596 62.7878 31.0596C59.3165 31.0596 55.9156 28.765 55.9156 25.335C55.9391 21.8576 59.34 19.563 62.7878 19.563ZM30.7958 31.0596C27.3949 31.0596 23.9236 28.765 23.9236 25.335C23.9236 21.834 27.3949 19.563 30.7958 19.563C34.2671 19.563 36.5187 21.8576 36.5187 25.335C36.5187 28.7887 34.2671 31.0596 30.7958 31.0596ZM129 67.9857C129 49.5581 110.729 34.5606 90.2062 34.5606C68.4638 34.5606 51.4124 49.5581 51.4124 67.9857C51.4124 86.4133 68.4873 101.411 90.2062 101.411C94.7329 101.411 99.33 100.204 103.951 99.069L116.475 106L113.004 94.5035C122.198 87.5488 129 78.3468 129 67.9857ZM77.6111 62.1901C75.336 62.1901 73.0844 59.8956 73.0844 57.5537C73.0844 55.2591 75.3595 52.9882 77.6111 52.9882C81.0824 52.9882 83.334 55.2827 83.334 57.5537C83.334 59.9192 81.0589 62.1901 77.6111 62.1901ZM102.731 62.1901C100.456 62.1901 98.2042 59.8956 98.2042 57.5537C98.2042 55.2591 100.479 52.9882 102.731 52.9882C106.132 52.9882 108.454 55.2827 108.454 57.5537C108.477 59.9192 106.132 62.1901 102.731 62.1901Z" fill="white"/>
</svg>
