<svg width="33" height="33" viewBox="0 0 33 33" fill="none" xmlns="http://www.w3.org/2000/svg">
<path fill-rule="evenodd" clip-rule="evenodd" d="M16.5 33C25.6127 33 33 25.6127 33 16.5C33 7.3873 25.6127 0 16.5 0C7.3873 0 0 7.3873 0 16.5C0 25.6127 7.3873 33 16.5 33ZM20.9649 13.1015C20.7263 13.0704 20.4876 13.0587 20.2413 13.0587C16.6848 13.0587 13.8749 15.7472 13.8788 19.0503C13.8788 19.6028 13.9635 20.1358 14.1174 20.6377C13.8788 20.6572 13.6517 20.6688 13.4131 20.6688C12.6233 20.6688 11.9696 20.534 11.2232 20.3801C11.082 20.351 10.9374 20.3211 10.788 20.2914L8.17064 21.6181L8.91351 19.3382C7.04287 18.0115 5.91509 16.2957 5.91509 14.2181C5.91509 10.6154 9.28302 7.78302 13.4092 7.78302C17.0889 7.78302 20.326 10.0513 20.9649 13.1015ZM17.1505 11.9499C17.1505 11.378 16.7771 11.0006 16.219 11.0006C15.6532 11.0006 15.0951 11.378 15.0912 11.9499C15.0912 12.514 15.6494 12.8914 16.219 12.8914C16.7771 12.8914 17.1505 12.514 17.1505 11.9499ZM9.84113 11.9499C9.84113 12.514 10.4108 12.8914 10.9689 12.8914C11.5386 12.8914 11.9081 12.5179 11.9081 11.9499C11.9081 11.378 11.5386 11.0006 10.9689 11.0006C10.4108 11.0006 9.84113 11.3741 9.84113 11.9499ZM20.7186 13.4672C24.0865 13.4672 27.0849 15.9339 27.0849 18.9647C27.0849 20.6688 25.9687 22.1823 24.4598 23.3261L25.0295 25.217L22.9741 24.077C22.9281 24.0883 22.8822 24.0997 22.8362 24.1111C22.1244 24.2871 21.4164 24.4622 20.7186 24.4622C17.1543 24.4622 14.3522 21.9955 14.3522 18.9647C14.3522 15.9339 17.1505 13.4672 20.7186 13.4672ZM17.9088 17.2489C17.9088 17.6341 18.2783 18.0115 18.6516 18.0115C19.2174 18.0115 19.5908 17.638 19.5908 17.2489C19.5908 16.8754 19.2213 16.4981 18.6516 16.4981C18.2821 16.4981 17.9088 16.8716 17.9088 17.2489ZM22.0311 17.2489C22.0311 17.6341 22.4006 18.0115 22.774 18.0115C23.3321 18.0115 23.717 17.638 23.7131 17.2489C23.7131 16.8754 23.3321 16.4981 22.774 16.4981C22.4045 16.4981 22.0311 16.8716 22.0311 17.2489Z" fill="white"/>
</svg>
