<svg width="60" height="60" viewBox="0 0 60 60" fill="none" xmlns="http://www.w3.org/2000/svg">
<g clip-path="url(#clip0)">
<path d="M59.344 43.1901L53.7593 41.157C53.2448 40.9711 52.677 41.2364 52.4911 41.7521L52.1514 42.6818L45.6816 40.3227C45.5192 40.262 45.3432 40.2471 45.1721 40.2781L31.7105 42.6558C30.4907 42.8727 29.4419 43.6475 28.8754 44.7496L22.7006 42.4971C21.7138 42.1339 20.6229 42.1822 19.6721 42.631C18.4647 43.195 17.6204 44.3256 17.4233 45.6434C17.1766 47.5512 18.306 49.3698 20.127 49.9921L40.4663 57.3967C40.5742 57.4364 40.6894 57.4574 40.806 57.4574C40.9138 57.4574 41.0204 57.4401 41.1233 57.4054L46.8047 55.4876L47.4097 55.707L47.07 56.638C46.8841 57.1525 47.1494 57.7215 47.6651 57.9074L53.251 59.9405C53.3589 59.9802 53.4729 60.0012 53.5882 60.0012C54.0047 60.0012 54.3766 59.7409 54.5192 59.3492L59.9403 44.4546C60.1213 43.9401 59.856 43.376 59.344 43.1901ZM46.4985 53.5017L40.8171 55.4194L20.8014 48.1339C19.8754 47.8252 19.2853 46.9178 19.3783 45.9471C19.4626 45.3546 19.8085 44.8327 20.3204 44.524C20.8337 44.2165 21.4572 44.157 22.0188 44.3616L28.4465 46.7008C28.4502 46.8831 28.4638 47.0665 28.4911 47.2463C28.8791 49.3946 30.927 50.8289 33.0779 50.4607L44.2299 48.4946L43.8853 46.5434L32.7382 48.5095C31.6646 48.6917 30.6432 47.9802 30.4436 46.9091C30.4027 46.6835 30.4039 46.4504 30.4485 46.226C30.456 46.1926 30.4622 46.1603 30.4659 46.1269C30.4795 46.0426 30.5018 45.9595 30.5341 45.8802C30.777 45.2157 31.356 44.7298 32.0527 44.6046L45.2514 42.2765L51.4721 44.5401L48.0841 53.8512L47.1531 53.514C46.9436 53.4359 46.7118 53.431 46.4985 53.5017ZM52.9907 57.7426L49.2667 56.3876L54.0097 43.355L57.7337 44.7099L52.9907 57.7426Z" fill="#60859E"/>
<path d="M23.2664 15.9793C23.5862 17.1496 24.1763 18.2293 24.9883 19.1306C24.9734 19.2099 24.9622 19.2892 24.9573 19.3711V24.7661C24.9573 26.4074 26.2874 27.7376 27.9287 27.7376V37.6438C27.9263 38.0207 28.1395 38.3665 28.4767 38.5351L30.4577 39.5256C30.7366 39.6645 31.0651 39.6645 31.3428 39.5256L33.3238 38.5351C33.661 38.3665 33.8742 38.0207 33.8717 37.6438V27.7376C35.5131 27.7376 36.8432 26.4074 36.8432 24.7661V19.3711C36.8383 19.2843 36.8271 19.1988 36.8097 19.1132C37.4717 18.3855 37.9874 17.5364 38.3283 16.614C39.7911 16.8595 41.2552 16.1876 42.0238 14.9194C42.9659 13.3611 42.7081 11.3591 41.4015 10.0909L33.3399 2.03057C32.0445 0.726438 30.2792 -0.00496701 28.4395 -8.32852e-06H18.0238C17.8899 -8.32852e-06 17.7573 0.0272644 17.6333 0.0805702L10.8907 2.97148H10.0986V0.990488C10.0986 0.443793 9.65478 -8.32852e-06 9.10809 -8.32852e-06H1.18288C0.636185 -8.32852e-06 0.192383 0.443793 0.192383 0.990488V16.8397C0.192383 17.3864 0.636185 17.8302 1.18288 17.8302H9.10809C9.65478 17.8302 10.0986 17.3864 10.0986 16.8397V14.8587H10.2436C10.9527 17.2364 14.1387 18.8207 17.0333 18.8207C19.4345 18.8702 21.7292 17.8252 23.2664 15.9793ZM8.11759 15.8492H2.17337V1.98098H8.11759V15.8492ZM31.892 37.0302L30.9015 37.526L29.911 37.0302V27.7364H31.892V37.0302ZM34.8635 24.7649C34.8635 25.3116 34.4197 25.7554 33.873 25.7554H27.93C27.3833 25.7554 26.9395 25.3116 26.9395 24.7649V20.7211C27.6052 21.1091 28.3254 21.3967 29.0754 21.5727C29.4176 22.4058 30.2767 22.9066 31.1692 22.7926C32.063 22.6797 32.7697 21.9818 32.8949 21.0892C33.0188 20.1979 32.5292 19.3326 31.7011 18.9793C30.8717 18.6273 29.9097 18.8727 29.3531 19.5806C28.794 19.4343 28.2597 19.2062 27.7676 18.9037C28.7221 18.3248 29.792 17.9578 30.9015 17.8289C32.3234 18.0285 33.6796 18.5554 34.8635 19.3686V24.7649ZM35.6011 17.5066C34.1854 16.5954 32.575 16.0289 30.9015 15.8492C29.2304 16.0277 27.6226 16.593 26.2081 17.5029C25.6044 16.7343 25.204 15.8244 25.0453 14.8587H29.9097C31.3614 14.8735 32.6978 14.0727 33.3709 12.7872L36.1453 15.5603C36.2556 15.6632 36.3734 15.7599 36.4961 15.8492C36.2916 16.4479 35.9903 17.0083 35.6011 17.5066ZM33.8259 10.4405C33.7329 9.62974 33.3895 8.86859 32.844 8.26115C35.0841 9.03966 36.6486 11.0752 36.8221 13.4405L33.8259 10.4405ZM21.9858 13.8682C21.9858 15.3682 19.5325 16.8397 17.0333 16.8397C14.5341 16.8397 12.0808 15.3682 12.0808 13.8682C12.0808 13.3215 11.637 12.8777 11.0903 12.8777H10.0998V4.95247H11.0903C11.2242 4.95247 11.3568 4.9252 11.4808 4.87189L18.2221 1.98098H28.4358C29.7511 1.97602 31.0143 2.49793 31.9428 3.4314L40.0031 11.4917C40.6552 12.1004 40.8015 13.0773 40.3564 13.8508C40.0254 14.3752 39.4465 14.6888 38.8279 14.6814C38.8118 14.6814 38.7969 14.6814 38.7808 14.6814C38.8106 14.4124 38.8267 14.1409 38.8279 13.8694C38.823 9.49462 35.2775 5.94917 30.9027 5.94421C29.5713 5.94669 28.2622 6.2876 27.0994 6.9347H19.0155V8.91569H29.9122C31.0068 8.91569 31.8932 9.8033 31.8932 10.8967C31.8932 11.9901 31.0056 12.8777 29.9122 12.8777H22.9775C22.4296 12.8777 21.9858 13.3215 21.9858 13.8682Z" fill="#60859E"/>
</g>
<defs>
<clipPath id="clip0">
<rect width="60" height="60" fill="white"/>
</clipPath>
</defs>
</svg>
