<svg width="60" height="62" viewBox="0 0 60 62" fill="none" xmlns="http://www.w3.org/2000/svg">
<path d="M59.1211 12.5161C59.6063 12.5161 60 12.1098 60 11.6092V7.2261C60 7.13783 59.9871 7.04956 59.9625 6.96492C59.9332 6.86577 59.6543 5.95771 58.8387 4.77033C58.091 3.68211 56.7211 2.1332 54.4371 0.932526C54.1863 0.80073 53.8898 0.80073 53.6391 0.932526C51.1617 2.23598 49.7355 3.93845 48.9539 5.202C48.1723 3.93724 46.7461 2.23477 44.2688 0.932526C44.018 0.80073 43.7215 0.80073 43.4707 0.932526C40.9934 2.23598 39.5672 3.93724 38.7867 5.202C38.0063 3.93724 36.5801 2.23477 34.1016 0.932526C33.8508 0.80073 33.5543 0.80073 33.3035 0.932526C30.8262 2.23598 29.4 3.93724 28.6184 5.202C27.8379 3.93724 26.4117 2.23477 23.9344 0.932526C23.6836 0.80073 23.3871 0.80073 23.1363 0.932526C18.7395 3.2444 17.6531 6.81378 17.6086 6.96492C17.584 7.04956 17.5711 7.13783 17.5711 7.2273V25.6292H0.878906C0.39375 25.6292 0 26.0355 0 26.536V31.7305C0 32.2311 0.39375 32.6374 0.878906 32.6374C1.36406 32.6374 1.75781 32.2311 1.75781 31.7305V27.4429H17.5711V51.8228C17.5711 56.3208 14.0238 59.9808 9.66445 59.9808C5.30508 59.9808 1.75781 56.3196 1.75781 51.8216V35.3567C1.75781 34.8561 1.36406 34.4499 0.878906 34.4499C0.39375 34.4499 0 34.8561 0 35.3567V51.8216C0 57.3195 4.33594 61.7933 9.66445 61.7933H50.3355C55.6641 61.7933 60 57.3195 60 51.8216V15.2366C60 14.7361 59.6063 14.3298 59.1211 14.3298C58.6359 14.3298 58.2422 14.7361 58.2422 15.2366V51.8216C58.2422 56.3196 54.6949 59.9796 50.3355 59.9796H15.2121C17.7 58.1732 19.3289 55.1914 19.3289 51.8216V7.37845C19.527 6.83071 20.5195 4.50191 23.5348 2.768C26.8957 4.70141 27.743 7.37603 27.777 7.48848C27.8883 7.86936 28.2281 8.12811 28.6148 8.13053C29.0039 8.13537 29.3438 7.87299 29.4586 7.49211C29.4938 7.37482 30.3398 4.7002 33.702 2.76679C37.0641 4.7002 37.9102 7.37361 37.9441 7.48727C38.0555 7.86815 38.3953 8.12811 38.7809 8.13053H38.7855C39.1699 8.13053 39.5098 7.87057 39.6246 7.49211C39.6598 7.37482 40.5059 4.7002 43.868 2.76679C47.2301 4.7002 48.0773 7.37482 48.1113 7.48727C48.2227 7.86815 48.5625 8.12811 48.9492 8.12932C49.3336 8.12811 49.6781 7.87178 49.793 7.4909C49.8281 7.37361 50.6742 4.69899 54.0363 2.76558C55.7625 3.7607 56.8137 4.95896 57.4031 5.81624C57.907 6.54898 58.1543 7.14387 58.241 7.37845V11.6068C58.2422 12.1098 58.6359 12.5161 59.1211 12.5161Z" fill="#60859E"/>
<path d="M35.7986 21.6283C35.3709 21.3901 34.8377 21.5557 34.608 21.9959C34.3783 22.4372 34.5377 22.9874 34.9654 23.2243C36.1138 23.8628 36.8955 24.0514 37.908 24.0986V24.8047C37.908 25.3053 38.3017 25.7115 38.7869 25.7115C39.272 25.7115 39.6658 25.3053 39.6658 24.8047V24.0369C41.7365 23.685 42.9974 22.1482 43.2025 20.6344C43.438 18.8993 42.3564 17.4084 40.4474 16.8353C40.1908 16.7579 39.9283 16.6781 39.6658 16.5934V13.18C40.4193 13.3179 40.8681 13.6407 40.9056 13.6685C41.2912 13.966 41.8384 13.8874 42.1302 13.4896C42.4244 13.0905 42.3482 12.5222 41.9615 12.2188C41.9111 12.1789 41.0556 11.5247 39.6646 11.3494V10.7327C39.6646 10.2321 39.2709 9.82587 38.7857 9.82587C38.3005 9.82587 37.9068 10.2321 37.9068 10.7327V11.4062C37.7767 11.4304 37.6455 11.4582 37.5119 11.4921C36.1502 11.8403 35.133 12.914 34.9209 14.2283C34.7404 15.3432 35.1822 16.4036 36.0728 16.9973C36.5392 17.308 37.1181 17.5934 37.9068 17.8932V22.2836C37.1498 22.2437 36.6423 22.0974 35.7986 21.6283ZM37.0267 15.475C36.599 15.1896 36.6248 14.718 36.6552 14.5282C36.7314 14.0566 37.1005 13.4799 37.908 13.2622V15.9441C37.5728 15.7954 37.2728 15.6394 37.0267 15.475ZM39.9541 18.5764C41.0228 18.898 41.5724 19.5558 41.4599 20.3829C41.3345 21.3115 40.5458 21.9233 39.6646 22.1712V18.4869C39.7595 18.5172 39.8556 18.5462 39.9541 18.5764Z" fill="#60859E"/>
<path d="M26.8791 30.4066H23.9775C23.4924 30.4066 23.0986 30.8129 23.0986 31.3135C23.0986 31.8141 23.4924 32.2203 23.9775 32.2203H26.8791C27.3642 32.2203 27.758 31.8141 27.758 31.3135C27.758 30.8129 27.3642 30.4066 26.8791 30.4066Z" fill="#60859E"/>
<path d="M53.7573 30.4066H30.6831C30.1979 30.4066 29.8042 30.8129 29.8042 31.3135C29.8042 31.8141 30.1979 32.2203 30.6831 32.2203H53.7573C54.2425 32.2203 54.6362 31.8141 54.6362 31.3135C54.6362 30.8129 54.2425 30.4066 53.7573 30.4066Z" fill="#60859E"/>
<path d="M26.8791 35.6263H23.9775C23.4924 35.6263 23.0986 36.0326 23.0986 36.5332C23.0986 37.0338 23.4924 37.4401 23.9775 37.4401H26.8791C27.3642 37.4401 27.758 37.0338 27.758 36.5332C27.758 36.0326 27.3642 35.6263 26.8791 35.6263Z" fill="#60859E"/>
<path d="M53.7573 35.6263H30.6831C30.1979 35.6263 29.8042 36.0326 29.8042 36.5332C29.8042 37.0338 30.1979 37.4401 30.6831 37.4401H53.7573C54.2425 37.4401 54.6362 37.0338 54.6362 36.5332C54.6362 36.0326 54.2425 35.6263 53.7573 35.6263Z" fill="#60859E"/>
<path d="M26.8791 46.4772H23.9775C23.4924 46.4772 23.0986 46.8834 23.0986 47.384C23.0986 47.8846 23.4924 48.2909 23.9775 48.2909H26.8791C27.3642 48.2909 27.758 47.8846 27.758 47.384C27.758 46.8834 27.3642 46.4772 26.8791 46.4772Z" fill="#60859E"/>
<path d="M53.7573 46.4772H30.6831C30.1979 46.4772 29.8042 46.8834 29.8042 47.384C29.8042 47.8846 30.1979 48.2909 30.6831 48.2909H53.7573C54.2425 48.2909 54.6362 47.8846 54.6362 47.384C54.6362 46.8834 54.2425 46.4772 53.7573 46.4772Z" fill="#60859E"/>
<path d="M26.8791 51.5953H23.9775C23.4924 51.5953 23.0986 52.0016 23.0986 52.5021C23.0986 53.0027 23.4924 53.4089 23.9775 53.4089H26.8791C27.3642 53.4089 27.758 53.0027 27.758 52.5021C27.758 52.0016 27.3642 51.5953 26.8791 51.5953Z" fill="#60859E"/>
<path d="M53.7573 51.5953H30.6831C30.1979 51.5953 29.8042 52.0016 29.8042 52.5021C29.8042 53.0027 30.1979 53.4089 30.6831 53.4089H53.7573C54.2425 53.4089 54.6362 53.0027 54.6362 52.5021C54.6362 52.0016 54.2425 51.5953 53.7573 51.5953Z" fill="#60859E"/>
</svg>
