<svg width="33" height="33" viewBox="0 0 33 33" fill="none" xmlns="http://www.w3.org/2000/svg">
<path d="M16.0029 0C12.8376 2.12356e-07 9.74337 0.938704 7.11158 2.69739C4.47978 4.45607 2.42865 6.95573 1.2176 9.88023C0.00654519 12.8047 -0.310024 16.0227 0.307928 19.1271C0.92588 22.2315 2.45059 25.083 4.68923 27.3208C6.92787 29.5586 9.77986 31.0823 12.8845 31.6991C15.9892 32.3159 19.207 31.9982 22.1311 30.786C25.0551 29.5739 27.554 27.5219 29.3117 24.8894C31.0695 22.257 32.007 19.1624 32.0059 15.9971C32.0012 11.7548 30.3135 7.6877 27.3132 4.68851C24.3129 1.68931 20.2452 0.00310306 16.0029 0ZM20.4404 9.49038C20.4404 9.55412 20.4151 9.61526 20.37 9.66033C20.3249 9.7054 20.2638 9.73072 20.2 9.73072H18.2773C18.0504 9.73072 17.8327 9.82089 17.6722 9.98139C17.5117 10.1419 17.4215 10.3596 17.4215 10.5866V12.603H20.159C20.1921 12.603 20.2249 12.6097 20.2552 12.6229C20.2856 12.636 20.3129 12.6553 20.3355 12.6795C20.358 12.7037 20.3754 12.7324 20.3864 12.7636C20.3973 12.7948 20.4018 12.828 20.3993 12.861L20.159 15.704C20.1532 15.7636 20.1253 15.8188 20.0808 15.859C20.0364 15.8991 19.9786 15.9212 19.9187 15.9209H17.4215V25.3468C17.4215 25.4105 17.3962 25.4716 17.3511 25.5167C17.306 25.5618 17.2449 25.5871 17.1812 25.5871H13.7344C13.6706 25.5871 13.6095 25.5618 13.5644 25.5167C13.5194 25.4716 13.4941 25.4105 13.4941 25.3468V15.9209H11.7765C11.7445 15.9216 11.7126 15.916 11.6827 15.9043C11.6529 15.8926 11.6257 15.875 11.6028 15.8526C11.5798 15.8302 11.5616 15.8034 11.5492 15.7739C11.5367 15.7443 11.5303 15.7126 11.5303 15.6805V12.8434C11.5303 12.8113 11.5367 12.7796 11.5492 12.75C11.5616 12.7205 11.5798 12.6937 11.6028 12.6713C11.6257 12.6489 11.6529 12.6314 11.6827 12.6196C11.7126 12.6079 11.7445 12.6023 11.7765 12.603H13.4882V9.86554C13.4882 8.94829 13.8526 8.0686 14.5012 7.42001C15.1498 6.77141 16.0294 6.40703 16.9467 6.40703H20.1942C20.2262 6.40702 20.258 6.41343 20.2875 6.42587C20.3171 6.43832 20.3438 6.45655 20.3662 6.47949C20.3886 6.50243 20.4062 6.52962 20.4179 6.55946C20.4297 6.5893 20.4353 6.62118 20.4345 6.65323L20.4404 9.49038Z" fill="white"/>
</svg>
