<svg class="cardFeatureSVG" width="30" height="28" viewBox="0 0 30 28" fill="none" xmlns="http://www.w3.org/2000/svg">
<path d="M24.3753 19.0793V18.0633C24.3753 17.5902 23.9535 17.2031 23.4379 17.2031C22.9223 17.2031 22.5004 17.5902 22.5004 18.0633V19.0793C21.4107 19.4341 20.6255 20.3803 20.6255 21.5039C20.6255 22.9285 21.8852 24.0843 23.4379 24.0843C24.9905 24.0843 26.2502 22.9285 26.2502 21.5039C26.2502 20.3803 25.4651 19.4341 24.3753 19.0793ZM28.1251 17.3052V4.30078C28.1251 1.92997 26.0217 0 23.4379 0C20.854 0 18.7507 1.92997 18.7507 4.30078V17.3052C17.5613 18.4234 16.8758 19.9341 16.8758 21.5039C16.8758 24.8262 19.817 27.525 23.4379 27.525C27.0588 27.525 30 24.8262 30 21.5039C30 19.9341 29.3145 18.4181 28.1251 17.3052ZM23.4379 25.8047C20.854 25.8047 18.7507 23.8747 18.7507 21.5039C18.7507 20.133 19.4655 18.875 20.6255 18.074V4.30078C20.6255 2.87614 21.8852 1.72031 23.4379 1.72031C24.9905 1.72031 26.2502 2.87614 26.2502 4.30078V18.074C27.4103 18.8697 28.1251 20.133 28.1251 21.5039C28.1251 23.8747 26.0217 25.8047 23.4379 25.8047ZM16.2371 17.5257C16.4363 17.2246 16.6355 16.9289 16.8758 16.6548V15.8914L13.0615 13.7625L16.8758 11.639V9.64449L12.1885 12.2572V7.24143L14.8661 4.78461C15.0477 4.61796 15.0477 4.34378 14.8661 4.17713L14.204 3.56964C14.0224 3.40299 13.7236 3.40299 13.542 3.56964L12.1944 4.80612V2.15039C12.1944 1.91385 11.9835 1.72031 11.7257 1.72031H10.7882C10.5304 1.72031 10.3195 1.91385 10.3195 2.15039V4.80612L8.97192 3.56964C8.79029 3.40299 8.49148 3.40299 8.30985 3.56964L7.64778 4.17713C7.46615 4.34378 7.46615 4.61796 7.64778 4.78461L10.3254 7.24143V12.2572L5.77289 9.75738L4.82958 6.40278C4.76513 6.17161 4.51905 6.03721 4.27883 6.09635L3.40584 6.31676C3.16562 6.3759 3.01914 6.61244 3.08359 6.84361L3.55817 8.53704L1.14425 7.20918C0.927465 7.0909 0.652091 7.16079 0.529051 7.36508L0.0603282 8.11234C-0.0627116 8.31662 0.00759682 8.58005 0.224381 8.69832L2.6383 10.0262L0.868875 10.4831C0.628655 10.5423 0.482179 10.7788 0.546628 11.01L0.78099 11.8433C0.845439 12.0744 1.09152 12.2088 1.33174 12.1497L4.85888 11.2519L9.44064 13.7679L4.85888 16.2838L1.33174 15.386C1.09152 15.3269 0.845439 15.4613 0.78099 15.6925L0.546628 16.5257C0.482179 16.7569 0.622796 16.9934 0.868875 17.0526L2.64416 17.5042L0.23024 18.8213C0.0134559 18.9395 -0.0627116 19.203 0.0661872 19.4072L0.517333 20.1545C0.640373 20.3588 0.921606 20.4287 1.13253 20.3104L3.54645 18.9825L3.07187 20.676C3.00742 20.9071 3.14804 21.1437 3.39412 21.2028L4.26712 21.4232C4.50734 21.4824 4.75342 21.348 4.81786 21.1168L5.76117 17.7622L10.3136 15.2624V20.2782L7.63606 22.7404C7.45443 22.907 7.45443 23.1812 7.63606 23.3478L8.29813 23.9553C8.47976 24.122 8.77857 24.122 8.9602 23.9553L10.3078 22.7188V25.3746C10.3078 25.6111 10.5187 25.8047 10.7765 25.8047H11.714C11.9717 25.8047 12.1827 25.6111 12.1827 25.3746V22.7188L13.5303 23.9553C13.7119 24.122 14.0107 24.122 14.1923 23.9553L14.8544 23.3478C15.036 23.1812 15.036 22.907 14.8544 22.7404L12.1885 20.2889V15.2731L16.2371 17.5257V17.5257Z" fill="#676767"/>
</svg>
