<svg width="18" height="15" viewBox="0 0 18 15" fill="none" xmlns="http://www.w3.org/2000/svg">
<path d="M15.4793 1.02783C13.6545 -0.525746 10.9257 -0.267932 9.23148 1.47984L8.57188 2.16288L7.91228 1.48319C6.5462 0.0702392 3.79061 -0.780211 1.66448 1.02783C-0.438207 2.82248 -0.548699 6.04348 1.33301 7.98546L7.81183 14.6752C8.01942 14.8895 8.29398 15 8.56853 15C8.84309 15 9.11764 14.8929 9.32523 14.6752L15.8041 7.98546C17.6925 6.04348 17.582 2.82248 15.4793 1.02783V1.02783ZM15.0407 7.24215L8.58527 13.9319L2.1031 7.24215C0.817379 5.91625 0.549521 3.38834 2.36091 1.8448C4.19574 0.277829 6.352 1.41288 7.14219 2.22985L8.57188 3.70642L10.0016 2.22985C10.7784 1.42627 12.9547 0.287874 14.7828 1.8448C16.5909 3.38499 16.3264 5.9129 15.0407 7.24215Z" fill="black"/>
</svg>
