<svg width="33" height="32" viewBox="0 0 33 32" fill="none" xmlns="http://www.w3.org/2000/svg">
<path d="M16.2324 32C13.0679 32 9.97449 31.0616 7.3433 29.3035C4.71212 27.5454 2.66136 25.0466 1.45036 22.1229C0.239354 19.1993 -0.0774989 15.9823 0.539864 12.8786C1.15723 9.77486 2.68108 6.92394 4.91872 4.6863C7.15636 2.44866 10.0073 0.924806 13.111 0.307443C16.2147 -0.309921 19.4317 0.00693256 22.3554 1.21793C25.279 2.42894 27.7778 4.4797 29.5359 7.11088C31.294 9.74207 32.2324 12.8355 32.2324 16C32.2293 20.2425 30.5426 24.3104 27.5427 27.3103C24.5428 30.3102 20.4749 31.9969 16.2324 32ZM21.6307 9.51033C21.3973 9.51033 21.1692 9.57953 20.9751 9.70919C20.7811 9.83884 20.6298 10.0231 20.5405 10.2387C20.4512 10.4543 20.4279 10.6916 20.4734 10.9205C20.5189 11.1494 20.6313 11.3596 20.7963 11.5246C20.9613 11.6896 21.1716 11.802 21.4005 11.8475C21.6293 11.8931 21.8666 11.8697 22.0822 11.7804C22.2978 11.6911 22.4821 11.5398 22.6117 11.3458C22.7414 11.1518 22.8106 10.9236 22.8106 10.6903C22.8106 10.3773 22.6863 10.0772 22.465 9.85592C22.2437 9.63464 21.9436 9.51033 21.6307 9.51033ZM16.3681 11.0325C15.3842 11.0325 14.4224 11.3243 13.6044 11.871C12.7864 12.4178 12.1489 13.1949 11.7727 14.104C11.3964 15.0131 11.2983 16.0134 11.4907 16.9783C11.683 17.9433 12.1573 18.8294 12.8534 19.5247C13.5496 20.2201 14.4363 20.6933 15.4015 20.8845C16.3666 21.0757 17.3668 20.9764 18.2755 20.5991C19.1841 20.2217 19.9605 19.5834 20.5063 18.7647C21.052 17.9461 21.3427 16.9839 21.3416 16C21.3384 14.6825 20.8133 13.4199 19.8811 12.4888C18.9489 11.5577 17.6857 11.034 16.3681 11.0325ZM16.3681 19.1858C15.738 19.1858 15.1221 18.999 14.5982 18.6489C14.0743 18.2989 13.6659 17.8013 13.4248 17.2192C13.1837 16.637 13.1206 15.9965 13.2435 15.3785C13.3664 14.7605 13.6698 14.1928 14.1154 13.7473C14.5609 13.3017 15.1286 12.9983 15.7466 12.8754C16.3646 12.7525 17.0051 12.8155 17.5873 13.0567C18.1694 13.2978 18.667 13.7061 19.017 14.23C19.3671 14.754 19.554 15.3699 19.554 16C19.554 16.8449 19.2183 17.6553 18.6208 18.2527C18.0234 18.8502 17.2131 19.1858 16.3681 19.1858ZM26.3976 11.8702C26.3976 10.2617 25.7586 8.71907 24.6213 7.58168C23.4839 6.44429 21.9412 5.80532 20.3327 5.80532H12.3327C10.7242 5.80532 9.18158 6.44429 8.04419 7.58168C6.9068 8.71907 6.26783 10.2617 6.26783 11.8702V19.8761C6.26472 20.6745 6.4193 21.4657 6.7227 22.2043C7.0261 22.9428 7.47234 23.6142 8.03583 24.1799C8.59931 24.7456 9.26895 25.1944 10.0063 25.5007C10.7437 25.807 11.5343 25.9646 12.3327 25.9646H20.3327C21.1312 25.9646 21.9217 25.807 22.6591 25.5007C23.3965 25.1944 24.0661 24.7456 24.6296 24.1799C25.1931 23.6142 25.6393 22.9428 25.9427 22.2043C26.2461 21.4657 26.4007 20.6745 26.3976 19.8761V11.8702ZM24.4979 19.8761C24.4979 20.9808 24.0591 22.0402 23.278 22.8213C22.4968 23.6025 21.4374 24.0413 20.3327 24.0413H12.3327C11.2275 24.0413 10.1675 23.6027 9.3854 22.8217C8.60334 22.0407 8.16319 20.9813 8.16163 19.8761V11.8702C8.16319 10.765 8.60334 9.70557 9.3854 8.92462C10.1675 8.14366 11.2275 7.70502 12.3327 7.70502H20.3327C21.4374 7.70502 22.4968 8.14385 23.278 8.92498C24.0591 9.7061 24.4979 10.7655 24.4979 11.8702V19.8761Z" fill="white"/>
</svg>
