<svg width="33" height="33" viewBox="0 0 33 33" fill="none" xmlns="http://www.w3.org/2000/svg">
<path d="M16.003 32.0059C12.8379 32.0059 9.74387 31.0673 7.11219 29.3089C4.48052 27.5505 2.42938 25.0512 1.21816 22.127C0.00693393 19.2029 -0.309978 15.9852 0.307499 12.8809C0.924977 9.77667 2.44911 6.92522 4.68716 4.68716C6.92522 2.44911 9.77667 0.924977 12.8809 0.307499C15.9852 -0.309978 19.2029 0.00693393 22.127 1.21816C25.0512 2.42938 27.5505 4.48052 29.3089 7.11219C31.0673 9.74387 32.0059 12.8379 32.0059 16.003C32.0028 20.2462 30.3158 24.3148 27.3153 27.3153C24.3148 30.3158 20.2462 32.0028 16.003 32.0059V32.0059ZM21.4022 9.51208C21.1688 9.51208 20.9406 9.5813 20.7465 9.71098C20.5524 9.84066 20.4012 10.025 20.3119 10.2406C20.2225 10.4563 20.1992 10.6936 20.2447 10.9225C20.2902 11.1514 20.4026 11.3617 20.5677 11.5267C20.7327 11.6918 20.943 11.8042 21.1719 11.8497C21.4009 11.8953 21.6382 11.8719 21.8538 11.7826C22.0695 11.6932 22.2538 11.542 22.3834 11.3479C22.5131 11.1538 22.5823 10.9257 22.5823 10.6922C22.5823 10.3792 22.458 10.0791 22.2367 9.85774C22.0154 9.63642 21.7152 9.51208 21.4022 9.51208ZM16.1387 11.0345C15.1546 11.0345 14.1926 11.3264 13.3745 11.8732C12.5563 12.4201 11.9187 13.1973 11.5424 14.1066C11.1661 15.0159 11.0679 16.0164 11.2603 16.9815C11.4527 17.9466 11.9271 18.8329 12.6234 19.5284C13.3196 20.2238 14.2065 20.6971 15.1718 20.8884C16.1372 21.0796 17.1375 20.9803 18.0464 20.6029C18.9552 20.2255 19.7317 19.587 20.2776 18.7682C20.8235 17.9494 21.1142 16.987 21.113 16.003C21.1099 14.6852 20.5846 13.4223 19.6523 12.4911C18.7199 11.5598 17.4565 11.036 16.1387 11.0345V11.0345ZM16.1387 19.1894C15.5085 19.1894 14.8924 19.0025 14.3684 18.6524C13.8444 18.3022 13.436 17.8046 13.1948 17.2223C12.9536 16.6401 12.8905 15.9994 13.0135 15.3813C13.1364 14.7632 13.4399 14.1954 13.8855 13.7498C14.3312 13.3042 14.8989 13.0007 15.517 12.8778C16.1351 12.7548 16.7758 12.8179 17.3581 13.0591C17.9403 13.3003 18.438 13.7087 18.7881 14.2327C19.1382 14.7567 19.3251 15.3727 19.3251 16.003C19.3251 16.848 18.9894 17.6585 18.3918 18.2561C17.7942 18.8537 16.9838 19.1894 16.1387 19.1894ZM26.17 11.8724C26.17 10.2636 25.5309 8.72068 24.3933 7.58308C23.2557 6.44548 21.7128 5.80639 20.104 5.80639H12.1025C10.4937 5.80639 8.95081 6.44548 7.81321 7.58308C6.67561 8.72068 6.03652 10.2636 6.03652 11.8724V19.8798C6.03341 20.6784 6.18802 21.4697 6.49147 22.2084C6.79493 22.9471 7.24126 23.6186 7.80485 24.1844C8.36844 24.7501 9.0382 25.1991 9.7757 25.5054C10.5132 25.8117 11.3039 25.9694 12.1025 25.9694H20.104C20.9026 25.9694 21.6933 25.8117 22.4308 25.5054C23.1683 25.1991 23.8381 24.7501 24.4017 24.1844C24.9653 23.6186 25.4116 22.9471 25.7151 22.2084C26.0185 21.4697 26.1731 20.6784 26.17 19.8798V11.8724ZM24.27 19.8798C24.27 20.9847 23.8311 22.0443 23.0498 22.8256C22.2685 23.6068 21.2089 24.0457 20.104 24.0457H12.1025C10.9971 24.0457 9.93687 23.607 9.15467 22.8259C8.37246 22.0448 7.93224 20.9852 7.93067 19.8798V11.8724C7.93224 10.767 8.37246 9.70736 9.15467 8.92626C9.93687 8.14517 10.9971 7.70644 12.1025 7.70644H20.104C21.2089 7.70644 22.2685 8.14536 23.0498 8.92662C23.8311 9.70789 24.27 10.7675 24.27 11.8724V19.8798Z" fill="white"/>
</svg>
