<svg width="33" height="33" viewBox="0 0 33 33" fill="none" xmlns="http://www.w3.org/2000/svg">
<path d="M16.0088 1.07805e-06C12.8435 -0.00116051 9.7489 0.936408 7.11646 2.69413C4.48402 4.45184 2.43197 6.95075 1.21984 9.87481C0.00771942 12.7989 -0.31003 16.0167 0.306783 19.1213C0.923597 22.226 2.44727 25.078 4.68508 27.3166C6.9229 29.5553 9.77434 31.08 12.8788 31.6979C15.9832 32.3159 19.2011 31.9993 22.1256 30.7883C25.0501 29.5772 27.5498 27.5261 29.3085 24.8943C31.0672 22.2625 32.0059 19.1683 32.0059 16.0029C32.0012 11.7611 30.3145 7.69433 27.3157 4.69437C24.3168 1.69442 20.2506 0.00621816 16.0088 1.07805e-06ZM12.0037 23.191C12.0086 23.2276 12.0058 23.2648 11.9955 23.3003C11.9852 23.3357 11.9676 23.3686 11.9438 23.3968C11.92 23.425 11.8906 23.4479 11.8574 23.4641C11.8242 23.4802 11.788 23.4892 11.7512 23.4905H8.65627C8.6208 23.4905 8.58567 23.4836 8.55289 23.47C8.52012 23.4564 8.49034 23.4365 8.46525 23.4114C8.44017 23.3863 8.42027 23.3566 8.4067 23.3238C8.39312 23.291 8.38613 23.2559 8.38613 23.2204V12.8435C8.38767 12.7728 8.41681 12.7056 8.4673 12.6562C8.5178 12.6068 8.58563 12.5792 8.65627 12.5792H11.7512C11.8212 12.5792 11.8885 12.607 11.938 12.6566C11.9876 12.7061 12.0154 12.7734 12.0154 12.8435L12.0037 23.191ZM10.0892 11.1932C9.7059 11.1932 9.33122 11.0796 9.01252 10.8666C8.69382 10.6537 8.44543 10.351 8.29875 9.9969C8.15207 9.64279 8.11369 9.25313 8.18846 8.8772C8.26324 8.50127 8.44781 8.15595 8.71885 7.88492C8.98987 7.61389 9.33519 7.42932 9.71112 7.35454C10.087 7.27977 10.4767 7.31814 10.8308 7.46482C11.1849 7.61151 11.4876 7.8599 11.7006 8.1786C11.9135 8.49729 12.0272 8.87198 12.0272 9.25528C12.0272 9.76926 11.823 10.2622 11.4595 10.6256C11.0961 10.9891 10.6032 11.1932 10.0892 11.1932ZM25.0527 23.191C25.0535 23.2267 25.047 23.2622 25.0337 23.2954C25.0205 23.3285 25.0006 23.3586 24.9753 23.3838C24.9501 23.4091 24.92 23.429 24.8869 23.4423C24.8537 23.4555 24.8182 23.462 24.7825 23.4612H21.6994C21.6642 23.4612 21.6293 23.4542 21.5969 23.4405C21.5644 23.4269 21.535 23.4069 21.5104 23.3817C21.4858 23.3565 21.4665 23.3267 21.4535 23.294C21.4406 23.2612 21.4343 23.2262 21.4351 23.191V17.6179C21.4351 16.1556 20.9125 15.1573 19.6029 15.1573C19.1942 15.1591 18.7961 15.2877 18.4637 15.5255C18.1313 15.7632 17.8809 16.0983 17.7471 16.4845C17.648 16.7731 17.6061 17.0783 17.6238 17.383V23.191C17.6246 23.2262 17.6183 23.2612 17.6054 23.294C17.5925 23.3267 17.5731 23.3565 17.5485 23.3817C17.5239 23.4069 17.4945 23.4269 17.462 23.4405C17.4296 23.4542 17.3947 23.4612 17.3595 23.4612H14.2764C14.2407 23.462 14.2052 23.4555 14.1721 23.4423C14.1389 23.429 14.1088 23.4091 14.0836 23.3838C14.0583 23.3586 14.0385 23.3285 14.0252 23.2954C14.0119 23.2622 14.0054 23.2267 14.0062 23.191C14.0062 21.7111 14.0474 14.5348 14.0062 12.8493C14.0054 12.8136 14.0119 12.7781 14.0252 12.745C14.0385 12.7119 14.0583 12.6818 14.0836 12.6565C14.1088 12.6313 14.1389 12.6114 14.1721 12.5981C14.2052 12.5848 14.2407 12.5784 14.2764 12.5792H17.3536C17.4237 12.5792 17.491 12.607 17.5405 12.6566C17.5901 12.7061 17.6179 12.7734 17.6179 12.8435V14.0943C17.9509 13.5306 18.4317 13.0685 19.0081 12.758C19.5846 12.4475 20.235 12.3004 20.889 12.3325C23.238 12.3325 25.0527 13.8888 25.0527 17.2303V23.191Z" fill="white"/>
</svg>
