<svg width="17" height="17" viewBox="0 0 17 17" fill="none" xmlns="http://www.w3.org/2000/svg">
<path d="M16.15 1.9834H0.85C0.380508 1.9834 0 2.36391 0 2.8334V14.1666C0 14.6361 0.380508 15.0166 0.85 15.0166H16.15C16.6195 15.0166 17 14.6361 17 14.1666V2.8334C17 2.36391 16.6195 1.9834 16.15 1.9834ZM16.4332 14.167C16.4332 14.3233 16.3064 14.4502 16.15 14.4502H0.85C0.693613 14.4502 0.566777 14.3233 0.566777 14.167V2.8334C0.566777 2.67701 0.693613 2.55018 0.85 2.55018H16.15C16.3064 2.55018 16.4332 2.67701 16.4332 2.8334V14.167Z" fill="white"/>
<path d="M15.6082 3.11798C15.5332 3.11134 15.4588 3.13491 15.4014 3.18339L8.86466 8.67419C8.65382 8.85149 8.34602 8.85149 8.13552 8.67419L1.59882 3.18306C1.52145 3.11798 1.41487 3.09905 1.31991 3.13392C1.22462 3.16845 1.15522 3.25112 1.13763 3.35106C1.12003 3.45101 1.15688 3.55228 1.23458 3.61735L7.77094 9.10782C8.19229 9.46243 8.80755 9.46243 9.22889 9.10782L15.7653 3.61702C15.8227 3.56854 15.8589 3.49948 15.8655 3.42478C15.8722 3.35007 15.8486 3.27536 15.8001 3.21792C15.7523 3.16048 15.6829 3.12429 15.6082 3.11798Z" fill="white"/>
<path d="M5.44931 9.06877C5.34904 9.04652 5.24445 9.08006 5.17605 9.15676L1.20927 13.4068C1.13755 13.4801 1.11099 13.5871 1.14054 13.6853C1.16976 13.7839 1.25011 13.8587 1.35039 13.8812C1.45066 13.9035 1.55525 13.8699 1.62365 13.7932L5.59042 9.54324C5.66214 9.46986 5.68871 9.36295 5.65915 9.26467C5.6296 9.16639 5.54992 9.09102 5.44931 9.06877Z" fill="white"/>
<path d="M11.8239 9.15676C11.7555 9.08006 11.651 9.04652 11.5507 9.06877C11.4504 9.09102 11.3701 9.16605 11.3408 9.26467C11.3116 9.36328 11.3378 9.46986 11.4096 9.54324L15.3763 13.7932C15.4839 13.9035 15.6599 13.9074 15.7725 13.8025C15.885 13.6976 15.8933 13.5216 15.7907 13.4067L11.8239 9.15676Z" fill="white"/>
</svg>
