<svg width="17" height="17" viewBox="0 0 17 17" fill="none" xmlns="http://www.w3.org/2000/svg">
<g clip-path="url(#clip0)">
<path d="M7.71919 12.9602C7.5897 13.0896 7.5897 13.2998 7.71919 13.4296C7.84902 13.5591 8.05919 13.5591 8.18869 13.4296C8.31851 13.2998 8.31851 13.0896 8.18869 12.9602C8.05919 12.8303 7.84902 12.8303 7.71919 12.9602Z" fill="white"/>
<path d="M16.2344 12.3815L13.7136 10.2379C13.702 10.228 13.6897 10.219 13.6768 10.2107C13.0154 9.78968 12.1663 9.88298 11.6119 10.4371L10.2372 11.8117C10.142 11.907 10.0002 11.9353 9.87566 11.8838C8.32375 11.2416 7.04875 10.2751 6.08619 9.01139C5.35207 8.04751 5.08777 7.28184 5.05258 7.17393C5.04826 7.15069 5.04195 7.12778 5.03232 7.10553C4.98086 6.98102 5.00908 6.83925 5.10437 6.74395L6.47865 5.36934C7.03314 4.81485 7.12611 3.96585 6.7051 3.30444C6.70178 3.29913 6.69812 3.29382 6.69447 3.28884L4.87394 0.759089C4.30185 -0.13009 3.05408 -0.264231 2.30535 0.4845L2.0301 0.759753C2.0301 0.760086 2.02976 0.760418 2.02943 0.760418L1.04695 1.7429C-0.124786 2.91464 -0.316368 4.6754 0.492792 6.83526C1.18607 8.68534 2.5733 10.7101 4.3998 12.5362C6.26914 14.4056 8.34865 15.819 10.2552 16.5156C12.1421 17.2049 14.1492 17.2899 15.5697 15.8692L16.4964 14.9425C17.2418 14.1971 17.1116 12.9579 16.2344 12.3815ZM13.3022 10.7595L15.821 12.9011C15.8326 12.9111 15.8449 12.9201 15.8579 12.9284C16.3958 13.271 16.4774 14.0231 16.0272 14.4733L15.9585 14.542L11.6627 11.3257L12.0817 10.9066C12.4087 10.5792 12.9078 10.5198 13.3022 10.7595ZM4.31978 1.12333C4.3231 1.12864 4.32676 1.13395 4.33041 1.13893L6.14994 3.66768C6.3973 4.06346 6.33986 4.56848 6.00949 4.89919L5.60342 5.30526L2.69715 1.03202L2.77517 0.953992C3.22707 0.502097 3.97846 0.587429 4.31978 1.12333ZM10.4829 15.8921C8.66574 15.228 6.67189 13.8697 4.8693 12.0671C3.10853 10.3063 1.7751 8.36559 1.11435 6.60251C0.618632 5.27903 0.285937 3.4429 1.51644 2.21272L2.21902 1.51014L5.12529 5.78405L4.63521 6.27446C4.35631 6.5527 4.26865 6.96475 4.40777 7.33165C4.51269 7.76163 4.9948 8.65446 5.48123 9.31221C6.19709 10.2804 7.49666 11.6185 9.62166 12.4977C9.99519 12.6521 10.4209 12.5674 10.7067 12.2816L11.1878 11.8005L15.4837 15.0168L15.1002 15.4003C13.781 16.7192 11.8612 16.3958 10.4829 15.8921Z" fill="white"/>
<path d="M7.09617 12.1669C6.74555 11.8595 6.13893 11.3306 5.81951 11.0019C5.03625 10.1967 4.21414 9.22087 3.72539 8.51598C3.62113 8.36524 3.41395 8.32772 3.26354 8.43231C3.11279 8.53656 3.07527 8.74375 3.17986 8.89416C3.79611 9.78332 4.7019 10.805 5.34371 11.4647C5.68106 11.8117 6.29266 12.3452 6.65856 12.666C6.79602 12.7865 7.00586 12.7732 7.12705 12.6351C7.24791 12.4976 7.23397 12.2878 7.09617 12.1669Z" fill="white"/>
</g>
<defs>
<clipPath id="clip0">
<rect width="17" height="17" fill="white"/>
</clipPath>
</defs>
</svg>
