<svg width="12" height="18" viewBox="0 0 12 18" fill="none" xmlns="http://www.w3.org/2000/svg">
<g clip-path="url(#clip0)">
<path d="M6.89062 15.75H4.35938C4.12734 15.75 3.9375 15.5602 3.9375 15.3281V15.0469C3.9375 14.8148 4.12734 14.625 4.35938 14.625H6.89062C7.12266 14.625 7.3125 14.8148 7.3125 15.0469V15.3281C7.3125 15.5602 7.12266 15.75 6.89062 15.75ZM11.25 1.6875V16.3125C11.25 17.2441 10.4941 18 9.5625 18H1.6875C0.755859 18 0 17.2441 0 16.3125V1.6875C0 0.755859 0.755859 0 1.6875 0H9.5625C10.4941 0 11.25 0.755859 11.25 1.6875ZM10.125 1.6875C10.125 1.37812 9.87188 1.125 9.5625 1.125H1.6875C1.37812 1.125 1.125 1.37812 1.125 1.6875V16.3125C1.125 16.6219 1.37812 16.875 1.6875 16.875H9.5625C9.87188 16.875 10.125 16.6219 10.125 16.3125V1.6875Z" fill="white"/>
</g>
<defs>
<clipPath id="clip0">
<rect width="11.25" height="18" fill="white"/>
</clipPath>
</defs>
</svg>
