<svg width="70" height="70" viewBox="0 0 70 70" fill="none" xmlns="http://www.w3.org/2000/svg">
<path d="M35 0C15.6953 0 0 15.6953 0 35C0 54.3047 15.6953 70 35 70C54.3047 70 70 54.3047 70 35C70 15.6953 54.3047 0 35 0ZM48.918 36.2305L28.5059 49.3555C28.2598 49.5059 27.9863 49.5879 27.7129 49.5879C27.4668 49.5879 27.2344 49.5332 27.0156 49.4102C26.5508 49.1504 26.25 48.6582 26.25 48.125V21.875C26.25 21.3418 26.5371 20.8496 27.0156 20.5898C27.4805 20.3301 28.0547 20.3574 28.5059 20.6445L48.918 33.7695C49.3281 34.043 49.5879 34.4941 49.5879 35C49.5879 35.4922 49.3281 35.957 48.918 36.2305Z" fill="white"/>
</svg>
