<svg class="cardFeatureSVG" width="30" height="28" viewBox="0 0 30 28" fill="none" xmlns="http://www.w3.org/2000/svg">
<path d="M28.125 15.4829H13.125V1.72032C13.125 0.77038 12.2854 0 11.25 0H1.875C0.839648 0 0 0.77038 0 1.72032V25.8048C0 26.7547 0.839648 27.5251 1.875 27.5251H28.125C29.1604 27.5251 30 26.7547 30 25.8048V17.2032C30 16.2532 29.1604 15.4829 28.125 15.4829ZM2.8125 2.58048H10.3125V5.16095H6.09375C5.83477 5.16095 5.625 5.35341 5.625 5.59103V6.45119C5.625 6.68881 5.83477 6.88127 6.09375 6.88127H10.3125V9.46175H6.09375C5.83477 9.46175 5.625 9.65421 5.625 9.89183V10.752C5.625 10.9896 5.83477 11.1821 6.09375 11.1821H10.3125V13.7625H6.09375C5.83477 13.7625 5.625 13.955 5.625 14.1926V15.0528C5.625 15.2904 5.83477 15.4829 6.09375 15.4829H10.3125V16.8473L2.8125 23.7286V2.58048ZM27.1875 24.9446H4.13789L11.6379 18.0633H13.125V21.9341C13.125 22.1717 13.3348 22.3641 13.5938 22.3641H14.5312C14.7902 22.3641 15 22.1717 15 21.9341V18.0633H17.8125V21.9341C17.8125 22.1717 18.0223 22.3641 18.2812 22.3641H19.2188C19.4777 22.3641 19.6875 22.1717 19.6875 21.9341V18.0633H22.5V21.9341C22.5 22.1717 22.7098 22.3641 22.9688 22.3641H23.9062C24.1652 22.3641 24.375 22.1717 24.375 21.9341V18.0633H27.1875V24.9446Z" fill="#676767"/>
</svg>
