<svg width="33" height="33" viewBox="0 0 33 33" fill="none" xmlns="http://www.w3.org/2000/svg">
<path d="M16.8379 0.00341797C13.6731 0.00341818 10.5795 0.94195 7.94816 2.70031C5.31685 4.45867 3.26609 6.95788 2.05526 9.88184C0.844435 12.8058 0.527924 16.0232 1.14576 19.127C1.7636 22.2309 3.28803 25.0818 5.52626 27.3192C7.76449 29.5566 10.616 31.08 13.72 31.6967C16.8241 32.3134 20.0414 31.9957 22.9649 30.7838C25.8884 29.5719 28.3869 27.5202 30.1443 24.8883C31.9016 22.2563 32.839 19.1623 32.8379 15.9976C32.8332 11.7561 31.1458 7.68971 28.1461 4.69106C25.1464 1.69242 21.0794 0.00652046 16.8379 0.00341797V0.00341797ZM26.1038 10.1778C26.1087 10.2853 26.0755 10.3912 26.01 10.4767C25.5932 11.0614 25.0937 11.5826 24.5273 12.0239C24.4394 12.0884 24.2987 12.1587 24.2987 12.2759C24.2987 15.3587 23.5133 18.4356 21.2687 20.6686C18.4086 23.5052 14.1185 24.2789 10.309 23.2298C9.57343 23.0231 8.86217 22.7382 8.18735 22.38C7.96463 22.2569 7.74192 22.1338 7.52507 21.9873C7.47233 21.9463 7.4313 21.9052 7.47819 21.8759C7.52507 21.8466 7.56024 21.8759 7.7302 21.8759C8.80389 21.9712 9.88549 21.8333 10.9009 21.4715C11.4577 21.2781 12.6591 20.8855 12.9873 20.3639H13.0166C12.876 20.3287 12.7353 20.3287 12.6005 20.3052C11.5632 20.0063 10.18 19.4906 9.54119 17.7441C9.50017 17.6444 9.54119 17.5917 9.64669 17.6093C10.13 17.6775 10.6214 17.6636 11.1002 17.5683C10.9313 17.5345 10.7663 17.4834 10.6079 17.4159C9.96185 17.1534 9.39695 16.7245 8.97072 16.1726C8.54449 15.6208 8.27216 14.9658 8.18149 14.2745C8.16426 14.1285 8.16426 13.9809 8.18149 13.8349C8.18149 13.7294 8.23423 13.7001 8.32214 13.7529C8.78322 13.9903 9.28763 14.1319 9.80493 14.169C9.64083 14.04 9.48258 13.8994 9.3302 13.7529C8.20493 12.6862 7.76537 10.506 8.66793 9.15213C8.74412 9.04078 8.79101 9.04078 8.87892 9.15213C10.9478 11.4965 13.4972 12.61 16.5683 13.0672C16.6503 13.0672 16.6562 13.0672 16.6445 12.9734C16.5417 12.4304 16.5497 11.8722 16.6679 11.3324C16.8055 10.777 17.0636 10.2588 17.424 9.81441C17.7763 9.39373 18.2086 9.04712 18.6958 8.79463C19.1853 8.54077 19.7221 8.3911 20.2723 8.35507C20.8381 8.31566 21.4053 8.40586 21.9309 8.6188C22.3245 8.78192 22.6903 9.00535 23.0152 9.28107C23.0855 9.34371 23.1502 9.41234 23.2086 9.4862C23.2291 9.50627 23.2545 9.52062 23.2822 9.52782C23.31 9.53502 23.3392 9.53481 23.3668 9.52723C24.1446 9.33563 24.8949 9.04614 25.5998 8.66569C25.6154 8.65837 25.6324 8.65457 25.6496 8.65457C25.6668 8.65457 25.6838 8.65837 25.6994 8.66569C25.7346 8.66569 25.6994 8.73016 25.6994 8.76532C25.568 9.19287 25.3551 9.59092 25.0723 9.93748C24.8965 10.1602 24.4452 10.7052 24.1463 10.758C24.803 10.6438 25.4416 10.4428 26.0452 10.1602C26.1214 10.125 26.1155 10.1133 26.1155 10.1602L26.1038 10.1778Z" fill="white"/>
</svg>
