<svg width="32" height="32" viewBox="0 0 32 32" fill="currentColor" xmlns="http://www.w3.org/2000/svg">
<path d="M15.9971 0C12.8317 2.10276e-07 9.73751 0.929509 7.10572 2.67097C4.47392 4.41242 2.42279 6.8876 1.21174 9.78345C0.000685776 12.6793 -0.315883 15.8657 0.302069 18.9398C0.920021 22.0138 2.44473 24.8373 4.68337 27.0532C6.92201 29.2691 9.774 30.7778 12.8787 31.3886C15.9833 31.9994 19.2011 31.6847 22.1252 30.4845C25.0492 29.2842 27.5482 27.2523 29.3059 24.6456C31.0636 22.039 32.0012 18.9747 32 15.8404C31.9953 11.6397 30.3076 7.6124 27.3074 4.64258C24.3071 1.67277 20.2393 0.00307267 15.9971 0V0ZM25.2647 10.0765C25.2696 10.1831 25.2364 10.2879 25.1709 10.3726C24.754 10.9517 24.2544 11.4679 23.6879 11.905C23.5999 11.9688 23.4592 12.0385 23.4592 12.1545C23.4592 15.2077 22.6738 18.255 20.4287 20.4665C17.5681 23.2759 13.2772 24.0421 9.46694 23.0031C8.73128 22.7984 8.01989 22.5162 7.34494 22.1614C7.12219 22.0395 6.89944 21.9176 6.68255 21.7725C6.62979 21.7319 6.58876 21.6913 6.63566 21.6623C6.68255 21.6332 6.71772 21.6623 6.88772 21.6623C7.96161 21.7566 9.0434 21.62 10.059 21.2617C10.6159 21.0702 11.8176 20.6813 12.1458 20.1647H12.1751C12.0344 20.1299 11.8938 20.1299 11.7589 20.1067C10.7214 19.8106 9.33798 19.2998 8.69904 17.5701C8.658 17.4714 8.69904 17.4192 8.80455 17.4366C9.28799 17.5042 9.77948 17.4904 10.2583 17.396C10.0894 17.3625 9.92438 17.3119 9.7659 17.2451C9.11977 16.9852 8.55477 16.5603 8.12846 16.0138C7.70215 15.4672 7.42977 14.8186 7.33908 14.1339C7.32185 13.9893 7.32185 13.8431 7.33908 13.6985C7.33908 13.5941 7.39184 13.565 7.47977 13.6173C7.94093 13.8524 8.44543 13.9926 8.96282 14.0294C8.79869 13.9017 8.64042 13.7624 8.48801 13.6173C7.36253 12.5609 6.92289 10.4016 7.82562 9.06077C7.90182 8.95048 7.94872 8.95048 8.03664 9.06077C10.1059 11.3826 12.6558 12.4854 15.7274 12.9381C15.8095 12.9381 15.8154 12.9381 15.8036 12.8453C15.7008 12.3075 15.7088 11.7547 15.8271 11.22C15.9647 10.67 16.2228 10.1568 16.5833 9.71667C16.9357 9.30004 17.368 8.95676 17.8553 8.70669C18.3449 8.45528 18.8818 8.30705 19.4321 8.27136C19.998 8.23233 20.5653 8.32167 21.091 8.53256C21.4847 8.69411 21.8506 8.91539 22.1755 9.18846C22.2458 9.2505 22.3105 9.31848 22.3689 9.39162C22.3894 9.4115 22.4148 9.42571 22.4426 9.43284C22.4704 9.43997 22.4995 9.43977 22.5272 9.43225C23.3051 9.2425 24.0556 8.95579 24.7606 8.579C24.7762 8.57175 24.7932 8.56799 24.8104 8.56799C24.8276 8.56799 24.8446 8.57175 24.8602 8.579C24.8954 8.579 24.8602 8.64284 24.8602 8.67767C24.7288 9.10111 24.5158 9.49533 24.233 9.83856C24.0572 10.0591 23.6058 10.5989 23.3068 10.6512C23.9636 10.5381 24.6023 10.339 25.2061 10.0591C25.2823 10.0243 25.2764 10.0127 25.2764 10.0591L25.2647 10.0765Z" fill="white"/>
</svg>
