<svg viewBox="0 0 35 35" fill="none" xmlns="http://www.w3.org/2000/svg">
  <g id="CW">
    <circle cx="17.5" cy="17.5" r="17.5" fill="white"/>
    <path fill-rule="evenodd" clip-rule="evenodd" d="M8.4 20.2837C7.69924 19.8595 7.08766 19.3028 6.6 18.6484V22.8601C6.27 22.8601 6 23.0532 6 23.2892V23.7183C6 23.9543 6.27 24.1474 6.6 24.1474H29.4C29.73 24.1474 30 23.9543 30 23.7183V23.2892C30 23.0532 29.73 22.8601 29.4 22.8601V13.4199C29.73 13.4199 30 13.2268 30 12.9908V12.5617C30 12.3257 29.73 12.1326 29.4 12.1326H17.3419C17.5391 12.5392 17.694 12.9702 17.8007 13.4199H27.6V22.8601H8.4V20.2837ZM15 20.2371C15.7056 19.7964 16.3177 19.2201 16.8 18.5447V21.3582C16.8 21.4762 16.665 21.5728 16.5 21.5728H15.3C15.135 21.5728 15 21.4762 15 21.3582V20.2371ZM10.8 21.133V21.3582C10.8 21.4762 10.935 21.5728 11.1 21.5728H12.3C12.465 21.5728 12.6 21.4762 12.6 21.3582V21.1222C12.294 21.1678 11.9809 21.1914 11.6622 21.1914C11.3697 21.1914 11.0819 21.1715 10.8 21.133ZM20.7 21.5728H19.5C19.335 21.5728 19.2 21.4762 19.2 21.3582V14.9217C19.2 14.8037 19.335 14.7072 19.5 14.7072H20.7C20.865 14.7072 21 14.8037 21 14.9217V21.3582C21 21.4762 20.865 21.5728 20.7 21.5728ZM24.9 21.5728H23.7C23.535 21.5728 23.4 21.4762 23.4 21.3582V14.9217C23.4 14.8037 23.535 14.7072 23.7 14.7072H24.9C25.065 14.7072 25.2 14.8037 25.2 14.9217V21.3582C25.2 21.4762 25.065 21.5728 24.9 21.5728Z" fill="black"/>
    <path d="M16 15.1111C16 13.9965 15.01 13.0428 13.6056 12.6442L12.7857 13.7778V12.2222C12.7857 12.1633 12.7519 12.1068 12.6916 12.0651C12.6313 12.0234 12.5495 12 12.4643 12H10.5357C10.4505 12 10.3687 12.0234 10.3084 12.0651C10.2482 12.1068 10.2143 12.1633 10.2143 12.2222V13.7778L9.39444 12.6442C7.99 13.0428 7 13.9965 7 15.1111V16H16V15.1111Z" fill="black"/>
    <path d="M7.28125 17H15.7188C15.7933 17 15.8649 17.0263 15.9176 17.0732C15.9704 17.1201 16 17.1837 16 17.25V17.75C16 17.8163 15.9704 17.8799 15.9176 17.9268C15.8649 17.9737 15.7933 18 15.7188 18H7.28125C7.20666 18 7.13512 17.9737 7.08238 17.9268C7.02963 17.8799 7 17.8163 7 17.75V17.25C7 17.1837 7.02963 17.1201 7.08238 17.0732C7.13512 17.0263 7.20666 17 7.28125 17Z" fill="#ECC800"/>
  </g>
</svg>
