<svg viewBox="0 0 35 35" fill="none" xmlns="http://www.w3.org/2000/svg">
  <g id="DC">
    <circle cx="17.5" cy="17.5" r="17.5" fill="white"/>
    <path fill-rule="evenodd" clip-rule="evenodd" d="M8.4 21.0098C7.69926 20.5857 7.08768 20.0291 6.6 19.3747V23.5859C6.27 23.5859 6 23.779 6 24.015V24.4441C6 24.6801 6.27 24.8732 6.6 24.8732H29.4C29.73 24.8732 30 24.6801 30 24.4441V24.015C30 23.779 29.73 23.5859 29.4 23.5859V14.1457C29.73 14.1457 30 13.9526 30 13.7166V13.2875C30 13.0515 29.73 12.8584 29.4 12.8584H17.3416C17.5388 13.265 17.6937 13.6961 17.8005 14.1457H27.6V23.5859H8.4V21.0098ZM15 20.963C15.7056 20.5223 16.3177 19.9459 16.8 19.2704V22.0841C16.8 22.2021 16.665 22.2986 16.5 22.2986H15.3C15.135 22.2986 15 22.2021 15 22.0841V20.963ZM10.8 21.8591V22.0841C10.8 22.2021 10.935 22.2986 11.1 22.2986H12.3C12.465 22.2986 12.6 22.2021 12.6 22.0841V21.8482C12.2939 21.8938 11.9807 21.9174 11.662 21.9174C11.3696 21.9174 11.0818 21.8976 10.8 21.8591ZM20.7 22.2986H19.5C19.335 22.2986 19.2 22.2021 19.2 22.0841V15.6476C19.2 15.5296 19.335 15.433 19.5 15.433H20.7C20.865 15.433 21 15.5296 21 15.6476V22.0841C21 22.2021 20.865 22.2986 20.7 22.2986ZM24.9 22.2986H23.7C23.535 22.2986 23.4 22.2021 23.4 22.0841V15.6476C23.4 15.5296 23.535 15.433 23.7 15.433H24.9C25.065 15.433 25.2 15.5296 25.2 15.6476V22.0841C25.2 22.2021 25.065 22.2986 24.9 22.2986Z" fill="black"/>
    <path d="M15.9155 18.4396L11.7109 15.2438L7.50631 12.048C7.40928 11.9725 7.26767 11.9877 7.19004 12.082L7.04942 12.2528C6.97165 12.3471 6.9874 12.4848 7.08443 12.5603L15.4938 18.9521C15.5908 19.0275 15.7323 19.0122 15.81 18.918L15.9507 18.7472C16.0283 18.6529 16.0127 18.5152 15.9155 18.4396Z" fill="black"/>
    <path d="M12.7938 14.8901C12.4905 14.4284 12.1285 13.877 11.8382 13.1177C11.7267 13.4089 11.6036 13.6622 11.478 13.8993L11 13.5012C11.1761 13.1565 11.3408 12.7654 11.4718 12.2951C11.5276 12.0962 11.6829 12 11.8378 12C11.9963 12 12.1543 12.1007 12.2046 12.2951C12.7289 14.1794 13.7753 14.8283 14 16L12.9436 15.1201C12.8961 15.0463 12.8464 14.9703 12.7938 14.8901Z" fill="#0674BB"/>
    <path d="M9.62241 16.4396C9.62241 17.4709 10.367 18.3099 11.2822 18.3099C11.7679 18.3099 12.2012 18.0694 12.5051 17.6934L13 18.1224C12.5818 18.6594 11.9685 19 11.2822 19C10.0207 19 9 17.8549 9 16.4396C9 15.8761 9.16273 15.4348 9.39808 15L9.8916 15.4279C9.72264 15.7545 9.62241 16.0607 9.62241 16.4396Z" fill="#0674BB"/>
  </g>
</svg>
