<svg viewBox="0 0 35 35" fill="none" xmlns="http://www.w3.org/2000/svg">
  <g id="DC-DD">
    <circle cx="17.5" cy="17.5" r="17.5" fill="white"/>
    <path d="M25.23 11.0937C25.23 10.8179 25.0669 10.5923 24.8676 10.5923H11.0996C10.9003 10.5923 10.7373 10.8179 10.7373 11.0937V11.0452C10.7373 11.321 10.9003 11.5951 11.0996 11.5951V23.6292C10.9003 23.6292 10.7373 23.8548 10.7373 24.1306C10.7373 24.4064 10.9003 24.6321 11.0996 24.6321H24.8676C25.0669 24.6321 25.23 24.4064 25.23 24.1306C25.23 23.8548 25.0669 23.6292 24.8676 23.6292V11.5951C25.0669 11.5951 25.23 11.3695 25.23 11.0937ZM23.7807 23.6292H12.1866V11.5951H23.7807V23.6292Z" fill="black"/>
    <path d="M13.0445 22.4215C12.9611 22.4289 12.8879 22.3672 12.881 22.2838C12.8741 22.2004 12.936 22.1268 13.0194 22.1195L16.5036 21.8121C16.5869 21.8048 16.6601 21.8664 16.6671 21.9498C16.674 22.0333 16.612 22.1068 16.5286 22.1142L13.0445 22.4215Z" fill="#ECC800"/>
    <path d="M13.0445 12.6185C12.9611 12.6112 12.8879 12.6728 12.881 12.7562C12.8741 12.8397 12.936 12.9132 13.0194 12.9206L16.5036 13.2279C16.5869 13.2353 16.6601 13.1736 16.6671 13.0902C16.674 13.0068 16.612 12.9332 16.5286 12.9259L13.0445 12.6185Z" fill="#ECC800"/>
    <path d="M16.4043 21.9175C16.4043 22.0012 16.4721 22.0691 16.5558 22.0691C16.6395 22.0691 16.7074 22.0012 16.7074 21.9175L16.7074 13.161C16.7074 13.0773 16.6395 13.0095 16.5558 13.0095C16.4721 13.0095 16.4043 13.0773 16.4043 13.161L16.4043 21.9175Z" fill="#ECC800"/>
    <path d="M13.7183 21.1375C13.7183 21.2212 13.7861 21.2891 13.8698 21.2891C13.9535 21.2891 14.0214 21.2212 14.0214 21.1375L14.0213 14.1293C14.0213 14.0456 13.9535 13.9778 13.8698 13.9778C13.7861 13.9778 13.7183 14.0456 13.7183 14.1293L13.7183 21.1375Z" fill="#ECC800"/>
    <path d="M14.9897 20.637C14.9897 20.7207 15.0576 20.7886 15.1413 20.7886C15.225 20.7886 15.2928 20.7207 15.2928 20.637L15.2928 14.5753C15.2928 14.4916 15.225 14.4237 15.1413 14.4237C15.0576 14.4237 14.9897 14.4916 14.9897 14.5753L14.9897 20.637Z" fill="#ECC800"/>
    <path d="M22.809 22.4217C22.8924 22.4291 22.9656 22.3674 22.9725 22.284C22.9794 22.2006 22.9175 22.127 22.8341 22.1197L19.35 21.8124C19.2666 21.805 19.1934 21.8667 19.1865 21.9501C19.1795 22.0335 19.2415 22.1071 19.3249 22.1144L22.809 22.4217Z" fill="#ECC800"/>
    <path d="M22.8085 12.6188C22.8919 12.6114 22.9651 12.6731 22.972 12.7565C22.9789 12.8399 22.917 12.9135 22.8336 12.9208L19.3495 13.2281C19.2661 13.2355 19.1929 13.1738 19.186 13.0904C19.179 13.007 19.241 12.9335 19.3244 12.9261L22.8085 12.6188Z" fill="#ECC800"/>
    <path d="M19.4492 21.9175C19.4492 22.0012 19.3814 22.0691 19.2977 22.0691C19.214 22.0691 19.1461 22.0012 19.1461 21.9175L19.1461 13.161C19.1461 13.0773 19.214 13.0095 19.2977 13.0095C19.3814 13.0095 19.4492 13.0773 19.4492 13.161L19.4492 21.9175Z" fill="#ECC800"/>
    <path d="M22.1353 21.1378C22.1353 21.2215 22.0674 21.2893 21.9837 21.2893C21.9 21.2893 21.8322 21.2215 21.8322 21.1378L21.8322 14.1296C21.8322 14.0459 21.9 13.978 21.9837 13.978C22.0674 13.978 22.1353 14.0459 22.1353 14.1296L22.1353 21.1378Z" fill="#ECC800"/>
    <path d="M20.8638 20.6373C20.8638 20.721 20.7959 20.7888 20.7122 20.7888C20.6285 20.7888 20.5607 20.721 20.5607 20.6373L20.5607 14.5755C20.5607 14.4918 20.6285 14.424 20.7122 14.424C20.7959 14.424 20.8638 14.4918 20.8638 14.5755L20.8638 20.6373Z" fill="#ECC800"/>
    <path d="M11.1779 23.8446C11.3698 23.7943 11.4838 23.598 11.4324 23.4064C11.381 23.2147 11.1838 23.1002 10.9919 23.1506L6.34757 24.3697C6.15565 24.4201 6.0417 24.6163 6.09305 24.808C6.14441 24.9996 6.34162 25.1142 6.53354 25.0638L11.1779 23.8446Z" fill="black"/>
    <path d="M11.1779 11.3106C11.3698 11.361 11.4838 11.5572 11.4324 11.7489C11.381 11.9406 11.1838 12.0551 10.9919 12.0047L6.34757 10.7855C6.15565 10.7352 6.0417 10.539 6.09305 10.3473C6.14441 10.1556 6.34162 10.0411 6.53354 10.0915L11.1779 11.3106Z" fill="black"/>
    <path d="M6.73389 24.6002C6.73389 24.8028 6.56965 24.967 6.36705 24.967C6.16444 24.967 6.0002 24.8028 6.0002 24.6002L6.00021 10.5135C6.00021 10.3109 6.16445 10.1467 6.36705 10.1467C6.56965 10.1467 6.73389 10.3109 6.73389 10.5135L6.73389 24.6002Z" fill="black"/>
    <path d="M8.16016 22.6205C8.16016 22.8118 8.00513 22.9668 7.81388 22.9668C7.62264 22.9668 7.46761 22.8118 7.46761 22.6205L7.46761 12.6941C7.46761 12.5028 7.62265 12.3478 7.81389 12.3478C8.00513 12.3478 8.16016 12.5028 8.16016 12.6941L8.16016 22.6205Z" fill="black"/>
    <path d="M10.2144 22.2214C10.2144 22.4126 10.0593 22.5676 9.86808 22.5676C9.67684 22.5676 9.52181 22.4126 9.52181 22.2214L9.52181 12.9875C9.52181 12.7962 9.67684 12.6412 9.86808 12.6412C10.0593 12.6412 10.2144 12.7962 10.2144 12.9875L10.2144 22.2214Z" fill="black"/>
    <path d="M24.8221 23.8444C24.6302 23.794 24.5162 23.5978 24.5676 23.4061C24.619 23.2145 24.8162 23.0999 25.0081 23.1503L29.6524 24.3695C29.8444 24.4199 29.9583 24.6161 29.9069 24.8077C29.8556 24.9994 29.6584 25.1139 29.4665 25.0635L24.8221 23.8444Z" fill="black"/>
    <path d="M24.8221 11.3104C24.6302 11.3608 24.5162 11.557 24.5676 11.7486C24.619 11.9403 24.8162 12.0548 25.0081 12.0045L29.6524 10.7853C29.8444 10.7349 29.9583 10.5387 29.9069 10.3471C29.8556 10.1554 29.6584 10.0409 29.4665 10.0912L24.8221 11.3104Z" fill="black"/>
    <path d="M29.2661 24.6C29.2661 24.8026 29.4304 24.9668 29.633 24.9668C29.8356 24.9668 29.9998 24.8026 29.9998 24.6L29.9998 10.5133C29.9998 10.3107 29.8356 10.1464 29.633 10.1464C29.4304 10.1464 29.2661 10.3107 29.2661 10.5133L29.2661 24.6Z" fill="black"/>
    <path d="M27.8398 22.6203C27.8398 22.8115 27.9949 22.9666 28.1861 22.9666C28.3774 22.9666 28.5324 22.8115 28.5324 22.6203L28.5324 12.6938C28.5324 12.5026 28.3774 12.3476 28.1861 12.3476C27.9949 12.3476 27.8398 12.5026 27.8398 12.6938L27.8398 22.6203Z" fill="black"/>
    <path d="M25.7856 22.2211C25.7856 22.4124 25.9407 22.5674 26.1319 22.5674C26.3232 22.5674 26.4782 22.4124 26.4782 22.2211L26.4782 12.9872C26.4782 12.796 26.3232 12.6409 26.1319 12.6409C25.9407 12.6409 25.7856 12.796 25.7856 12.9872L25.7856 22.2211Z" fill="black"/>
    <path fill-rule="evenodd" clip-rule="evenodd" d="M23.0542 12.4871C23.0542 12.4217 23.0012 12.3687 22.9358 12.3687H12.8692C12.8547 12.3687 12.8407 12.3713 12.8278 12.3761C12.7827 12.3928 12.7505 12.4362 12.7505 12.4872V22.5537C12.7505 22.6191 12.8035 22.6722 12.8689 22.6722C12.8715 22.6722 12.874 22.6721 12.8765 22.6719H22.9298L22.9353 22.6721C22.9533 22.6721 22.9703 22.6681 22.9855 22.6609C23.026 22.6421 23.054 22.6011 23.054 22.5535L23.0537 22.5455V12.4974C23.054 12.494 23.0542 12.4906 23.0542 12.4871ZM12.9873 22.4351H22.8169V12.6055L12.9873 12.6055V22.4351Z" fill="black"/>
    <path d="M12.1582 11.5396L12.8688 12.487" stroke="black" stroke-width="0.3"/>
    <path d="M22.9355 12.487L23.883 11.5396" stroke="black" stroke-width="0.3"/>
    <path d="M12.8688 22.5537L12.1582 23.6196" stroke="black" stroke-width="0.3"/>
    <path d="M23.7646 23.6196L22.9355 22.5537" stroke="black" stroke-width="0.3"/>
  </g>
</svg>
