<svg viewBox="0 0 35 35" fill="none" xmlns="http://www.w3.org/2000/svg">
  <g id="Dry">
    <circle cx="17.5" cy="17.5" r="17.5" fill="white"/>
    <path d="M20.4844 17.2254C19.7263 16.071 18.8212 14.6925 18.0955 12.7943C17.8168 13.5222 17.5089 14.1554 17.1951 14.7483L16 13.753C16.4402 12.8912 16.8521 11.9136 17.1794 10.7378C17.3189 10.2405 17.7074 10 18.0945 10C18.4908 10 18.8858 10.2518 19.0115 10.7378C20.3223 15.4484 22.9382 17.0707 23.5 20L20.859 17.8002C20.7402 17.6158 20.6161 17.4258 20.4844 17.2254Z" fill="#0674BB"/>
    <path d="M14.556 20.799C14.556 23.1624 16.4174 25.0852 18.7054 25.0852C19.9197 25.0852 21.0031 24.534 21.7626 23.6724L23 24.6555C21.9546 25.8861 20.4212 26.6667 18.7054 26.6667C15.5519 26.6667 13 24.0424 13 20.799C13 19.5078 13.4068 18.4963 13.9952 17.5L15.229 18.4805C14.8066 19.2291 14.556 19.9309 14.556 20.799Z" fill="#0674BB"/>
    <path d="M27.8122 25.3325L18.4687 17.7234L9.12513 10.1143C8.9095 9.93457 8.59482 9.9707 8.42232 10.1953L8.10982 10.6019C7.93701 10.8265 7.97201 11.1543 8.18763 11.334L26.875 26.5525C27.0907 26.7322 27.405 26.6957 27.5778 26.4715L27.8903 26.0649C28.0628 25.8403 28.0281 25.5125 27.8122 25.3325Z" fill="black"/>
  </g>
</svg>
