<svg width="106" height="106" viewBox="0 0 106 106" fill="none" xmlns="http://www.w3.org/2000/svg">
<g clip-path="url(#clip0)">
<path d="M51.4033 0C41.2359 6.82113e-07 31.2969 3.01523 22.8433 8.66434C14.3896 14.3134 7.80112 22.3426 3.91108 31.7365C0.0210239 41.1302 -0.995835 51.4669 0.989102 61.4386C2.97404 71.4103 7.87159 80.5696 15.0624 87.7577C22.2532 94.9458 31.4141 99.8401 41.3866 101.821C51.3592 103.803 61.6952 102.782 71.0878 98.8884C80.48 94.995 88.5068 88.4037 94.1527 79.9478C99.799 71.4922 102.81 61.552 102.807 51.3846C102.792 37.7578 97.3706 24.6938 87.7333 15.0601C78.096 5.42627 65.03 0.0099674 51.4033 0ZM65.657 30.4843C65.657 30.689 65.5758 30.8854 65.4309 31.0302C65.286 31.1749 65.0898 31.2563 64.8849 31.2563H58.7089C57.9801 31.2563 57.2808 31.5459 56.7652 32.0614C56.2497 32.577 55.96 33.2763 55.96 34.0054V40.4824H64.7532C64.8595 40.4824 64.9648 40.5039 65.0622 40.5463C65.1598 40.5884 65.2475 40.6504 65.3201 40.7281C65.3924 40.8058 65.4483 40.898 65.4836 40.9982C65.5186 41.0985 65.5331 41.2051 65.525 41.3111L64.7532 50.4432C64.7345 50.6346 64.6449 50.8119 64.502 50.941C64.3593 51.0698 64.1737 51.1408 63.9813 51.1399H55.96V81.417C55.96 81.6216 55.8787 81.8179 55.7338 81.9627C55.589 82.1076 55.3927 82.1889 55.1881 82.1889H44.1166C43.9116 82.1889 43.7154 82.1076 43.5705 81.9627C43.426 81.8179 43.3447 81.6216 43.3447 81.417V51.1399H37.8275C37.7248 51.1421 37.6223 51.1241 37.5262 51.0865C37.4305 51.049 37.3432 50.9924 37.2696 50.9205C37.1957 50.8485 37.1373 50.7624 37.0974 50.6677C37.0573 50.5726 37.0367 50.4708 37.0367 50.3677V41.2546C37.0367 41.1514 37.0573 41.0496 37.0974 40.9545C37.1373 40.8598 37.1957 40.7737 37.2696 40.7018C37.3432 40.6298 37.4305 40.5736 37.5262 40.5357C37.6223 40.4981 37.7248 40.4801 37.8275 40.4824H43.3257V31.6893C43.3257 28.743 44.4962 25.9173 46.5796 23.834C48.663 21.7506 51.4884 20.5802 54.4349 20.5802H64.8662C64.969 20.5801 65.0712 20.6007 65.1659 20.6407C65.261 20.6807 65.3468 20.7392 65.4187 20.8129C65.4907 20.8866 65.5472 20.9739 65.5848 21.0698C65.6227 21.1656 65.6407 21.268 65.6381 21.371L65.657 30.4843Z" fill="white"/>
</g>
<defs>
<clipPath id="clip0">
<rect width="106" height="106" fill="white"/>
</clipPath>
</defs>
</svg>
