<svg viewBox="0 0 35 35" fill="none" xmlns="http://www.w3.org/2000/svg">
  <g id="FR">
    <circle cx="17.5" cy="17.5" r="17.5" fill="white"/>
    <rect x="8.74072" y="20.9814" width="18.5185" height="2.22222" fill="#ECC800"/>
    <path fill-rule="evenodd" clip-rule="evenodd" d="M10 25C9.71285 25 9.45397 24.879 9.27158 24.6851H8.93067C8.41668 24.6851 8 24.2685 8 23.7545C8 23.2405 8.41668 22.8238 8.93067 22.8238H9L9 11C9 10.4477 9.44771 10 10 10C10.5523 10 11 10.4477 11 11L11 22.8238L25 22.8238V11C25 10.4477 25.4477 10 26 10C26.5523 10 27 10.4477 27 11V22.8238H27.0693C27.5833 22.8238 28 23.2405 28 23.7545C28 24.2685 27.5833 24.6851 27.0693 24.6851H26.7284C26.546 24.879 26.2871 25 26 25C25.7129 25 25.454 24.879 25.2716 24.6851L10.7284 24.6851C10.546 24.879 10.2872 25 10 25Z" fill="black"/>
  </g>
</svg>
