<svg width="106" height="106" viewBox="0 0 106 106" fill="none" xmlns="http://www.w3.org/2000/svg">
<g clip-path="url(#clip0)">
<path d="M51.4036 102.807C41.2369 102.807 31.2985 99.7919 22.8452 94.1437C14.392 88.4955 7.80346 80.4675 3.91288 71.0746C0.022273 61.682 -0.995687 51.3464 0.987724 41.375C2.97114 31.4039 7.86684 22.2446 15.0557 15.0557C22.2446 7.86684 31.4039 2.97114 41.375 0.987724C51.3464 -0.995687 61.682 0.022273 71.0746 3.91288C80.4675 7.80346 88.4955 14.392 94.1437 22.8452C99.7919 31.2985 102.807 41.2369 102.807 51.4036C102.797 65.0332 97.378 78.1021 87.7401 87.7401C78.1021 97.378 65.0332 102.797 51.4036 102.807ZM68.7465 30.554C67.9968 30.554 67.2637 30.7763 66.6403 31.1928C66.0168 31.6094 65.5311 32.2015 65.2443 32.894C64.9571 33.5869 64.8823 34.3491 65.0284 35.0844C65.1746 35.8196 65.5356 36.4952 66.0659 37.0252C66.5959 37.5555 67.2715 37.9165 68.0067 38.0627C68.7423 38.2091 69.5045 38.134 70.1971 37.8471C70.8899 37.56 71.4819 37.0743 71.8982 36.4508C72.3148 35.8274 72.5371 35.0947 72.5371 34.3446C72.5371 33.3392 72.1378 32.3753 71.427 31.6643C70.7161 30.9534 69.7519 30.554 68.7465 30.554ZM51.8395 35.4442C48.6784 35.4442 45.5884 36.3818 42.9605 38.1382C40.3324 39.8949 38.2843 42.3913 37.0756 45.3121C35.8669 48.2329 35.5514 51.4466 36.1694 54.5466C36.7875 57.6467 38.3113 60.4936 40.5479 62.7276C42.7842 64.9613 45.633 66.4816 48.7337 67.0961C51.8346 67.7102 55.0477 67.3913 57.9672 66.179C60.8864 64.9668 63.3806 62.9158 65.1341 60.2857C66.8876 57.6556 67.8214 54.5643 67.8175 51.4036C67.8076 47.1706 66.1202 43.1141 63.1256 40.1229C60.1306 37.1315 56.0724 35.449 51.8395 35.4442ZM51.8395 61.6387C49.8152 61.6387 47.8362 61.0383 46.153 59.9138C44.4699 58.7889 43.1581 57.1905 42.3833 55.3201C41.6085 53.45 41.4058 51.392 41.8009 49.4066C42.1957 47.4212 43.1706 45.5973 44.6019 44.166C46.0336 42.7347 47.8571 41.7598 49.8425 41.3651C51.8279 40.97 53.8859 41.1726 55.7563 41.9474C57.6264 42.7222 59.2251 44.034 60.3497 45.7172C61.4742 47.4003 62.0746 49.379 62.0746 51.4036C62.0746 54.1178 60.9963 56.7212 59.0767 58.6408C57.1571 60.5604 54.554 61.6387 51.8395 61.6387ZM84.0612 38.1356C84.0612 32.9679 82.0083 28.0119 78.3542 24.3578C74.7001 20.7037 69.7441 18.6508 64.5765 18.6508H38.8747C33.707 18.6508 28.7511 20.7037 25.097 24.3578C21.4429 28.0119 19.39 32.9679 19.39 38.1356V63.8563C19.38 66.4215 19.8767 68.9633 20.8514 71.3361C21.8261 73.7089 23.2598 75.8658 25.0701 77.6832C26.8804 79.5003 29.0318 80.9426 31.4007 81.9264C33.7697 82.9103 36.3095 83.4169 38.8747 83.4169H64.5765C67.1417 83.4169 69.6815 82.9103 72.0504 81.9264C74.4194 80.9426 76.5709 79.5003 78.3812 77.6832C80.1916 75.8658 81.6251 73.7089 82.6 71.3361C83.5746 68.9633 84.0712 66.4215 84.0612 63.8563V38.1356ZM77.9582 63.8563C77.9582 67.4054 76.5484 70.809 74.0388 73.3186C71.5291 75.8279 68.1256 77.2377 64.5765 77.2377H38.8747C35.324 77.2377 31.9184 75.8285 29.4059 73.3196C26.8934 70.8106 25.4793 67.407 25.4743 63.8563V38.1356C25.4793 34.5849 26.8934 31.1812 29.4059 28.6722C31.9184 26.1633 35.324 24.754 38.8747 24.754H64.5765C68.1256 24.754 71.5291 26.1639 74.0388 28.6734C76.5484 31.1829 77.9582 34.5865 77.9582 38.1356V63.8563Z" fill="white"/>
</g>
<defs>
<clipPath id="clip0">
<rect width="106" height="106" fill="white"/>
</clipPath>
</defs>
</svg>
