<svg width="106" height="106" viewBox="0 0 106 106" fill="none" xmlns="http://www.w3.org/2000/svg">
<g clip-path="url(#clip0)">
<path d="M51.4222 3.46281e-06C41.2549 -0.0037277 31.3147 3.00786 22.8589 8.65387C14.4032 14.2998 7.81178 22.3267 3.91827 31.7191C0.0247968 41.1116 -0.995853 51.4476 0.985425 61.4199C2.96671 71.3926 7.86093 80.5536 15.049 87.7442C22.2372 94.9352 31.3964 99.8327 41.3683 101.818C51.34 103.803 61.6763 102.786 71.0701 98.8958C80.464 95.0056 88.4933 88.4172 94.1425 79.9635C99.7916 71.5099 102.807 61.5709 102.807 51.4033C102.792 37.7781 97.3739 24.7151 87.7413 15.0789C78.1085 5.44268 65.0474 0.0199735 51.4222 3.46281e-06ZM38.5573 74.4923C38.5731 74.6099 38.5641 74.7294 38.531 74.8434C38.4979 74.9571 38.4414 75.0628 38.3649 75.1534C38.2885 75.2439 38.194 75.3175 38.0874 75.3695C37.9808 75.4212 37.8645 75.4502 37.7463 75.4543H27.805C27.6911 75.4543 27.5782 75.4322 27.4729 75.3885C27.3677 75.3448 27.272 75.2809 27.1914 75.2003C27.1108 75.1196 27.0469 75.0242 27.0033 74.9189C26.9597 74.8135 26.9373 74.7008 26.9373 74.5867V41.2549C26.9422 41.0278 27.0358 40.8119 27.198 40.6533C27.3602 40.4946 27.5781 40.4059 27.805 40.4059H37.7463C37.9711 40.4059 38.1873 40.4952 38.3463 40.6545C38.5056 40.8135 38.5949 41.0297 38.5949 41.2549L38.5573 74.4923ZM32.4077 35.9539C31.1765 35.9539 29.973 35.589 28.9493 34.9048C27.9256 34.221 27.1277 33.2487 26.6566 32.1113C26.1854 30.9738 26.0622 29.7222 26.3023 28.5146C26.5425 27.3071 27.1354 26.1979 28.006 25.3273C28.8766 24.4567 29.9858 23.8639 31.1933 23.6237C32.4007 23.3835 33.6524 23.5068 34.7898 23.9779C35.9273 24.4491 36.8996 25.247 37.5837 26.2707C38.2676 27.2943 38.6328 28.4979 38.6328 29.7291C38.6328 31.38 37.9769 32.9634 36.8093 34.1307C35.642 35.2983 34.0588 35.9539 32.4077 35.9539ZM80.4723 74.4923C80.4749 74.607 80.454 74.721 80.4113 74.8277C80.3689 74.934 80.305 75.0307 80.2237 75.1116C80.1427 75.1929 80.0461 75.2568 79.9397 75.2995C79.8331 75.3419 79.7191 75.3628 79.6044 75.3602H69.7011C69.588 75.3602 69.4759 75.3377 69.3719 75.2937C69.2675 75.25 69.173 75.1858 69.094 75.1049C69.015 75.0239 68.953 74.9282 68.9112 74.8232C68.8698 74.7178 68.8496 74.6054 68.8521 74.4923V56.5908C68.8521 51.8937 67.1735 48.6871 62.9669 48.6871C61.6541 48.6929 60.3754 49.1059 59.3076 49.8698C58.2399 50.6333 57.4356 51.7097 57.0058 52.9502C56.6875 53.8772 56.5529 54.8576 56.6098 55.8363V74.4923C56.6124 74.6054 56.5921 74.7178 56.5507 74.8232C56.5092 74.9282 56.4469 75.0239 56.3679 75.1049C56.2889 75.1858 56.1945 75.25 56.0901 75.2937C55.986 75.3377 55.8739 75.3602 55.7608 75.3602H45.8575C45.7429 75.3628 45.6288 75.3419 45.5225 75.2995C45.4159 75.2568 45.3192 75.1929 45.2382 75.1116C45.157 75.0307 45.0934 74.934 45.0506 74.8277C45.0079 74.721 44.987 74.607 44.9896 74.4923C44.9896 69.7387 45.122 46.6875 44.9896 41.2735C44.987 41.1588 45.0079 41.0448 45.0506 40.9385C45.0934 40.8322 45.157 40.7355 45.2382 40.6542C45.3192 40.5733 45.4159 40.5093 45.5225 40.4666C45.6288 40.4239 45.7429 40.4033 45.8575 40.4059H55.7419C55.967 40.4059 56.1832 40.4952 56.3422 40.6545C56.5015 40.8135 56.5908 41.0297 56.5908 41.2549V45.2726C57.6605 43.4619 59.2049 41.9776 61.0563 40.9802C62.9081 39.9829 64.9973 39.5104 67.098 39.6135C74.6433 39.6135 80.4723 44.6125 80.4723 55.3458V74.4923Z" fill="white"/>
</g>
<defs>
<clipPath id="clip0">
<rect width="106" height="106" fill="white"/>
</clipPath>
</defs>
</svg>
