<svg width="118" height="110" viewBox="0 0 118 110" fill="none" xmlns="http://www.w3.org/2000/svg">
<path d="M63.914 42.5215H9.09583C8.09083 42.5215 7.26855 43.3438 7.26855 44.3488V69.9306C7.26855 70.9356 8.09083 71.7579 9.09583 71.7579H63.914C64.919 71.7579 65.7413 70.9356 65.7413 69.9306V44.3488C65.7413 43.3438 64.919 42.5215 63.914 42.5215ZM62.0868 68.1033H10.9231V46.176H62.0868V68.1033Z" fill="#0674BB"/>
<path d="M20.0588 49.8301H16.4043V64.4483H20.0588V49.8301Z" fill="#0674BB"/>
<path d="M29.1965 49.8301H25.542V64.4483H29.1965V49.8301Z" fill="#0674BB"/>
<path d="M38.3333 49.8301H34.6787V64.4483H38.3333V49.8301Z" fill="#0674BB"/>
<path d="M47.469 49.8301H43.8145V64.4483H47.469V49.8301Z" fill="#0674BB"/>
<path d="M56.6057 49.8301H52.9512V64.4483H56.6057V49.8301Z" fill="#0674BB"/>
<path d="M56.6455 80.4404H1.82727C0.822273 80.4404 0 81.2627 0 82.2677V107.85C0 108.855 0.822273 109.677 1.82727 109.677H56.6455C57.6505 109.677 58.4728 108.855 58.4728 107.85V82.2677C58.4728 81.2627 57.6505 80.4404 56.6455 80.4404ZM54.8182 106.022H3.65455V84.095H54.8182V106.022Z" fill="#ECC800"/>
<path d="M12.7913 87.75H9.13672V102.368H12.7913V87.75Z" fill="#ECC800"/>
<path d="M21.927 87.75H18.2725V102.368H21.927V87.75Z" fill="#ECC800"/>
<path d="M31.0637 87.75H27.4092V102.368H31.0637V87.75Z" fill="#ECC800"/>
<path d="M40.1995 87.75H36.5449V102.368H40.1995V87.75Z" fill="#ECC800"/>
<path d="M49.3362 87.75H45.6816V102.368H49.3362V87.75Z" fill="#ECC800"/>
<path d="M115.446 47.5091H108.137V16.8566C112.157 13.8416 112.979 8.13137 109.964 4.11137C106.949 0.0913636 101.239 -0.730909 97.219 2.28409C95.0948 3.88296 93.77 6.30409 93.5873 8.95364L44.1823 3.83727V1.82727C44.1823 0.822273 43.3601 0 42.3551 0H31.3914C30.3864 0 29.5641 0.822273 29.5641 1.82727V10.9636C29.5641 11.9686 30.3864 12.7909 31.3914 12.7909H35.0459V18.2727C35.0459 19.2777 35.8682 20.1 36.8732 20.1H37.7869C40.2994 20.1 42.3551 22.1557 42.3551 24.6682C42.3551 27.1807 40.2994 29.2364 37.7869 29.2364C35.2744 29.2364 33.2187 27.1807 33.2187 24.6682H29.5641C29.5641 27.1807 30.729 29.5562 32.7162 31.0865L10.8574 42.0273C10.8571 42.0273 61.0846 42.0273 61.0846 42.0273L41.9439 31.726C45.8497 29.4419 47.1745 24.4169 44.8904 20.5111C43.5885 18.2727 41.2815 16.7881 38.7005 16.4911V12.7909H42.3551C43.3601 12.7909 44.1823 11.9686 44.1823 10.9636V7.51466L94.0898 12.6767C94.6836 14.3441 95.7572 15.7831 97.1733 16.8566V47.5091H80.7278C79.7228 47.5091 78.9006 48.3314 78.9006 49.3364V74.9182H75.246C74.241 74.9182 73.4187 75.7405 73.4187 76.7455V107.809C73.4187 108.814 74.241 109.636 75.246 109.636H115.446C116.451 109.636 117.273 108.814 117.273 107.809V49.3364C117.273 48.3314 116.451 47.5091 115.446 47.5091ZM53.3872 42.0273H19.0345L36.8504 33.1193L53.3872 42.0273ZM40.5278 9.13637H33.2187V3.65455H40.5278V9.13637ZM102.655 4.11137C105.693 4.11137 108.137 6.55534 108.137 9.59319C108.137 12.631 105.693 15.075 102.655 15.075C99.6173 15.075 97.1733 12.631 97.1733 9.59319C97.1733 6.57819 99.6401 4.11137 102.655 4.11137ZM106.31 58.724L112.385 63.7947L106.31 67.8604V58.724ZM112.385 80.2402L106.31 84.3058V75.1695L112.385 80.2402ZM112.385 96.6856L106.31 100.751V91.6149L112.385 96.6856ZM102.655 105.982H77.0733V78.5728H102.655V105.982ZM102.655 74.9182H82.5551V51.1637H102.655V74.9182ZM104.482 47.5091H100.828V18.5468C102.038 18.7981 103.272 18.7981 104.482 18.5468V47.5091ZM113.619 105.982H106.31V105.137L113.619 100.272V105.982ZM113.619 92.9397L107.543 87.869L113.619 83.8033V92.9397ZM113.619 76.4942L107.543 71.4236L113.619 67.3579V76.4942ZM113.619 60.0488L106.31 53.9502V51.1637H113.619V60.0488Z" fill="black"/>
</svg>
