<svg viewBox="0 0 35 35" fill="none" xmlns="http://www.w3.org/2000/svg">
  <g id="NOR">
    <circle cx="17.5" cy="17.5" r="17.5" fill="white"/>
    <path d="M25.5866 20.4639V12.6438C25.5866 11.2182 24.4261 10.0576 23.0006 10.0576C21.575 10.0576 20.4145 11.2182 20.4145 12.6438V20.4639C19.7583 21.1363 19.3801 22.0447 19.3801 22.9887C19.3801 24.9865 21.0028 26.6093 23.0006 26.6093C24.9983 26.6093 26.6211 24.9865 26.6211 22.9887C26.6211 22.0447 26.2428 21.133 25.5866 20.4639ZM23.0006 25.5749C21.575 25.5749 20.4145 24.4143 20.4145 22.9887C20.4145 22.1643 20.8089 21.4078 21.4489 20.9262V12.6438C21.4489 11.7871 22.1439 11.0921 23.0006 11.0921C23.8572 11.0921 24.5522 11.7871 24.5522 12.6438V20.9262C25.1923 21.4046 25.5866 22.1643 25.5866 22.9887C25.5866 24.4143 24.4261 25.5749 23.0006 25.5749ZM19.0277 20.5964C19.1377 20.4154 19.2476 20.2376 19.3801 20.0727V19.6137L17.2757 18.3335L19.3801 17.0565V15.8572L16.794 17.4283V14.4121L18.2713 12.9348C18.3715 12.8346 18.3715 12.6697 18.2713 12.5695L17.906 12.2042C17.8058 12.104 17.641 12.104 17.5408 12.2042L16.7973 12.9477V11.3507C16.7973 11.2085 16.6809 11.0921 16.5387 11.0921H16.0215C15.8792 11.0921 15.7629 11.2085 15.7629 11.3507V12.9477L15.0194 12.2042C14.9192 12.104 14.7543 12.104 14.6541 12.2042L14.2888 12.5695C14.1886 12.6697 14.1886 12.8346 14.2888 12.9348L15.7661 14.4121V17.4283L13.2544 15.9251L12.7339 13.9078C12.6984 13.7688 12.5626 13.688 12.4301 13.7236L11.9484 13.8561C11.8159 13.8917 11.7351 14.0339 11.7706 14.1729L12.0325 15.1912L10.7006 14.3927C10.581 14.3216 10.4291 14.3637 10.3612 14.4865L10.1026 14.9358C10.0347 15.0587 10.0735 15.2171 10.1931 15.2882L11.525 16.0867L10.5487 16.3615C10.4162 16.3971 10.3354 16.5393 10.3709 16.6783L10.5002 17.1794C10.5358 17.3184 10.6716 17.3992 10.8041 17.3637L12.7501 16.8238L15.278 18.3367L12.7501 19.8496L10.8041 19.3098C10.6716 19.2742 10.5358 19.355 10.5002 19.494L10.3709 19.9951C10.3354 20.1341 10.4129 20.2764 10.5487 20.3119L11.5282 20.5835L10.1964 21.3755C10.0768 21.4466 10.0347 21.605 10.1059 21.7279L10.3548 22.1772C10.4226 22.3001 10.5778 22.3421 10.6942 22.271L12.026 21.4725L11.7642 22.4908C11.7286 22.6298 11.8062 22.7721 11.942 22.8076L12.4236 22.9402C12.5561 22.9757 12.6919 22.8949 12.7275 22.7559L13.2479 20.7387L15.7596 19.2354V22.2516L14.2823 23.7322C14.1821 23.8324 14.1821 23.9973 14.2823 24.0975L14.6476 24.4628C14.7478 24.563 14.9127 24.563 15.0129 24.4628L15.7564 23.7193V25.3162C15.7564 25.4585 15.8728 25.5749 16.015 25.5749H16.5322C16.6744 25.5749 16.7908 25.4585 16.7908 25.3162V23.7193L17.5343 24.4628C17.6345 24.563 17.7994 24.563 17.8996 24.4628L18.2649 24.0975C18.3651 23.9973 18.3651 23.8324 18.2649 23.7322L16.794 22.258V19.2419L19.0277 20.5964Z" fill="black"/>
    <path d="M23.5256 20.705V21.3607C24.1514 21.5897 24.6022 22.2003 24.6022 22.9253C24.6022 23.8447 23.8789 24.5906 22.9874 24.5906C22.0959 24.5906 21.3726 23.8447 21.3726 22.9253C21.3726 22.2003 21.8234 21.5897 22.4491 21.3607V20.705C22.4491 20.3997 22.6913 20.1499 22.9874 20.1499C23.2834 20.1499 23.5256 20.3997 23.5256 20.705Z" fill="#0674BB"/>
    <path d="M27.8122 25.3325L18.4687 17.7234L9.12513 10.1143C8.9095 9.93457 8.59482 9.9707 8.42232 10.1953L8.10982 10.6019C7.93701 10.8265 7.97201 11.1543 8.18763 11.334L26.875 26.5525C27.0907 26.7322 27.405 26.6957 27.5778 26.4715L27.8903 26.0649C28.0628 25.8403 28.0282 25.5125 27.8122 25.3325Z" fill="#F00000"/>
  </g>
</svg>
