<svg viewBox="0 0 35 35" fill="none" xmlns="http://www.w3.org/2000/svg">
  <!-- <g id="6-pies"> -->
    <circle cx="17.5" cy="17.5" r="17.5" fill="white"/>
    <rect x="28" y="11.5217" width="20" height="1.52174" rx="0.760869" transform="rotate(-180 28 11.5217)" fill="black"/>
    <rect x="28" y="26.9565" width="20" height="1.52174" rx="0.760869" transform="rotate(-180 28 26.9565)" fill="black"/>
    <rect x="8.65234" y="26.9565" width="16.9565" height="1.52174" rx="0.76087" transform="rotate(-90 8.65234 26.9565)" fill="black"/>
    <rect x="25.8037" y="26.9565" width="16.9565" height="1.52174" rx="0.76087" transform="rotate(-90 25.8037 26.9565)" fill="black"/>
    <path d="M18.3708 22.3277C18.275 22.3277 18.1966 22.2461 18.1966 22.1465V21.7842C18.1966 21.6845 18.275 21.603 18.3708 21.603H24.9913C25.0871 21.603 25.1655 21.6845 25.1655 21.7842V22.1465C25.1655 22.2461 25.0871 22.3277 24.9913 22.3277H24.4686V23.0523H24.9913C25.0871 23.0523 25.1655 23.1338 25.1655 23.2335V23.5958C25.1655 23.6954 25.0871 23.7769 24.9913 23.7769H18.3708C18.275 23.7769 18.1966 23.6954 18.1966 23.5958V23.2335C18.1966 23.1338 18.275 23.0523 18.3708 23.0523H18.8935V22.3277H18.3708ZM22.0295 23.0523H23.7717V22.3277H22.0295V23.0523ZM19.5904 23.0523H21.3326V22.3277H19.5904V23.0523Z" fill="black"/>
    <path d="M10.9919 22.3267C10.8961 22.3267 10.8177 22.2452 10.8177 22.1455V21.7832C10.8177 21.6836 10.8961 21.6021 10.9919 21.6021H17.6124C17.7082 21.6021 17.7866 21.6836 17.7866 21.7832V22.1455C17.7866 22.2452 17.7082 22.3267 17.6124 22.3267H17.0897V23.0513H17.6124C17.7082 23.0513 17.7866 23.1328 17.7866 23.2325V23.5948C17.7866 23.6944 17.7082 23.776 17.6124 23.776H10.9919C10.8961 23.776 10.8177 23.6944 10.8177 23.5948V23.2325C10.8177 23.1328 10.8961 23.0513 10.9919 23.0513H11.5146V22.3267H10.9919ZM14.6506 23.0513H16.3928V22.3267H14.6506V23.0513ZM12.2115 23.0513H13.9537V22.3267H12.2115V23.0513Z" fill="#0674BB"/>
    <path d="M18.3708 14.1514C18.275 14.1514 18.1966 14.0699 18.1966 13.9702V13.6079C18.1966 13.5083 18.275 13.4268 18.3708 13.4268H24.9913C25.0871 13.4268 25.1655 13.5083 25.1655 13.6079V13.9702C25.1655 14.0699 25.0871 14.1514 24.9913 14.1514H24.4686V14.876H24.9913C25.0871 14.876 25.1655 14.9576 25.1655 15.0572V15.4195C25.1655 15.5191 25.0871 15.6007 24.9913 15.6007H18.3708C18.275 15.6007 18.1966 15.5191 18.1966 15.4195V15.0572C18.1966 14.9576 18.275 14.876 18.3708 14.876H18.8935V14.1514H18.3708ZM22.0295 14.876H23.7717V14.1514H22.0295V14.876ZM19.5904 14.876H21.3326V14.1514H19.5904V14.876Z" fill="black"/>
    <path d="M10.9919 14.1502C10.8961 14.1502 10.8177 14.0687 10.8177 13.969V13.6067C10.8177 13.5071 10.8961 13.4255 10.9919 13.4255H17.6124C17.7082 13.4255 17.7866 13.5071 17.7866 13.6067V13.969C17.7866 14.0687 17.7082 14.1502 17.6124 14.1502H17.0897V14.8748H17.6124C17.7082 14.8748 17.7866 14.9563 17.7866 15.056V15.4183C17.7866 15.5179 17.7082 15.5995 17.6124 15.5995H10.9919C10.8961 15.5995 10.8177 15.5179 10.8177 15.4183V15.056C10.8177 14.9563 10.8961 14.8748 10.9919 14.8748H11.5146V14.1502H10.9919ZM14.6506 14.8748H16.3928V14.1502H14.6506V14.8748ZM12.2115 14.8748H13.9537V14.1502H12.2115V14.8748Z" fill="#0674BB"/>
    <path d="M18.3708 18.2388C18.275 18.2388 18.1966 18.1573 18.1966 18.0576V17.6953C18.1966 17.5957 18.275 17.5142 18.3708 17.5142H24.9913C25.0871 17.5142 25.1655 17.5957 25.1655 17.6953V18.0576C25.1655 18.1573 25.0871 18.2388 24.9913 18.2388H24.4686V18.9634H24.9913C25.0871 18.9634 25.1655 19.045 25.1655 19.1446V19.5069C25.1655 19.6066 25.0871 19.6881 24.9913 19.6881H18.3708C18.275 19.6881 18.1966 19.6066 18.1966 19.5069V19.1446C18.1966 19.045 18.275 18.9634 18.3708 18.9634H18.8935V18.2388H18.3708ZM22.0295 18.9634H23.7717V18.2388H22.0295V18.9634ZM19.5904 18.9634H21.3326V18.2388H19.5904V18.9634Z" fill="#0674BB"/>
    <path d="M10.9919 18.2383C10.8961 18.2383 10.8177 18.1568 10.8177 18.0572V17.6948C10.8177 17.5952 10.8961 17.5137 10.9919 17.5137H17.6124C17.7082 17.5137 17.7866 17.5952 17.7866 17.6948V18.0572C17.7866 18.1568 17.7082 18.2383 17.6124 18.2383H17.0897V18.9629H17.6124C17.7082 18.9629 17.7866 19.0445 17.7866 19.1441V19.5064C17.7866 19.6061 17.7082 19.6876 17.6124 19.6876H10.9919C10.8961 19.6876 10.8177 19.6061 10.8177 19.5064V19.1441C10.8177 19.0445 10.8961 18.9629 10.9919 18.9629H11.5146V18.2383H10.9919ZM14.6506 18.9629H16.3928V18.2383H14.6506V18.9629ZM12.2115 18.9629H13.9537V18.2383H12.2115V18.9629Z" fill="black"/>
  <!-- </g> -->
</svg>
