<svg width="35" height="35" viewBox="0 0 35 35" fill="none" xmlns="http://www.w3.org/2000/svg">
<g id="SPECIAL">
<circle cx="17.5" cy="17.5" r="17.5" fill="white"/>
<path d="M22.8754 17.917C22.8754 17.7443 22.8272 17.575 22.7364 17.4281C22.6455 17.2812 22.5155 17.1625 22.361 17.0853L18.2992 15.0548L16.2693 10.9936C15.9544 10.3641 14.9208 10.3641 14.6059 10.9936L12.5756 15.0548L8.51423 17.0853C8.35972 17.1625 8.22977 17.2812 8.13894 17.4281C8.04811 17.575 8 17.7443 8 17.917C8 18.0897 8.04811 18.259 8.13894 18.4059C8.22977 18.5528 8.35972 18.6715 8.51423 18.7487L12.5756 20.7793L14.6059 24.8409C14.6831 24.9954 14.8018 25.1253 14.9487 25.2161C15.0956 25.307 15.2649 25.3551 15.4376 25.3551C15.6103 25.3551 15.7796 25.307 15.9265 25.2161C16.0734 25.1253 16.1921 24.9954 16.2693 24.8409L18.2992 20.7793L22.361 18.7487C22.5155 18.6716 22.6455 18.5529 22.7364 18.406C22.8272 18.2591 22.8754 18.0898 22.8754 17.917ZM17.1917 19.2546C17.0115 19.3445 16.8653 19.4905 16.7752 19.6706L15.4376 22.3458L14.0999 19.6706C14.0099 19.4905 13.8637 19.3445 13.6835 19.2546L11.0082 17.917L13.6835 16.5794C13.8637 16.4896 14.0098 16.3438 14.0999 16.1638L15.4376 13.4882L16.7752 16.1638C16.8654 16.3438 17.0115 16.4896 17.1917 16.5794L19.867 17.917L17.1917 19.2546Z" fill="black"/>
<path d="M23.0412 12.9588L20.7332 11.9965C20.6816 11.9708 20.6382 11.9313 20.6079 11.8823C20.5776 11.8333 20.5615 11.7768 20.5615 11.7192C20.5615 11.6616 20.5776 11.6051 20.6079 11.5561C20.6382 11.5071 20.6816 11.4675 20.7332 11.4418L23.0412 10.4796L24.0035 8.17166C24.0292 8.12009 24.0688 8.07671 24.1178 8.04639C24.1668 8.01606 24.2233 8 24.2809 8C24.3385 8 24.395 8.01606 24.444 8.04639C24.493 8.07671 24.5325 8.12009 24.5582 8.17166L25.5205 10.4796L27.8286 11.4418C27.8801 11.4675 27.9235 11.5071 27.9538 11.5561C27.9842 11.6051 28.0002 11.6616 28.0002 11.7192C28.0002 11.7768 27.9842 11.8333 27.9538 11.8823C27.9235 11.9313 27.8801 11.9708 27.8286 11.9965L25.5205 12.9588L24.5582 15.2667C24.5325 15.3183 24.493 15.3617 24.444 15.392C24.395 15.4223 24.3385 15.4384 24.2809 15.4384C24.2233 15.4384 24.1668 15.4223 24.1178 15.392C24.0688 15.3617 24.0292 15.3183 24.0035 15.2667L23.0412 12.9588Z" fill="#ECC800"/>
<path d="M23.0412 25.5203L20.7332 24.5581C20.6816 24.5324 20.6382 24.4928 20.6079 24.4438C20.5776 24.3948 20.5615 24.3383 20.5615 24.2807C20.5615 24.2231 20.5776 24.1666 20.6079 24.1176C20.6382 24.0686 20.6816 24.0291 20.7332 24.0034L23.0412 23.0411L24.0035 20.7332C24.0292 20.6816 24.0688 20.6382 24.1178 20.6079C24.1668 20.5776 24.2233 20.5615 24.2809 20.5615C24.3385 20.5615 24.395 20.5776 24.444 20.6079C24.493 20.6382 24.5325 20.6816 24.5582 20.7332L25.5205 23.0411L27.8286 24.0034C27.8801 24.0291 27.9235 24.0686 27.9538 24.1176C27.9842 24.1666 28.0002 24.2231 28.0002 24.2807C28.0002 24.3383 27.9842 24.3948 27.9538 24.4438C27.9235 24.4928 27.8801 24.5324 27.8286 24.5581L25.5205 25.5203L24.5582 27.8282C24.5325 27.8798 24.493 27.9232 24.444 27.9535C24.395 27.9838 24.3385 27.9999 24.2809 27.9999C24.2233 27.9999 24.1668 27.9838 24.1178 27.9535C24.0688 27.9232 24.0292 27.8798 24.0035 27.8282L23.0412 25.5203Z" fill="#ECC800"/>
</g>
</svg>
