<svg width="154" height="95" viewBox="0 0 154 95" fill="none" xmlns="http://www.w3.org/2000/svg">
<path d="M149.5 28.1511L135.424 13.9224C132.536 11.0036 128.614 9.37402 124.523 9.37402H111.65C107.391 9.37402 103.95 12.8522 103.95 17.1573V59.9652H7.7C3.44094 59.9652 0 63.4433 0 67.7484V74.5101C0 84.4338 6.90594 93.5061 16.6272 94.8196C24.0144 95.8168 30.6556 92.5089 34.65 87.1093C39.0775 93.117 46.7775 96.5222 55.1753 94.3331C61.2391 92.7521 66.2681 87.9606 68.2653 81.9772C69.4444 78.3774 69.5647 74.875 68.9391 71.6644H108.209C107.559 74.875 107.68 78.3774 108.883 81.9772C110.904 88.0822 116.077 92.8981 122.262 94.4061C134.967 97.5194 146.324 87.8633 146.324 75.5317C146.324 74.1939 146.18 72.9048 145.939 71.6401H150.15C152.267 71.6401 154 69.8888 154 67.7484V39.145C154 35.0101 152.388 31.0698 149.5 28.1511ZM19.25 83.2906C15.015 83.2906 11.55 79.7882 11.55 75.5074C11.55 71.2266 15.015 67.7241 19.25 67.7241C23.485 67.7241 26.95 71.2266 26.95 75.5074C26.95 79.7882 23.485 83.2906 19.25 83.2906ZM50.05 83.2906C45.815 83.2906 42.35 79.7882 42.35 75.5074C42.35 71.2266 45.815 67.7241 50.05 67.7241C54.285 67.7241 57.75 71.2266 57.75 75.5074C57.75 79.7882 54.285 83.2906 50.05 83.2906ZM115.5 21.0246H124.523C125.558 21.0246 126.521 21.4381 127.242 22.1677L137.662 32.6995H115.5V21.0246ZM127.05 83.2906C122.815 83.2906 119.35 79.7882 119.35 75.5074C119.35 71.2266 122.815 67.7241 127.05 67.7241C131.285 67.7241 134.75 71.2266 134.75 75.5074C134.75 79.7882 131.285 83.2906 127.05 83.2906ZM142.45 59.9409H138.504C135.303 57.5329 131.357 56.0492 127.05 56.0492C122.743 56.0492 118.821 57.5329 115.596 59.9409H115.5V40.4827H142.45V59.9409Z" fill="black"/>
<rect width="98" height="52" rx="8" fill="black"/>
</svg>
