<svg viewBox="0 0 35 35" fill="none" xmlns="http://www.w3.org/2000/svg">
  <g id="1ST-VOYAGE">
    <circle cx="17.5" cy="17.5" r="17.5" fill="white"/>
    <path fill-rule="evenodd" clip-rule="evenodd" d="M8.4 20.1515C7.69927 19.7275 7.08769 19.1709 6.6 18.5166V22.7275C6.27 22.7275 6 22.9206 6 23.1566V23.5857C6 23.8217 6.27 24.0148 6.6 24.0148H29.4C29.73 24.0148 30 23.8217 30 23.5857V23.1566C30 22.9206 29.73 22.7275 29.4 22.7275V13.2873C29.73 13.2873 30 13.0942 30 12.8582V12.4291C30 12.1931 29.73 12 29.4 12H17.3413C17.5386 12.4066 17.6935 12.8377 17.8002 13.2873H27.6V22.7275H8.4V20.1515ZM15 20.1044C15.7056 19.6636 16.3177 19.0872 16.8 18.4116V21.2257C16.8 21.3437 16.665 21.4402 16.5 21.4402H15.3C15.135 21.4402 15 21.3437 15 21.2257V20.1044ZM10.8 21.0006V21.2257C10.8 21.3437 10.935 21.4402 11.1 21.4402H12.3C12.465 21.4402 12.6 21.3437 12.6 21.2257V20.9897C12.2939 21.0353 11.9806 21.059 11.6617 21.059C11.3694 21.059 11.0817 21.0391 10.8 21.0006ZM20.7 21.4402H19.5C19.335 21.4402 19.2 21.3437 19.2 21.2257V14.7892C19.2 14.6712 19.335 14.5746 19.5 14.5746H20.7C20.865 14.5746 21 14.6712 21 14.7892V21.2257C21 21.3437 20.865 21.4402 20.7 21.4402ZM24.9 21.4402H23.7C23.535 21.4402 23.4 21.3437 23.4 21.2257V14.7892C23.4 14.6712 23.535 14.5746 23.7 14.5746H24.9C25.065 14.5746 25.2 14.6712 25.2 14.7892V21.2257C25.2 21.3437 25.065 21.4402 24.9 21.4402Z" fill="black"/>
    <path d="M10.0695 16.9045H9.12943V12.9765L8.29757 13.3656L8 12.6387L9.33908 12.0073H10.0695V16.9045Z" fill="#0674BB"/>
    <path d="M12.1049 13.8722C11.7983 13.8722 11.645 13.9824 11.645 14.2026C11.645 14.3201 11.6968 14.4204 11.8005 14.5037C11.9042 14.5869 12.0282 14.6603 12.1725 14.7239C12.3213 14.7827 12.4678 14.8512 12.6121 14.9295C12.7609 15.0029 12.8871 15.1106 12.9908 15.2526C13.0945 15.3945 13.1464 15.5683 13.1464 15.7738C13.1464 16.141 13.0314 16.4395 12.8014 16.6696C12.5715 16.8947 12.2334 17.0073 11.787 17.0073C11.5841 17.0073 11.3699 16.9829 11.1445 16.9339C10.9236 16.885 10.7613 16.8287 10.6576 16.765L10.8875 16.0308C11.2392 16.1581 11.5548 16.2217 11.8343 16.2217C12.1184 16.2217 12.2604 16.1018 12.2604 15.862C12.2604 15.7592 12.2086 15.6662 12.1049 15.5829C12.0012 15.4997 11.8749 15.4239 11.7261 15.3553C11.5818 15.2819 11.4353 15.2036 11.2865 15.1204C11.1422 15.0372 11.0183 14.9197 10.9146 14.768C10.8109 14.6162 10.759 14.44 10.759 14.2393C10.759 13.8624 10.874 13.5736 11.1039 13.373C11.3339 13.1723 11.663 13.0719 12.0913 13.0719C12.5197 13.0719 12.8556 13.1478 13.099 13.2995L12.8758 14.0264C12.5647 13.9236 12.3077 13.8722 12.1049 13.8722Z" fill="#0674BB"/>
    <path d="M14.0455 15.7004V13.8575L13.4368 13.8135V13.2114L14.0658 13.1527V12.2937L15.0126 12.2056V13.1454H16L15.9459 13.8575H15.0058V15.7959C15.0058 15.9378 15.0261 16.0406 15.0667 16.1042C15.1073 16.163 15.1929 16.1923 15.3237 16.1923C15.4544 16.1923 15.601 16.1703 15.7633 16.1263L15.9053 16.8531C15.6844 16.9559 15.459 17.0073 15.229 17.0073C15.0036 17.0073 14.8322 16.9926 14.715 16.9633C14.6023 16.9339 14.5076 16.8996 14.431 16.8605C14.3588 16.8213 14.2957 16.765 14.2416 16.6916C14.192 16.6133 14.1537 16.5448 14.1266 16.486C14.1041 16.4273 14.0861 16.3441 14.0725 16.2364C14.0545 16.0896 14.0455 15.9109 14.0455 15.7004Z" fill="#0674BB"/>
  </g>
</svg>
