<svg width="129" height="106" viewBox="0 0 129 106" fill="none" xmlns="http://www.w3.org/2000/svg">
<path fill-rule="evenodd" clip-rule="evenodd" d="M65 106C94.271 106 118 82.271 118 53C118 23.729 94.271 0 65 0C35.729 0 12 23.729 12 53C12 82.271 35.729 106 65 106ZM79.3418 42.0835C78.5752 41.9839 77.8086 41.9463 77.0176 41.9463C65.5933 41.9463 56.5679 50.582 56.5806 61.1919C56.5806 62.9663 56.8525 64.6787 57.3467 66.291C56.5806 66.353 55.8511 66.3906 55.0845 66.3906C52.5479 66.3906 50.4482 65.958 48.0508 65.4634C47.5967 65.3696 47.1323 65.2739 46.6523 65.1787L38.2451 69.4399L40.6313 62.1167C34.6226 57.855 31 52.3438 31 45.6704C31 34.0981 41.8184 25 55.0718 25C66.8916 25 77.2896 32.2856 79.3418 42.0835ZM67.0894 38.3843C67.0894 36.5474 65.8901 35.335 64.0977 35.335C62.2798 35.335 60.4873 36.5474 60.4751 38.3843C60.4751 40.1968 62.2676 41.4087 64.0977 41.4087C65.8901 41.4087 67.0894 40.1968 67.0894 38.3843ZM43.6108 38.3843C43.6108 40.1968 45.4409 41.4087 47.2334 41.4087C49.0635 41.4087 50.25 40.209 50.25 38.3843C50.25 36.5474 49.0635 35.335 47.2334 35.335C45.4409 35.335 43.6108 36.5352 43.6108 38.3843ZM78.5508 43.2583C89.3687 43.2583 99 51.1816 99 60.917C99 66.3906 95.4146 71.252 90.5679 74.9263L92.3979 81L85.7954 77.3384C83.3599 77.938 80.9365 78.5757 78.5508 78.5757C67.1021 78.5757 58.1011 70.6523 58.1011 60.917C58.1011 51.1816 67.0894 43.2583 78.5508 43.2583ZM69.5249 55.4058C69.5249 56.6431 70.7119 57.855 71.9111 57.855C73.7285 57.855 74.9282 56.6553 74.9282 55.4058C74.9282 54.2061 73.7412 52.9937 71.9111 52.9937C70.7241 52.9937 69.5249 54.1934 69.5249 55.4058ZM82.7666 55.4058C82.7666 56.6431 83.9536 57.855 85.1528 57.855C86.9453 57.855 88.1816 56.6553 88.1694 55.4058C88.1694 54.2061 86.9453 52.9937 85.1528 52.9937C83.9658 52.9937 82.7666 54.1934 82.7666 55.4058Z" fill="white"/>
</svg>
